<?xml version="1.0" encoding="UTF-8" standalone="no"?>
<!-- Generated by graphviz version 2.36.0 (20140111.2315)
 -->

<!-- Title: %3 Pages: 1 -->

<svg
   xmlns:dc="http://purl.org/dc/elements/1.1/"
   xmlns:cc="http://creativecommons.org/ns#"
   xmlns:rdf="http://www.w3.org/1999/02/22-rdf-syntax-ns#"
   xmlns:svg="http://www.w3.org/2000/svg"
   xmlns="http://www.w3.org/2000/svg"
   xmlns:sodipodi="http://sodipodi.sourceforge.net/DTD/sodipodi-0.dtd"
   xmlns:inkscape="http://www.inkscape.org/namespaces/inkscape"
   width="607.51636"
   height="266.04663"
   viewBox="0 0 486.38462 212.8373"
   id="svg2"
   version="1.1"
   inkscape:version="0.48.4 r9939"
   sodipodi:docname="genealogy-gv.svg">
  <metadata
     id="metadata113">
    <rdf:RDF>
      <cc:Work
         rdf:about="">
        <dc:format>image/svg+xml</dc:format>
        <dc:type
           rdf:resource="http://purl.org/dc/dcmitype/StillImage" />
      </cc:Work>
    </rdf:RDF>
  </metadata>
  <defs
     id="defs111" />
  <sodipodi:namedview
     pagecolor="#ffffff"
     bordercolor="#666666"
     borderopacity="1"
     objecttolerance="10"
     gridtolerance="10"
     guidetolerance="10"
     inkscape:pageopacity="0"
     inkscape:pageshadow="2"
     inkscape:window-width="1276"
     inkscape:window-height="775"
     id="namedview109"
     showgrid="false"
     inkscape:zoom="0.85818182"
     inkscape:cx="64.835325"
     inkscape:cy="133.02331"
     inkscape:window-x="0"
     inkscape:window-y="21"
     inkscape:window-maximized="1"
     inkscape:current-layer="svg2"
     fit-margin-top="0"
     fit-margin-left="0"
     fit-margin-right="0"
     fit-margin-bottom="0" />
  <ellipse
     cx="282.37201"
     cy="-194"
     rx="27"
     ry="18"
     id="ellipse12"
     d="m 309.37201,-194 c 0,9.94113 -12.08831,18 -27,18 -14.91169,0 -27,-8.05887 -27,-18 0,-9.94113 12.08831,-18 27,-18 14.91169,0 27,8.05887 27,18 z"
     sodipodi:cx="282.37201"
     sodipodi:cy="-194"
     sodipodi:rx="27"
     sodipodi:ry="18"
     style="fill:none;stroke:#0000ff;stroke-width:0.99996384;stroke-miterlimit:4;stroke-dasharray:none"
     transform="translate(22.229643,212.41591)" />
  <text
     x="304.60165"
     y="22.115906"
     font-size="14.00"
     id="text14"
     style="font-size:14px;font-style:normal;font-variant:normal;font-weight:bold;font-stretch:normal;text-anchor:middle;font-family:Karla;-inkscape-font-specification:Karla Bold">I</text>
  <ellipse
     cx="151.37199"
     cy="-106"
     rx="27"
     ry="18"
     id="ellipse19"
     d="m 178.37199,-106 c 0,9.941125 -12.08831,18 -27,18 -14.91168,0 -27,-8.058875 -27,-18 0,-9.94113 12.08832,-18 27,-18 14.91169,0 27,8.05887 27,18 z"
     sodipodi:cx="151.37199"
     sodipodi:cy="-106"
     sodipodi:rx="27"
     sodipodi:ry="18"
     style="fill:none;stroke:#0000ff;stroke-width:0.99996384;stroke-miterlimit:4;stroke-dasharray:none"
     transform="translate(22.229643,212.41591)" />
  <text
     x="173.60164"
     y="110.11591"
     font-size="14.00"
     id="text21"
     style="font-size:14px;font-style:normal;font-variant:normal;font-weight:bold;font-stretch:normal;text-anchor:middle;font-family:Karla;-inkscape-font-specification:Karla Bold">girl</text>
  <path
     d="m 278.16264,22.786909 c -34.196,4.96 -90.89,15.427 -103.561,31.629 -5.274,6.745 -6.707,15.67 -6.448,24.166"
     id="path26"
     inkscape:connector-curvature="0"
     style="fill:none;stroke:#000000;stroke-width:1" />
  <polygon
     points="149.409,-134.161 146.935,-123.859 142.444,-133.455 149.409,-134.161 "
     id="polygon28"
     style="fill:#000000;stroke:#000000;stroke-width:1"
     transform="translate(22.229643,212.41591)" />
  <text
     x="180.88249"
     y="32.53093"
     font-size="14.00"
     id="text30"
     style="font-size:14px;font-style:normal;font-variant:normal;font-weight:normal;font-stretch:normal;text-anchor:middle;font-family:Karla;-inkscape-font-specification:Karla">ambivalentOf</text>
  <path
     d="m 196.87964,97.166909 c 15.842,-6.16 36.904,-15.448 53.722,-26.751 12.161,-8.173 24.165,-19.138 33.756,-28.806"
     id="path35"
     inkscape:connector-curvature="0"
     style="fill:none;stroke:#000000;stroke-width:1" />
  <polygon
     points="259.798,-173.433 269.258,-178.204 264.838,-168.575 259.798,-173.433 "
     id="polygon37"
     style="fill:#000000;stroke:#000000;stroke-width:1"
     transform="translate(22.229643,212.41591)" />
  <text
     x="251.75461"
     y="68.91465"
     font-size="14.00"
     id="text39"
     style="font-size:14px;font-style:normal;font-variant:normal;font-weight:normal;font-stretch:normal;text-anchor:middle;font-family:Karla;-inkscape-font-specification:Karla">victimOf</text>
  <ellipse
     cx="250.37199"
     cy="-18"
     rx="36.096001"
     ry="18"
     id="ellipse44"
     d="m 286.46799,-18 c 0,9.9411255 -16.16073,18 -36.096,18 -19.93527,0 -36.096,-8.0588745 -36.096,-18 0,-9.941125 16.16073,-18 36.096,-18 19.93527,0 36.096,8.058875 36.096,18 z"
     sodipodi:cx="250.37199"
     sodipodi:cy="-18"
     sodipodi:rx="36.096001"
     sodipodi:ry="18"
     style="fill:none;stroke:#0000ff;stroke-width:0.99996384;stroke-miterlimit:4;stroke-dasharray:none"
     transform="translate(22.229643,212.41591)" />
  <text
     x="272.60162"
     y="198.11591"
     font-size="14.00"
     id="text46"
     style="font-size:14px;font-style:normal;font-variant:normal;font-weight:bold;font-stretch:normal;text-anchor:middle;font-family:Karla;-inkscape-font-specification:Karla Bold">warden</text>
  <path
     d="m 198.55564,113.64811 c 16.59,5.2603 37.857,14.3007 52.046,28.7678 6.601,6.7293 11.368,15.7554 14.74,24.3431"
     id="path51"
     inkscape:connector-curvature="0"
     style="fill:none;stroke:#000000;stroke-width:1" />
  <polygon
     points="246.511,-46.5356 246.456,-35.9409 239.892,-44.2577 246.511,-46.5356 "
     id="polygon53"
     style="fill:#000000;stroke:#000000;stroke-width:1"
     transform="translate(22.229643,212.41591)" />
  <text
     x="239.02295"
     y="135.45758"
     font-size="14.00"
     id="text55"
     style="font-size:14px;font-style:normal;font-variant:normal;font-weight:normal;font-stretch:normal;text-anchor:middle;font-family:Karla;-inkscape-font-specification:Karla">victimOf</text>
  <ellipse
     cx="78.372398"
     cy="-18"
     rx="39.9464"
     ry="18"
     id="ellipse60"
     d="m 118.3188,-18 c 0,9.9411255 -17.88461,18 -39.946402,18 -22.061787,0 -39.946399,-8.0588745 -39.946399,-18 0,-9.941125 17.884612,-18 39.946399,-18 22.061792,0 39.946402,8.058875 39.946402,18 z"
     sodipodi:cx="78.372398"
     sodipodi:cy="-18"
     sodipodi:rx="39.9464"
     sodipodi:ry="18"
     style="fill:none;stroke:#0000ff;stroke-width:0.99996384;stroke-miterlimit:4;stroke-dasharray:none"
     transform="translate(22.229643,212.41591)" />
  <text
     x="100.60204"
     y="198.11591"
     font-size="14.00"
     id="text62"
     style="font-size:14px;font-style:normal;font-variant:normal;font-weight:bold;font-stretch:normal;text-anchor:middle;font-family:Karla;-inkscape-font-specification:Karla Bold">husband</text>
  <path
     d="m 146.93264,109.87091 c -38.2236,4.132 -105.614597,13.9138 -120.330567,32.545 -13.00497,16.4649 8.07097,29.7044 31.01187,38.564"
     id="path67"
     inkscape:connector-curvature="0"
     style="fill:none;stroke:#000000;stroke-width:1" />
  <polygon
     points="36.6577,-34.6977 44.8885,-28.0266 34.294,-28.1088 36.6577,-34.6977 "
     id="polygon69"
     style="fill:#000000;stroke:#000000;stroke-width:1"
     transform="translate(22.229643,212.41591)" />
  <text
     x="29.27914"
     y="155.98174"
     font-size="14.00"
     id="text71"
     style="font-size:14px;font-style:normal;font-variant:normal;font-weight:normal;font-stretch:normal;text-anchor:middle;font-family:Karla;-inkscape-font-specification:Karla">spouseOf</text>
  <path
     d="m 148.04264,112.67461 c -16.283,4.8041 -36.182,13.6999 -46.4406,29.7413 -4.378997,6.8475 -5.746597,15.3405 -5.699297,23.4189"
     id="path76"
     inkscape:connector-curvature="0"
     style="fill:none;stroke:#000000;stroke-width:1" />
  <polygon
     points="77.1808,-46.6011 74.4161,-36.3734 70.1993,-46.0929 77.1808,-46.6011 "
     id="polygon78"
     style="fill:#000000;stroke:#000000;stroke-width:1"
     transform="translate(22.229643,212.41591)" />
  <text
     x="107.01041"
     y="140.12216"
     font-size="14.00"
     id="text80"
     style="font-size:14px;font-style:normal;font-variant:normal;font-weight:normal;font-stretch:normal;text-anchor:middle;font-family:Karla;-inkscape-font-specification:Karla">victimOf</text>
  <path
     d="m 306.74064,188.07471 c 34.889,-7.496 87.204,-24.8603 110.861,-63.6588 24.653,-40.431001 -38.662,-75.104001 -80.184,-92.684001"
     id="path85"
     inkscape:connector-curvature="0"
     style="fill:none;stroke:#000000;stroke-width:1" />
  <polygon
     points="313.607,-177.549 305.678,-184.576 316.259,-184.027 313.607,-177.549 "
     id="polygon87"
     style="fill:#000000;stroke:#000000;stroke-width:1"
     transform="translate(22.229643,212.41591)" />
  <text
     x="442.87625"
     y="111.04882"
     font-size="14.00"
     id="text89"
     style="font-size:14px;font-style:normal;font-variant:normal;font-weight:normal;font-stretch:normal;text-anchor:middle;font-family:Karla;-inkscape-font-specification:Karla">ambivalentOf</text>
  <path
     d="m 237.16464,190.61871 c -21.844,-3.7545 -48.318,-12.405 -62.563,-32.2028 -4.873,-6.773 -6.294,-15.4687 -6.145,-23.7544"
     id="path94"
     inkscape:connector-curvature="0"
     style="fill:none;stroke:#000000;stroke-width:1" />
  <polygon
     points="142.753,-78.1997 147.115,-87.8547 149.726,-77.5866 142.753,-78.1997 "
     id="polygon96"
     style="fill:#000000;stroke:#000000;stroke-width:1"
     transform="translate(22.229643,212.41591)" />
  <text
     x="187.4129"
     y="167.17673"
     font-size="14.00"
     id="text98"
     style="font-size:14px;font-style:normal;font-variant:normal;font-weight:normal;font-stretch:normal;text-anchor:middle;font-family:Karla;-inkscape-font-specification:Karla">ambivalentOf</text>
  <path
     d="m 138.69164,188.43941 c 60.136,-8.0291 170.917,-23.5903 176.91,-30.0235 33.074,-35.4994 16.037,-72.350001 8,-104.000001 -0.877,-3.455 -2.172,-6.939 -3.68,-10.299"
     id="path103"
     inkscape:connector-curvature="0"
     style="fill:none;stroke:#000000;stroke-width:1" />
  <polygon
     points="294.515,-166.823 293.044,-177.315 300.737,-170.03 294.515,-166.823 "
     id="polygon105"
     style="fill:#000000;stroke:#000000;stroke-width:1"
     transform="translate(22.229643,212.41591)" />
  <text
     x="328.82169"
     y="107.31716"
     font-size="14.00"
     id="text107"
     style="font-size:14px;font-style:normal;font-variant:normal;font-weight:normal;font-stretch:normal;text-anchor:middle;font-family:Karla;-inkscape-font-specification:Karla">ambivalentOf</text>
</svg>
