<?xml version="1.0" encoding="UTF-8" standalone="no"?>
<!DOCTYPE svg PUBLIC "-//W3C//DTD SVG 1.1//EN"
 "http://www.w3.org/Graphics/SVG/1.1/DTD/svg11.dtd">
<!-- Generated by graphviz version 2.30.1 (20130303.0813)
 -->
<!-- Title: %971 Pages: 1 -->
<svg width="1472pt" height="1132pt"
 viewBox="0.00 0.00 1471.83 1132.15" xmlns="http://www.w3.org/2000/svg" xmlns:xlink="http://www.w3.org/1999/xlink">
<g id="graph0" class="graph" transform="scale(1 1) rotate(0) translate(4 1128.15)">
<title>%971</title>
<polygon fill="white" stroke="white" points="-4,5 -4,-1128.15 1468.83,-1128.15 1468.83,5 -4,5"/>
<!-- Pensionnat -->
<g id="node1" class="node"><title>Pensionnat</title>
<ellipse fill="pink" stroke="black" cx="257.526" cy="-282.148" rx="53.3302" ry="18"/>
<text text-anchor="middle" x="257.526" y="-277.948" font-family="Montserrat" font-size="14.00">Pensionnat</text>
</g>
<!-- Absences -->
<g id="node12" class="node"><title>Absences</title>
<ellipse fill="none" stroke="black" cx="48.0361" cy="-310.109" rx="48.0723" ry="18"/>
<text text-anchor="middle" x="48.0361" y="-305.909" font-family="Montserrat" font-size="14.00">Absences</text>
</g>
<!-- Pensionnat&#45;&gt;Absences -->
<g id="edge1" class="edge"><title>Pensionnat&#45;&gt;Absences</title>
<path fill="none" stroke="black" d="M207.614,-288.81C176.382,-292.979 136.092,-298.356 103.811,-302.665"/>
<polygon fill="black" stroke="black" points="103.082,-299.231 93.6325,-304.023 104.008,-306.169 103.082,-299.231"/>
</g>
<!-- Julia et son bazooka -->
<g id="node13" class="node"><title>Julia et son bazooka</title>
<ellipse fill="none" stroke="black" cx="560.286" cy="-390.436" rx="89.1486" ry="18"/>
<text text-anchor="middle" x="560.286" y="-386.236" font-family="Montserrat" font-size="14.00">Julia et son bazooka</text>
</g>
<!-- Pensionnat&#45;&gt;Julia et son bazooka -->
<g id="edge2" class="edge"><title>Pensionnat&#45;&gt;Julia et son bazooka</title>
<path fill="none" stroke="black" d="M294.347,-295.318C347.451,-314.312 445.849,-349.505 506.917,-371.348"/>
<polygon fill="black" stroke="black" points="505.791,-374.662 516.385,-374.734 508.148,-368.071 505.791,-374.662"/>
</g>
<!-- Laissez&#45;moi ma solitude -->
<g id="node14" class="node"><title>Laissez&#45;moi ma solitude</title>
<ellipse fill="none" stroke="black" cx="114.2" cy="-126.172" rx="105.372" ry="18"/>
<text text-anchor="middle" x="114.2" y="-121.972" font-family="Montserrat" font-size="14.00">Laissez&#45;moi ma solitude</text>
</g>
<!-- Pensionnat&#45;&gt;Laissez&#45;moi ma solitude -->
<g id="edge3" class="edge"><title>Pensionnat&#45;&gt;Laissez&#45;moi ma solitude</title>
<path fill="none" stroke="black" d="M241.64,-264.86C216.376,-237.367 166.91,-183.534 137.591,-151.627"/>
<polygon fill="black" stroke="black" points="139.941,-149.012 130.598,-144.017 134.787,-153.748 139.941,-149.012"/>
</g>
<!-- Montagnes -->
<g id="node2" class="node"><title>Montagnes</title>
<ellipse fill="pink" stroke="black" cx="586.509" cy="-606.376" rx="53.8943" ry="18"/>
<text text-anchor="middle" x="586.509" y="-602.176" font-family="Montserrat" font-size="14.00">Montagnes</text>
</g>
<!-- Hier et aujourd’hui -->
<g id="node15" class="node"><title>Hier et aujourd’hui</title>
<ellipse fill="none" stroke="black" cx="413.995" cy="-757.554" rx="89.1486" ry="18"/>
<text text-anchor="middle" x="413.995" y="-753.354" font-family="Montserrat" font-size="14.00">Hier et aujourd’hui</text>
</g>
<!-- Montagnes&#45;&gt;Hier et aujourd’hui -->
<g id="edge4" class="edge"><title>Montagnes&#45;&gt;Hier et aujourd’hui</title>
<path fill="none" stroke="black" d="M567.055,-623.425C536.416,-650.274 476.802,-702.515 441.698,-733.278"/>
<polygon fill="black" stroke="black" points="439.391,-730.646 434.177,-739.869 444.004,-735.91 439.391,-730.646"/>
</g>
<!-- Sur les Cîmes -->
<g id="node16" class="node"><title>Sur les Cîmes</title>
<ellipse fill="none" stroke="black" cx="686.545" cy="-429.129" rx="70.6606" ry="18"/>
<text text-anchor="middle" x="686.545" y="-424.929" font-family="Montserrat" font-size="14.00">Sur les Cîmes</text>
</g>
<!-- Montagnes&#45;&gt;Sur les Cîmes -->
<g id="edge5" class="edge"><title>Montagnes&#45;&gt;Sur les Cîmes</title>
<path fill="none" stroke="black" d="M596.652,-588.406C614.252,-557.22 650.546,-492.913 671.229,-456.266"/>
<polygon fill="black" stroke="black" points="674.509,-457.576 676.376,-447.147 668.413,-454.135 674.509,-457.576"/>
</g>
<!-- Montagnes&#45;&gt;Julia et son bazooka -->
<g id="edge6" class="edge"><title>Montagnes&#45;&gt;Julia et son bazooka</title>
<path fill="none" stroke="black" d="M584.319,-588.337C579.749,-550.706 569.171,-463.602 563.7,-418.553"/>
<polygon fill="black" stroke="black" points="567.169,-418.081 562.489,-408.576 560.22,-418.925 567.169,-418.081"/>
</g>
<!-- Neige -->
<g id="node17" class="node"><title>Neige</title>
<ellipse fill="none" stroke="black" cx="357.431" cy="-606.308" rx="34.1871" ry="18"/>
<text text-anchor="middle" x="357.431" y="-602.108" font-family="Montserrat" font-size="14.00">Neige</text>
</g>
<!-- Montagnes&#45;&gt;Neige -->
<g id="edge7" class="edge"><title>Montagnes&#45;&gt;Neige</title>
<path fill="none" stroke="black" d="M532.511,-606.36C492.732,-606.348 439.282,-606.333 401.943,-606.321"/>
<polygon fill="black" stroke="black" points="401.865,-602.821 391.864,-606.318 401.863,-609.821 401.865,-602.821"/>
</g>
<!-- Environnements -->
<g id="node18" class="node"><title>Environnements</title>
<ellipse fill="none" stroke="black" cx="918.859" cy="-672.23" rx="74.1605" ry="18"/>
<text text-anchor="middle" x="918.859" y="-668.03" font-family="Montserrat" font-size="14.00">Environnements</text>
</g>
<!-- Montagnes&#45;&gt;Environnements -->
<g id="edge47" class="edge"><title>Montagnes&#45;&gt;Environnements</title>
<path fill="none" stroke="blue" d="M633.071,-615.602C689.794,-626.842 786.072,-645.919 851.031,-658.79"/>
<polygon fill="blue" stroke="blue" points="850.687,-662.29 861.177,-660.8 852.048,-655.423 850.687,-662.29"/>
</g>
<!-- Automobile -->
<g id="node3" class="node"><title>Automobile</title>
<ellipse fill="pink" stroke="black" cx="879.829" cy="-266.363" rx="57.3437" ry="18"/>
<text text-anchor="middle" x="879.829" y="-262.163" font-family="Montserrat" font-size="14.00">Automobile</text>
</g>
<!-- Une Vieille adresse -->
<g id="node19" class="node"><title>Une Vieille adresse</title>
<ellipse fill="none" stroke="black" cx="1030.22" cy="-239.019" rx="86.7914" ry="18"/>
<text text-anchor="middle" x="1030.22" y="-234.819" font-family="Montserrat" font-size="14.00">Une Vieille adresse</text>
</g>
<!-- Automobile&#45;&gt;Une Vieille adresse -->
<g id="edge22" class="edge"><title>Automobile&#45;&gt;Une Vieille adresse</title>
<path fill="none" stroke="black" d="M929.489,-257.333C937.606,-255.858 946.174,-254.3 954.746,-252.741"/>
<polygon fill="black" stroke="black" points="955.573,-256.148 964.785,-250.916 954.32,-249.261 955.573,-256.148"/>
</g>
<!-- Brouillard -->
<g id="node20" class="node"><title>Brouillard</title>
<ellipse fill="none" stroke="black" cx="983.564" cy="-106.267" rx="50.9599" ry="18"/>
<text text-anchor="middle" x="983.564" y="-102.067" font-family="Montserrat" font-size="14.00">Brouillard</text>
</g>
<!-- Automobile&#45;&gt;Brouillard -->
<g id="edge23" class="edge"><title>Automobile&#45;&gt;Brouillard</title>
<path fill="none" stroke="black" d="M891.326,-248.618C909.553,-220.489 945.185,-165.498 966.43,-132.709"/>
<polygon fill="black" stroke="black" points="969.514,-134.386 972.015,-124.091 963.639,-130.58 969.514,-134.386"/>
</g>
<!-- Expérimental -->
<g id="node21" class="node"><title>Expérimental</title>
<ellipse fill="none" stroke="black" cx="954.113" cy="-434.784" rx="63.9504" ry="18"/>
<text text-anchor="middle" x="954.113" y="-430.584" font-family="Montserrat" font-size="14.00">Expérimental</text>
</g>
<!-- Automobile&#45;&gt;Expérimental -->
<g id="edge24" class="edge"><title>Automobile&#45;&gt;Expérimental</title>
<path fill="none" stroke="black" d="M887.778,-284.387C900.791,-313.891 926.72,-372.676 942.022,-407.371"/>
<polygon fill="black" stroke="black" points="938.982,-409.152 946.22,-416.889 945.387,-406.327 938.982,-409.152"/>
</g>
<!-- Le Monde des héros -->
<g id="node29" class="node"><title>Le Monde des héros</title>
<ellipse fill="none" stroke="black" cx="800.595" cy="-319.464" rx="90.0441" ry="18"/>
<text text-anchor="middle" x="800.595" y="-315.264" font-family="Montserrat" font-size="14.00">Le Monde des héros</text>
</g>
<!-- Automobile&#45;&gt;Le Monde des héros -->
<g id="edge25" class="edge"><title>Automobile&#45;&gt;Le Monde des héros</title>
<path fill="none" stroke="black" d="M855.193,-282.873C848.804,-287.155 841.807,-291.845 835.016,-296.396"/>
<polygon fill="black" stroke="black" points="832.945,-293.57 826.587,-302.045 836.842,-299.385 832.945,-293.57"/>
</g>
<!-- Mercedes -->
<g id="node22" class="node"><title>Mercedes</title>
<ellipse fill="none" stroke="black" cx="1101.9" cy="-121.766" rx="48.6327" ry="18"/>
<text text-anchor="middle" x="1101.9" y="-117.566" font-family="Montserrat" font-size="14.00">Mercedes</text>
</g>
<!-- Automobile&#45;&gt;Mercedes -->
<g id="edge26" class="edge"><title>Automobile&#45;&gt;Mercedes</title>
<path fill="none" stroke="black" d="M904.871,-250.057C945.175,-223.814 1024.43,-172.21 1069.16,-143.083"/>
<polygon fill="black" stroke="black" points="1071.15,-145.962 1077.62,-137.572 1067.33,-140.096 1071.15,-145.962"/>
</g>
<!-- Clarita -->
<g id="node23" class="node"><title>Clarita</title>
<ellipse fill="none" stroke="black" cx="1094.54" cy="-506.45" rx="37.1328" ry="18"/>
<text text-anchor="middle" x="1094.54" y="-502.25" font-family="Montserrat" font-size="14.00">Clarita</text>
</g>
<!-- Automobile&#45;&gt;Clarita -->
<g id="edge27" class="edge"><title>Automobile&#45;&gt;Clarita</title>
<path fill="none" stroke="black" d="M895.616,-284.017C933.504,-326.383 1029.63,-433.873 1072.88,-482.229"/>
<polygon fill="black" stroke="black" points="1070.31,-484.612 1079.59,-489.733 1075.53,-479.946 1070.31,-484.612"/>
</g>
<!-- Automobile&#45;&gt;Sur les Cîmes -->
<g id="edge28" class="edge"><title>Automobile&#45;&gt;Sur les Cîmes</title>
<path fill="none" stroke="black" d="M889.694,-284.178C894.212,-294.792 897.55,-308.344 892.464,-319.597 867.998,-373.736 803.939,-401.796 753.705,-415.887"/>
<polygon fill="black" stroke="black" points="752.614,-412.556 743.859,-418.523 754.424,-419.318 752.614,-412.556"/>
</g>
<!-- Automobile&#45;&gt;Julia et son bazooka -->
<g id="edge29" class="edge"><title>Automobile&#45;&gt;Julia et son bazooka</title>
<path fill="none" stroke="black" d="M832.851,-276.837C804.428,-283.742 767.689,-293.685 736.073,-305.512 687.845,-323.553 634.949,-350.09 599.911,-368.685"/>
<polygon fill="black" stroke="black" points="598.131,-365.668 590.962,-373.468 601.431,-371.841 598.131,-365.668"/>
</g>
<!-- Mal&#45;aimée -->
<g id="node30" class="node"><title>Mal&#45;aimée</title>
<ellipse fill="none" stroke="black" cx="806.412" cy="-18" rx="53.5541" ry="18"/>
<text text-anchor="middle" x="806.412" y="-13.8" font-family="Montserrat" font-size="14.00">Mal&#45;aimée</text>
</g>
<!-- Automobile&#45;&gt;Mal&#45;aimée -->
<g id="edge30" class="edge"><title>Automobile&#45;&gt;Mal&#45;aimée</title>
<path fill="none" stroke="black" d="M874.43,-248.1C861.697,-205.026 829.727,-96.8735 814.596,-45.6835"/>
<polygon fill="black" stroke="black" points="817.911,-44.5521 811.72,-35.9545 811.198,-46.5365 817.911,-44.5521"/>
</g>
<!-- Chambre -->
<g id="node4" class="node"><title>Chambre</title>
<ellipse fill="pink" stroke="black" cx="773.198" cy="-542.397" rx="46.3682" ry="18"/>
<text text-anchor="middle" x="773.198" y="-538.197" font-family="Montserrat" font-size="14.00">Chambre</text>
</g>
<!-- maison -->
<g id="node9" class="node"><title>maison</title>
<ellipse fill="yellow" stroke="black" cx="1034.12" cy="-617.059" rx="38.8632" ry="18"/>
<text text-anchor="middle" x="1034.12" y="-612.859" font-family="Montserrat" font-size="14.00">maison</text>
</g>
<!-- Chambre&#45;&gt;maison -->
<g id="edge34" class="edge"><title>Chambre&#45;&gt;maison</title>
<path fill="none" stroke="yellow" d="M810.581,-553.094C858.304,-566.75 940.697,-590.326 991.015,-604.725"/>
<polygon fill="yellow" stroke="yellow" points="990.359,-608.177 1000.94,-607.564 992.284,-601.447 990.359,-608.177"/>
</g>
<!-- hôpital -->
<g id="node10" class="node"><title>hôpital</title>
<ellipse fill="yellow" stroke="black" cx="1046.22" cy="-398.352" rx="38.8211" ry="18"/>
<text text-anchor="middle" x="1046.22" y="-394.152" font-family="Montserrat" font-size="14.00">hôpital</text>
</g>
<!-- Chambre&#45;&gt;hôpital -->
<g id="edge38" class="edge"><title>Chambre&#45;&gt;hôpital</title>
<path fill="none" stroke="yellow" d="M808.562,-530.654C854.21,-514.861 935.454,-484.576 1000.12,-448.699 1009.35,-443.575 1011.93,-442.288 1019.44,-434.863 1022.73,-431.604 1025.93,-427.909 1028.91,-424.152"/>
<polygon fill="yellow" stroke="yellow" points="1031.83,-426.083 1035,-415.973 1026.22,-421.902 1031.83,-426.083"/>
</g>
<!-- hôtel -->
<g id="node11" class="node"><title>hôtel</title>
<ellipse fill="yellow" stroke="black" cx="638.285" cy="-261.207" rx="31.2968" ry="18"/>
<text text-anchor="middle" x="638.285" y="-257.007" font-family="Montserrat" font-size="14.00">hôtel</text>
</g>
<!-- Chambre&#45;&gt;hôtel -->
<g id="edge43" class="edge"><title>Chambre&#45;&gt;hôtel</title>
<path fill="none" stroke="yellow" d="M773.572,-524.08C773.438,-501.121 771.189,-460.933 758.724,-429.226 736.063,-371.582 689.221,-315.3 661.099,-284.74"/>
<polygon fill="yellow" stroke="yellow" points="663.423,-282.101 654.039,-277.182 658.307,-286.879 663.423,-282.101"/>
</g>
<!-- Chambre&#45;&gt;Julia et son bazooka -->
<g id="edge46" class="edge"><title>Chambre&#45;&gt;Julia et son bazooka</title>
<path fill="none" stroke="black" d="M750.815,-526.422C713.08,-499.489 636.651,-444.939 592.931,-413.735"/>
<polygon fill="black" stroke="black" points="594.817,-410.781 584.644,-407.821 590.75,-416.479 594.817,-410.781"/>
</g>
<!-- Fenêtre -->
<g id="node31" class="node"><title>Fenêtre</title>
<ellipse fill="none" stroke="black" cx="653.308" cy="-875.817" rx="43.4144" ry="18"/>
<text text-anchor="middle" x="653.308" y="-871.617" font-family="Montserrat" font-size="14.00">Fenêtre</text>
</g>
<!-- Chambre&#45;&gt;Fenêtre -->
<g id="edge48" class="edge"><title>Chambre&#45;&gt;Fenêtre</title>
<path fill="none" stroke="blue" d="M766.752,-560.323C746.992,-615.276 687.164,-781.662 663.296,-848.04"/>
<polygon fill="blue" stroke="blue" points="659.876,-847.208 659.786,-857.802 666.463,-849.576 659.876,-847.208"/>
</g>
<!-- la ville -->
<g id="node5" class="node"><title>la ville</title>
<ellipse fill="yellow" stroke="black" cx="1134.16" cy="-317.523" rx="37.6748" ry="18"/>
<text text-anchor="middle" x="1134.16" y="-313.323" font-family="Montserrat" font-size="14.00">la ville</text>
</g>
<!-- la ville&#45;&gt;Une Vieille adresse -->
<g id="edge9" class="edge"><title>la ville&#45;&gt;Une Vieille adresse</title>
<path fill="none" stroke="black" d="M1113.62,-302.014C1098.67,-290.724 1078.17,-275.236 1061.23,-262.443"/>
<polygon fill="black" stroke="black" points="1063.33,-259.644 1053.24,-256.41 1059.11,-265.23 1063.33,-259.644"/>
</g>
<!-- la ville&#45;&gt;Brouillard -->
<g id="edge10" class="edge"><title>la ville&#45;&gt;Brouillard</title>
<path fill="none" stroke="black" d="M1133.53,-299.381C1132.29,-282.798 1128.69,-258.049 1118.46,-239.117 1093.4,-192.723 1046.78,-152.307 1015.46,-128.594"/>
<polygon fill="black" stroke="black" points="1017.17,-125.51 1007.06,-122.358 1013,-131.13 1017.17,-125.51"/>
</g>
<!-- la ville&#45;&gt;Expérimental -->
<g id="edge11" class="edge"><title>la ville&#45;&gt;Expérimental</title>
<path fill="none" stroke="black" d="M1108.57,-330.848C1084.57,-343.666 1047.99,-364.051 1017.91,-384.418 1005.8,-392.615 993.05,-402.425 982.153,-411.201"/>
<polygon fill="black" stroke="black" points="979.763,-408.634 974.224,-417.666 984.186,-414.059 979.763,-408.634"/>
</g>
<!-- la ville&#45;&gt;Mercedes -->
<g id="edge12" class="edge"><title>la ville&#45;&gt;Mercedes</title>
<path fill="none" stroke="black" d="M1131.18,-299.458C1125.54,-265.224 1113.25,-190.686 1106.53,-149.869"/>
<polygon fill="black" stroke="black" points="1109.95,-149.085 1104.87,-139.787 1103.04,-150.223 1109.95,-149.085"/>
</g>
<!-- la ville&#45;&gt;Clarita -->
<g id="edge13" class="edge"><title>la ville&#45;&gt;Clarita</title>
<path fill="none" stroke="black" d="M1130.36,-335.639C1123.42,-368.717 1108.66,-439.103 1100.42,-478.413"/>
<polygon fill="black" stroke="black" points="1096.95,-477.884 1098.32,-488.39 1103.8,-479.321 1096.95,-477.884"/>
</g>
<!-- Les Rayures du zèbre -->
<g id="node24" class="node"><title>Les Rayures du zèbre</title>
<ellipse fill="none" stroke="black" cx="1268.01" cy="-336.92" rx="98.358" ry="18"/>
<text text-anchor="middle" x="1268.01" y="-332.72" font-family="Montserrat" font-size="14.00">Les Rayures du zèbre</text>
</g>
<!-- la ville&#45;&gt;Les Rayures du zèbre -->
<g id="edge14" class="edge"><title>la ville&#45;&gt;Les Rayures du zèbre</title>
<path fill="none" stroke="black" d="M1170.38,-322.773C1173.69,-323.253 1177.14,-323.751 1180.66,-324.262"/>
<polygon fill="black" stroke="black" points="1180.38,-327.758 1190.78,-325.729 1181.39,-320.831 1180.38,-327.758"/>
</g>
<!-- Un Jardin en ville -->
<g id="node25" class="node"><title>Un Jardin en ville</title>
<ellipse fill="none" stroke="black" cx="1298.54" cy="-101.835" rx="79.9163" ry="18"/>
<text text-anchor="middle" x="1298.54" y="-97.6349" font-family="Montserrat" font-size="14.00">Un Jardin en ville</text>
</g>
<!-- la ville&#45;&gt;Un Jardin en ville -->
<g id="edge15" class="edge"><title>la ville&#45;&gt;Un Jardin en ville</title>
<path fill="none" stroke="black" d="M1147.05,-300.599C1175.71,-263 1244.82,-172.324 1278.89,-127.626"/>
<polygon fill="black" stroke="black" points="1281.74,-129.658 1285.02,-119.583 1276.17,-125.415 1281.74,-129.658"/>
</g>
<!-- Obsessionnel -->
<g id="node26" class="node"><title>Obsessionnel</title>
<ellipse fill="none" stroke="black" cx="1401.3" cy="-240.372" rx="62.5585" ry="18"/>
<text text-anchor="middle" x="1401.3" y="-236.172" font-family="Montserrat" font-size="14.00">Obsessionnel</text>
</g>
<!-- la ville&#45;&gt;Obsessionnel -->
<g id="edge16" class="edge"><title>la ville&#45;&gt;Obsessionnel</title>
<path fill="none" stroke="black" d="M1166.38,-308.217C1211.19,-295.276 1292.92,-271.673 1347.18,-256.004"/>
<polygon fill="black" stroke="black" points="1348.34,-259.312 1356.97,-253.175 1346.39,-252.587 1348.34,-259.312"/>
</g>
<!-- la jungle -->
<g id="node6" class="node"><title>la jungle</title>
<ellipse fill="yellow" stroke="black" cx="1141.14" cy="-766.392" rx="44.6213" ry="18"/>
<text text-anchor="middle" x="1141.14" y="-762.192" font-family="Montserrat" font-size="14.00">la jungle</text>
</g>
<!-- Une Visite -->
<g id="node27" class="node"><title>Une Visite</title>
<ellipse fill="none" stroke="black" cx="1259.99" cy="-727.911" rx="52.7041" ry="18"/>
<text text-anchor="middle" x="1259.99" y="-723.711" font-family="Montserrat" font-size="14.00">Une Visite</text>
</g>
<!-- la jungle&#45;&gt;Une Visite -->
<g id="edge18" class="edge"><title>la jungle&#45;&gt;Une Visite</title>
<path fill="none" stroke="black" d="M1176.15,-755.055C1187.28,-751.452 1199.79,-747.402 1211.68,-743.552"/>
<polygon fill="black" stroke="black" points="1213.05,-746.788 1221.48,-740.378 1210.89,-740.129 1213.05,-746.788"/>
</g>
<!-- la jungle&#45;&gt;Clarita -->
<g id="edge19" class="edge"><title>la jungle&#45;&gt;Clarita</title>
<path fill="none" stroke="black" d="M1137.86,-748.114C1129.84,-703.369 1109.17,-588.096 1099.57,-534.554"/>
<polygon fill="black" stroke="black" points="1103.02,-533.934 1097.81,-524.708 1096.13,-535.169 1103.02,-533.934"/>
</g>
<!-- L’Oiseau qui es&#45;tu? -->
<g id="node28" class="node"><title>L’Oiseau qui es&#45;tu?</title>
<ellipse fill="none" stroke="black" cx="1286.25" cy="-956.748" rx="91.4329" ry="18"/>
<text text-anchor="middle" x="1286.25" y="-952.548" font-family="Montserrat" font-size="14.00">L’Oiseau qui es&#45;tu?</text>
</g>
<!-- la jungle&#45;&gt;L’Oiseau qui es&#45;tu? -->
<g id="edge20" class="edge"><title>la jungle&#45;&gt;L’Oiseau qui es&#45;tu?</title>
<path fill="none" stroke="black" d="M1154.27,-783.621C1179.76,-817.059 1236.08,-890.936 1266.25,-930.509"/>
<polygon fill="black" stroke="black" points="1263.78,-933.036 1272.62,-938.867 1269.34,-928.792 1263.78,-933.036"/>
</g>
<!-- les montagnes -->
<g id="node7" class="node"><title>les montagnes</title>
<ellipse fill="yellow" stroke="black" cx="980.902" cy="-909.719" rx="66.0309" ry="18"/>
<text text-anchor="middle" x="980.902" y="-905.519" font-family="Montserrat" font-size="14.00">les montagnes</text>
</g>
<!-- fenêtre -->
<g id="node8" class="node"><title>fenêtre</title>
<ellipse fill="yellow" stroke="black" cx="536.053" cy="-909" rx="41.1064" ry="18"/>
<text text-anchor="middle" x="536.053" y="-904.8" font-family="Montserrat" font-size="14.00">fenêtre</text>
</g>
<!-- maison&#45;&gt;Une Visite -->
<g id="edge35" class="edge"><title>maison&#45;&gt;Une Visite</title>
<path fill="none" stroke="black" d="M1060.92,-630.21C1100.49,-649.633 1174.81,-686.108 1220.6,-708.579"/>
<polygon fill="black" stroke="black" points="1219.11,-711.749 1229.63,-713.013 1222.2,-705.465 1219.11,-711.749"/>
</g>
<!-- maison&#45;&gt;Expérimental -->
<g id="edge36" class="edge"><title>maison&#45;&gt;Expérimental</title>
<path fill="none" stroke="black" d="M1026.3,-599.249C1012.26,-567.261 982.691,-499.893 966.083,-462.055"/>
<polygon fill="black" stroke="black" points="969.186,-460.415 961.962,-452.665 962.776,-463.229 969.186,-460.415"/>
</g>
<!-- maison&#45;&gt;Clarita -->
<g id="edge37" class="edge"><title>maison&#45;&gt;Clarita</title>
<path fill="none" stroke="black" d="M1043.83,-599.287C1053.6,-581.388 1068.8,-553.557 1080.02,-533.031"/>
<polygon fill="black" stroke="black" points="1083.13,-534.631 1084.85,-524.177 1076.99,-531.275 1083.13,-534.631"/>
</g>
<!-- hôpital&#45;&gt;Une Vieille adresse -->
<g id="edge39" class="edge"><title>hôpital&#45;&gt;Une Vieille adresse</title>
<path fill="none" stroke="black" d="M1044.39,-380.074C1041.61,-352.461 1036.33,-299.881 1033.06,-267.301"/>
<polygon fill="black" stroke="black" points="1036.52,-266.683 1032.03,-257.083 1029.55,-267.383 1036.52,-266.683"/>
</g>
<!-- hôpital&#45;&gt;Le Monde des héros -->
<g id="edge40" class="edge"><title>hôpital&#45;&gt;Le Monde des héros</title>
<path fill="none" stroke="black" d="M1014.11,-388.039C974.573,-375.34 906.695,-353.54 858.081,-337.927"/>
<polygon fill="black" stroke="black" points="858.915,-334.519 848.323,-334.793 856.774,-341.183 858.915,-334.519"/>
</g>
<!-- hôpital&#45;&gt;Les Rayures du zèbre -->
<g id="edge41" class="edge"><title>hôpital&#45;&gt;Les Rayures du zèbre</title>
<path fill="none" stroke="black" d="M1079.91,-389.022C1112.71,-379.936 1163.4,-365.895 1203.9,-354.677"/>
<polygon fill="black" stroke="black" points="1205,-358.007 1213.7,-351.965 1203.13,-351.261 1205,-358.007"/>
</g>
<!-- Une Représentation à l&#39;asile -->
<g id="node35" class="node"><title>Une Représentation à l&#39;asile</title>
<ellipse fill="none" stroke="black" cx="1305.08" cy="-489.074" rx="122.355" ry="18"/>
<text text-anchor="middle" x="1305.08" y="-484.874" font-family="Montserrat" font-size="14.00">Une Représentation à l&#39;asile</text>
</g>
<!-- hôpital&#45;&gt;Une Représentation à l&#39;asile -->
<g id="edge42" class="edge"><title>hôpital&#45;&gt;Une Représentation à l&#39;asile</title>
<path fill="none" stroke="black" d="M1077.19,-409.205C1119.26,-423.949 1195.24,-450.58 1247.84,-469.015"/>
<polygon fill="black" stroke="black" points="1246.78,-472.352 1257.38,-472.357 1249.1,-465.746 1246.78,-472.352"/>
</g>
<!-- hôtel&#45;&gt;Le Monde des héros -->
<g id="edge44" class="edge"><title>hôtel&#45;&gt;Le Monde des héros</title>
<path fill="none" stroke="black" d="M665.087,-270.827C687.318,-278.806 719.617,-290.399 747.106,-300.266"/>
<polygon fill="black" stroke="black" points="746.01,-303.591 756.605,-303.675 748.375,-297.002 746.01,-303.591"/>
</g>
<!-- Hier et aujourd&#39;hui -->
<g id="node36" class="node"><title>Hier et aujourd&#39;hui</title>
<ellipse fill="none" stroke="black" cx="509.509" cy="-70.7338" rx="85.0928" ry="18"/>
<text text-anchor="middle" x="509.509" y="-66.5338" font-family="Montserrat" font-size="14.00">Hier et aujourd&#39;hui</text>
</g>
<!-- hôtel&#45;&gt;Hier et aujourd&#39;hui -->
<g id="edge45" class="edge"><title>hôtel&#45;&gt;Hier et aujourd&#39;hui</title>
<path fill="none" stroke="black" d="M626.857,-244.304C604.367,-211.038 554.217,-136.862 527.337,-97.1029"/>
<polygon fill="black" stroke="black" points="530.16,-95.0292 521.66,-88.7053 524.361,-98.9499 530.16,-95.0292"/>
</g>
<!-- Environnements&#45;&gt;la ville -->
<g id="edge8" class="edge"><title>Environnements&#45;&gt;la ville</title>
<path fill="none" stroke="yellow" d="M929.948,-654.356C956.962,-610.764 1028.23,-495.444 1086.48,-398.457 1097.43,-380.227 1109.6,-359.568 1118.9,-343.686"/>
<polygon fill="yellow" stroke="yellow" points="1121.98,-345.34 1124.01,-334.941 1115.94,-341.806 1121.98,-345.34"/>
</g>
<!-- Environnements&#45;&gt;la jungle -->
<g id="edge17" class="edge"><title>Environnements&#45;&gt;la jungle</title>
<path fill="none" stroke="yellow" d="M955.813,-687.885C995.898,-704.865 1059.68,-731.884 1100.98,-749.379"/>
<polygon fill="yellow" stroke="yellow" points="1099.62,-752.606 1110.2,-753.284 1102.35,-746.161 1099.62,-752.606"/>
</g>
<!-- Environnements&#45;&gt;les montagnes -->
<g id="edge21" class="edge"><title>Environnements&#45;&gt;les montagnes</title>
<path fill="none" stroke="yellow" d="M923.624,-690.471C934.41,-731.757 960.75,-832.582 973.605,-881.787"/>
<polygon fill="yellow" stroke="yellow" points="970.291,-882.95 976.205,-891.741 977.064,-881.181 970.291,-882.95"/>
</g>
<!-- Point de fuite -->
<g id="node32" class="node"><title>Point de fuite</title>
<ellipse fill="none" stroke="black" cx="650.172" cy="-1106.15" rx="63.1402" ry="18"/>
<text text-anchor="middle" x="650.172" y="-1101.95" font-family="Montserrat" font-size="14.00">Point de fuite</text>
</g>
<!-- Fenêtre&#45;&gt;Point de fuite -->
<g id="edge31" class="edge"><title>Fenêtre&#45;&gt;Point de fuite</title>
<path fill="none" stroke="black" d="M653.062,-893.891C652.519,-933.821 651.211,-1029.81 650.558,-1077.82"/>
<polygon fill="black" stroke="black" points="647.058,-1077.79 650.421,-1087.84 654.057,-1077.89 647.058,-1077.79"/>
</g>
<!-- Panorama environnement -->
<g id="node33" class="node"><title>Panorama environnement</title>
<ellipse fill="none" stroke="black" cx="806.878" cy="-864.229" rx="109.977" ry="18"/>
<text text-anchor="middle" x="806.878" y="-860.029" font-family="Montserrat" font-size="14.00">Panorama environnement</text>
</g>
<!-- Fenêtre&#45;&gt;Panorama environnement -->
<g id="edge32" class="edge"><title>Fenêtre&#45;&gt;Panorama environnement</title>
<path fill="none" stroke="black" d="M696.086,-872.589C696.303,-872.573 696.519,-872.556 696.737,-872.54"/>
<polygon fill="black" stroke="black" points="697.071,-876.025 706.779,-871.782 696.544,-869.045 697.071,-876.025"/>
</g>
<!-- Visions (paroi monde réel/imaginaire) -->
<g id="node34" class="node"><title>Visions (paroi monde réel/imaginaire)</title>
<ellipse fill="none" stroke="black" cx="485.756" cy="-1031.76" rx="159.416" ry="18"/>
<text text-anchor="middle" x="485.756" y="-1027.56" font-family="Montserrat" font-size="14.00">Visions (paroi monde réel/imaginaire)</text>
</g>
<!-- Fenêtre&#45;&gt;Visions (paroi monde réel/imaginaire) -->
<g id="edge33" class="edge"><title>Fenêtre&#45;&gt;Visions (paroi monde réel/imaginaire)</title>
<path fill="none" stroke="black" d="M635.377,-892.506C605.867,-919.972 546.909,-974.846 512.469,-1006.9"/>
<polygon fill="black" stroke="black" points="510.035,-1004.38 505.099,-1013.76 514.804,-1009.51 510.035,-1004.38"/>
</g>
<!-- Panorama environnement&#45;&gt;Environnements -->
<g id="edge49" class="edge"><title>Panorama environnement&#45;&gt;Environnements</title>
<path fill="none" stroke="blue" d="M817.413,-846.166C837.222,-812.202 880.105,-738.676 903.266,-698.966"/>
<polygon fill="blue" stroke="blue" points="906.419,-700.506 908.434,-690.105 900.372,-696.98 906.419,-700.506"/>
</g>
</g>
</svg>
