<?xml version="1.0" encoding="UTF-8" standalone="no"?>
<!DOCTYPE svg PUBLIC "-//W3C//DTD SVG 1.1//EN"
 "http://www.w3.org/Graphics/SVG/1.1/DTD/svg11.dtd">
<!-- Generated by graphviz version 2.30.1 (20130303.0813)
 -->
<!-- Title: %103 Pages: 1 -->
<svg width="3707pt" height="3697pt"
 viewBox="0.00 0.00 3706.56 3696.53" xmlns="http://www.w3.org/2000/svg" xmlns:xlink="http://www.w3.org/1999/xlink">
<g id="graph0" class="graph" transform="scale(1 1) rotate(0) translate(4 3692.53)">
<title>%103</title>
<polygon fill="white" stroke="white" points="-4,5 -4,-3692.53 3703.56,-3692.53 3703.56,5 -4,5"/>
<!-- Pensionnat -->
<g id="node1" class="node"><title>Pensionnat</title>
<ellipse fill="pink" stroke="black" cx="2158.33" cy="-1508.12" rx="53.3302" ry="18"/>
<text text-anchor="middle" x="2158.33" y="-1503.92" font-family="Montserrat" font-size="14.00">Pensionnat</text>
</g>
<!-- Absences -->
<g id="node12" class="node"><title>Absences</title>
<ellipse fill="none" stroke="black" cx="3650.52" cy="-1508.12" rx="48.0723" ry="18"/>
<text text-anchor="middle" x="3650.52" y="-1503.92" font-family="Montserrat" font-size="14.00">Absences</text>
</g>
<!-- Pensionnat&#45;&gt;Absences -->
<g id="edge1" class="edge"><title>Pensionnat&#45;&gt;Absences</title>
<path fill="none" stroke="black" d="M2211.88,-1508.12C2442.69,-1508.12 3351.74,-1508.12 3592.01,-1508.12"/>
<polygon fill="black" stroke="black" points="3592.28,-1511.62 3602.28,-1508.12 3592.28,-1504.62 3592.28,-1511.62"/>
</g>
<!-- Julia et son bazooka -->
<g id="node13" class="node"><title>Julia et son bazooka</title>
<ellipse fill="none" stroke="black" cx="1790.63" cy="-1870.6" rx="89.1486" ry="18"/>
<text text-anchor="middle" x="1790.63" y="-1866.4" font-family="Montserrat" font-size="14.00">Julia et son bazooka</text>
</g>
<!-- Pensionnat&#45;&gt;Julia et son bazooka -->
<g id="edge2" class="edge"><title>Pensionnat&#45;&gt;Julia et son bazooka</title>
<path fill="none" stroke="black" d="M2140.59,-1525.6C2080.78,-1584.56 1886.31,-1776.27 1816.16,-1845.43"/>
<polygon fill="black" stroke="black" points="1813.28,-1843.35 1808.62,-1852.87 1818.19,-1848.34 1813.28,-1843.35"/>
</g>
<!-- Laissez&#45;moi ma solitude -->
<g id="node14" class="node"><title>Laissez&#45;moi ma solitude</title>
<ellipse fill="none" stroke="black" cx="2237.01" cy="-18" rx="105.372" ry="18"/>
<text text-anchor="middle" x="2237.01" y="-13.8" font-family="Montserrat" font-size="14.00">Laissez&#45;moi ma solitude</text>
</g>
<!-- Pensionnat&#45;&gt;Laissez&#45;moi ma solitude -->
<g id="edge3" class="edge"><title>Pensionnat&#45;&gt;Laissez&#45;moi ma solitude</title>
<path fill="none" stroke="black" d="M2159.28,-1490.08C2167.43,-1335.75 2225.36,-238.564 2235.5,-46.618"/>
<polygon fill="black" stroke="black" points="2239,-46.6471 2236.03,-36.4765 2232.01,-46.278 2239,-46.6471"/>
</g>
<!-- Montagnes -->
<g id="node2" class="node"><title>Montagnes</title>
<ellipse fill="pink" stroke="black" cx="1830.79" cy="-3197.5" rx="53.8943" ry="18"/>
<text text-anchor="middle" x="1830.79" y="-3193.3" font-family="Montserrat" font-size="14.00">Montagnes</text>
</g>
<!-- Hier et aujourd’hui -->
<g id="node15" class="node"><title>Hier et aujourd’hui</title>
<ellipse fill="none" stroke="black" cx="1996.57" cy="-3249.25" rx="89.1486" ry="18"/>
<text text-anchor="middle" x="1996.57" y="-3245.05" font-family="Montserrat" font-size="14.00">Hier et aujourd’hui</text>
</g>
<!-- Montagnes&#45;&gt;Hier et aujourd’hui -->
<g id="edge4" class="edge"><title>Montagnes&#45;&gt;Hier et aujourd’hui</title>
<path fill="none" stroke="black" d="M1870.5,-3209.89C1890.77,-3216.22 1915.83,-3224.04 1938.25,-3231.04"/>
<polygon fill="black" stroke="black" points="1937.42,-3234.45 1948.01,-3234.09 1939.51,-3227.77 1937.42,-3234.45"/>
</g>
<!-- Sur les Cîmes -->
<g id="node16" class="node"><title>Sur les Cîmes</title>
<ellipse fill="none" stroke="black" cx="1987.31" cy="-2952.31" rx="70.6606" ry="18"/>
<text text-anchor="middle" x="1987.31" y="-2948.11" font-family="Montserrat" font-size="14.00">Sur les Cîmes</text>
</g>
<!-- Montagnes&#45;&gt;Sur les Cîmes -->
<g id="edge5" class="edge"><title>Montagnes&#45;&gt;Sur les Cîmes</title>
<path fill="none" stroke="black" d="M1842.04,-3179.86C1869.17,-3137.38 1938.25,-3029.15 1970.39,-2978.81"/>
<polygon fill="black" stroke="black" points="1973.51,-2980.42 1975.94,-2970.11 1967.61,-2976.66 1973.51,-2980.42"/>
</g>
<!-- Montagnes&#45;&gt;Julia et son bazooka -->
<g id="edge6" class="edge"><title>Montagnes&#45;&gt;Julia et son bazooka</title>
<path fill="none" stroke="black" d="M1830.24,-3179.25C1825.86,-3034.73 1796.85,-2076.23 1791.48,-1898.82"/>
<polygon fill="black" stroke="black" points="1794.98,-1898.61 1791.18,-1888.72 1787.98,-1898.82 1794.98,-1898.61"/>
</g>
<!-- Neige -->
<g id="node17" class="node"><title>Neige</title>
<ellipse fill="none" stroke="black" cx="1864.85" cy="-3392.94" rx="34.1871" ry="18"/>
<text text-anchor="middle" x="1864.85" y="-3388.74" font-family="Montserrat" font-size="14.00">Neige</text>
</g>
<!-- Montagnes&#45;&gt;Neige -->
<g id="edge7" class="edge"><title>Montagnes&#45;&gt;Neige</title>
<path fill="none" stroke="black" d="M1833.93,-3215.53C1839.89,-3249.71 1852.86,-3324.13 1859.96,-3364.88"/>
<polygon fill="black" stroke="black" points="1856.55,-3365.7 1861.72,-3374.95 1863.45,-3364.5 1856.55,-3365.7"/>
</g>
<!-- Environnements -->
<g id="node18" class="node"><title>Environnements</title>
<ellipse fill="none" stroke="black" cx="1961.69" cy="-2105.88" rx="74.1605" ry="18"/>
<text text-anchor="middle" x="1961.69" y="-2101.68" font-family="Montserrat" font-size="14.00">Environnements</text>
</g>
<!-- Montagnes&#45;&gt;Environnements -->
<g id="edge47" class="edge"><title>Montagnes&#45;&gt;Environnements</title>
<path fill="none" stroke="blue" d="M1832.95,-3179.46C1848.19,-3052.36 1939.37,-2291.97 1958.26,-2134.43"/>
<polygon fill="blue" stroke="blue" points="1961.78,-2134.49 1959.5,-2124.15 1954.83,-2133.66 1961.78,-2134.49"/>
</g>
<!-- Automobile -->
<g id="node3" class="node"><title>Automobile</title>
<ellipse fill="pink" stroke="black" cx="172.303" cy="-2871.41" rx="57.3437" ry="18"/>
<text text-anchor="middle" x="172.303" y="-2867.21" font-family="Montserrat" font-size="14.00">Automobile</text>
</g>
<!-- Une Vieille adresse -->
<g id="node19" class="node"><title>Une Vieille adresse</title>
<ellipse fill="none" stroke="black" cx="306.386" cy="-3129.55" rx="86.7914" ry="18"/>
<text text-anchor="middle" x="306.386" y="-3125.35" font-family="Montserrat" font-size="14.00">Une Vieille adresse</text>
</g>
<!-- Automobile&#45;&gt;Une Vieille adresse -->
<g id="edge22" class="edge"><title>Automobile&#45;&gt;Une Vieille adresse</title>
<path fill="none" stroke="black" d="M181.732,-2889.56C204.908,-2934.18 264.767,-3049.43 292.233,-3102.3"/>
<polygon fill="black" stroke="black" points="289.252,-3104.16 296.968,-3111.42 295.464,-3100.93 289.252,-3104.16"/>
</g>
<!-- Brouillard -->
<g id="node20" class="node"><title>Brouillard</title>
<ellipse fill="none" stroke="black" cx="1608.95" cy="-3385.66" rx="50.9599" ry="18"/>
<text text-anchor="middle" x="1608.95" y="-3381.46" font-family="Montserrat" font-size="14.00">Brouillard</text>
</g>
<!-- Automobile&#45;&gt;Brouillard -->
<g id="edge23" class="edge"><title>Automobile&#45;&gt;Brouillard</title>
<path fill="none" stroke="black" d="M210.36,-2885.03C411.067,-2956.87 1345.63,-3291.4 1563.48,-3369.38"/>
<polygon fill="black" stroke="black" points="1562.41,-3372.72 1573.01,-3372.79 1564.77,-3366.13 1562.41,-3372.72"/>
</g>
<!-- Expérimental -->
<g id="node21" class="node"><title>Expérimental</title>
<ellipse fill="none" stroke="black" cx="510.601" cy="-3336.71" rx="63.9504" ry="18"/>
<text text-anchor="middle" x="510.601" y="-3332.51" font-family="Montserrat" font-size="14.00">Expérimental</text>
</g>
<!-- Automobile&#45;&gt;Expérimental -->
<g id="edge24" class="edge"><title>Automobile&#45;&gt;Expérimental</title>
<path fill="none" stroke="black" d="M189.531,-2888.85C228.765,-2929.09 326.621,-3032.43 394.631,-3129.6 437.418,-3190.73 477.696,-3269 497.608,-3309.58"/>
<polygon fill="black" stroke="black" points="494.582,-3311.36 502.108,-3318.81 500.875,-3308.29 494.582,-3311.36"/>
</g>
<!-- Le Monde des héros -->
<g id="node29" class="node"><title>Le Monde des héros</title>
<ellipse fill="none" stroke="black" cx="993.348" cy="-1585.21" rx="90.0441" ry="18"/>
<text text-anchor="middle" x="993.348" y="-1581.01" font-family="Montserrat" font-size="14.00">Le Monde des héros</text>
</g>
<!-- Automobile&#45;&gt;Le Monde des héros -->
<g id="edge25" class="edge"><title>Automobile&#45;&gt;Le Monde des héros</title>
<path fill="none" stroke="black" d="M183.597,-2853.72C273.149,-2713.43 867.81,-1781.87 976.356,-1611.83"/>
<polygon fill="black" stroke="black" points="979.417,-1613.54 981.847,-1603.23 973.516,-1609.77 979.417,-1613.54"/>
</g>
<!-- Mercedes -->
<g id="node22" class="node"><title>Mercedes</title>
<ellipse fill="none" stroke="black" cx="1052.23" cy="-3530.58" rx="48.6327" ry="18"/>
<text text-anchor="middle" x="1052.23" y="-3526.38" font-family="Montserrat" font-size="14.00">Mercedes</text>
</g>
<!-- Automobile&#45;&gt;Mercedes -->
<g id="edge26" class="edge"><title>Automobile&#45;&gt;Mercedes</title>
<path fill="none" stroke="black" d="M194.494,-2888.03C314.458,-2977.9 885.103,-3405.39 1022.44,-3508.27"/>
<polygon fill="black" stroke="black" points="1020.39,-3511.11 1030.49,-3514.3 1024.59,-3505.5 1020.39,-3511.11"/>
</g>
<!-- Clarita -->
<g id="node23" class="node"><title>Clarita</title>
<ellipse fill="none" stroke="black" cx="120.266" cy="-2585.21" rx="37.1328" ry="18"/>
<text text-anchor="middle" x="120.266" y="-2581.01" font-family="Montserrat" font-size="14.00">Clarita</text>
</g>
<!-- Automobile&#45;&gt;Clarita -->
<g id="edge27" class="edge"><title>Automobile&#45;&gt;Clarita</title>
<path fill="none" stroke="black" d="M168.969,-2853.07C160.121,-2804.41 136,-2671.74 125.39,-2613.39"/>
<polygon fill="black" stroke="black" points="128.805,-2612.61 123.573,-2603.4 121.918,-2613.86 128.805,-2612.61"/>
</g>
<!-- Automobile&#45;&gt;Sur les Cîmes -->
<g id="edge28" class="edge"><title>Automobile&#45;&gt;Sur les Cîmes</title>
<path fill="none" stroke="black" d="M229.115,-2873.94C493.022,-2885.7 1599.41,-2935.02 1907.42,-2948.75"/>
<polygon fill="black" stroke="black" points="1907.46,-2952.25 1917.6,-2949.2 1907.77,-2945.26 1907.46,-2952.25"/>
</g>
<!-- Automobile&#45;&gt;Julia et son bazooka -->
<g id="edge29" class="edge"><title>Automobile&#45;&gt;Julia et son bazooka</title>
<path fill="none" stroke="black" d="M198.379,-2855.28C386.445,-2738.98 1534.43,-2029.04 1754.26,-1893.09"/>
<polygon fill="black" stroke="black" points="1756.19,-1896.01 1762.86,-1887.77 1752.51,-1890.06 1756.19,-1896.01"/>
</g>
<!-- Mal&#45;aimée -->
<g id="node30" class="node"><title>Mal&#45;aimée</title>
<ellipse fill="none" stroke="black" cx="53.5271" cy="-2912.02" rx="53.5541" ry="18"/>
<text text-anchor="middle" x="53.5271" y="-2907.82" font-family="Montserrat" font-size="14.00">Mal&#45;aimée</text>
</g>
<!-- Automobile&#45;&gt;Mal&#45;aimée -->
<g id="edge30" class="edge"><title>Automobile&#45;&gt;Mal&#45;aimée</title>
<path fill="none" stroke="black" d="M133.411,-2884.71C123.051,-2888.25 111.743,-2892.12 100.98,-2895.8"/>
<polygon fill="black" stroke="black" points="99.622,-2892.56 91.2921,-2899.11 101.887,-2899.18 99.622,-2892.56"/>
</g>
<!-- Chambre -->
<g id="node4" class="node"><title>Chambre</title>
<ellipse fill="pink" stroke="black" cx="1557.82" cy="-1696.2" rx="46.3682" ry="18"/>
<text text-anchor="middle" x="1557.82" y="-1692" font-family="Montserrat" font-size="14.00">Chambre</text>
</g>
<!-- maison -->
<g id="node9" class="node"><title>maison</title>
<ellipse fill="yellow" stroke="black" cx="154.9" cy="-2296.39" rx="38.8632" ry="18"/>
<text text-anchor="middle" x="154.9" y="-2292.19" font-family="Montserrat" font-size="14.00">maison</text>
</g>
<!-- Chambre&#45;&gt;maison -->
<g id="edge34" class="edge"><title>Chambre&#45;&gt;maison</title>
<path fill="none" stroke="yellow" d="M1526.55,-1709.57C1341.88,-1788.58 395.023,-2193.66 192.893,-2280.14"/>
<polygon fill="yellow" stroke="yellow" points="191.385,-2276.98 183.568,-2284.13 194.138,-2283.41 191.385,-2276.98"/>
</g>
<!-- hôpital -->
<g id="node10" class="node"><title>hôpital</title>
<ellipse fill="yellow" stroke="black" cx="711.84" cy="-1658.49" rx="38.8211" ry="18"/>
<text text-anchor="middle" x="711.84" y="-1654.29" font-family="Montserrat" font-size="14.00">hôpital</text>
</g>
<!-- Chambre&#45;&gt;hôpital -->
<g id="edge38" class="edge"><title>Chambre&#45;&gt;hôpital</title>
<path fill="none" stroke="yellow" d="M1511.43,-1694.13C1364.62,-1687.58 910.992,-1667.37 760.74,-1660.67"/>
<polygon fill="yellow" stroke="yellow" points="760.6,-1657.16 750.454,-1660.21 760.288,-1664.15 760.6,-1657.16"/>
</g>
<!-- hôtel -->
<g id="node11" class="node"><title>hôtel</title>
<ellipse fill="yellow" stroke="black" cx="1283.95" cy="-1598.16" rx="31.2968" ry="18"/>
<text text-anchor="middle" x="1283.95" y="-1593.96" font-family="Montserrat" font-size="14.00">hôtel</text>
</g>
<!-- Chambre&#45;&gt;hôtel -->
<g id="edge43" class="edge"><title>Chambre&#45;&gt;hôtel</title>
<path fill="none" stroke="yellow" d="M1523.69,-1683.98C1471.82,-1665.41 1373.6,-1630.25 1320.39,-1611.21"/>
<polygon fill="yellow" stroke="yellow" points="1321.29,-1607.81 1310.69,-1607.74 1318.93,-1614.4 1321.29,-1607.81"/>
</g>
<!-- Chambre&#45;&gt;Julia et son bazooka -->
<g id="edge46" class="edge"><title>Chambre&#45;&gt;Julia et son bazooka</title>
<path fill="none" stroke="black" d="M1579.3,-1712.29C1620.51,-1743.16 1710.8,-1810.8 1758.94,-1846.86"/>
<polygon fill="black" stroke="black" points="1757.03,-1849.8 1767.13,-1853 1761.23,-1844.2 1757.03,-1849.8"/>
</g>
<!-- Fenêtre -->
<g id="node31" class="node"><title>Fenêtre</title>
<ellipse fill="none" stroke="black" cx="2064.6" cy="-2671.88" rx="43.4144" ry="18"/>
<text text-anchor="middle" x="2064.6" y="-2667.68" font-family="Montserrat" font-size="14.00">Fenêtre</text>
</g>
<!-- Chambre&#45;&gt;Fenêtre -->
<g id="edge48" class="edge"><title>Chambre&#45;&gt;Fenêtre</title>
<path fill="none" stroke="blue" d="M1567.05,-1713.96C1628.36,-1832 1976.62,-2502.48 2050.73,-2645.17"/>
<polygon fill="blue" stroke="blue" points="2047.68,-2646.9 2055.4,-2654.16 2053.89,-2643.67 2047.68,-2646.9"/>
</g>
<!-- la ville -->
<g id="node5" class="node"><title>la ville</title>
<ellipse fill="yellow" stroke="black" cx="1341.51" cy="-3500.08" rx="37.6748" ry="18"/>
<text text-anchor="middle" x="1341.51" y="-3495.88" font-family="Montserrat" font-size="14.00">la ville</text>
</g>
<!-- la ville&#45;&gt;Une Vieille adresse -->
<g id="edge9" class="edge"><title>la ville&#45;&gt;Une Vieille adresse</title>
<path fill="none" stroke="black" d="M1311.37,-3489.29C1167.06,-3437.63 546.018,-3215.33 359.534,-3148.58"/>
<polygon fill="black" stroke="black" points="360.541,-3145.22 349.947,-3145.14 358.182,-3151.81 360.541,-3145.22"/>
</g>
<!-- la ville&#45;&gt;Brouillard -->
<g id="edge10" class="edge"><title>la ville&#45;&gt;Brouillard</title>
<path fill="none" stroke="black" d="M1369.63,-3488.05C1416.69,-3467.92 1511.67,-3427.28 1566.77,-3403.71"/>
<polygon fill="black" stroke="black" points="1568.43,-3406.81 1576.25,-3399.65 1565.68,-3400.37 1568.43,-3406.81"/>
</g>
<!-- la ville&#45;&gt;Expérimental -->
<g id="edge11" class="edge"><title>la ville&#45;&gt;Expérimental</title>
<path fill="none" stroke="black" d="M1306.6,-3493.21C1179.13,-3468.15 737.693,-3381.36 573.106,-3349"/>
<polygon fill="black" stroke="black" points="573.624,-3345.53 563.137,-3347.04 572.274,-3352.4 573.624,-3345.53"/>
</g>
<!-- la ville&#45;&gt;Mercedes -->
<g id="edge12" class="edge"><title>la ville&#45;&gt;Mercedes</title>
<path fill="none" stroke="black" d="M1304.58,-3503.97C1255.15,-3509.18 1167,-3518.48 1109.07,-3524.59"/>
<polygon fill="black" stroke="black" points="1108.56,-3521.12 1098.98,-3525.65 1109.29,-3528.08 1108.56,-3521.12"/>
</g>
<!-- la ville&#45;&gt;Clarita -->
<g id="edge13" class="edge"><title>la ville&#45;&gt;Clarita</title>
<path fill="none" stroke="black" d="M1321.08,-3484.77C1177.2,-3376.99 317.168,-2732.72 148.835,-2606.61"/>
<polygon fill="black" stroke="black" points="150.791,-2603.71 140.689,-2600.51 146.594,-2609.31 150.791,-2603.71"/>
</g>
<!-- Les Rayures du zèbre -->
<g id="node24" class="node"><title>Les Rayures du zèbre</title>
<ellipse fill="none" stroke="black" cx="766.803" cy="-3474.46" rx="98.358" ry="18"/>
<text text-anchor="middle" x="766.803" y="-3470.26" font-family="Montserrat" font-size="14.00">Les Rayures du zèbre</text>
</g>
<!-- la ville&#45;&gt;Les Rayures du zèbre -->
<g id="edge14" class="edge"><title>la ville&#45;&gt;Les Rayures du zèbre</title>
<path fill="none" stroke="black" d="M1303.8,-3498.4C1217.4,-3494.55 1002.56,-3484.97 872.312,-3479.17"/>
<polygon fill="black" stroke="black" points="872.455,-3475.67 862.309,-3478.72 872.143,-3482.66 872.455,-3475.67"/>
</g>
<!-- Un Jardin en ville -->
<g id="node25" class="node"><title>Un Jardin en ville</title>
<ellipse fill="none" stroke="black" cx="1473.94" cy="-3618.18" rx="79.9163" ry="18"/>
<text text-anchor="middle" x="1473.94" y="-3613.98" font-family="Montserrat" font-size="14.00">Un Jardin en ville</text>
</g>
<!-- la ville&#45;&gt;Un Jardin en ville -->
<g id="edge15" class="edge"><title>la ville&#45;&gt;Un Jardin en ville</title>
<path fill="none" stroke="black" d="M1359.37,-3516.01C1381.76,-3535.98 1420.38,-3570.42 1446.53,-3593.74"/>
<polygon fill="black" stroke="black" points="1444.42,-3596.54 1454.21,-3600.59 1449.08,-3591.32 1444.42,-3596.54"/>
</g>
<!-- Obsessionnel -->
<g id="node26" class="node"><title>Obsessionnel</title>
<ellipse fill="none" stroke="black" cx="1266.27" cy="-3670.53" rx="62.5585" ry="18"/>
<text text-anchor="middle" x="1266.27" y="-3666.33" font-family="Montserrat" font-size="14.00">Obsessionnel</text>
</g>
<!-- la ville&#45;&gt;Obsessionnel -->
<g id="edge16" class="edge"><title>la ville&#45;&gt;Obsessionnel</title>
<path fill="none" stroke="black" d="M1333.6,-3518C1320.39,-3547.92 1293.77,-3608.24 1278.25,-3643.39"/>
<polygon fill="black" stroke="black" points="1275.02,-3642.04 1274.19,-3652.6 1281.43,-3644.86 1275.02,-3642.04"/>
</g>
<!-- la jungle -->
<g id="node6" class="node"><title>la jungle</title>
<ellipse fill="yellow" stroke="black" cx="464.438" cy="-1811.49" rx="44.6213" ry="18"/>
<text text-anchor="middle" x="464.438" y="-1807.29" font-family="Montserrat" font-size="14.00">la jungle</text>
</g>
<!-- Une Visite -->
<g id="node27" class="node"><title>Une Visite</title>
<ellipse fill="none" stroke="black" cx="273.125" cy="-2030.61" rx="52.7041" ry="18"/>
<text text-anchor="middle" x="273.125" y="-2026.41" font-family="Montserrat" font-size="14.00">Une Visite</text>
</g>
<!-- la jungle&#45;&gt;Une Visite -->
<g id="edge18" class="edge"><title>la jungle&#45;&gt;Une Visite</title>
<path fill="none" stroke="black" d="M449.426,-1828.68C415.772,-1867.23 334.174,-1960.69 294.924,-2005.64"/>
<polygon fill="black" stroke="black" points="292.272,-2003.36 288.332,-2013.19 297.546,-2007.96 292.272,-2003.36"/>
</g>
<!-- la jungle&#45;&gt;Clarita -->
<g id="edge19" class="edge"><title>la jungle&#45;&gt;Clarita</title>
<path fill="none" stroke="black" d="M456.437,-1829.47C411.181,-1931.21 187.359,-2434.38 132.446,-2557.83"/>
<polygon fill="black" stroke="black" points="129.09,-2556.76 128.223,-2567.32 135.486,-2559.61 129.09,-2556.76"/>
</g>
<!-- L’Oiseau qui es&#45;tu? -->
<g id="node28" class="node"><title>L’Oiseau qui es&#45;tu?</title>
<ellipse fill="none" stroke="black" cx="358.861" cy="-1687.02" rx="91.4329" ry="18"/>
<text text-anchor="middle" x="358.861" y="-1682.82" font-family="Montserrat" font-size="14.00">L’Oiseau qui es&#45;tu?</text>
</g>
<!-- la jungle&#45;&gt;L’Oiseau qui es&#45;tu? -->
<g id="edge20" class="edge"><title>la jungle&#45;&gt;L’Oiseau qui es&#45;tu?</title>
<path fill="none" stroke="black" d="M449.98,-1794.44C432.119,-1773.39 401.559,-1737.36 380.801,-1712.88"/>
<polygon fill="black" stroke="black" points="383.308,-1710.43 374.17,-1705.07 377.97,-1714.96 383.308,-1710.43"/>
</g>
<!-- les montagnes -->
<g id="node7" class="node"><title>les montagnes</title>
<ellipse fill="yellow" stroke="black" cx="2084.17" cy="-2042.26" rx="66.0309" ry="18"/>
<text text-anchor="middle" x="2084.17" y="-2038.06" font-family="Montserrat" font-size="14.00">les montagnes</text>
</g>
<!-- fenêtre -->
<g id="node8" class="node"><title>fenêtre</title>
<ellipse fill="yellow" stroke="black" cx="2579.33" cy="-1992.12" rx="41.1064" ry="18"/>
<text text-anchor="middle" x="2579.33" y="-1987.92" font-family="Montserrat" font-size="14.00">fenêtre</text>
</g>
<!-- maison&#45;&gt;Une Visite -->
<g id="edge35" class="edge"><title>maison&#45;&gt;Une Visite</title>
<path fill="none" stroke="black" d="M162.84,-2278.54C183.067,-2233.07 236.639,-2112.64 260.891,-2058.12"/>
<polygon fill="black" stroke="black" points="264.197,-2059.3 265.063,-2048.74 257.801,-2056.45 264.197,-2059.3"/>
</g>
<!-- maison&#45;&gt;Expérimental -->
<g id="edge36" class="edge"><title>maison&#45;&gt;Expérimental</title>
<path fill="none" stroke="black" d="M161.073,-2314.45C203.323,-2438.02 449.648,-3158.44 501.159,-3309.09"/>
<polygon fill="black" stroke="black" points="497.849,-3310.23 504.396,-3318.56 504.473,-3307.97 497.849,-3310.23"/>
</g>
<!-- maison&#45;&gt;Clarita -->
<g id="edge37" class="edge"><title>maison&#45;&gt;Clarita</title>
<path fill="none" stroke="black" d="M152.733,-2314.46C146.878,-2363.29 130.704,-2498.17 123.64,-2557.07"/>
<polygon fill="black" stroke="black" points="120.148,-2556.81 122.432,-2567.15 127.098,-2557.64 120.148,-2556.81"/>
</g>
<!-- hôpital&#45;&gt;Une Vieille adresse -->
<g id="edge39" class="edge"><title>hôpital&#45;&gt;Une Vieille adresse</title>
<path fill="none" stroke="black" d="M706.86,-1676.56C664.576,-1829.97 366.043,-2913.1 314.087,-3101.61"/>
<polygon fill="black" stroke="black" points="310.691,-3100.76 311.408,-3111.33 317.439,-3102.62 310.691,-3100.76"/>
</g>
<!-- hôpital&#45;&gt;Le Monde des héros -->
<g id="edge40" class="edge"><title>hôpital&#45;&gt;Le Monde des héros</title>
<path fill="none" stroke="black" d="M745.796,-1649.65C790.838,-1637.93 871.275,-1616.99 928.221,-1602.16"/>
<polygon fill="black" stroke="black" points="929.416,-1605.47 938.211,-1599.56 927.652,-1598.69 929.416,-1605.47"/>
</g>
<!-- hôpital&#45;&gt;Les Rayures du zèbre -->
<g id="edge41" class="edge"><title>hôpital&#45;&gt;Les Rayures du zèbre</title>
<path fill="none" stroke="black" d="M712.393,-1676.76C717.691,-1851.82 759.425,-3230.72 765.947,-3446.19"/>
<polygon fill="black" stroke="black" points="762.454,-3446.47 766.255,-3456.36 769.45,-3446.26 762.454,-3446.47"/>
</g>
<!-- Une Représentation à l&#39;asile -->
<g id="node35" class="node"><title>Une Représentation à l&#39;asile</title>
<ellipse fill="none" stroke="black" cx="635.463" cy="-1479.96" rx="122.355" ry="18"/>
<text text-anchor="middle" x="635.463" y="-1475.76" font-family="Montserrat" font-size="14.00">Une Représentation à l&#39;asile</text>
</g>
<!-- hôpital&#45;&gt;Une Représentation à l&#39;asile -->
<g id="edge42" class="edge"><title>hôpital&#45;&gt;Une Représentation à l&#39;asile</title>
<path fill="none" stroke="black" d="M704.237,-1640.72C690.868,-1609.47 663.064,-1544.48 647.208,-1507.42"/>
<polygon fill="black" stroke="black" points="650.414,-1506.01 643.262,-1498.19 643.978,-1508.76 650.414,-1506.01"/>
</g>
<!-- hôtel&#45;&gt;Le Monde des héros -->
<g id="edge44" class="edge"><title>hôtel&#45;&gt;Le Monde des héros</title>
<path fill="none" stroke="black" d="M1252.85,-1596.78C1214.59,-1595.07 1147.79,-1592.09 1091.54,-1589.59"/>
<polygon fill="black" stroke="black" points="1091.68,-1586.09 1081.54,-1589.14 1091.37,-1593.08 1091.68,-1586.09"/>
</g>
<!-- Hier et aujourd&#39;hui -->
<g id="node36" class="node"><title>Hier et aujourd&#39;hui</title>
<ellipse fill="none" stroke="black" cx="1314.25" cy="-1444.07" rx="85.0928" ry="18"/>
<text text-anchor="middle" x="1314.25" y="-1439.87" font-family="Montserrat" font-size="14.00">Hier et aujourd&#39;hui</text>
</g>
<!-- hôtel&#45;&gt;Hier et aujourd&#39;hui -->
<g id="edge45" class="edge"><title>hôtel&#45;&gt;Hier et aujourd&#39;hui</title>
<path fill="none" stroke="black" d="M1287.48,-1580.18C1292.7,-1553.65 1302.51,-1503.76 1308.69,-1472.31"/>
<polygon fill="black" stroke="black" points="1312.14,-1472.9 1310.64,-1462.41 1305.28,-1471.55 1312.14,-1472.9"/>
</g>
<!-- Environnements&#45;&gt;la ville -->
<g id="edge8" class="edge"><title>Environnements&#45;&gt;la ville</title>
<path fill="none" stroke="yellow" d="M1953.62,-2124.01C1887.36,-2272.97 1433.35,-3293.61 1353.49,-3473.14"/>
<polygon fill="yellow" stroke="yellow" points="1350.24,-3471.85 1349.37,-3482.41 1356.63,-3474.7 1350.24,-3471.85"/>
</g>
<!-- Environnements&#45;&gt;la jungle -->
<g id="edge17" class="edge"><title>Environnements&#45;&gt;la jungle</title>
<path fill="none" stroke="yellow" d="M1903.91,-2094.52C1662.95,-2047.14 740.146,-1865.7 514.461,-1821.32"/>
<polygon fill="yellow" stroke="yellow" points="515.042,-1817.87 504.554,-1819.38 513.691,-1824.74 515.042,-1817.87"/>
</g>
<!-- Environnements&#45;&gt;les montagnes -->
<g id="edge21" class="edge"><title>Environnements&#45;&gt;les montagnes</title>
<path fill="none" stroke="yellow" d="M1993.23,-2089.49C2008.78,-2081.42 2027.7,-2071.59 2044.24,-2062.99"/>
<polygon fill="yellow" stroke="yellow" points="2045.9,-2066.08 2053.16,-2058.37 2042.67,-2059.87 2045.9,-2066.08"/>
</g>
<!-- Point de fuite -->
<g id="node32" class="node"><title>Point de fuite</title>
<ellipse fill="none" stroke="black" cx="2301.9" cy="-2504.33" rx="63.1402" ry="18"/>
<text text-anchor="middle" x="2301.9" y="-2500.13" font-family="Montserrat" font-size="14.00">Point de fuite</text>
</g>
<!-- Fenêtre&#45;&gt;Point de fuite -->
<g id="edge31" class="edge"><title>Fenêtre&#45;&gt;Point de fuite</title>
<path fill="none" stroke="black" d="M2086.92,-2656.11C2129.16,-2626.3 2220.87,-2561.54 2269.74,-2527.04"/>
<polygon fill="black" stroke="black" points="2271.91,-2529.79 2278.06,-2521.17 2267.87,-2524.07 2271.91,-2529.79"/>
</g>
<!-- Panorama environnement -->
<g id="node33" class="node"><title>Panorama environnement</title>
<ellipse fill="none" stroke="black" cx="2055.8" cy="-2381.12" rx="109.977" ry="18"/>
<text text-anchor="middle" x="2055.8" y="-2376.92" font-family="Montserrat" font-size="14.00">Panorama environnement</text>
</g>
<!-- Fenêtre&#45;&gt;Panorama environnement -->
<g id="edge32" class="edge"><title>Fenêtre&#45;&gt;Panorama environnement</title>
<path fill="none" stroke="black" d="M2064.05,-2653.69C2062.56,-2604.53 2058.45,-2468.75 2056.66,-2409.45"/>
<polygon fill="black" stroke="black" points="2060.15,-2409.19 2056.35,-2399.3 2053.15,-2409.4 2060.15,-2409.19"/>
</g>
<!-- Visions (paroi monde réel/imaginaire) -->
<g id="node34" class="node"><title>Visions (paroi monde réel/imaginaire)</title>
<ellipse fill="none" stroke="black" cx="2278.59" cy="-2797.2" rx="159.416" ry="18"/>
<text text-anchor="middle" x="2278.59" y="-2793" font-family="Montserrat" font-size="14.00">Visions (paroi monde réel/imaginaire)</text>
</g>
<!-- Fenêtre&#45;&gt;Visions (paroi monde réel/imaginaire) -->
<g id="edge33" class="edge"><title>Fenêtre&#45;&gt;Visions (paroi monde réel/imaginaire)</title>
<path fill="none" stroke="black" d="M2089.99,-2686.74C2126.89,-2708.36 2195.67,-2748.64 2239.19,-2774.13"/>
<polygon fill="black" stroke="black" points="2237.67,-2777.29 2248.07,-2779.33 2241.21,-2771.25 2237.67,-2777.29"/>
</g>
<!-- Panorama environnement&#45;&gt;Environnements -->
<g id="edge49" class="edge"><title>Panorama environnement&#45;&gt;Environnements</title>
<path fill="none" stroke="blue" d="M2049.62,-2363.06C2033.57,-2316.11 1990.44,-2189.96 1971.19,-2133.67"/>
<polygon fill="blue" stroke="blue" points="1974.43,-2132.33 1967.89,-2124 1967.81,-2134.6 1974.43,-2132.33"/>
</g>
</g>
</svg>
