<?xml version="1.0" encoding="UTF-8" standalone="no"?>
<!-- Generated by graphviz version 2.36.0 (20140111.2315)
 -->

<!-- Title: %3 Pages: 1 -->

<svg
   xmlns:dc="http://purl.org/dc/elements/1.1/"
   xmlns:cc="http://creativecommons.org/ns#"
   xmlns:rdf="http://www.w3.org/1999/02/22-rdf-syntax-ns#"
   xmlns:svg="http://www.w3.org/2000/svg"
   xmlns="http://www.w3.org/2000/svg"
   xmlns:sodipodi="http://sodipodi.sourceforge.net/DTD/sodipodi-0.dtd"
   xmlns:inkscape="http://www.inkscape.org/namespaces/inkscape"
   width="437pt"
   height="592pt"
   viewBox="0.00 0.00 437.00 592.00"
   id="svg5523"
   version="1.1"
   inkscape:version="0.48.4 r9939"
   sodipodi:docname="genealogie-gv.svg">
  <metadata
     id="metadata5739">
    <rdf:RDF>
      <cc:Work
         rdf:about="">
        <dc:format>image/svg+xml</dc:format>
        <dc:type
           rdf:resource="http://purl.org/dc/dcmitype/StillImage" />
      </cc:Work>
    </rdf:RDF>
  </metadata>
  <defs
     id="defs5737" />
  <sodipodi:namedview
     pagecolor="#ffffff"
     bordercolor="#666666"
     borderopacity="1"
     objecttolerance="10"
     gridtolerance="10"
     guidetolerance="10"
     inkscape:pageopacity="0"
     inkscape:pageshadow="2"
     inkscape:window-width="1276"
     inkscape:window-height="775"
     id="namedview5735"
     showgrid="false"
     inkscape:zoom="1.2756757"
     inkscape:cx="-120.94572"
     inkscape:cy="425.21774"
     inkscape:window-x="0"
     inkscape:window-y="21"
     inkscape:window-maximized="1"
     inkscape:current-layer="svg5523" />
  <polygon
     style="fill:#ffffff;stroke:none"
     id="polygon5528"
     points="433,-588 433,4 -4,4 -4,4 -4,-588 "
     transform="translate(4,588)" />
  <ellipse
     cx="203"
     cy="-566"
     rx="37.544201"
     ry="18"
     id="ellipse5533"
     d="m 240.5442,-566 c 0,9.94113 -16.80911,18 -37.5442,18 -20.73509,0 -37.5442,-8.05887 -37.5442,-18 0,-9.94113 16.80911,-18 37.5442,-18 20.73509,0 37.5442,8.05887 37.5442,18 z"
     sodipodi:cx="203"
     sodipodi:cy="-566"
     sodipodi:rx="37.544201"
     sodipodi:ry="18"
     style="fill:none;stroke:#000000"
     transform="translate(4,588)" />
  <text
     x="207"
     y="25.700012"
     font-size="14.00"
     id="text5535"
     style="font-size:14px;text-anchor:middle;font-family:Karla;font-weight:bold;-inkscape-font-specification:Karla Bold">james</text>
  <ellipse
     cx="140"
     cy="-478"
     rx="27"
     ry="18"
     id="ellipse5540"
     d="m 167,-478 c 0,9.94113 -12.08831,18 -27,18 -14.91169,0 -27,-8.05887 -27,-18 0,-9.94113 12.08831,-18 27,-18 14.91169,0 27,8.05887 27,18 z"
     sodipodi:cx="140"
     sodipodi:cy="-478"
     sodipodi:rx="27"
     sodipodi:ry="18"
     style="fill:none;stroke:#000000"
     transform="translate(4,588)" />
  <text
     x="144"
     y="113.70001"
     font-size="14.00"
     id="text5542"
     style="font-size:14px;text-anchor:middle;font-family:Karla;font-weight:bold;-inkscape-font-specification:Karla Bold">lise</text>
  <path
     d="M 176.63,32.628 C 164.624,38.075 152.033,46.22 145,58 c -4.167,6.979 -5.474,15.509 -5.437,23.581"
     id="path5547"
     inkscape:connector-curvature="0"
     style="fill:none;stroke:#000000" />
  <polygon
     points="139.068,-506.456 136.259,-496.24 132.085,-505.978 139.068,-506.456 "
     id="polygon5549"
     style="fill:#000000;stroke:#000000"
     transform="translate(4,588)" />
  <text
     x="169"
     y="69.700012"
     font-size="14.00"
     id="text5551"
     style="font-size:14px;text-anchor:middle;font-family:Karla;font-weight:bold;-inkscape-font-specification:Karla Bold">spouse</text>
  <ellipse
     cx="203"
     cy="-390"
     rx="32.245701"
     ry="18"
     id="ellipse5556"
     d="m 235.2457,-390 c 0,9.94113 -14.43689,18 -32.2457,18 -17.80881,0 -32.2457,-8.05887 -32.2457,-18 0,-9.94113 14.43689,-18 32.2457,-18 17.80881,0 32.2457,8.05887 32.2457,18 z"
     sodipodi:cx="203"
     sodipodi:cy="-390"
     sodipodi:rx="32.245701"
     sodipodi:ry="18"
     style="fill:none;stroke:#000000"
     transform="translate(4,588)" />
  <text
     x="207"
     y="201.70001"
     font-size="14.00"
     id="text5558"
     style="font-size:14px;text-anchor:middle;font-family:Karla;font-weight:bold;-inkscape-font-specification:Karla Bold">anna</text>
  <path
     d="m 207,40.001 c 0,30.146 0,93.209 0,129.569"
     id="path5563"
     inkscape:connector-curvature="0"
     style="fill:none;stroke:#000000" />
  <polygon
     points="206.5,-418.07 203,-408.07 199.5,-418.07 206.5,-418.07 "
     id="polygon5565"
     style="fill:#000000;stroke:#000000"
     transform="translate(4,588)" />
  <text
     x="227"
     y="113.70001"
     font-size="14.00"
     id="text5567"
     style="font-size:14px;text-anchor:middle;font-family:Karla;font-weight:bold;-inkscape-font-specification:Karla Bold">father</text>
  <ellipse
     cx="296"
     cy="-478"
     rx="35.1455"
     ry="18"
     id="ellipse5572"
     d="m 331.1455,-478 c 0,9.94113 -15.73518,18 -35.1455,18 -19.41032,0 -35.1455,-8.05887 -35.1455,-18 0,-9.94113 15.73518,-18 35.1455,-18 19.41032,0 35.1455,8.05887 35.1455,18 z"
     sodipodi:cx="296"
     sodipodi:cy="-478"
     sodipodi:rx="35.1455"
     sodipodi:ry="18"
     style="fill:none;stroke:#000000"
     transform="translate(4,588)" />
  <text
     x="300"
     y="113.70001"
     font-size="14.00"
     id="text5574"
     style="font-size:14px;text-anchor:middle;font-family:Karla;font-weight:bold;-inkscape-font-specification:Karla Bold">nurse</text>
  <path
     d="m 223.627,38.375 c 14.547,13.452 35.859,33.16 52.276,48.341"
     id="path5579"
     inkscape:connector-curvature="0"
     style="fill:none;stroke:#000000" />
  <polygon
     points="274.552,-503.601 279.517,-494.242 269.799,-498.462 274.552,-503.601 "
     id="polygon5581"
     style="fill:#000000;stroke:#000000"
     transform="translate(4,588)" />
  <text
     x="292.5"
     y="69.700012"
     font-size="14.00"
     id="text5583"
     style="font-size:14px;text-anchor:middle;font-family:Karla;font-weight:bold;-inkscape-font-specification:Karla Bold">employer</text>
  <path
     d="m 140.259,128.24 c -1.33,10.477 -1.251,23.723 4.741,33.76 5.773,9.669 15.29,16.889 25.155,22.179"
     id="path5588"
     inkscape:connector-curvature="0"
     style="fill:none;stroke:#000000" />
  <polygon
     points="167.701,-406.962 175.214,-399.492 164.682,-400.646 167.701,-406.962 "
     id="polygon5590"
     style="fill:#000000;stroke:#000000"
     transform="translate(4,588)" />
  <text
     x="169"
     y="157.70001"
     font-size="14.00"
     id="text5592"
     style="font-size:14px;text-anchor:middle;font-family:Karla;font-weight:bold;-inkscape-font-specification:Karla Bold">mother</text>
  <path
     d="m 235.773,189.8 c 11.541,-0.463 21.227,2.27 21.227,8.2 0,4.077 -4.578,6.642 -11.19,7.697"
     id="path5597"
     inkscape:connector-curvature="0"
     style="fill:none;stroke:#000000" />
  <polygon
     points="241.936,-378.805 231.773,-381.8 241.586,-385.796 241.936,-378.805 "
     id="polygon5599"
     style="fill:#000000;stroke:#000000"
     transform="translate(4,588)" />
  <text
     x="328"
     y="201.70001"
     font-size="14.00"
     id="text5601"
     style="font-size:14px;text-anchor:middle;font-family:Karla;font-weight:bold;-inkscape-font-specification:Karla Bold">becomes Anna Kavan</text>
  <ellipse
     cx="307"
     cy="-302"
     rx="38.021198"
     ry="18"
     id="ellipse5606"
     d="m 345.0212,-302 c 0,9.94113 -17.02267,18 -38.0212,18 -20.99853,0 -38.0212,-8.05887 -38.0212,-18 0,-9.94113 17.02267,-18 38.0212,-18 20.99853,0 38.0212,8.05887 38.0212,18 z"
     sodipodi:cx="307"
     sodipodi:cy="-302"
     sodipodi:rx="38.021198"
     sodipodi:ry="18"
     style="fill:none;stroke:#000000"
     transform="translate(4,588)" />
  <text
     x="311"
     y="289.70001"
     font-size="14.00"
     id="text5608"
     style="font-size:14px;text-anchor:middle;font-family:Karla;font-weight:bold;-inkscape-font-specification:Karla Bold">sidney</text>
  <path
     d="m 224.642,213.589 c 16.558,13.692 41.529,34.341 60.367,49.918"
     id="path5613"
     inkscape:connector-curvature="0"
     style="fill:none;stroke:#000000" />
  <polygon
     points="283.446,-327.019 288.922,-317.949 278.985,-321.625 283.446,-327.019 "
     id="polygon5615"
     style="fill:#000000;stroke:#000000"
     transform="translate(4,588)" />
  <text
     x="289"
     y="245.70001"
     font-size="14.00"
     id="text5617"
     style="font-size:14px;text-anchor:middle;font-family:Karla;font-weight:bold;-inkscape-font-specification:Karla Bold">friend</text>
  <ellipse
     cx="116"
     cy="-302"
     rx="51.0191"
     ry="18"
     id="ellipse5622"
     d="m 167.0191,-302 c 0,9.94113 -22.84203,18 -51.0191,18 -28.177071,0 -51.0191,-8.05887 -51.0191,-18 0,-9.94113 22.842029,-18 51.0191,-18 28.17707,0 51.0191,8.05887 51.0191,18 z"
     sodipodi:cx="116"
     sodipodi:cy="-302"
     sodipodi:rx="51.0191"
     sodipodi:ry="18"
     style="fill:none;stroke:#000000"
     transform="translate(4,588)" />
  <text
     x="120"
     y="289.70001"
     font-size="14.00"
     id="text5624"
     style="font-size:14px;text-anchor:middle;font-family:Karla;font-weight:bold;-inkscape-font-specification:Karla Bold">catherine</text>
  <path
     d="M 184.166,210.886 C 173.901,216.926 162.081,224.912 153,234 c -7.414,7.419 -14.047,16.771 -19.389,25.434"
     id="path5629"
     inkscape:connector-curvature="0"
     style="fill:none;stroke:#000000" />
  <polygon
     points="132.609,-326.758 124.535,-319.897 126.568,-330.295 132.609,-326.758 "
     id="polygon5631"
     style="fill:#000000;stroke:#000000"
     transform="translate(4,588)" />
  <text
     x="173"
     y="245.70001"
     font-size="14.00"
     id="text5633"
     style="font-size:14px;text-anchor:middle;font-family:Karla;font-weight:bold;-inkscape-font-specification:Karla Bold">friend</text>
  <ellipse
     cx="48"
     cy="-248"
     rx="48.617901"
     ry="18"
     id="ellipse5638"
     d="m 96.617901,-248 c 0,9.94113 -21.766976,18 -48.617901,18 -26.850925,0 -48.61790085,-8.05887 -48.61790085,-18 0,-9.94113 21.76697585,-18 48.61790085,-18 26.850925,0 48.617901,8.05887 48.617901,18 z"
     sodipodi:cx="48"
     sodipodi:cy="-248"
     sodipodi:rx="48.617901"
     sodipodi:ry="18"
     style="fill:none;stroke:#000000"
     transform="translate(4,588)" />
  <text
     x="52"
     y="343.70001"
     font-size="14.00"
     id="text5640"
     style="font-size:14px;text-anchor:middle;font-family:Karla;font-weight:bold;-inkscape-font-specification:Karla Bold">matthew</text>
  <path
     d="M 175.872,203.228 C 150.81,207.758 115.514,216.762 89,234 c -16.6515,10.826 -21.0977,15.779 -29,34 -5.9194,13.649 -8.0482,30.093 -8.639,43.717"
     id="path5645"
     inkscape:connector-curvature="0"
     style="fill:none;stroke:#000000" />
  <polygon
     points="50.8565,-276.002 47.1739,-266.068 43.8577,-276.131 50.8565,-276.002 "
     id="polygon5647"
     style="fill:#000000;stroke:#000000"
     transform="translate(4,588)" />
  <text
     x="113"
     y="245.70001"
     font-size="14.00"
     id="text5649"
     style="font-size:14px;text-anchor:middle;font-family:Karla;font-weight:bold;-inkscape-font-specification:Karla Bold">spouse</text>
  <path
     d="m 283.801,125.98 c -14.669,13.565 -36.464,33.719 -53.093,49.096"
     id="path5654"
     inkscape:connector-curvature="0"
     style="fill:none;stroke:#000000" />
  <polygon
     points="228.732,-410.028 219.014,-405.808 223.979,-415.167 228.732,-410.028 "
     id="polygon5656"
     style="fill:#000000;stroke:#000000"
     transform="translate(4,588)" />
  <text
     x="291.5"
     y="157.70001"
     font-size="14.00"
     id="text5658"
     style="font-size:14px;text-anchor:middle;font-family:Karla;font-weight:bold;-inkscape-font-specification:Karla Bold">educator</text>
  <ellipse
     cx="257"
     cy="-106"
     rx="44.271"
     ry="18"
     id="ellipse5663"
     d="m 301.271,-106 c 0,9.941125 -19.8208,18 -44.271,18 -24.4502,0 -44.271,-8.058875 -44.271,-18 0,-9.94113 19.8208,-18 44.271,-18 24.4502,0 44.271,8.05887 44.271,18 z"
     sodipodi:cx="257"
     sodipodi:cy="-106"
     sodipodi:rx="44.271"
     sodipodi:ry="18"
     style="fill:none;stroke:#000000"
     transform="translate(4,588)" />
  <text
     x="261"
     y="485.70001"
     font-size="14.00"
     id="text5665"
     style="font-size:14px;text-anchor:middle;font-family:Karla;font-weight:bold;-inkscape-font-specification:Karla Bold">lauretta</text>
  <path
     d="M 303.609,476.212 C 322.897,471.688 344.018,462.929 356,446 422.399,352.19 375.565,303.286 358,268 337.924,227.669 286.072,210.865 248.731,203.894"
     id="path5670"
     inkscape:connector-curvature="0"
     style="fill:none;stroke:#000000" />
  <polygon
     points="243.895,-380.698 234.622,-385.824 245.067,-387.599 243.895,-380.698 "
     id="polygon5672"
     style="fill:#000000;stroke:#000000"
     transform="translate(4,588)" />
  <text
     x="411.5"
     y="343.70001"
     font-size="14.00"
     id="text5674"
     style="font-size:14px;text-anchor:middle;font-family:Karla;font-weight:bold;-inkscape-font-specification:Karla Bold">parent</text>
  <ellipse
     cx="257"
     cy="-18"
     rx="46.219101"
     ry="18"
     id="ellipse5679"
     d="m 303.2191,-18 c 0,9.9411255 -20.693,18 -46.2191,18 -25.5261,0 -46.2191,-8.0588745 -46.2191,-18 0,-9.941125 20.693,-18 46.2191,-18 25.5261,0 46.2191,8.058875 46.2191,18 z"
     sodipodi:cx="257"
     sodipodi:cy="-18"
     sodipodi:rx="46.219101"
     sodipodi:ry="18"
     style="fill:none;stroke:#000000"
     transform="translate(4,588)" />
  <text
     x="261"
     y="573.70001"
     font-size="14.00"
     id="text5681"
     style="font-size:14px;text-anchor:middle;font-family:Karla;font-weight:bold;-inkscape-font-specification:Karla Bold">heyward</text>
  <path
     d="m 261,500.4034 c 0,11.8507 0,27.7797 0,41.3049"
     id="path5686"
     inkscape:connector-curvature="0"
     style="fill:none;stroke:#000000" />
  <polygon
     points="260.5,-46.084 257,-36.084 253.5,-46.084 260.5,-46.084 "
     id="polygon5688"
     style="fill:#000000;stroke:#000000"
     transform="translate(4,588)" />
  <text
     x="285"
     y="529.70001"
     font-size="14.00"
     id="text5690"
     style="font-size:14px;text-anchor:middle;font-family:Karla;font-weight:bold;-inkscape-font-specification:Karla Bold">spouse</text>
  <ellipse
     cx="257"
     cy="-194"
     rx="37.070099"
     ry="18"
     id="ellipse5695"
     d="m 294.0701,-194 c 0,9.94113 -16.59685,18 -37.0701,18 -20.47325,0 -37.0701,-8.05887 -37.0701,-18 0,-9.94113 16.59685,-18 37.0701,-18 20.47325,0 37.0701,8.05887 37.0701,18 z"
     sodipodi:cx="257"
     sodipodi:cy="-194"
     sodipodi:rx="37.070099"
     sodipodi:ry="18"
     style="fill:none;stroke:#000000"
     transform="translate(4,588)" />
  <text
     x="261"
     y="397.70001"
     font-size="14.00"
     id="text5697"
     style="font-size:14px;text-anchor:middle;font-family:Karla;font-weight:bold;-inkscape-font-specification:Karla Bold">rachel</text>
  <path
     d="M 250.355,376.727 C 239.65,359.454 223.666,330.981 216,304 c -7.315,-25.745 -9.208,-56.353 -9.488,-77.86"
     id="path5702"
     inkscape:connector-curvature="0"
     style="fill:none;stroke:#000000" />
  <polygon
     points="199.012,-361.906 202.49,-371.913 206.012,-361.921 199.012,-361.906 "
     id="polygon5704"
     style="fill:#000000;stroke:#000000"
     transform="translate(4,588)" />
  <text
     x="240"
     y="289.70001"
     font-size="14.00"
     id="text5706"
     style="font-size:14px;text-anchor:middle;font-family:Karla;font-weight:bold;-inkscape-font-specification:Karla Bold">mentor</text>
  <path
     d="m 261,412.403 c 0,11.851 0,27.78 0,41.305"
     id="path5711"
     inkscape:connector-curvature="0"
     style="fill:none;stroke:#000000" />
  <polygon
     points="260.5,-134.084 257,-124.084 253.5,-134.084 260.5,-134.084 "
     id="polygon5713"
     style="fill:#000000;stroke:#000000"
     transform="translate(4,588)" />
  <text
     x="306.5"
     y="441.70001"
     font-size="14.00"
     id="text5715"
     style="font-size:14px;text-anchor:middle;font-family:Karla;font-weight:bold;-inkscape-font-specification:Karla Bold">acquaintance</text>
  <path
     d="m 302.967,304.031 c -8.03,17.022 -20.48,43.416 -29.737,63.041"
     id="path5720"
     inkscape:connector-curvature="0"
     style="fill:none;stroke:#000000" />
  <polygon
     points="272.28,-219.19 264.849,-211.639 265.949,-222.176 272.28,-219.19 "
     id="polygon5722"
     style="fill:#000000;stroke:#000000"
     transform="translate(4,588)" />
  <text
     x="316"
     y="343.70001"
     font-size="14.00"
     id="text5724"
     style="font-size:14px;text-anchor:middle;font-family:Karla;font-weight:bold;-inkscape-font-specification:Karla Bold">enemy</text>
  <path
     d="M 65.9286,357.432 C 79.6009,372.867 101.6078,395.93 124,412 c 30.421,21.832 68.753,40.497 97.13,52.888"
     id="path5729"
     inkscape:connector-curvature="0"
     style="fill:none;stroke:#000000" />
  <polygon
     points="218.537,-126.317 226.345,-119.155 215.776,-119.885 218.537,-126.317 "
     id="polygon5731"
     style="fill:#000000;stroke:#000000"
     transform="translate(4,588)" />
  <text
     x="169.5"
     y="397.70001"
     font-size="14.00"
     id="text5733"
     style="font-size:14px;text-anchor:middle;font-family:Karla;font-weight:bold;-inkscape-font-specification:Karla Bold">acquaintance</text>
</svg>
