<?xml version="1.0" encoding="UTF-8" standalone="no"?>
<!-- Created by diasvg.py -->

<svg
   xmlns:dc="http://purl.org/dc/elements/1.1/"
   xmlns:cc="http://creativecommons.org/ns#"
   xmlns:rdf="http://www.w3.org/1999/02/22-rdf-syntax-ns#"
   xmlns:svg="http://www.w3.org/2000/svg"
   xmlns="http://www.w3.org/2000/svg"
   xmlns:sodipodi="http://sodipodi.sourceforge.net/DTD/sodipodi-0.dtd"
   xmlns:inkscape="http://www.inkscape.org/namespaces/inkscape"
   width="62.068cm"
   height="50.685cm"
   viewBox="1.633 1.362 63.701 52.047"
   id="svg5868"
   version="1.1"
   inkscape:version="0.48.4 r9939"
   sodipodi:docname="letMeAlone-dia.svg">
  <metadata
     id="metadata6178">
    <rdf:RDF>
      <cc:Work
         rdf:about="">
        <dc:format>image/svg+xml</dc:format>
        <dc:type
           rdf:resource="http://purl.org/dc/dcmitype/StillImage" />
      </cc:Work>
    </rdf:RDF>
  </metadata>
  <defs
     id="defs6176">
    <inkscape:path-effect
       effect="spiro"
       id="path-effect6186"
       is_visible="true" />
    <inkscape:path-effect
       effect="spiro"
       id="path-effect6184"
       is_visible="true" />
    <inkscape:path-effect
       effect="spiro"
       id="path-effect6182"
       is_visible="true" />
    <inkscape:path-effect
       effect="spiro"
       id="path-effect6180"
       is_visible="true" />
  </defs>
  <sodipodi:namedview
     pagecolor="#ffffff"
     bordercolor="#666666"
     borderopacity="1"
     objecttolerance="10"
     gridtolerance="10"
     guidetolerance="10"
     inkscape:pageopacity="0"
     inkscape:pageshadow="2"
     inkscape:window-width="1276"
     inkscape:window-height="775"
     id="namedview6174"
     showgrid="false"
     inkscape:zoom="0.48040712"
     inkscape:cx="752.98416"
     inkscape:cy="1090.6352"
     inkscape:window-x="0"
     inkscape:window-y="21"
     inkscape:window-maximized="1"
     inkscape:current-layer="svg5868" />
  <path
     stroke="#2E8B57"
     fill="none"
     stroke-width="0.100"
     d="M 40.514,23.010 A 17.416,17.416 0 0,0 34.562,7.053 "
     id="path5870" />
  <polyline
     fill="none"
     stroke="#2E8B57"
     stroke-width="0.100"
     points="35.022,7.106 34.477,6.981 34.703,7.492 "
     id="polyline5872" />
  <line
     x1="46.384"
     y1="5.693"
     x2="35.305"
     y2="6.115"
     stroke="#000000"
     stroke-width="0.100"
     id="line5874" />
  <polyline
     fill="none"
     stroke="#000000"
     stroke-width="0.100"
     points="46.006,5.958 46.496,5.689 45.987,5.458 "
     id="polyline5876" />
  <polyline
     fill="none"
     stroke="#000000"
     stroke-width="0.100"
     points="35.684,5.851 35.194,6.120 35.703,6.350 "
     id="polyline5878" />
  <text
     x="40.845"
     y="5.904"
     fill="#000000"
     text-anchor="start"
     font-size="0.80"
     font-family="Karla"
     font-style="normal"
     font-weight="700"
     id="text5880"
     style="font-size:0.7245151px">
époux</text>
  <line
     x1="48.166"
     y1="6.597"
     x2="40.955"
     y2="22.906"
     stroke="#000000"
     stroke-width="0.100"
     id="line5882" />
  <polyline
     fill="none"
     stroke="#000000"
     stroke-width="0.100"
     points="40.883,22.450 40.910,23.008 41.341,22.652 "
     id="polyline5884" />
  <line
     x1="33.767"
     y1="7.057"
     x2="39.514"
     y2="22.869"
     stroke="#000000"
     stroke-width="0.100"
     id="line5886" />
  <polyline
     fill="none"
     stroke="#000000"
     stroke-width="0.100"
     points="39.147,22.590 39.552,22.974 39.617,22.419 "
     id="polyline5888" />
  <text
     x="44.515"
     y="14.854"
     fill="#000000"
     text-anchor="start"
     font-size="0.80"
     font-family="Karla"
     font-style="normal"
     font-weight="700"
     id="text5890"
     style="font-size:0.7245151px">
père</text>
  <text
     x="36.679"
     y="15.068"
     fill="#000000"
     text-anchor="start"
     font-size="0.80"
     font-family="Karla"
     font-style="normal"
     font-weight="700"
     id="text5892"
     style="font-size:0.7245151px">
mère</text>
  <line
     x1="49.612"
     y1="6.478"
     x2="59.948"
     y2="15.372"
     stroke="#000000"
     stroke-width="0.100"
     id="line5894" />
  <polyline
     fill="none"
     stroke="#000000"
     stroke-width="0.100"
     points="59.491,15.308 60.033,15.444 59.817,14.929 "
     id="polyline5896" />
  <text
     x="54.865"
     y="10.998"
     fill="#000000"
     text-anchor="start"
     font-size="0.80"
     font-family="Karla"
     font-style="normal"
     font-weight="700"
     id="text5898"
     style="font-size:0.7245151px">
employeur</text>
  <line
     x1="59.653"
     y1="16.907"
     x2="42.031"
     y2="23.936"
     stroke="#000000"
     stroke-width="0.100"
     id="line5900" />
  <polyline
     fill="none"
     stroke="#000000"
     stroke-width="0.100"
     points="42.299,23.560 41.927,23.978 42.484,24.024 "
     id="polyline5902" />
  <text
     x="50.738"
     y="20.676"
     fill="#000000"
     text-anchor="start"
     font-size="0.80"
     font-family="Karla"
     font-style="normal"
     font-weight="700"
     id="text5904"
     style="font-size:0.7245151px">
éducatrice</text>
  <line
     x1="42.160"
     y1="24.991"
     x2="59.239"
     y2="27.686"
     stroke="#000000"
     stroke-width="0.100"
     id="line5906" />
  <polyline
     fill="none"
     stroke="#000000"
     stroke-width="0.100"
     points="42.583,24.805 42.050,24.974 42.505,25.299 "
     id="polyline5908" />
  <polyline
     fill="none"
     stroke="#000000"
     stroke-width="0.100"
     points="58.817,27.873 59.350,27.704 58.895,27.379 "
     id="polyline5910" />
  <text
     x="50.700"
     y="26.339"
     fill="#000000"
     text-anchor="start"
     font-size="0.80"
     font-family="Karla"
     font-style="normal"
     font-weight="700"
     id="text5912"
     style="font-size:0.7245151px">
amis</text>
  <line
     x1="40.656"
     y1="26.544"
     x2="45.709"
     y2="45.998"
     stroke="#2E8B57"
     stroke-width="0.100"
     id="line5914" />
  <polyline
     fill="none"
     stroke="#2E8B57"
     stroke-width="0.100"
     points="40.996,26.857 40.628,26.436 40.512,26.983 "
     id="polyline5916" />
  <polyline
     fill="none"
     stroke="#2E8B57"
     stroke-width="0.100"
     points="45.369,45.685 45.737,46.106 45.853,45.560 "
     id="polyline5918" />
  <text
     x="43.182"
     y="36.271"
     fill="#000000"
     text-anchor="start"
     font-size="0.80"
     font-family="Karla"
     font-style="normal"
     font-weight="700"
     id="text5920"
     style="font-size:0.7245151px">
amis</text>
  <line
     x1="16.674"
     y1="50.298"
     x2="38.845"
     y2="26.125"
     stroke="#2E8B57"
     stroke-width="0.100"
     id="line5922" />
  <polyline
     fill="none"
     stroke="#2E8B57"
     stroke-width="0.100"
     points="38.766,26.580 38.920,26.042 38.398,26.242 "
     id="polyline5924" />
  <text
     x="27.835"
     y="38.129"
     fill="#000000"
     text-anchor="start"
     font-size="0.80"
     font-family="Karla"
     font-style="normal"
     font-weight="700"
     id="text5926"
     style="font-size:0.7245151px">
mentor</text>
  <line
     x1="44.247"
     y1="47.359"
     x2="17.855"
     y2="50.868"
     stroke="#000000"
     stroke-width="0.100"
     id="line5928" />
  <polyline
     fill="none"
     stroke="#000000"
     stroke-width="0.100"
     points="18.207,50.569 17.744,50.883 18.273,51.065 "
     id="polyline5930" />
  <text
     x="30.940"
     y="49.128"
     fill="#000000"
     text-anchor="start"
     font-size="0.80"
     font-family="Karla"
     font-style="normal"
     font-weight="700"
     id="text5932"
     style="font-size:0.7245151px">
ennemi</text>
  <line
     x1="15.440"
     y1="18.036"
     x2="38.231"
     y2="24.157"
     stroke="#000000"
     stroke-width="0.100"
     id="line5934" />
  <polyline
     fill="none"
     stroke="#000000"
     stroke-width="0.100"
     points="37.792,24.297 38.339,24.186 37.921,23.814 "
     id="polyline5936" />
  <text
     x="26.944"
     y="21.125"
     fill="#000000"
     text-anchor="start"
     font-size="0.80"
     font-family="Karla"
     font-style="normal"
     font-weight="700"
     id="text5938"
     style="font-size:0.7245151px">
parent</text>
  <text
     x="14.753"
     y="34.424"
     fill="#000000"
     text-anchor="start"
     font-size="0.80"
     font-family="Karla"
     font-style="normal"
     font-weight="700"
     id="text5940"
     style="font-size:0.7245151px">
connaissance</text>
  <line
     x1="15.835"
     y1="49.984"
     x2="13.670"
     y2="18.864"
     stroke="#000000"
     stroke-width="0.100"
     id="line5942" />
  <polyline
     fill="none"
     stroke="#000000"
     stroke-width="0.100"
     points="15.559,49.614 15.843,50.095 16.057,49.579 "
     id="polyline5944" />
  <polyline
     fill="none"
     stroke="#000000"
     stroke-width="0.100"
     points="13.946,19.234 13.662,18.753 13.448,19.269 "
     id="polyline5946" />
  <line
     x1="11.260"
     y1="17.540"
     x2="6.275"
     y2="17.549"
     stroke="#000000"
     stroke-width="0.100"
     id="line5948" />
  <polyline
     fill="none"
     stroke="#000000"
     stroke-width="0.100"
     points="10.872,17.790 11.372,17.540 10.871,17.290 "
     id="polyline5950" />
  <polyline
     fill="none"
     stroke="#000000"
     stroke-width="0.100"
     points="6.662,17.298 6.163,17.549 6.663,17.798 "
     id="polyline5952" />
  <text
     x="8.767"
     y="17.544"
     fill="#000000"
     text-anchor="start"
     font-size="0.80"
     font-family="Karla"
     font-style="normal"
     font-weight="700"
     id="text5954"
     style="font-size:0.7245151px">
époux</text>
  <line
     x1="14.599"
     y1="18.704"
     x2="24.715"
     y2="30.275"
     stroke="#000000"
     stroke-width="0.100"
     id="line5956" />
  <polyline
     fill="none"
     stroke="#000000"
     stroke-width="0.100"
     points="15.043,18.832 14.525,18.620 14.666,19.161 "
     id="polyline5958" />
  <polyline
     fill="none"
     stroke="#000000"
     stroke-width="0.100"
     points="24.271,30.147 24.788,30.359 24.647,29.818 "
     id="polyline5960" />
  <text
     x="19.657"
     y="24.489"
     fill="#000000"
     text-anchor="start"
     font-size="0.80"
     font-family="Karla"
     font-style="normal"
     font-weight="700"
     id="text5962"
     style="font-size:0.7245151px">
connaissance</text>
  <line
     x1="38.350"
     y1="25.501"
     x2="27.183"
     y2="30.546"
     stroke="#000000"
     stroke-width="0.100"
     id="line5964" />
  <polyline
     fill="none"
     stroke="#000000"
     stroke-width="0.100"
     points="38.100,25.888 38.452,25.454 37.894,25.433 "
     id="polyline5966" />
  <polyline
     fill="none"
     stroke="#000000"
     stroke-width="0.100"
     points="27.434,30.158 27.081,30.592 27.640,30.614 "
     id="polyline5968" />
  <text
     x="32.767"
     y="28.023"
     fill="#000000"
     text-anchor="start"
     font-size="0.80"
     font-family="Karla"
     font-style="normal"
     font-weight="700"
     id="text5970"
     style="font-size:0.7245151px">
époux</text>
  <ellipse
     cx="48.603"
     cy="5.609"
     rx="1.951"
     ry="0.964"
     fill="#FFFFFF"
     stroke="none"
     id="ellipse5972" />
  <ellipse
     cx="48.603"
     cy="5.609"
     rx="1.951"
     ry="0.964"
     fill="none"
     stroke="#000000"
     stroke-width="0.100"
     id="ellipse5974" />
  <text
     x="47.674"
     y="5.795"
     fill="#000000"
     text-anchor="start"
     font-size="0.80"
     font-family="Karla"
     font-style="normal"
     font-weight="700"
     id="text5976"
     style="font-size:0.7245151px">
James</text>
  <ellipse
     cx="33.450"
     cy="6.186"
     rx="1.588"
     ry="0.844"
     fill="#FFFFFF"
     stroke="none"
     id="ellipse5978" />
  <ellipse
     cx="33.450"
     cy="6.186"
     rx="1.588"
     ry="0.844"
     fill="none"
     stroke="#000000"
     stroke-width="0.100"
     id="ellipse5980" />
  <text
     x="32.893"
     y="6.372"
     fill="#000000"
     text-anchor="start"
     font-size="0.80"
     font-family="Karla"
     font-style="normal"
     font-weight="700"
     id="text5982"
     style="font-size:0.7245151px">
Lise</text>
  <ellipse
     cx="61.074"
     cy="16.340"
     rx="1.696"
     ry="0.941"
     fill="#FFFFFF"
     stroke="none"
     id="ellipse5984" />
  <ellipse
     cx="61.074"
     cy="16.340"
     rx="1.696"
     ry="0.941"
     fill="none"
     stroke="#000000"
     stroke-width="0.100"
     id="ellipse5986" />
  <text
     x="60.238"
     y="16.526"
     fill="#000000"
     text-anchor="start"
     font-size="0.80"
     font-family="Karla"
     font-style="normal"
     font-weight="700"
     id="text5988"
     style="font-size:0.7245151px">
nurse</text>
  <ellipse
     cx="15.914"
     cy="51.126"
     rx="1.742"
     ry="0.871"
     fill="#FFFFFF"
     stroke="none"
     id="ellipse5990" />
  <ellipse
     cx="15.914"
     cy="51.126"
     rx="1.742"
     ry="0.871"
     fill="none"
     stroke="#000000"
     stroke-width="0.100"
     id="ellipse5992" />
  <text
     x="14.800"
     y="51.312"
     fill="#000000"
     text-anchor="start"
     font-size="0.80"
     font-family="Karla"
     font-style="normal"
     font-weight="700"
     id="text5994"
     style="font-size:0.7245151px">
Rachel</text>
  <ellipse
     cx="40.172"
     cy="24.678"
     rx="1.742"
     ry="1.649"
     fill="#FFFFFF"
     stroke="none"
     id="ellipse5996" />
  <ellipse
     cx="40.172"
     cy="24.678"
     rx="1.742"
     ry="1.649"
     fill="none"
     stroke="#000000"
     stroke-width="0.100"
     id="ellipse5998" />
  <text
     x="39.336"
     y="24.817"
     fill="#000000"
     text-anchor="start"
     font-size="0.80"
     font-family="Karla"
     font-style="normal"
     font-weight="700"
     id="text6000"
     style="font-size:0.7245151px">
Anna</text>
  <ellipse
     cx="3.843"
     cy="17.553"
     rx="2.160"
     ry="1.068"
     fill="#FFFFFF"
     stroke="none"
     id="ellipse6002" />
  <ellipse
     cx="3.843"
     cy="17.553"
     rx="2.160"
     ry="1.068"
     fill="none"
     stroke="#000000"
     stroke-width="0.100"
     id="ellipse6004" />
  <text
     x="2.542"
     y="17.692"
     fill="#000000"
     text-anchor="start"
     font-size="0.80"
     font-family="Karla"
     font-style="normal"
     font-weight="700"
     id="text6006"
     style="font-size:0.7245151px">
Heyward</text>
  <ellipse
     cx="13.578"
     cy="17.536"
     rx="2.044"
     ry="1.057"
     fill="#FFFFFF"
     stroke="none"
     id="ellipse6008" />
  <ellipse
     cx="13.578"
     cy="17.536"
     rx="2.044"
     ry="1.057"
     fill="none"
     stroke="#000000"
     stroke-width="0.100"
     id="ellipse6010" />
  <text
     x="12.231"
     y="17.721"
     fill="#000000"
     text-anchor="start"
     font-size="0.80"
     font-family="Karla"
     font-style="normal"
     font-weight="700"
     id="text6012"
     style="font-size:0.7245151px">
Lauretta</text>
  <ellipse
     cx="46.001"
     cy="47.126"
     rx="1.765"
     ry="0.871"
     fill="#FFFFFF"
     stroke="none"
     id="ellipse6014" />
  <ellipse
     cx="46.001"
     cy="47.126"
     rx="1.765"
     ry="0.871"
     fill="none"
     stroke="#000000"
     stroke-width="0.100"
     id="ellipse6016" />
  <text
     x="44.840"
     y="47.358"
     fill="#000000"
     text-anchor="start"
     font-size="0.80"
     font-family="Karla"
     font-style="normal"
     font-weight="700"
     id="text6018"
     style="font-size:0.7245151px">
Sydney</text>
  <ellipse
     cx="61.528"
     cy="28.048"
     rx="2.123"
     ry="1.026"
     fill="#FFFFFF"
     stroke="none"
     id="ellipse6020" />
  <ellipse
     cx="61.528"
     cy="28.048"
     rx="2.123"
     ry="1.026"
     fill="none"
     stroke="#000000"
     stroke-width="0.100"
     id="ellipse6022" />
  <text
     x="61.528"
     y="28.048"
     fill="#000000"
     text-anchor="middle"
     font-size="0.80"
     font-family="Karla"
     font-style="normal"
     font-weight="700"
     id="text6024"
     style="font-size:0.7245151px">
Catherine</text>
  <ellipse
     cx="25.583"
     cy="31.269"
     rx="2.067"
     ry="0.836"
     fill="#FFFFFF"
     stroke="none"
     id="ellipse6026" />
  <ellipse
     cx="25.583"
     cy="31.269"
     rx="2.067"
     ry="0.836"
     fill="none"
     stroke="#000000"
     stroke-width="0.100"
     id="ellipse6028" />
  <text
     x="24.236"
     y="31.501"
     fill="#000000"
     text-anchor="start"
     font-size="0.80"
     font-family="Karla"
     font-style="normal"
     font-weight="700"
     id="text6030"
     style="font-size:0.7245151px">
Matthew</text>
  <path
     stroke="#2E8B57"
     fill="none"
     stroke-width="0.100"
     d="M 38.829,23.572 A 31.384,31.384 0 0,0 15.801,17.186 "
     id="path6032" />
  <polyline
     fill="none"
     stroke="#2E8B57"
     stroke-width="0.100"
     points="16.154,16.888 15.690,17.200 16.218,17.384 "
     id="polyline6034" />
  <path
     d="M 49.982,4.927 C 50.368552,4.68306 50.624899,4.2443101 50.647604,3.7877868 50.67031,3.3312636 50.458763,2.8692427 50.098324,2.5881507 49.841047,2.387511 49.513527,2.2788356 49.18734,2.2858747 48.861153,2.2929138 48.538626,2.4156173 48.290244,2.6271691 48.041863,2.8387209 47.869399,3.1376123 47.810542,3.4585226 47.751686,3.779433 47.806858,4.1200737 47.964,4.406"
     id="path6036"
     inkscape:path-effect="#path-effect6184"
     inkscape:original-d="M 49.982,4.927 C 49.784496,4.5962425 50.470214,2.684164 50.098324,2.5881507 49.726434,2.4921374 48.296935,4.2121893 47.964,4.406"
     inkscape:connector-curvature="0"
     style="fill:none;stroke:#2e8b57;stroke-width:0.10000000000000001"
     sodipodi:nodetypes="csc" />
  <polyline
     fill="none"
     stroke="#2E8B57"
     stroke-width="0.100"
     points="47.510,4.273 48.021,4.501 47.897,3.956 "
     id="polyline6038" />
  <line
     x1="48.066"
     y1="2.856"
     x2="29.243"
     y2="17.453"
     stroke="#2E8B57"
     stroke-width="0.100"
     id="line6040" />
  <polyline
     fill="none"
     stroke="#2E8B57"
     stroke-width="0.100"
     points="29.397,17.018 29.155,17.522 29.703,17.413 "
     id="polyline6042" />
  <rect
     x="26.027"
     y="17.640"
     width="4.274"
     height="1.301"
     fill="#FFFFFF"
     stroke="none"
     stroke-width="0"
     id="rect6044" />
  <rect
     x="26.027"
     y="17.640"
     width="4.274"
     height="1.301"
     fill="none"
     stroke="#000000"
     stroke-width="0.100"
     id="rect6046" />
  <text
     x="26.259"
     y="18.476"
     fill="#000000"
     text-anchor="start"
     font-size="0.80"
     font-family="Karla"
     font-style="normal"
     font-weight="700"
     id="text6048"
     style="font-size:0.7245151px">
habite avec</text>
  <rect
     x="47.822"
     y="1.412"
     width="2.416"
     height="1.394"
     fill="#FFFFFF"
     stroke="none"
     stroke-width="0"
     id="rect6050" />
  <rect
     x="47.822"
     y="1.412"
     width="2.416"
     height="1.394"
     fill="none"
     stroke="#000000"
     stroke-width="0.100"
     id="rect6052" />
  <text
     x="48.193"
     y="2.260"
     fill="#000000"
     text-anchor="start"
     font-size="0.80"
     font-family="Karla"
     font-style="normal"
     font-weight="700"
     id="text6054"
     style="font-size:0.7245151px">
mort</text>
  <path
     d="m 40.289,26.517 c 0.399922,0.566616 0.990414,0.996184 1.65263,1.202247 0.662216,0.206062 1.392188,0.187385 2.043,-0.05227 0.650811,-0.239658 1.218563,-0.69886 1.588986,-1.285186 0.370423,-0.586327 0.541298,-1.296263 0.478234,-1.986926 -0.06029,-0.660311 -0.333507,-1.299511 -0.769122,-1.799397 -0.435614,-0.499886 -1.031442,-0.857951 -1.677304,-1.007982 -0.645861,-0.15003 -1.338515,-0.09127 -1.949876,0.165405 C 41.044187,22.009567 40.517187,22.46288 40.172,23.029"
     id="path6056"
     inkscape:path-effect="#path-effect6182"
     inkscape:original-d="m 40.289,26.517 c 0.304252,-0.531528 5.783366,-1.510506 5.76285,-2.122138 C 46.031333,23.78323 40.511187,23.538945 40.172,23.029"
     inkscape:connector-curvature="0"
     style="fill:none;stroke:#2e8b57;stroke-width:0.10000000000000001"
     sodipodi:nodetypes="csc" />
  <polyline
     fill="none"
     stroke="#2E8B57"
     stroke-width="0.100"
     points="40.692,26.734 40.227,26.424 40.258,26.982 "
     id="polyline6058" />
  <rect
     x="42.512"
     y="26.604"
     width="4.790"
     height="2.254"
     fill="#FFFFFF"
     stroke="none"
     stroke-width="0"
     id="rect6060" />
  <rect
     x="42.512"
     y="26.604"
     width="4.790"
     height="2.254"
     fill="none"
     stroke="#000000"
     stroke-width="0.100"
     id="rect6062" />
  <text
     x="44.907"
     y="27.544"
     fill="#000000"
     text-anchor="middle"
     font-size="0.80"
     font-family="Karla"
     font-style="normal"
     font-weight="700"
     id="text6064"
     style="font-size:0.7245151px">
devient</text>
  <text
     x="44.907"
     y="28.344"
     fill="#000000"
     text-anchor="middle"
     font-size="0.80"
     font-family="Karla"
     font-style="normal"
     font-weight="700"
     id="text6066"
     style="font-size:0.7245151px">
Anna Kavan</text>
  <path
     stroke="#2E8B57"
     fill="none"
     stroke-width="0.100"
     d="M 32.767,28.023 A 6.698,6.698 0 0,0 44.796,29.053 "
     id="path6068" />
  <polyline
     fill="none"
     stroke="#2E8B57"
     stroke-width="0.100"
     points="44.833,29.515 44.853,28.957 44.394,29.275 "
     id="polyline6070" />
  <path
     stroke="#2E8B57"
     fill="none"
     stroke-width="0.100"
     d="M 33.263,7.073 A 17.902,17.902 0 0,0 38.655,23.412 "
     id="path6072" />
  <polyline
     fill="none"
     stroke="#2E8B57"
     stroke-width="0.100"
     points="38.199,23.337 38.737,23.488 38.535,22.967 "
     id="polyline6074" />
  <rect
     x="30.749"
     y="11.599"
     width="4.274"
     height="1.301"
     fill="#FFFFFF"
     stroke="none"
     stroke-width="0"
     id="rect6076" />
  <rect
     x="30.749"
     y="11.599"
     width="4.274"
     height="1.301"
     fill="none"
     stroke="#000000"
     stroke-width="0.100"
     id="rect6078" />
  <text
     x="32.886"
     y="12.249"
     fill="#000000"
     text-anchor="middle"
     font-size="0.80"
     font-family="Karla"
     font-style="normal"
     font-weight="700"
     id="text6080"
     style="font-size:0.7245151px">
naissance</text>
  <rect
     x="39.101"
     y="15.589"
     width="2.468"
     height="1.301"
     fill="#FFFFFF"
     stroke="none"
     stroke-width="0"
     id="rect6082" />
  <rect
     x="39.101"
     y="15.589"
     width="2.468"
     height="1.301"
     fill="none"
     stroke="#000000"
     stroke-width="0.100"
     id="rect6084" />
  <text
     x="40.335"
     y="16.239"
     fill="#000000"
     text-anchor="middle"
     font-size="0.80"
     font-family="Karla"
     font-style="normal"
     font-weight="700"
     id="text6086"
     style="font-size:0.7245151px">
mort</text>
  <path
     d="m 48.603,6.573 c -0.192451,0.564014 -0.209458,1.1865287 -0.04809,1.7602088 0.16137,0.5736801 0.500418,1.0960402 0.958685,1.477014 0.458266,0.3809742 1.033766,0.6189112 1.62727,0.6727852 0.593503,0.05387 1.20244,-0.07655 1.721816,-0.368776 C 53.52056,9.7440745 54.026955,9.113187 54.246024,8.3908117 54.465093,7.6684363 54.394418,6.8625452 54.052959,6.1893271 53.711499,5.5161091 53.103022,4.9829937 52.39076,4.7329947 51.678497,4.4829958 50.870309,4.5188723 50.183,4.831"
     id="path6088"
     inkscape:connector-curvature="0"
     style="fill:none;stroke:#2e8b57;stroke-width:0.10000000000000001"
     sodipodi:nodetypes="csc"
     inkscape:path-effect="#path-effect6186"
     inkscape:original-d="m 48.603,6.573 c 0.370707,-0.160672 3.988321,3.840419 4.259684,3.541232 C 53.134048,9.8150451 50.05916,5.2155811 50.183,4.831" />
  <polyline
     fill="none"
     stroke="#2E8B57"
     stroke-width="0.100"
     points="50.406,4.420 50.081,4.875 50.640,4.862 "
     id="polyline6090" />
  <rect
     x="47.825"
     y="9.364"
     width="4.878"
     height="1.889"
     fill="#FFFFFF"
     stroke="none"
     stroke-width="0"
     id="rect6092" />
  <rect
     x="47.825"
     y="9.364"
     width="4.878"
     height="1.889"
     fill="none"
     stroke="#000000"
     stroke-width="0.100"
     id="rect6094" />
  <text
     x="50.263"
     y="10.121"
     fill="#000000"
     text-anchor="middle"
     font-size="0.80"
     font-family="Karla"
     font-style="normal"
     font-weight="700"
     id="text6096"
     style="font-size:0.7245151px">
changement</text>
  <text
     x="50.263"
     y="10.921"
     fill="#000000"
     text-anchor="middle"
     font-size="0.80"
     font-family="Karla"
     font-style="normal"
     font-weight="700"
     id="text6098"
     style="font-size:0.7245151px">
de position</text>
  <path
     stroke="#2E8B57"
     fill="none"
     stroke-width="0.100"
     d="M 59.112,16.440 A 31.993,31.993 0 0,0 41.481,23.548 "
     id="path6100" />
  <polyline
     fill="none"
     stroke="#2E8B57"
     stroke-width="0.100"
     points="58.744,16.718 59.224,16.431 58.706,16.219 "
     id="polyline6102" />
  <rect
     x="47.674"
     y="17.876"
     width="4.878"
     height="1.326"
     fill="#FFFFFF"
     stroke="none"
     stroke-width="0"
     id="rect6104" />
  <rect
     x="47.674"
     y="17.876"
     width="4.878"
     height="1.326"
     fill="none"
     stroke="#000000"
     stroke-width="0.100"
     id="rect6106" />
  <text
     x="50.112"
     y="18.751"
     fill="#000000"
     text-anchor="middle"
     font-size="0.80"
     font-family="Karla"
     font-style="normal"
     font-weight="700"
     id="text6108"
     style="font-size:0.7245151px">
perd contact</text>
  <path
     stroke="#2E8B57"
     fill="none"
     stroke-width="0.100"
     d="M 50.263,11.253 A 5.985,5.985 0 0,0 49.997,17.685 "
     id="path6110" />
  <polyline
     fill="none"
     stroke="#2E8B57"
     stroke-width="0.100"
     points="49.574,17.492 50.053,17.781 49.997,17.225 "
     id="polyline6112" />
  <path
     stroke="#2E8B57"
     fill="none"
     stroke-width="0.100"
     d="M 14.753,34.424 A 7.650,7.650 0 0,0 27.680,38.290 "
     id="path6114" />
  <polyline
     fill="none"
     stroke="#2E8B57"
     stroke-width="0.100"
     points="27.599,38.746 27.759,38.210 27.234,38.405 "
     id="polyline6116" />
  <path
     stroke="#2E8B57"
     fill="none"
     stroke-width="0.100"
     d="M 60.166,27.218 A 26.459,26.459 0 0,0 42.130,24.227 "
     id="path6118" />
  <polyline
     fill="none"
     stroke="#2E8B57"
     stroke-width="0.100"
     points="42.462,23.904 42.021,24.247 42.560,24.395 "
     id="polyline6120" />
  <path
     stroke="#2E8B57"
     fill="none"
     stroke-width="0.100"
     d="M 17.416,50.630 A 35.374,35.374 0 0,0 39.719,26.549 "
     id="path6122" />
  <polyline
     fill="none"
     stroke="#2E8B57"
     stroke-width="0.100"
     points="39.862,26.989 39.748,26.441 39.378,26.861 "
     id="polyline6124" />
  <rect
     x="31.685"
     y="36.934"
     width="5.681"
     height="1.443"
     fill="#FFFFFF"
     stroke="none"
     stroke-width="0"
     id="rect6126" />
  <rect
     x="31.685"
     y="36.934"
     width="5.681"
     height="1.443"
     fill="none"
     stroke="#000000"
     stroke-width="0.100"
     id="rect6128" />
  <text
     x="34.526"
     y="37.869"
     fill="#000000"
     text-anchor="middle"
     font-size="0.80"
     font-family="Karla"
     font-style="normal"
     font-weight="700"
     id="text6130"
     style="font-size:0.7245151px">
ambivalent of</text>
  <rect
     x="50.294"
     y="23.536"
     width="3.867"
     height="1.443"
     fill="#FFFFFF"
     stroke="none"
     stroke-width="0"
     id="rect6132" />
  <rect
     x="50.294"
     y="23.536"
     width="3.867"
     height="1.443"
     fill="none"
     stroke="#000000"
     stroke-width="0.100"
     id="rect6134" />
  <text
     x="52.227"
     y="24.471"
     fill="#000000"
     text-anchor="middle"
     font-size="0.80"
     font-family="Karla"
     font-style="normal"
     font-weight="700"
     id="text6136"
     style="font-size:0.7245151px">
influence</text>
  <path
     stroke="#2E8B57"
     fill="none"
     stroke-width="0.100"
     d="M 14.715,18.447 A 32.660,32.660 0 0,0 38.185,24.962 "
     id="path6138" />
  <polyline
     fill="none"
     stroke="#2E8B57"
     stroke-width="0.100"
     points="37.829,25.257 38.296,24.949 37.770,24.760 "
     id="polyline6140" />
  <rect
     x="25.405"
     y="23.862"
     width="3.960"
     height="1.301"
     fill="#FFFFFF"
     stroke="none"
     stroke-width="0"
     id="rect6142" />
  <rect
     x="25.405"
     y="23.862"
     width="3.960"
     height="1.301"
     fill="none"
     stroke="#000000"
     stroke-width="0.100"
     id="rect6144" />
  <text
     x="27.385"
     y="24.725"
     fill="#000000"
     text-anchor="middle"
     font-size="0.80"
     font-family="Karla"
     font-style="normal"
     font-weight="700"
     id="text6146"
     style="font-size:0.7245151px">
influence</text>
  <path
     stroke="#2E8B57"
     fill="none"
     stroke-width="0.100"
     d="M 27.385,25.163 A 5.143,5.143 0 0,0 32.545,28.051 "
     id="path6148" />
  <polyline
     fill="none"
     stroke="#2E8B57"
     stroke-width="0.100"
     points="32.198,28.359 32.656,28.040 32.125,27.865 "
     id="polyline6150" />
  <path
     d="m 23.455675,31.299163 c -0.223045,0.66229 -0.107808,1.428994 0.30007,1.996456 0.407878,0.567461 1.097875,0.921041 1.796715,0.920702 0.666062,-3.23e-4 1.324852,-0.320413 1.736749,-0.843843 C 27.701106,32.849047 27.857308,32.133462 27.701,31.486"
     id="path6152"
     inkscape:path-effect="#path-effect6180"
     inkscape:original-d="m 23.455675,31.299163 c 0.168798,0.947839 1.135324,2.867305 2.096785,2.917158 0.961461,0.04985 1.882616,-1.805023 2.14854,-2.730321"
     inkscape:connector-curvature="0"
     style="fill:none;stroke:#2e8b57;stroke-width:0.10000000000000001"
     sodipodi:nodetypes="csc" />
  <polyline
     fill="none"
     stroke="#2E8B57"
     stroke-width="0.100"
     points="28.060,31.788 27.681,31.376 27.579,31.926 "
     id="polyline6154" />
  <rect
     x="22.846"
     y="33.585"
     width="5.356"
     height="1.301"
     fill="#FFFFFF"
     stroke="none"
     stroke-width="0"
     id="rect6156" />
  <rect
     x="22.846"
     y="33.585"
     width="5.356"
     height="1.301"
     fill="none"
     stroke="#000000"
     stroke-width="0.100"
     id="rect6158" />
  <text
     x="25.524"
     y="34.448"
     fill="#000000"
     text-anchor="middle"
     font-size="0.80"
     font-family="Karla"
     font-style="normal"
     font-weight="700"
     id="text6160"
     style="font-size:0.7245151px">
prise de poste</text>
  <polygon
     fill="#FFFFFF"
     stroke="none"
     stroke-width="0.100"
     points="20.794,37.122 23.283,37.122 24.527,38.657 19.549,38.657 "
     id="polygon6162" />
  <polygon
     fill="none"
     stroke="#000000"
     stroke-width="0.100"
     points="20.794,37.122 23.283,37.122 24.527,38.657 19.549,38.657 "
     id="polygon6164" />
  <polygon
     fill="none"
     stroke="#000000"
     stroke-width="0.100"
     points="20.794,37.122 23.283,37.122 24.527,38.657 19.549,38.657 "
     id="polygon6166" />
  <text
     x="22.038"
     y="38.102"
     fill="#000000"
     text-anchor="middle"
     font-size="0.80"
     font-family="Karla"
     font-style="normal"
     font-weight="700"
     id="text6168"
     style="font-size:0.7245151px">
Rangoon</text>
  <line
     x1="25.524"
     y1="34.886"
     x2="23.156"
     y2="36.926"
     stroke="#2E8B57"
     stroke-width="0.100"
     id="line6170" />
  <polyline
     fill="none"
     stroke="#2E8B57"
     stroke-width="0.100"
     points="23.287,36.484 23.071,36.999 23.613,36.862 "
     id="polyline6172" />
</svg>
