<?xml version="1.0" encoding="UTF-8" standalone="no"?>
<!DOCTYPE svg PUBLIC "-//W3C//DTD SVG 1.1//EN"
 "http://www.w3.org/Graphics/SVG/1.1/DTD/svg11.dtd">
<!-- Generated by graphviz version 2.30.1 (20130303.0813)
 -->
<!-- Title: %3 Pages: 1 -->
<svg width="1440pt" height="1387pt"
 viewBox="0.00 0.00 1440.00 1387.26" xmlns="http://www.w3.org/2000/svg" xmlns:xlink="http://www.w3.org/1999/xlink">
<g id="graph0" class="graph" transform="scale(0.994475 0.994475) rotate(0) translate(4 1390.96)">
<title>%3</title>
<polygon fill="white" stroke="white" points="-4,5 -4,-1390.96 1445,-1390.96 1445,5 -4,5"/>
<text text-anchor="middle" x="720" y="-8.2" font-family="Montserrat" font-size="14.00">Let Me Alone in Triplets</text>
<!-- B_:r1368697098r4429r1 -->
<g id="node1" class="node"><title>B_:r1368697098r4429r1</title>
<ellipse fill="none" stroke="lime" cx="686.754" cy="-587.808" rx="18" ry="18"/>
</g>
<!-- LAnna&#45;Marie Forrester -->
<g id="node2" class="node"><title>LAnna&#45;Marie Forrester</title>
<ellipse fill="gold" stroke="black" cx="1150.18" cy="-398.842" rx="49.0436" ry="18"/>
<text text-anchor="middle" x="1150.18" y="-396.442" font-family="Montserrat" font-size="8.00">Anna&#45;Marie Forrester</text>
</g>
<!-- B_:r1368697098r4429r1&#45;&gt;LAnna&#45;Marie Forrester -->
<g id="edge1" class="edge"><title>B_:r1368697098r4429r1&#45;&gt;LAnna&#45;Marie Forrester</title>
<path fill="none" stroke="gold" d="M713.26,-577C792.818,-544.559 1029.46,-448.067 1117.07,-412.341"/>
<polygon fill="gold" stroke="gold" points="711.46,-573.954 703.521,-580.971 714.103,-580.436 711.46,-573.954"/>
<text text-anchor="middle" x="901.605" y="-499.067" font-family="Montserrat" font-size="8.00">name</text>
</g>
<!-- B_:r1368697098r4429r1&#45;&gt;B_:r1368697098r4429r1 -->
<g id="edge2" class="edge"><title>B_:r1368697098r4429r1&#45;&gt;B_:r1368697098r4429r1</title>
<path fill="none" stroke="black" d="M704.907,-589.979C714.293,-590.313 722.754,-589.589 722.754,-587.808 722.754,-586.722 719.612,-586.029 715.034,-585.729"/>
<polygon fill="black" stroke="black" points="714.938,-582.229 704.907,-585.637 714.874,-589.228 714.938,-582.229"/>
<text text-anchor="middle" x="730.977" y="-585.408" font-family="Montserrat" font-size="8.00">Birth</text>
</g>
<!-- B_:r1368697098r4429r2 -->
<g id="node3" class="node"><title>B_:r1368697098r4429r2</title>
<ellipse fill="none" stroke="lime" cx="703.401" cy="-275.613" rx="18" ry="18"/>
</g>
<!-- B_:r1368697098r4429r1&#45;&gt;B_:r1368697098r4429r2 -->
<g id="edge3" class="edge"><title>B_:r1368697098r4429r1&#45;&gt;B_:r1368697098r4429r2</title>
<path fill="none" stroke="black" d="M687.721,-569.673C690.502,-517.513 698.538,-366.809 701.897,-303.814"/>
<polygon fill="black" stroke="black" points="705.394,-303.97 702.431,-293.797 698.404,-303.597 705.394,-303.97"/>
<text text-anchor="middle" x="685.755" y="-434.044" font-family="Montserrat" font-size="8.00">father</text>
</g>
<!-- B_:r1368697098r4429r10 -->
<g id="node4" class="node"><title>B_:r1368697098r4429r10</title>
<ellipse fill="none" stroke="lime" cx="659.376" cy="-916.979" rx="18" ry="18"/>
</g>
<!-- B_:r1368697098r4429r1&#45;&gt;B_:r1368697098r4429r10 -->
<g id="edge4" class="edge"><title>B_:r1368697098r4429r1&#45;&gt;B_:r1368697098r4429r10</title>
<path fill="none" stroke="black" d="M682.03,-605.235C673.14,-659.011 659.291,-822.693 657.738,-888.821"/>
<polygon fill="black" stroke="black" points="654.237,-888.874 657.596,-898.922 661.237,-888.973 654.237,-888.874"/>
<text text-anchor="middle" x="651.675" y="-754.306" font-family="Montserrat" font-size="8.00">Marriage</text>
</g>
<!-- B_:r1368697098r4429r1&#45;&gt;B_:r1368697098r4429r1 -->
<g id="edge5" class="edge"><title>B_:r1368697098r4429r1&#45;&gt;B_:r1368697098r4429r1</title>
<path fill="none" stroke="black" d="M704.597,-592.051C733.232,-596.464 774.525,-595.05 774.525,-587.808 774.525,-581.386 742.058,-579.546 714.737,-582.289"/>
<polygon fill="black" stroke="black" points="714.082,-578.844 704.597,-583.564 714.955,-585.789 714.082,-578.844"/>
<text text-anchor="middle" x="790.302" y="-585.408" font-family="Montserrat" font-size="8.00">Dismissal</text>
</g>
<!-- B_:r1368697098r4429r1&#45;&gt;B_:r1368697098r4429r1 -->
<g id="edge6" class="edge"><title>B_:r1368697098r4429r1&#45;&gt;B_:r1368697098r4429r1</title>
<path fill="none" stroke="black" d="M704.453,-591.384C721.75,-593.359 740.754,-592.167 740.754,-587.808 740.754,-584.3 728.449,-582.843 714.629,-583.437"/>
<polygon fill="black" stroke="black" points="714.15,-579.963 704.453,-584.232 714.695,-586.942 714.15,-579.963"/>
<text text-anchor="middle" x="757.64" y="-585.408" font-family="Montserrat" font-size="8.00">Enrolment</text>
</g>
<!-- B_:r1368697098r4429r11 -->
<g id="node5" class="node"><title>B_:r1368697098r4429r11</title>
<ellipse fill="none" stroke="lime" cx="891.682" cy="-859.559" rx="18" ry="18"/>
</g>
<!-- B_:r1368697098r4429r1&#45;&gt;B_:r1368697098r4429r11 -->
<g id="edge7" class="edge"><title>B_:r1368697098r4429r1&#45;&gt;B_:r1368697098r4429r11</title>
<path fill="none" stroke="red" d="M694.909,-603.977C724.825,-651.034 827.313,-787.341 871.421,-839.243"/>
<polygon fill="red" stroke="red" points="869.029,-841.828 878.222,-847.097 874.321,-837.246 869.029,-841.828"/>
<text text-anchor="middle" x="762.014" y="-730.087" font-family="Montserrat" font-size="8.00">NameChange</text>
</g>
<!-- B_:r1368697098r4429r8 -->
<g id="node6" class="node"><title>B_:r1368697098r4429r8</title>
<ellipse fill="none" stroke="lime" cx="421.796" cy="-477.598" rx="18" ry="18"/>
</g>
<!-- B_:r1368697098r4429r1&#45;&gt;B_:r1368697098r4429r8 -->
<g id="edge8" class="edge"><title>B_:r1368697098r4429r1&#45;&gt;B_:r1368697098r4429r8</title>
<path fill="none" stroke="black" d="M671.519,-577.694C628.297,-555.28 504.652,-503.59 449.224,-484.451"/>
<polygon fill="black" stroke="black" points="450.296,-481.12 439.703,-481.271 448.079,-487.759 450.296,-481.12"/>
<text text-anchor="middle" x="526.423" y="-528.96" font-family="Montserrat" font-size="8.00">relationshiphasMet</text>
</g>
<!-- B_:r1368697098r4429r9 -->
<g id="node7" class="node"><title>B_:r1368697098r4429r9</title>
<ellipse fill="none" stroke="lime" cx="272.711" cy="-606.604" rx="18" ry="18"/>
</g>
<!-- B_:r1368697098r4429r1&#45;&gt;B_:r1368697098r4429r9 -->
<g id="edge9" class="edge"><title>B_:r1368697098r4429r1&#45;&gt;B_:r1368697098r4429r9</title>
<path fill="none" stroke="black" d="M669.226,-582.77C604.467,-575.933 378.412,-585.752 299.857,-598.211"/>
<polygon fill="black" stroke="black" points="299.025,-594.804 289.784,-599.985 300.239,-601.697 299.025,-594.804"/>
<text text-anchor="middle" x="448.146" y="-586.134" font-family="Montserrat" font-size="8.00">relationshiphasMet</text>
</g>
<!-- B_:r1368697098r4429r1&#45;&gt;B_:r1368697098r4429r10 -->
<g id="edge10" class="edge"><title>B_:r1368697098r4429r1&#45;&gt;B_:r1368697098r4429r10</title>
<path fill="none" stroke="black" d="M688.534,-605.776C688.418,-660.281 675.035,-824.003 665.642,-889.479"/>
<polygon fill="black" stroke="black" points="662.167,-889.05 664.114,-899.464 669.087,-890.109 662.167,-889.05"/>
<text text-anchor="middle" x="710.444" y="-755.425" font-family="Montserrat" font-size="8.00">relationshiphasMet</text>
</g>
<!-- B_:r1368697098r4429r1&#45;&gt;B_:r1368697098r4429r9 -->
<g id="edge11" class="edge"><title>B_:r1368697098r4429r1&#45;&gt;B_:r1368697098r4429r9</title>
<path fill="none" stroke="black" d="M669.755,-594.412C605.881,-607.09 379.867,-617.793 300.506,-612.503"/>
<polygon fill="black" stroke="black" points="300.57,-608.996 290.313,-611.649 299.986,-615.972 300.57,-608.996"/>
<text text-anchor="middle" x="447.375" y="-613.106" font-family="Montserrat" font-size="8.00">relationshipfriendOf</text>
</g>
<!-- B_:r1368697098r4429r5 -->
<g id="node8" class="node"><title>B_:r1368697098r4429r5</title>
<ellipse fill="none" stroke="lime" cx="822.466" cy="-712.767" rx="18" ry="18"/>
</g>
<!-- B_:r1368697098r4429r1&#45;&gt;B_:r1368697098r4429r5 -->
<g id="edge12" class="edge"><title>B_:r1368697098r4429r1&#45;&gt;B_:r1368697098r4429r5</title>
<path fill="none" stroke="black" d="M693.315,-604.851C712.343,-631.308 764.042,-679.697 796.224,-701.964"/>
<polygon fill="black" stroke="black" points="794.45,-704.986 804.74,-707.512 798.271,-699.12 794.45,-704.986"/>
<text text-anchor="middle" x="710.872" y="-662.475" font-family="Montserrat" font-size="8.00">relationshiplivesWith</text>
</g>
<!-- B_:r1368697098r4429r1&#45;&gt;B_:r1368697098r4429r11 -->
<g id="edge13" class="edge"><title>B_:r1368697098r4429r1&#45;&gt;B_:r1368697098r4429r11</title>
<path fill="none" stroke="red" d="M700.058,-600.094C737.075,-641.797 839.947,-777.814 877.72,-834.492"/>
<polygon fill="red" stroke="red" points="875.003,-836.732 883.401,-843.191 880.863,-832.904 875.003,-836.732"/>
<text text-anchor="middle" x="770.786" y="-712.359" font-family="Montserrat" font-size="8.00">initiatingEvent</text>
</g>
<!-- B_:r1368697098r4429r4 -->
<g id="node9" class="node"><title>B_:r1368697098r4429r4</title>
<ellipse fill="none" stroke="lime" cx="913.74" cy="-314.939" rx="18" ry="18"/>
</g>
<!-- B_:r1368697098r4429r1&#45;&gt;B_:r1368697098r4429r4 -->
<g id="edge14" class="edge"><title>B_:r1368697098r4429r1&#45;&gt;B_:r1368697098r4429r4</title>
<path fill="none" stroke="black" d="M700.772,-575.939C741.2,-534.392 856.81,-395.77 898.594,-339.201"/>
<polygon fill="black" stroke="black" points="901.609,-341.005 904.643,-330.854 895.941,-336.897 901.609,-341.005"/>
<text text-anchor="middle" x="779.152" y="-458.168" font-family="Montserrat" font-size="8.00">lostContactWith</text>
</g>
<!-- B_:r1368697098r4429r1&#45;&gt;B_:r1368697098r4429r9 -->
<g id="edge15" class="edge"><title>B_:r1368697098r4429r1&#45;&gt;B_:r1368697098r4429r9</title>
<path fill="none" stroke="black" d="M668.697,-588.627C603.586,-591.583 380.53,-601.709 301.088,-605.316"/>
<polygon fill="black" stroke="black" points="300.694,-601.83 290.863,-605.78 301.012,-608.823 300.694,-601.83"/>
<text text-anchor="middle" x="439.009" y="-599.619" font-family="Montserrat" font-size="8.00">relationshipinfluencedBy</text>
</g>
<!-- B_:r1368697098r4429r1&#45;&gt;B_:r1368697098r4429r5 -->
<g id="edge16" class="edge"><title>B_:r1368697098r4429r1&#45;&gt;B_:r1368697098r4429r5</title>
<path fill="none" stroke="black" d="M704.28,-592.943C732.214,-609.727 784.696,-657.265 809.538,-687.504"/>
<polygon fill="black" stroke="black" points="806.873,-689.779 815.768,-695.534 812.404,-685.488 806.873,-689.779"/>
<text text-anchor="middle" x="723.165" y="-642.613" font-family="Montserrat" font-size="8.00">relationshipinfluencedBy</text>
</g>
<!-- B_:r1368697098r4429r1&#45;&gt;B_:r1368697098r4429r8 -->
<g id="edge17" class="edge"><title>B_:r1368697098r4429r1&#45;&gt;B_:r1368697098r4429r8</title>
<path fill="none" stroke="black" d="M668.841,-584.133C622.473,-569.283 498.643,-518.036 445.993,-492.219"/>
<polygon fill="black" stroke="black" points="447.531,-489.075 437.025,-487.709 444.386,-495.329 447.531,-489.075"/>
<text text-anchor="middle" x="510.132" y="-541.425" font-family="Montserrat" font-size="8.00">relationshipcloseFriendOf</text>
</g>
<!-- LJames Forrester -->
<g id="node10" class="node"><title>LJames Forrester</title>
<ellipse fill="gold" stroke="black" cx="713.234" cy="-68.3746" rx="38.1415" ry="18"/>
<text text-anchor="middle" x="713.234" y="-65.9746" font-family="Montserrat" font-size="8.00">James Forrester</text>
</g>
<!-- B_:r1368697098r4429r2&#45;&gt;LJames Forrester -->
<g id="edge18" class="edge"><title>B_:r1368697098r4429r2&#45;&gt;LJames Forrester</title>
<path fill="none" stroke="gold" d="M704.736,-247.472C706.787,-204.249 710.655,-122.729 712.374,-86.5091"/>
<polygon fill="gold" stroke="gold" points="701.234,-247.43 704.256,-257.585 708.226,-247.762 701.234,-247.43"/>
<text text-anchor="middle" x="699.645" y="-174.591" font-family="Montserrat" font-size="8.00">name</text>
</g>
<!-- B_:r1368697098r4429r2&#45;&gt;B_:r1368697098r4429r2 -->
<g id="edge19" class="edge"><title>B_:r1368697098r4429r2&#45;&gt;B_:r1368697098r4429r2</title>
<path fill="none" stroke="black" d="M720.438,-281.992C730.259,-283.294 739.401,-281.168 739.401,-275.613 739.401,-272.141 735.83,-270.009 730.754,-269.216"/>
<polygon fill="black" stroke="black" points="730.432,-265.716 720.438,-269.234 730.444,-272.716 730.432,-265.716"/>
<text text-anchor="middle" x="748.951" y="-273.213" font-family="Montserrat" font-size="8.00">Death</text>
</g>
<!-- B_:r1368697098r4429r3 -->
<g id="node11" class="node"><title>B_:r1368697098r4429r3</title>
<ellipse fill="none" stroke="lime" cx="511.01" cy="-244.286" rx="18" ry="18"/>
</g>
<!-- B_:r1368697098r4429r2&#45;&gt;B_:r1368697098r4429r3 -->
<g id="edge20" class="edge"><title>B_:r1368697098r4429r2&#45;&gt;B_:r1368697098r4429r3</title>
<path fill="none" stroke="black" d="M685.301,-272.666C651.555,-267.171 578.833,-255.33 538.815,-248.813"/>
<polygon fill="black" stroke="black" points="539.354,-245.355 528.921,-247.202 538.228,-252.264 539.354,-245.355"/>
<text text-anchor="middle" x="592.677" y="-262.37" font-family="Montserrat" font-size="8.00">Marriage</text>
</g>
<!-- LMatthew Kavan -->
<g id="node21" class="node"><title>LMatthew Kavan</title>
<ellipse fill="gold" stroke="black" cx="736.835" cy="-1170.11" rx="38.6631" ry="18"/>
<text text-anchor="middle" x="736.835" y="-1167.71" font-family="Montserrat" font-size="8.00">Matthew Kavan</text>
</g>
<!-- B_:r1368697098r4429r10&#45;&gt;LMatthew Kavan -->
<g id="edge39" class="edge"><title>B_:r1368697098r4429r10&#45;&gt;LMatthew Kavan</title>
<path fill="none" stroke="gold" d="M667.718,-944.239C683.651,-996.308 718.015,-1108.61 731.371,-1152.25"/>
<polygon fill="gold" stroke="gold" points="670.973,-942.915 664.7,-934.377 664.279,-944.964 670.973,-942.915"/>
<text text-anchor="middle" x="689.405" y="-1045.82" font-family="Montserrat" font-size="8.00">name</text>
</g>
<!-- B_:r1368697098r4429r12 -->
<g id="node22" class="node"><title>B_:r1368697098r4429r12</title>
<ellipse fill="none" stroke="lime" cx="458.012" cy="-1175.89" rx="18" ry="18"/>
</g>
<!-- B_:r1368697098r4429r10&#45;&gt;B_:r1368697098r4429r12 -->
<g id="edge40" class="edge"><title>B_:r1368697098r4429r10&#45;&gt;B_:r1368697098r4429r12</title>
<path fill="none" stroke="black" d="M648.263,-931.267C614.914,-974.147 515.52,-1101.94 475.246,-1153.73"/>
<polygon fill="black" stroke="black" points="472.467,-1151.6 469.091,-1161.64 477.993,-1155.9 472.467,-1151.6"/>
<text text-anchor="middle" x="541.869" y="-1048.75" font-family="Montserrat" font-size="8.00">Promotion</text>
</g>
<!-- B_:r1368697098r4429r10&#45;&gt;B_:r1368697098r4429r5 -->
<g id="edge41" class="edge"><title>B_:r1368697098r4429r10&#45;&gt;B_:r1368697098r4429r5</title>
<path fill="none" stroke="black" d="M670.844,-902.619C698.926,-867.456 771.288,-776.848 804.866,-734.804"/>
<polygon fill="black" stroke="black" points="807.721,-736.838 811.227,-726.84 802.251,-732.469 807.721,-736.838"/>
<text text-anchor="middle" x="696.959" y="-817.249" font-family="Montserrat" font-size="8.00">relationshipacquaintanceOf</text>
</g>
<!-- LAnna Kavan -->
<g id="node23" class="node"><title>LAnna Kavan</title>
<ellipse fill="gold" stroke="black" cx="1090.44" cy="-1079.48" rx="32.43" ry="18"/>
<text text-anchor="middle" x="1090.44" y="-1077.08" font-family="Montserrat" font-size="8.00">Anna Kavan</text>
</g>
<!-- B_:r1368697098r4429r11&#45;&gt;LAnna Kavan -->
<g id="edge42" class="edge"><title>B_:r1368697098r4429r11&#45;&gt;LAnna Kavan</title>
<path fill="none" stroke="gold" d="M910.563,-880.45C950.009,-924.096 1040.43,-1024.14 1075.84,-1063.32"/>
<polygon fill="gold" stroke="gold" points="913.118,-878.057 903.816,-872.984 907.924,-882.75 913.118,-878.057"/>
<text text-anchor="middle" x="981.18" y="-970.57" font-family="Montserrat" font-size="8.00">name</text>
</g>
<!-- LSidney -->
<g id="node19" class="node"><title>LSidney</title>
<ellipse fill="gold" stroke="black" cx="251.896" cy="-344.836" rx="27" ry="18"/>
<text text-anchor="middle" x="251.896" y="-342.436" font-family="Montserrat" font-size="8.00">Sidney</text>
</g>
<!-- B_:r1368697098r4429r8&#45;&gt;LSidney -->
<g id="edge36" class="edge"><title>B_:r1368697098r4429r8&#45;&gt;LSidney</title>
<path fill="none" stroke="gold" d="M399.611,-460.262C365.422,-433.547 300.557,-382.86 269.426,-358.534"/>
<polygon fill="gold" stroke="gold" points="397.568,-463.108 407.602,-466.508 401.878,-457.592 397.568,-463.108"/>
<text text-anchor="middle" x="329.855" y="-414.923" font-family="Montserrat" font-size="8.00">name</text>
</g>
<!-- B_:r1368697098r4429r7 -->
<g id="node17" class="node"><title>B_:r1368697098r4429r7</title>
<ellipse fill="none" stroke="lime" cx="584.166" cy="-707.241" rx="18" ry="18"/>
</g>
<!-- B_:r1368697098r4429r8&#45;&gt;B_:r1368697098r4429r7 -->
<g id="edge37" class="edge"><title>B_:r1368697098r4429r8&#45;&gt;B_:r1368697098r4429r7</title>
<path fill="none" stroke="black" d="M432.2,-492.313C459.686,-531.187 534.404,-636.862 567.734,-684.001"/>
<polygon fill="black" stroke="black" points="565.007,-686.207 573.639,-692.352 570.723,-682.166 565.007,-686.207"/>
<text text-anchor="middle" x="536.784" y="-594.872" font-family="Montserrat" font-size="8.00">relationshipenemyOf</text>
</g>
<!-- LCatherine Howard -->
<g id="node20" class="node"><title>LCatherine Howard</title>
<ellipse fill="gold" stroke="black" cx="105.094" cy="-632.015" rx="42.8184" ry="18"/>
<text text-anchor="middle" x="105.094" y="-629.615" font-family="Montserrat" font-size="8.00">Catherine Howard</text>
</g>
<!-- B_:r1368697098r4429r9&#45;&gt;LCatherine Howard -->
<g id="edge38" class="edge"><title>B_:r1368697098r4429r9&#45;&gt;LCatherine Howard</title>
<path fill="none" stroke="gold" d="M244.816,-610.833C217.77,-614.933 176.438,-621.199 145.736,-625.853"/>
<polygon fill="gold" stroke="gold" points="245.411,-614.283 254.773,-609.324 244.361,-607.362 245.411,-614.283"/>
<text text-anchor="middle" x="191.678" y="-619.975" font-family="Montserrat" font-size="8.00">name</text>
</g>
<!-- LLauretta -->
<g id="node14" class="node"><title>LLauretta</title>
<ellipse fill="gold" stroke="black" cx="1023.85" cy="-547.069" rx="27" ry="18"/>
<text text-anchor="middle" x="1023.85" y="-544.669" font-family="Montserrat" font-size="8.00">Lauretta</text>
</g>
<!-- B_:r1368697098r4429r5&#45;&gt;LLauretta -->
<g id="edge28" class="edge"><title>B_:r1368697098r4429r5&#45;&gt;LLauretta</title>
<path fill="none" stroke="gold" d="M844.542,-694.602C884.975,-661.335 970.108,-591.289 1006.62,-561.245"/>
<polygon fill="gold" stroke="gold" points="842.125,-692.059 836.627,-701.115 846.573,-697.464 842.125,-692.059"/>
<text text-anchor="middle" x="912.954" y="-633.586" font-family="Montserrat" font-size="8.00">name</text>
</g>
<!-- B_:r1368697098r4429r5&#45;&gt;B_:r1368697098r4429r1 -->
<g id="edge29" class="edge"><title>B_:r1368697098r4429r5&#45;&gt;B_:r1368697098r4429r1</title>
<path fill="none" stroke="black" d="M808.957,-700.329C785.281,-678.528 736.13,-633.272 707.909,-607.286"/>
<polygon fill="black" stroke="black" points="709.935,-604.395 700.208,-600.196 705.194,-609.544 709.935,-604.395"/>
<text text-anchor="middle" x="721.307" y="-652.499" font-family="Montserrat" font-size="8.00">relationshipparentOf</text>
</g>
<!-- B_:r1368697098r4429r6 -->
<g id="node15" class="node"><title>B_:r1368697098r4429r6</title>
<ellipse fill="none" stroke="lime" cx="1206.86" cy="-745.111" rx="18" ry="18"/>
</g>
<!-- B_:r1368697098r4429r5&#45;&gt;B_:r1368697098r4429r6 -->
<g id="edge30" class="edge"><title>B_:r1368697098r4429r5&#45;&gt;B_:r1368697098r4429r6</title>
<path fill="none" stroke="black" d="M840.49,-714.284C902.031,-719.462 1104.15,-736.468 1178.82,-742.751"/>
<polygon fill="black" stroke="black" points="1178.62,-746.246 1188.88,-743.597 1179.21,-739.271 1178.62,-746.246"/>
<text text-anchor="middle" x="980.644" y="-731.336" font-family="Montserrat" font-size="8.00">relationshipspouseOf</text>
</g>
<!-- LMiss Wilson -->
<g id="node13" class="node"><title>LMiss Wilson</title>
<ellipse fill="gold" stroke="black" cx="1012.58" cy="-126.837" rx="32.4577" ry="18"/>
<text text-anchor="middle" x="1012.58" y="-124.437" font-family="Montserrat" font-size="8.00">Miss Wilson</text>
</g>
<!-- B_:r1368697098r4429r4&#45;&gt;LMiss Wilson -->
<g id="edge24" class="edge"><title>B_:r1368697098r4429r4&#45;&gt;LMiss Wilson</title>
<path fill="none" stroke="gold" d="M926.93,-289.838C947.301,-251.071 985.898,-177.619 1003.46,-144.188"/>
<polygon fill="gold" stroke="gold" points="923.721,-288.421 922.168,-298.902 929.918,-291.677 923.721,-288.421"/>
<text text-anchor="middle" x="954.209" y="-223.839" font-family="Montserrat" font-size="8.00">name</text>
</g>
<!-- B_:r1368697098r4429r4&#45;&gt;B_:r1368697098r4429r2 -->
<g id="edge25" class="edge"><title>B_:r1368697098r4429r4&#45;&gt;B_:r1368697098r4429r2</title>
<path fill="none" stroke="black" d="M896.894,-307.775C860.861,-297.519 776.014,-281.392 731.606,-276.084"/>
<polygon fill="black" stroke="black" points="731.812,-272.586 721.496,-275.001 731.067,-279.546 731.812,-272.586"/>
<text text-anchor="middle" x="770.354" y="-291.017" font-family="Montserrat" font-size="8.00">relationshipemployedBy</text>
</g>
<!-- B_:r1368697098r4429r4&#45;&gt;B_:r1368697098r4429r1 -->
<g id="edge26" class="edge"><title>B_:r1368697098r4429r4&#45;&gt;B_:r1368697098r4429r1</title>
<path fill="none" stroke="black" d="M899.722,-326.808C859.294,-368.355 743.685,-506.976 701.901,-563.546"/>
<polygon fill="black" stroke="black" points="698.886,-561.742 695.851,-571.893 704.554,-565.849 698.886,-561.742"/>
<text text-anchor="middle" x="755.137" y="-439.779" font-family="Montserrat" font-size="8.00">relationshipapprenticeTo</text>
</g>
<!-- B_:r1368697098r4429r4&#45;&gt;B_:r1368697098r4429r2 -->
<g id="edge27" class="edge"><title>B_:r1368697098r4429r4&#45;&gt;B_:r1368697098r4429r2</title>
<path fill="none" stroke="black" d="M895.444,-315.532C858.139,-312.078 773.197,-296.459 729.871,-285.364"/>
<polygon fill="black" stroke="black" points="730.619,-281.941 720.053,-282.722 728.799,-288.701 730.619,-281.941"/>
<text text-anchor="middle" x="762.982" y="-304.287" font-family="Montserrat" font-size="8.00">relationshipPositionChange</text>
</g>
<!-- LLise -->
<g id="node12" class="node"><title>LLise</title>
<ellipse fill="gold" stroke="black" cx="423.971" cy="-87.9801" rx="27" ry="18"/>
<text text-anchor="middle" x="423.971" y="-85.5801" font-family="Montserrat" font-size="8.00">Lise</text>
</g>
<!-- B_:r1368697098r4429r3&#45;&gt;LLise -->
<g id="edge21" class="edge"><title>B_:r1368697098r4429r3&#45;&gt;LLise</title>
<path fill="none" stroke="gold" d="M497.103,-219.312C479.334,-187.403 449.037,-132.995 433.611,-105.293"/>
<polygon fill="gold" stroke="gold" points="494.262,-221.404 502.185,-228.438 500.378,-217.999 494.262,-221.404"/>
<text text-anchor="middle" x="459.393" y="-169.549" font-family="Montserrat" font-size="8.00">name</text>
</g>
<!-- B_:r1368697098r4429r3&#45;&gt;B_:r1368697098r4429r3 -->
<g id="edge22" class="edge"><title>B_:r1368697098r4429r3&#45;&gt;B_:r1368697098r4429r3</title>
<path fill="none" stroke="black" d="M528.047,-250.665C537.867,-251.967 547.01,-249.84 547.01,-244.286 547.01,-240.814 543.438,-238.682 538.362,-237.888"/>
<polygon fill="black" stroke="black" points="538.041,-234.389 528.047,-237.907 538.053,-241.389 538.041,-234.389"/>
<text text-anchor="middle" x="556.56" y="-241.886" font-family="Montserrat" font-size="8.00">Death</text>
</g>
<!-- B_:r1368697098r4429r3&#45;&gt;B_:r1368697098r4429r1 -->
<g id="edge23" class="edge"><title>B_:r1368697098r4429r3&#45;&gt;B_:r1368697098r4429r1</title>
<path fill="none" stroke="black" d="M519.25,-260.394C547.387,-315.391 639.795,-496.018 673.932,-562.745"/>
<polygon fill="black" stroke="black" points="670.861,-564.426 678.531,-571.734 677.092,-561.238 670.861,-564.426"/>
<text text-anchor="middle" x="568.654" y="-418.421" font-family="Montserrat" font-size="8.00">relationshipmother</text>
</g>
<!-- LHeyward Bland -->
<g id="node16" class="node"><title>LHeyward Bland</title>
<ellipse fill="gold" stroke="black" cx="1346.22" cy="-877.661" rx="38.1461" ry="18"/>
<text text-anchor="middle" x="1346.22" y="-875.261" font-family="Montserrat" font-size="8.00">Heyward Bland</text>
</g>
<!-- B_:r1368697098r4429r6&#45;&gt;LHeyward Bland -->
<g id="edge31" class="edge"><title>B_:r1368697098r4429r6&#45;&gt;LHeyward Bland</title>
<path fill="none" stroke="gold" d="M1227.5,-764.736C1255.1,-790.989 1303.53,-837.055 1329.17,-861.446"/>
<polygon fill="gold" stroke="gold" points="1229.63,-761.937 1219.97,-757.581 1224.81,-767.009 1229.63,-761.937"/>
<text text-anchor="middle" x="1266" y="-812.005" font-family="Montserrat" font-size="8.00">name</text>
</g>
<!-- LRachel Fielding -->
<g id="node18" class="node"><title>LRachel Fielding</title>
<ellipse fill="gold" stroke="black" cx="316.541" cy="-871.46" rx="38.1675" ry="18"/>
<text text-anchor="middle" x="316.541" y="-869.06" font-family="Montserrat" font-size="8.00">Rachel Fielding</text>
</g>
<!-- B_:r1368697098r4429r7&#45;&gt;LRachel Fielding -->
<g id="edge32" class="edge"><title>B_:r1368697098r4429r7&#45;&gt;LRachel Fielding</title>
<path fill="none" stroke="gold" d="M559.871,-722.149C508.65,-753.579 390.172,-826.279 339.839,-857.164"/>
<polygon fill="gold" stroke="gold" points="561.928,-724.993 568.621,-716.78 558.267,-719.027 561.928,-724.993"/>
<text text-anchor="middle" x="445.322" y="-789.522" font-family="Montserrat" font-size="8.00">name</text>
</g>
<!-- B_:r1368697098r4429r7&#45;&gt;B_:r1368697098r4429r1 -->
<g id="edge33" class="edge"><title>B_:r1368697098r4429r7&#45;&gt;B_:r1368697098r4429r1</title>
<path fill="none" stroke="black" d="M598.899,-696.891C618.72,-678.073 653.282,-638.272 672.729,-612.246"/>
<polygon fill="black" stroke="black" points="675.671,-614.15 678.701,-603.998 670.001,-610.045 675.671,-614.15"/>
<text text-anchor="middle" x="605.959" y="-654.54" font-family="Montserrat" font-size="8.00">relationshipmentorOf</text>
</g>
<!-- B_:r1368697098r4429r7&#45;&gt;B_:r1368697098r4429r1 -->
<g id="edge34" class="edge"><title>B_:r1368697098r4429r7&#45;&gt;B_:r1368697098r4429r1</title>
<path fill="none" stroke="black" d="M592.174,-691.115C607.787,-668.682 641.918,-628.511 664.712,-605.36"/>
<polygon fill="black" stroke="black" points="667.299,-607.724 671.964,-598.211 662.385,-602.739 667.299,-607.724"/>
<text text-anchor="middle" x="589.275" y="-636.144" font-family="Montserrat" font-size="8.00">relationshipambivalentOf</text>
</g>
<!-- B_:r1368697098r4429r7&#45;&gt;B_:r1368697098r4429r5 -->
<g id="edge35" class="edge"><title>B_:r1368697098r4429r7&#45;&gt;B_:r1368697098r4429r5</title>
<path fill="none" stroke="black" d="M602.469,-707.666C643.809,-708.624 744.641,-710.962 794.127,-712.11"/>
<polygon fill="black" stroke="black" points="794.348,-715.616 804.426,-712.349 794.51,-708.618 794.348,-715.616"/>
<text text-anchor="middle" x="659.414" y="-712.406" font-family="Montserrat" font-size="8.00">relationshipacquaintanceOf</text>
</g>
<!-- LRangoon -->
<g id="node24" class="node"><title>LRangoon</title>
<ellipse fill="none" stroke="black" cx="495.86" cy="-1343.05" rx="27" ry="18"/>
<text text-anchor="middle" x="495.86" y="-1340.65" font-family="Montserrat" font-size="8.00">Rangoon</text>
</g>
<!-- B_:r1368697098r4429r12&#45;&gt;LRangoon -->
<g id="edge43" class="edge"><title>B_:r1368697098r4429r12&#45;&gt;LRangoon</title>
<path fill="none" stroke="black" d="M461.991,-1193.46C468.561,-1222.48 481.73,-1280.65 489.571,-1315.28"/>
<polygon fill="black" stroke="black" points="486.198,-1316.23 491.82,-1325.21 493.026,-1314.69 486.198,-1316.23"/>
<text text-anchor="middle" x="468.198" y="-1261.54" font-family="Montserrat" font-size="8.00">Place</text>
</g>
<!-- LPrise de poste à Rangoon -->
<g id="node25" class="node"><title>LPrise de poste à Rangoon</title>
<ellipse fill="none" stroke="black" cx="248.817" cy="-1161.85" rx="58.6666" ry="18"/>
<text text-anchor="middle" x="248.817" y="-1159.45" font-family="Montserrat" font-size="8.00">Prise de poste à Rangoon</text>
</g>
<!-- B_:r1368697098r4429r12&#45;&gt;LPrise de poste à Rangoon -->
<g id="edge44" class="edge"><title>B_:r1368697098r4429r12&#45;&gt;LPrise de poste à Rangoon</title>
<path fill="none" stroke="black" d="M439.813,-1174.66C412.573,-1172.84 359.779,-1169.29 316.589,-1166.39"/>
<polygon fill="black" stroke="black" points="316.616,-1162.89 306.405,-1165.71 316.148,-1169.87 316.616,-1162.89"/>
<text text-anchor="middle" x="366.99" y="-1172.59" font-family="Montserrat" font-size="8.00">title</text>
</g>
</g>
</svg>
