<?xml version="1.0" encoding="UTF-8" standalone="no"?>
<!-- Generated by graphviz version 2.36.0 (20140111.2315)
 -->

<!-- Title: %3 Pages: 1 -->

<svg
   xmlns:dc="http://purl.org/dc/elements/1.1/"
   xmlns:cc="http://creativecommons.org/ns#"
   xmlns:rdf="http://www.w3.org/1999/02/22-rdf-syntax-ns#"
   xmlns:svg="http://www.w3.org/2000/svg"
   xmlns="http://www.w3.org/2000/svg"
   xmlns:sodipodi="http://sodipodi.sourceforge.net/DTD/sodipodi-0.dtd"
   xmlns:inkscape="http://www.inkscape.org/namespaces/inkscape"
   width="1201pt"
   height="396pt"
   viewBox="0.00 0.00 1201.00 396.00"
   id="svg2"
   version="1.1"
   inkscape:version="0.48.4 r9939"
   sodipodi:docname="genealogie-gv.svg">
  <metadata
     id="metadata376">
    <rdf:RDF>
      <cc:Work
         rdf:about="">
        <dc:format>image/svg+xml</dc:format>
        <dc:type
           rdf:resource="http://purl.org/dc/dcmitype/StillImage" />
      </cc:Work>
    </rdf:RDF>
  </metadata>
  <defs
     id="defs374" />
  <sodipodi:namedview
     pagecolor="#ffffff"
     bordercolor="#666666"
     borderopacity="1"
     objecttolerance="10"
     gridtolerance="10"
     guidetolerance="10"
     inkscape:pageopacity="0"
     inkscape:pageshadow="2"
     inkscape:window-width="1276"
     inkscape:window-height="775"
     id="namedview372"
     showgrid="false"
     inkscape:zoom="0.97970498"
     inkscape:cx="1102.8083"
     inkscape:cy="238.86478"
     inkscape:window-x="0"
     inkscape:window-y="21"
     inkscape:window-maximized="1"
     inkscape:current-layer="svg2" />
  <polygon
     style="fill:#ffffff;stroke:none"
     id="polygon7"
     points="1197,-392 1197,4 -4,4 -4,4 -4,-392 "
     transform="translate(4,392)" />
  <ellipse
     cx="865"
     cy="-106"
     rx="38.021198"
     ry="18"
     id="ellipse12"
     d="m 903.0212,-106 c 0,9.941125 -17.02267,18 -38.0212,18 -20.99853,0 -38.0212,-8.058875 -38.0212,-18 0,-9.94113 17.02267,-18 38.0212,-18 20.99853,0 38.0212,8.05887 38.0212,18 z"
     sodipodi:cx="865"
     sodipodi:cy="-106"
     sodipodi:rx="38.021198"
     sodipodi:ry="18"
     style="fill:none;stroke:#000000"
     transform="translate(4,392)" />
  <text
     x="869"
     y="289.70001"
     font-size="14.00"
     id="text14"
     style="font-size:14px;text-anchor:middle;font-family:Montserrat">william</text>
  <ellipse
     cx="865"
     cy="-18"
     rx="71.240501"
     ry="18"
     id="ellipse19"
     d="m 936.2405,-18 c 0,9.9411255 -31.89546,18 -71.2405,18 -39.34504,0 -71.2405,-8.0588745 -71.2405,-18 0,-9.941125 31.89546,-18 71.2405,-18 39.34504,0 71.2405,8.058875 71.2405,18 z"
     sodipodi:cx="865"
     sodipodi:cy="-18"
     sodipodi:rx="71.240501"
     sodipodi:ry="18"
     style="fill:none;stroke:#000000"
     transform="translate(4,392)" />
  <text
     x="869"
     y="377.70001"
     font-size="14.00"
     id="text21"
     style="font-size:14px;text-anchor:middle;font-family:Montserrat">Joseph Lewisohn</text>
  <path
     d="m 869,304.4034 c 0,11.8507 0,27.7797 0,41.3049"
     id="path26"
     inkscape:connector-curvature="0"
     style="fill:none;stroke:#000000" />
  <polygon
     points="868.5,-46.084 865,-36.084 861.5,-46.084 868.5,-46.084 "
     id="polygon28"
     style="fill:#000000;stroke:#000000"
     transform="translate(4,392)" />
  <text
     x="844.82281"
     y="333.70001"
     font-size="14.00"
     id="text30"
     style="font-size:14px;text-anchor:middle;font-family:Montserrat">ancestor of</text>
  <ellipse
     cx="827"
     cy="-194"
     rx="32.245701"
     ry="18"
     id="ellipse35"
     d="m 859.2457,-194 c 0,9.94113 -14.43689,18 -32.2457,18 -17.80881,0 -32.2457,-8.05887 -32.2457,-18 0,-9.94113 14.43689,-18 32.2457,-18 17.80881,0 32.2457,8.05887 32.2457,18 z"
     sodipodi:cx="827"
     sodipodi:cy="-194"
     sodipodi:rx="32.245701"
     sodipodi:ry="18"
     style="fill:none;stroke:#000000"
     transform="translate(4,392)" />
  <text
     x="831"
     y="201.7"
     font-size="14.00"
     id="text37"
     style="font-size:14px;text-anchor:middle;font-family:Montserrat">cedric</text>
  <path
     d="m 832.297,216.169 c 1.267,10.204 3.769,23.19 8.703,33.831 1.804,3.892 4.13,7.73 6.669,11.358"
     id="path42"
     inkscape:connector-curvature="0"
     style="fill:none;stroke:#000000" />
  <polygon
     points="846.507,-132.693 849.834,-122.634 840.961,-128.422 846.507,-132.693 "
     id="polygon44"
     style="fill:#000000;stroke:#000000"
     transform="translate(4,392)" />
  <text
     x="824.12109"
     y="231.00169"
     font-size="14.00"
     id="text46"
     style="font-size:14px;text-anchor:middle;font-family:Montserrat">child of</text>
  <ellipse
     cx="572"
     cy="-194"
     rx="34.170799"
     ry="18"
     id="ellipse51"
     d="m 606.1708,-194 c 0,9.94113 -15.29879,18 -34.1708,18 -18.87201,0 -34.1708,-8.05887 -34.1708,-18 0,-9.94113 15.29879,-18 34.1708,-18 18.87201,0 34.1708,8.05887 34.1708,18 z"
     sodipodi:cx="572"
     sodipodi:cy="-194"
     sodipodi:rx="34.170799"
     sodipodi:ry="18"
     style="fill:none;stroke:#000000"
     transform="translate(4,392)" />
  <text
     x="576"
     y="201.7"
     font-size="14.00"
     id="text53"
     style="font-size:14px;text-anchor:middle;font-family:Montserrat">martin</text>
  <path
     d="m 587.192,215.108 c 9.053,11.691 22.882,26.819 38.808,34.892 33.243,16.852 134.469,27.013 195.281,31.761"
     id="path58"
     inkscape:connector-curvature="0"
     style="fill:none;stroke:#000000" />
  <polygon
     points="817.702,-113.718 827.408,-109.47 817.172,-106.738 817.702,-113.718 "
     id="polygon60"
     style="fill:#000000;stroke:#000000"
     transform="translate(4,392)" />
  <text
     x="604.22168"
     y="245.7"
     font-size="14.00"
     id="text62"
     style="font-size:14px;text-anchor:middle;font-family:Montserrat">child of</text>
  <ellipse
     cx="263"
     cy="-106"
     rx="26.948999"
     ry="18"
     id="ellipse67"
     d="m 289.949,-106 c 0,9.941125 -12.06548,18 -26.949,18 -14.88352,0 -26.949,-8.058875 -26.949,-18 0,-9.94113 12.06548,-18 26.949,-18 14.88352,0 26.949,8.05887 26.949,18 z"
     sodipodi:cx="263"
     sodipodi:cy="-106"
     sodipodi:rx="26.948999"
     sodipodi:ry="18"
     style="fill:none;stroke:#000000"
     transform="translate(4,392)" />
  <text
     x="267"
     y="289.70001"
     font-size="14.00"
     id="text69"
     style="font-size:14px;text-anchor:middle;font-family:Montserrat">anna</text>
  <path
     d="M 559.358,213.811 C 545.147,225.593 523.627,241.471 502,250 435.824,276.098 352.161,282.917 304.603,284.589"
     id="path74"
     inkscape:connector-curvature="0"
     style="fill:none;stroke:#000000" />
  <polygon
     points="300.554,-103.909 290.456,-107.114 300.349,-110.906 300.554,-103.909 "
     id="polygon76"
     style="fill:#000000;stroke:#000000"
     transform="translate(4,392)" />
  <text
     x="518.20398"
     y="245.7"
     font-size="14.00"
     id="text78"
     style="font-size:14px;text-anchor:middle;font-family:Montserrat">has met</text>
  <ellipse
     cx="916"
     cy="-370"
     rx="38.021198"
     ry="18"
     id="ellipse83"
     d="m 954.0212,-370 c 0,9.94113 -17.02267,18 -38.0212,18 -20.99853,0 -38.0212,-8.05887 -38.0212,-18 0,-9.94113 17.02267,-18 38.0212,-18 20.99853,0 38.0212,8.05887 38.0212,18 z"
     sodipodi:cx="916"
     sodipodi:cy="-370"
     sodipodi:rx="38.021198"
     sodipodi:ry="18"
     style="fill:none;stroke:#000000"
     transform="translate(4,392)" />
  <text
     x="920"
     y="25.700012"
     font-size="14.00"
     id="text85"
     style="font-size:14px;text-anchor:middle;font-family:Montserrat">gwenda</text>
  <path
     d="M 918.74,40.115 C 915.61,78.383 906.082,173.519 884,250 c -0.825,2.858 -1.824,5.793 -2.909,8.689"
     id="path90"
     inkscape:connector-curvature="0"
     style="fill:none;stroke:#000000" />
  <polygon
     points="880.217,-131.71 873.191,-123.78 873.739,-134.361 880.217,-131.71 "
     id="polygon92"
     style="fill:#000000;stroke:#000000"
     transform="translate(4,392)" />
  <text
     x="898.91998"
     y="136.46912"
     font-size="14.00"
     id="text94"
     style="font-size:14px;text-anchor:middle;font-family:Montserrat">child of</text>
  <ellipse
     cx="949"
     cy="-282"
     rx="27"
     ry="18"
     id="ellipse99"
     d="m 976,-282 c 0,9.94113 -12.08831,18 -27,18 -14.91169,0 -27,-8.05887 -27,-18 0,-9.94113 12.08831,-18 27,-18 14.91169,0 27,8.05887 27,18 z"
     sodipodi:cx="949"
     sodipodi:cy="-282"
     sodipodi:rx="27"
     sodipodi:ry="18"
     style="fill:none;stroke:#000000"
     transform="translate(4,392)" />
  <text
     x="953"
     y="113.70001"
     font-size="14.00"
     id="text101"
     style="font-size:14px;text-anchor:middle;font-family:Montserrat">tony</text>
  <path
     d="m 926.52,39.991 c 4.685,12.211 11.091,28.904 16.428,42.814"
     id="path106"
     inkscape:connector-curvature="0"
     style="fill:none;stroke:#000000" />
  <polygon
     points="942.291,-310.253 942.606,-299.663 935.756,-307.745 942.291,-310.253 "
     id="polygon108"
     style="fill:#000000;stroke:#000000"
     transform="translate(4,392)" />
  <text
     x="986.9823"
     y="69.700012"
     font-size="14.00"
     id="text110"
     style="font-size:14px;text-anchor:middle;font-family:Montserrat">ambivalent of</text>
  <ellipse
     cx="961"
     cy="-194"
     rx="38.4949"
     ry="18"
     id="ellipse115"
     d="m 999.4949,-194 c 0,9.94113 -17.23475,18 -38.4949,18 -21.26015,0 -38.4949,-8.05887 -38.4949,-18 0,-9.94113 17.23475,-18 38.4949,-18 21.26015,0 38.4949,8.05887 38.4949,18 z"
     sodipodi:cx="961"
     sodipodi:cy="-194"
     sodipodi:rx="38.4949"
     sodipodi:ry="18"
     style="fill:none;stroke:#000000"
     transform="translate(4,392)" />
  <text
     x="965"
     y="201.7"
     font-size="14.00"
     id="text117"
     style="font-size:14px;text-anchor:middle;font-family:Montserrat">anthony</text>
  <path
     d="m 955.371,127.991 c 1.649,11.819 3.884,27.838 5.786,41.467"
     id="path122"
     inkscape:connector-curvature="0"
     style="fill:none;stroke:#000000" />
  <polygon
     points="960.677,-222.638 958.593,-212.25 953.745,-221.67 960.677,-222.638 "
     id="polygon124"
     style="fill:#000000;stroke:#000000"
     transform="translate(4,392)" />
  <text
     x="949.8371"
     y="157.7"
     font-size="14.00"
     id="text126"
     style="font-size:14px;text-anchor:middle;font-family:Montserrat">child of</text>
  <ellipse
     cx="819"
     cy="-282"
     rx="27"
     ry="18"
     id="ellipse131"
     d="m 846,-282 c 0,9.94113 -12.08831,18 -27,18 -14.91169,0 -27,-8.05887 -27,-18 0,-9.94113 12.08831,-18 27,-18 14.91169,0 27,8.05887 27,18 z"
     sodipodi:cx="819"
     sodipodi:cy="-282"
     sodipodi:rx="27"
     sodipodi:ry="18"
     style="fill:none;stroke:#000000"
     transform="translate(4,392)" />
  <text
     x="823"
     y="113.70001"
     font-size="14.00"
     id="text133"
     style="font-size:14px;text-anchor:middle;font-family:Montserrat">jean</text>
  <path
     d="m 822.579,128.048 c -0.056,9.933 0.194,22.683 1.421,33.952 0.282,2.587 0.66,5.268 1.094,7.941"
     id="path138"
     inkscape:connector-curvature="0"
     style="fill:none;stroke:#000000" />
  <polygon
     points="824.578,-222.467 822.97,-211.995 817.697,-221.185 824.578,-222.467 "
     id="polygon140"
     style="fill:#000000;stroke:#000000"
     transform="translate(4,392)" />
  <text
     x="805.0885"
     y="157.7"
     font-size="14.00"
     id="text142"
     style="font-size:14px;text-anchor:middle;font-family:Montserrat">spouse of</text>
  <ellipse
     cx="585"
     cy="-370"
     rx="44.294601"
     ry="18"
     id="ellipse147"
     d="m 629.2946,-370 c 0,9.94113 -19.83137,18 -44.2946,18 -24.46323,0 -44.2946,-8.05887 -44.2946,-18 0,-9.94113 19.83137,-18 44.2946,-18 24.46323,0 44.2946,8.05887 44.2946,18 z"
     sodipodi:cx="585"
     sodipodi:cy="-370"
     sodipodi:rx="44.294601"
     sodipodi:ry="18"
     style="fill:none;stroke:#000000"
     transform="translate(4,392)" />
  <text
     x="589"
     y="25.700012"
     font-size="14.00"
     id="text149"
     style="font-size:14px;text-anchor:middle;font-family:Montserrat">germaine</text>
  <path
     d="m 600.862,39.67 c 3.304,5.564 6.449,11.972 8.138,18.33 11.864,44.674 17.059,61.041 0,104 -1.83,4.609 -4.586,8.962 -7.741,12.931"
     id="path154"
     inkscape:connector-curvature="0"
     style="fill:none;stroke:#000000" />
  <polygon
     points="599.706,-214.557 590.394,-209.504 594.522,-219.261 599.706,-214.557 "
     id="polygon156"
     style="fill:#000000;stroke:#000000"
     transform="translate(4,392)" />
  <text
     x="655.79889"
     y="113.70001"
     font-size="14.00"
     id="text158"
     style="font-size:14px;text-anchor:middle;font-family:Montserrat">spouse of</text>
  <ellipse
     cx="529"
     cy="-282"
     rx="32.245701"
     ry="18"
     id="ellipse163"
     d="m 561.2457,-282 c 0,9.94113 -14.43689,18 -32.2457,18 -17.80881,0 -32.2457,-8.05887 -32.2457,-18 0,-9.94113 14.43689,-18 32.2457,-18 17.80881,0 32.2457,8.05887 32.2457,18 z"
     sodipodi:cx="529"
     sodipodi:cy="-282"
     sodipodi:rx="32.245701"
     sodipodi:ry="18"
     style="fill:none;stroke:#000000"
     transform="translate(4,392)" />
  <text
     x="533"
     y="113.70001"
     font-size="14.00"
     id="text165"
     style="font-size:14px;text-anchor:middle;font-family:Montserrat">gerald</text>
  <path
     d="M 567.126,37.745 C 560.166,43.371 552.989,50.304 548,58 c -4.659,7.188 -7.912,15.867 -10.165,24.012"
     id="path170"
     inkscape:connector-curvature="0"
     style="fill:none;stroke:#000000" />
  <polygon
     points="537.204,-309.028 531.484,-300.11 530.394,-310.648 537.204,-309.028 "
     id="polygon172"
     style="fill:#000000;stroke:#000000"
     transform="translate(4,392)" />
  <text
     x="578.5"
     y="69.700012"
     font-size="14.00"
     id="text174"
     style="font-size:14px;text-anchor:middle;font-family:Montserrat">mistress of</text>
  <path
     d="M 527.911,127.922 C 525.761,138.279 524.8,151.51 530,162 c 3.174,6.403 8.142,11.953 13.66,16.628"
     id="path179"
     inkscape:connector-curvature="0"
     style="fill:none;stroke:#000000" />
  <polygon
     points="542.075,-215.938 547.994,-207.151 537.887,-210.329 542.075,-215.938 "
     id="polygon181"
     style="fill:#000000;stroke:#000000"
     transform="translate(4,392)" />
  <text
     x="539.2868"
     y="157.7"
     font-size="14.00"
     id="text183"
     style="font-size:14px;text-anchor:middle;font-family:Montserrat">close friend of</text>
  <ellipse
     cx="1054"
     cy="-194"
     rx="34.170799"
     ry="18"
     id="ellipse188"
     d="m 1088.1708,-194 c 0,9.94113 -15.2988,18 -34.1708,18 -18.872,0 -34.1708,-8.05887 -34.1708,-18 0,-9.94113 15.2988,-18 34.1708,-18 18.872,0 34.1708,8.05887 34.1708,18 z"
     sodipodi:cx="1054"
     sodipodi:cy="-194"
     sodipodi:rx="34.170799"
     sodipodi:ry="18"
     style="fill:none;stroke:#000000"
     transform="translate(4,392)" />
  <text
     x="1058"
     y="201.7"
     font-size="14.00"
     id="text190"
     style="font-size:14px;text-anchor:middle;font-family:Montserrat">george</text>
  <path
     d="m 1051.28,215.725 c -5.43,11.373 -14.17,25.834 -26.28,34.275 -31.543,21.98 -74.62,30.421 -107.517,33.54"
     id="path195"
     inkscape:connector-curvature="0"
     style="fill:none;stroke:#000000" />
  <polygon
     points="913.438,-104.945 903.188,-107.625 912.872,-111.922 913.438,-104.945 "
     id="polygon197"
     style="fill:#000000;stroke:#000000"
     transform="translate(4,392)" />
  <text
     x="1032.7217"
     y="245.7"
     font-size="14.00"
     id="text199"
     style="font-size:14px;text-anchor:middle;font-family:Montserrat">employed by</text>
  <ellipse
     cx="1124"
     cy="-282"
     rx="32.245701"
     ry="18"
     id="ellipse204"
     d="m 1156.2457,-282 c 0,9.94113 -14.4369,18 -32.2457,18 -17.8088,0 -32.2457,-8.05887 -32.2457,-18 0,-9.94113 14.4369,-18 32.2457,-18 17.8088,0 32.2457,8.05887 32.2457,18 z"
     sodipodi:cx="1124"
     sodipodi:cy="-282"
     sodipodi:rx="32.245701"
     sodipodi:ry="18"
     style="fill:none;stroke:#000000"
     transform="translate(4,392)" />
  <text
     x="1128"
     y="113.70001"
     font-size="14.00"
     id="text206"
     style="font-size:14px;text-anchor:middle;font-family:Montserrat">winny</text>
  <path
     d="m 1123.27,127.83 c -3.56,10.574 -9.21,24.074 -17.27,34.17 -4.78,5.983 -10.82,11.44 -17,16.172"
     id="path211"
     inkscape:connector-curvature="0"
     style="fill:none;stroke:#000000" />
  <polygon
     points="1086.78,-210.799 1076.61,-207.842 1082.72,-216.498 1086.78,-210.799 "
     id="polygon213"
     style="fill:#000000;stroke:#000000"
     transform="translate(4,392)" />
  <text
     x="1142"
     y="157.7"
     font-size="14.00"
     id="text215"
     style="font-size:14px;text-anchor:middle;font-family:Montserrat">spouse of</text>
  <path
     d="M 948.416,214.262 C 937.312,224.441 922.341,238.09 909,250 c -4.788,4.275 -9.928,8.811 -14.874,13.15"
     id="path220"
     inkscape:connector-curvature="0"
     style="fill:none;stroke:#000000" />
  <polygon
     points="892.421,-126.208 882.59,-122.258 887.812,-131.477 892.421,-126.208 "
     id="polygon222"
     style="fill:#000000;stroke:#000000"
     transform="translate(4,392)" />
  <text
     x="956.85199"
     y="229.36855"
     font-size="14.00"
     id="text224"
     style="font-size:14px;text-anchor:middle;font-family:Montserrat">collaborates with</text>
  <ellipse
     cx="1032"
     cy="-282"
     rx="38.021198"
     ry="18"
     id="ellipse229"
     d="m 1070.0212,-282 c 0,9.94113 -17.0227,18 -38.0212,18 -20.9985,0 -38.0212,-8.05887 -38.0212,-18 0,-9.94113 17.0227,-18 38.0212,-18 20.9985,0 38.0212,8.05887 38.0212,18 z"
     sodipodi:cx="1032"
     sodipodi:cy="-282"
     sodipodi:rx="38.021198"
     sodipodi:ry="18"
     style="fill:none;stroke:#000000"
     transform="translate(4,392)" />
  <text
     x="1036"
     y="113.70001"
     font-size="14.00"
     id="text231"
     style="font-size:14px;text-anchor:middle;font-family:Montserrat">claydon</text>
  <path
     d="m 1028.66,128.096 c -4.95,10.423 -12.12,23.662 -20.66,33.904 -4.206,5.046 -9.226,9.89 -14.327,14.28"
     id="path236"
     inkscape:connector-curvature="0"
     style="fill:none;stroke:#000000" />
  <polygon
     points="991.663,-212.827 981.697,-209.231 987.246,-218.257 991.663,-212.827 "
     id="polygon238"
     style="fill:#000000;stroke:#000000"
     transform="translate(4,392)" />
  <text
     x="1035.4022"
     y="157.7"
     font-size="14.00"
     id="text240"
     style="font-size:14px;text-anchor:middle;font-family:Montserrat">employed by</text>
  <ellipse
     cx="1139"
     cy="-194"
     rx="30.320601"
     ry="18"
     id="ellipse245"
     d="m 1169.3206,-194 c 0,9.94113 -13.575,18 -30.3206,18 -16.7456,0 -30.3206,-8.05887 -30.3206,-18 0,-9.94113 13.575,-18 30.3206,-18 16.7456,0 30.3206,8.05887 30.3206,18 z"
     sodipodi:cx="1139"
     sodipodi:cy="-194"
     sodipodi:rx="30.320601"
     sodipodi:ry="18"
     style="fill:none;stroke:#000000"
     transform="translate(4,392)" />
  <text
     x="1143"
     y="201.7"
     font-size="14.00"
     id="text247"
     style="font-size:14px;text-anchor:middle;font-family:Montserrat">david</text>
  <path
     d="m 1138.46,215.959 c -3.98,11.482 -10.98,25.979 -22.46,34.041 -31.22,21.93 -136.467,30.253 -199.054,33.31"
     id="path252"
     inkscape:connector-curvature="0"
     style="fill:none;stroke:#000000" />
  <polygon
     points="913.061,-105.191 902.91,-108.227 912.738,-112.184 913.061,-105.191 "
     id="polygon254"
     style="fill:#000000;stroke:#000000"
     transform="translate(4,392)" />
  <text
     x="1135.7366"
     y="230.18512"
     font-size="14.00"
     id="text256"
     style="font-size:14px;text-anchor:middle;font-family:Montserrat">colleague of</text>
  <ellipse
     cx="714"
     cy="-194"
     rx="30.320601"
     ry="18"
     id="ellipse261"
     d="m 744.3206,-194 c 0,9.94113 -13.57499,18 -30.3206,18 -16.74561,0 -30.3206,-8.05887 -30.3206,-18 0,-9.94113 13.57499,-18 30.3206,-18 16.74561,0 30.3206,8.05887 30.3206,18 z"
     sodipodi:cx="714"
     sodipodi:cy="-194"
     sodipodi:rx="30.320601"
     sodipodi:ry="18"
     style="fill:none;stroke:#000000"
     transform="translate(4,392)" />
  <text
     x="718"
     y="201.7"
     font-size="14.00"
     id="text263"
     style="font-size:14px;text-anchor:middle;font-family:Montserrat">byrne</text>
  <path
     d="M 696.997,210.991 C 681.506,221.35 664.899,236.705 676,250 c 18.071,21.643 93.516,29.931 144.55,33.085"
     id="path268"
     inkscape:connector-curvature="0"
     style="fill:none;stroke:#000000" />
  <polygon
     points="816.94,-112.398 826.724,-108.333 816.54,-105.41 816.94,-112.398 "
     id="polygon270"
     style="fill:#000000;stroke:#000000"
     transform="translate(4,392)" />
  <text
     x="678.47028"
     y="229.36855"
     font-size="14.00"
     id="text272"
     style="font-size:14px;text-anchor:middle;font-family:Montserrat">colleague of</text>
  <path
     d="m 733.283,213.902 c 11.961,11.06 29.416,25.926 46.717,36.098 15.053,8.85 32.759,16.336 48.397,22.085"
     id="path277"
     inkscape:connector-curvature="0"
     style="fill:none;stroke:#000000" />
  <polygon
     points="825.575,-123.211 833.825,-116.564 823.23,-116.616 825.575,-123.211 "
     id="polygon279"
     style="fill:#000000;stroke:#000000"
     transform="translate(4,392)" />
  <text
     x="752.92279"
     y="245.7"
     font-size="14.00"
     id="text281"
     style="font-size:14px;text-anchor:middle;font-family:Montserrat">enemy of</text>
  <ellipse
     cx="272"
     cy="-194"
     rx="42.3456"
     ry="18"
     id="ellipse286"
     d="m 314.3456,-194 c 0,9.94113 -18.95877,18 -42.3456,18 -23.38683,0 -42.3456,-8.05887 -42.3456,-18 0,-9.94113 18.95877,-18 42.3456,-18 23.38683,0 42.3456,8.05887 42.3456,18 z"
     sodipodi:cx="272"
     sodipodi:cy="-194"
     sodipodi:rx="42.3456"
     sodipodi:ry="18"
     style="fill:none;stroke:#000000"
     transform="translate(4,392)" />
  <text
     x="276"
     y="201.7"
     font-size="14.00"
     id="text288"
     style="font-size:14px;text-anchor:middle;font-family:Montserrat">catherine</text>
  <path
     d="m 285.322,215.592 c 4.435,10 8.099,22.973 4.678,34.408 -1.162,3.886 -2.91,7.74 -4.933,11.392"
     id="path293"
     inkscape:connector-curvature="0"
     style="fill:none;stroke:#000000" />
  <polygon
     points="283.953,-128.624 275.648,-122.045 278.038,-132.367 283.953,-128.624 "
     id="polygon295"
     style="fill:#000000;stroke:#000000"
     transform="translate(4,392)" />
  <text
     x="300.47025"
     y="231.00169"
     font-size="14.00"
     id="text297"
     style="font-size:14px;text-anchor:middle;font-family:Montserrat">close friend of</text>
  <path
     d="M 245.214,210.536 C 235.007,216.007 224.783,223.663 219,234 c -7.522,13.445 4.16,26.074 17.879,35.401"
     id="path302"
     inkscape:connector-curvature="0"
     style="fill:none;stroke:#000000" />
  <polygon
     points="234.873,-125.481 241.531,-117.24 231.187,-119.53 234.873,-125.481 "
     id="polygon304"
     style="fill:#000000;stroke:#000000"
     transform="translate(4,392)" />
  <text
     x="216.57082"
     y="245.7"
     font-size="14.00"
     id="text306"
     style="font-size:14px;text-anchor:middle;font-family:Montserrat">colleague of</text>
  <ellipse
     cx="37"
     cy="-194"
     rx="37.070099"
     ry="18"
     id="ellipse311"
     d="m 74.070099,-194 c 0,9.94113 -16.596849,18 -37.070099,18 -20.47325,0 -37.07009888,-8.05887 -37.07009888,-18 0,-9.94113 16.59684888,-18 37.07009888,-18 20.47325,0 37.070099,8.05887 37.070099,18 z"
     sodipodi:cx="37"
     sodipodi:cy="-194"
     sodipodi:rx="37.070099"
     sodipodi:ry="18"
     style="fill:none;stroke:#000000"
     transform="translate(4,392)" />
  <text
     x="41"
     y="201.7"
     font-size="14.00"
     id="text313"
     style="font-size:14px;text-anchor:middle;font-family:Montserrat">lauretta</text>
  <path
     d="M 52.3952,215.357 C 61.2984,226.859 74.7014,241.636 90,250 c 43.902,24.002 101.928,31.678 139.36,34.056"
     id="path318"
     inkscape:connector-curvature="0"
     style="fill:none;stroke:#000000" />
  <polygon
     points="226.012,-111.414 235.81,-107.383 225.637,-104.424 226.012,-111.414 "
     id="polygon320"
     style="fill:#000000;stroke:#000000"
     transform="translate(4,392)" />
  <text
     x="42.641632"
     y="250.59943"
     font-size="14.00"
     id="text322"
     style="font-size:14px;text-anchor:middle;font-family:Montserrat">parent of</text>
  <ellipse
     cx="37"
     cy="-282"
     rx="29.3722"
     ry="18"
     id="ellipse327"
     d="m 66.3722,-282 c 0,9.94113 -13.150382,18 -29.3722,18 -16.221818,0 -29.3722,-8.05887 -29.3722,-18 0,-9.94113 13.150382,-18 29.3722,-18 16.221818,0 29.3722,8.05887 29.3722,18 z"
     sodipodi:cx="37"
     sodipodi:cy="-282"
     sodipodi:rx="29.3722"
     sodipodi:ry="18"
     style="fill:none;stroke:#000000"
     transform="translate(4,392)" />
  <text
     x="41"
     y="113.70001"
     font-size="14.00"
     id="text329"
     style="font-size:14px;text-anchor:middle;font-family:Montserrat">mary</text>
  <path
     d="m 41,128.403 c 0,11.851 0,27.78 0,41.305"
     id="path334"
     inkscape:connector-curvature="0"
     style="fill:none;stroke:#000000" />
  <polygon
     points="40.5001,-222.084 37,-212.084 33.5001,-222.084 40.5001,-222.084 "
     id="polygon336"
     style="fill:#000000;stroke:#000000"
     transform="translate(4,392)" />
  <text
     x="59.985126"
     y="158.51657"
     font-size="14.00"
     id="text338"
     style="font-size:14px;text-anchor:middle;font-family:Montserrat">old friend of</text>
  <ellipse
     cx="134"
     cy="-194"
     rx="41.394001"
     ry="18"
     id="ellipse343"
     d="m 175.394,-194 c 0,9.94113 -18.53272,18 -41.394,18 -22.86128,0 -41.394001,-8.05887 -41.394001,-18 0,-9.94113 18.532721,-18 41.394001,-18 22.86128,0 41.394,8.05887 41.394,18 z"
     sodipodi:cx="134"
     sodipodi:cy="-194"
     sodipodi:rx="41.394001"
     sodipodi:ry="18"
     style="fill:none;stroke:#000000"
     transform="translate(4,392)" />
  <text
     x="138"
     y="201.7"
     font-size="14.00"
     id="text345"
     style="font-size:14px;text-anchor:middle;font-family:Montserrat">matthew</text>
  <path
     d="m 138.605,216.213 c 1.281,11.002 4.688,24.837 13.395,33.787 20.336,20.904 52.739,29.415 77.974,32.835"
     id="path350"
     inkscape:connector-curvature="0"
     style="fill:none;stroke:#000000" />
  <polygon
     points="226.41,-112.638 235.946,-108.023 225.613,-105.684 226.41,-112.638 "
     id="polygon352"
     style="fill:#000000;stroke:#000000"
     transform="translate(4,392)" />
  <text
     x="128.60623"
     y="231.00169"
     font-size="14.00"
     id="text354"
     style="font-size:14px;text-anchor:middle;font-family:Montserrat">husband of</text>
  <ellipse
     cx="410"
     cy="-194"
     rx="36.096001"
     ry="18"
     id="ellipse359"
     d="m 446.096,-194 c 0,9.94113 -16.16073,18 -36.096,18 -19.93527,0 -36.096,-8.05887 -36.096,-18 0,-9.94113 16.16073,-18 36.096,-18 19.93527,0 36.096,8.05887 36.096,18 z"
     sodipodi:cx="410"
     sodipodi:cy="-194"
     sodipodi:rx="36.096001"
     sodipodi:ry="18"
     style="fill:none;stroke:#000000"
     transform="translate(4,392)" />
  <text
     x="414"
     y="201.7"
     font-size="14.00"
     id="text361"
     style="font-size:14px;text-anchor:middle;font-family:Montserrat">edward</text>
  <path
     d="M 404.785,215.856 C 397.909,226.991 387.558,241.117 375,250 c -21.253,15.034 -49.325,23.872 -71.522,28.905"
     id="path366"
     inkscape:connector-curvature="0"
     style="fill:none;stroke:#000000" />
  <polygon
     points="299.931,-109.614 289.425,-110.981 298.49,-116.464 299.931,-109.614 "
     id="polygon368"
     style="fill:#000000;stroke:#000000"
     transform="translate(4,392)" />
  <text
     x="404.17139"
     y="245.7"
     font-size="14.00"
     id="text370"
     style="font-size:14px;text-anchor:middle;font-family:Montserrat">would like to know</text>
</svg>
