<?xml version="1.0" encoding="UTF-8" standalone="no"?>
<!-- Created by diasvg.py -->
<svg width="92.558cm" height="57.802cm" viewBox="-21.265 35.187 71.293 92.988"
 xmlns="http://www.w3.org/2000/svg"
 xmlns:xlink="http://www.w3.org/1999/xlink">
<path stroke="#1E90FF" fill="none" stroke-width="0.100"  d ="M -5.659,65.725 A 24.987,24.987 0 0,0 13.678,81.497 "/>
<polyline fill="none" stroke="#1E90FF" stroke-width="0.100"  points="13.256,81.686 13.788,81.515 13.332,81.192 "/>
<path stroke="#1E90FF" fill="none" stroke-width="0.100"  d ="M 4.910,76.518 A 5.985,5.985 0 0,0 -2.181,67.451 "/>
<polyline fill="none" stroke="#1E90FF" stroke-width="0.100"  points="4.957,76.061 4.845,76.608 5.350,76.370 "/>
<path stroke="#1E90FF" fill="none" stroke-width="0.100"  d ="M 35.130,52.113 A 19.594,19.594 0 0,0 27.121,57.445 "/>
<polyline fill="none" stroke="#1E90FF" stroke-width="0.100"  points="27.190,56.987 27.046,57.528 27.564,57.319 "/>
<text x="-2.181" y="67.291"  fill="#000000" text-anchor="start" font-size="0.80" font-family="Montserrat" font-style="normal" font-weight="400">
would like to know</text>
<line x1="27.564" y1="52.152" x2="23.467" y2="68.388" stroke="#000000" stroke-width="0.100" stroke-dasharray="0.30,0.30"/>
<polyline fill="none" stroke="#000000" stroke-width="0.100"  points="27.712,52.590 27.592,52.044 27.227,52.467 "/>
<polyline fill="none" stroke="#000000" stroke-width="0.100"  points="23.320,67.950 23.440,68.496 23.805,68.072 "/>
<line x1="25.936" y1="50.058" x2="14.189" y2="50.063" stroke="#000000" stroke-width="0.100" />
<polyline fill="none" stroke="#000000" stroke-width="0.100"  points="25.548,50.309 26.048,50.058 25.548,49.809 "/>
<polyline fill="none" stroke="#000000" stroke-width="0.100"  points="14.577,49.813 14.077,50.064 14.577,50.313 "/>
<text x="25.516" y="60.110"  fill="#000000" text-anchor="end" font-size="0.80" font-family="Montserrat" font-style="normal" font-weight="400">
spouses</text>
<line x1="21.921" y1="68.577" x2="13.050" y2="51.970" stroke="#000000" stroke-width="0.100" stroke-dasharray="0.30,0.30"/>
<polyline fill="none" stroke="#000000" stroke-width="0.100"  points="21.518,68.353 21.974,68.676 21.959,68.117 "/>
<polyline fill="none" stroke="#000000" stroke-width="0.100"  points="13.453,52.194 12.997,51.871 13.012,52.430 "/>
<text x="18.999" y="62.947"  fill="#000000" text-anchor="start" font-size="0.80" font-family="Montserrat" font-style="normal" font-weight="400">
close friends</text>
<text x="20.062" y="50.681"  fill="#000000" text-anchor="start" font-size="0.80" font-family="Montserrat" font-style="normal" font-weight="400">
lovers</text>
<line x1="21.050" y1="70.056" x2="-4.170" y2="64.367" stroke="#000000" stroke-width="0.100" stroke-dasharray="0.30,0.30"/>
<polyline fill="none" stroke="#000000" stroke-width="0.100"  points="-3.736,64.209 -4.279,64.343 -3.846,64.696 "/>
<text x="12.571" y="68.763"  fill="#000000" text-anchor="end" font-size="0.80" font-family="Montserrat" font-style="normal" font-weight="400">
has met</text>
<line x1="24.978" y1="69.776" x2="39.992" y2="64.575" stroke="#000000" stroke-width="0.100" />
<polyline fill="none" stroke="#000000" stroke-width="0.100"  points="25.263,69.413 24.872,69.813 25.427,69.885 "/>
<text x="32.379" y="67.052"  fill="#000000" text-anchor="end" font-size="0.80" font-family="Montserrat" font-style="normal" font-weight="400">
father</text>
<line x1="43.514" y1="62.601" x2="60.303" y2="49.317" stroke="#000000" stroke-width="0.100" />
<polyline fill="none" stroke="#000000" stroke-width="0.100"  points="43.663,62.164 43.426,62.671 43.973,62.556 "/>
<polyline fill="none" stroke="#000000" stroke-width="0.100"  points="60.153,49.753 60.390,49.247 59.843,49.361 "/>
<text x="54.765" y="53.539"  fill="#000000" text-anchor="end" font-size="0.80" font-family="Montserrat" font-style="normal" font-weight="400">
colleagues</text>
<ellipse cx="57.458" cy="73.631" rx="1.887" ry="1.887" fill="#FFFFFF" stroke="none"  /><ellipse cx="57.458" cy="73.631" rx="1.887" ry="1.887" fill="none" stroke="#000000"  stroke-width="0.100" /><ellipse cx="57.458" cy="73.631" rx="1.887" ry="1.887" fill="none" stroke="#000000"  stroke-width="0.100" /><text x="57.458" y="73.461"  fill="#000000" text-anchor="middle" font-size="0.80" font-family="Montserrat" font-style="normal" font-weight="400">
Joseph</text>
<text x="57.458" y="74.261"  fill="#000000" text-anchor="middle" font-size="0.80" font-family="Montserrat" font-style="normal" font-weight="400">
Lewisohn</text>
<ellipse cx="59.792" cy="58.144" rx="1.887" ry="1.887" fill="#FFFFFF" stroke="none"  /><ellipse cx="59.792" cy="58.144" rx="1.887" ry="1.887" fill="none" stroke="#000000"  stroke-width="0.100" /><ellipse cx="59.792" cy="58.144" rx="1.887" ry="1.887" fill="none" stroke="#000000"  stroke-width="0.100" /><text x="59.792" y="58.374"  fill="#000000" text-anchor="middle" font-size="0.80" font-family="Montserrat" font-style="normal" font-weight="400">
David</text>
<ellipse cx="41.820" cy="63.942" rx="1.887" ry="1.887" fill="#FFFFFF" stroke="none"  /><ellipse cx="41.820" cy="63.942" rx="1.887" ry="1.887" fill="none" stroke="#000000"  stroke-width="0.100" /><ellipse cx="41.820" cy="63.942" rx="1.887" ry="1.887" fill="none" stroke="#000000"  stroke-width="0.100" /><text x="41.820" y="64.172"  fill="#000000" text-anchor="middle" font-size="0.80" font-family="Montserrat" font-style="normal" font-weight="400">
William</text>
<ellipse cx="61.997" cy="47.976" rx="1.887" ry="1.887" fill="#FFFFFF" stroke="none"  /><ellipse cx="61.997" cy="47.976" rx="1.887" ry="1.887" fill="none" stroke="#000000"  stroke-width="0.100" /><ellipse cx="61.997" cy="47.976" rx="1.887" ry="1.887" fill="none" stroke="#000000"  stroke-width="0.100" /><text x="61.997" y="48.206"  fill="#000000" text-anchor="middle" font-size="0.80" font-family="Montserrat" font-style="normal" font-weight="400">
Hubert</text>
<ellipse cx="22.939" cy="70.482" rx="1.887" ry="1.887" fill="#FFFFFF" stroke="none"  /><ellipse cx="22.939" cy="70.482" rx="1.887" ry="1.887" fill="none" stroke="#000000"  stroke-width="0.100" /><ellipse cx="22.939" cy="70.482" rx="1.887" ry="1.887" fill="none" stroke="#000000"  stroke-width="0.100" /><text x="22.939" y="70.712"  fill="#000000" text-anchor="middle" font-size="0.80" font-family="Montserrat" font-style="normal" font-weight="400">
Martin</text>
<ellipse cx="28.093" cy="50.057" rx="1.887" ry="1.887" fill="#FFFFFF" stroke="none"  /><ellipse cx="28.093" cy="50.057" rx="1.887" ry="1.887" fill="none" stroke="#000000"  stroke-width="0.100" /><ellipse cx="28.093" cy="50.057" rx="1.887" ry="1.887" fill="none" stroke="#000000"  stroke-width="0.100" /><text x="28.093" y="50.287"  fill="#000000" text-anchor="middle" font-size="0.80" font-family="Montserrat" font-style="normal" font-weight="400">
Germaine</text>
<ellipse cx="-6.277" cy="63.892" rx="1.887" ry="1.887" fill="#FFFFFF" stroke="none"  /><ellipse cx="-6.277" cy="63.892" rx="1.887" ry="1.887" fill="none" stroke="#000000"  stroke-width="0.100" /><ellipse cx="-6.277" cy="63.892" rx="1.887" ry="1.887" fill="none" stroke="#000000"  stroke-width="0.100" /><text x="-6.277" y="64.122"  fill="#000000" text-anchor="middle" font-size="0.80" font-family="Montserrat" font-style="normal" font-weight="400">
Anna</text>
<ellipse cx="47.788" cy="73.082" rx="1.887" ry="1.887" fill="#FFFFFF" stroke="none"  /><ellipse cx="47.788" cy="73.082" rx="1.887" ry="1.887" fill="none" stroke="#000000"  stroke-width="0.100" /><ellipse cx="47.788" cy="73.082" rx="1.887" ry="1.887" fill="none" stroke="#000000"  stroke-width="0.100" /><text x="47.788" y="73.312"  fill="#000000" text-anchor="middle" font-size="0.80" font-family="Montserrat" font-style="normal" font-weight="400">
George</text>
<ellipse cx="45.274" cy="55.575" rx="1.887" ry="1.887" fill="#FFFFFF" stroke="none"  /><ellipse cx="45.274" cy="55.575" rx="1.887" ry="1.887" fill="none" stroke="#000000"  stroke-width="0.100" /><ellipse cx="45.274" cy="55.575" rx="1.887" ry="1.887" fill="none" stroke="#000000"  stroke-width="0.100" /><text x="45.274" y="55.805"  fill="#000000" text-anchor="middle" font-size="0.80" font-family="Montserrat" font-style="normal" font-weight="400">
Cedric</text>
<ellipse cx="31.309" cy="45.356" rx="1.887" ry="1.887" fill="#FFFFFF" stroke="none"  /><ellipse cx="31.309" cy="45.356" rx="1.887" ry="1.887" fill="none" stroke="#000000"  stroke-width="0.100" /><ellipse cx="31.309" cy="45.356" rx="1.887" ry="1.887" fill="none" stroke="#000000"  stroke-width="0.100" /><text x="31.309" y="45.586"  fill="#000000" text-anchor="middle" font-size="0.80" font-family="Montserrat" font-style="normal" font-weight="400">
Anthony</text>
<ellipse cx="31.879" cy="63.970" rx="1.887" ry="1.887" fill="#FFFFFF" stroke="none"  /><ellipse cx="31.879" cy="63.970" rx="1.887" ry="1.887" fill="none" stroke="#000000"  stroke-width="0.100" /><ellipse cx="31.879" cy="63.970" rx="1.887" ry="1.887" fill="none" stroke="#000000"  stroke-width="0.100" /><text x="31.879" y="64.200"  fill="#000000" text-anchor="middle" font-size="0.80" font-family="Montserrat" font-style="normal" font-weight="400">
Gwenda</text>
<ellipse cx="47.752" cy="79.281" rx="1.887" ry="1.887" fill="#FFFFFF" stroke="none"  /><ellipse cx="47.752" cy="79.281" rx="1.887" ry="1.887" fill="none" stroke="#000000"  stroke-width="0.100" /><ellipse cx="47.752" cy="79.281" rx="1.887" ry="1.887" fill="none" stroke="#000000"  stroke-width="0.100" /><text x="47.752" y="79.511"  fill="#000000" text-anchor="middle" font-size="0.80" font-family="Montserrat" font-style="normal" font-weight="400">
Winny</text>
<ellipse cx="31.301" cy="37.123" rx="1.887" ry="1.887" fill="#FFFFFF" stroke="none"  /><ellipse cx="31.301" cy="37.123" rx="1.887" ry="1.887" fill="none" stroke="#000000"  stroke-width="0.100" /><ellipse cx="31.301" cy="37.123" rx="1.887" ry="1.887" fill="none" stroke="#000000"  stroke-width="0.100" /><text x="31.301" y="37.353"  fill="#000000" text-anchor="middle" font-size="0.80" font-family="Montserrat" font-style="normal" font-weight="400">
Claydon</text>
<ellipse cx="40.223" cy="49.012" rx="1.887" ry="1.887" fill="#FFFFFF" stroke="none"  /><ellipse cx="40.223" cy="49.012" rx="1.887" ry="1.887" fill="none" stroke="#000000"  stroke-width="0.100" /><ellipse cx="40.223" cy="49.012" rx="1.887" ry="1.887" fill="none" stroke="#000000"  stroke-width="0.100" /><text x="40.223" y="49.242"  fill="#000000" text-anchor="middle" font-size="0.80" font-family="Montserrat" font-style="normal" font-weight="400">
Tony</text>
<ellipse cx="48.502" cy="47.340" rx="1.887" ry="1.887" fill="#FFFFFF" stroke="none"  /><ellipse cx="48.502" cy="47.340" rx="1.887" ry="1.887" fill="none" stroke="#000000"  stroke-width="0.100" /><ellipse cx="48.502" cy="47.340" rx="1.887" ry="1.887" fill="none" stroke="#000000"  stroke-width="0.100" /><text x="48.502" y="47.570"  fill="#000000" text-anchor="middle" font-size="0.80" font-family="Montserrat" font-style="normal" font-weight="400">
Jean</text>
<line x1="43.466" y1="64.962" x2="55.622" y2="72.493" stroke="#000000" stroke-width="0.100" />
<polyline fill="none" stroke="#000000" stroke-width="0.100"  points="55.161,72.501 55.717,72.552 55.424,72.076 "/>
<line x1="44.450" y1="57.572" x2="42.559" y2="62.152" stroke="#000000" stroke-width="0.100" />
<polyline fill="none" stroke="#000000" stroke-width="0.100"  points="44.533,58.026 44.493,57.469 44.071,57.835 "/>
<line x1="32.371" y1="47.235" x2="40.757" y2="62.063" stroke="#000000" stroke-width="0.100" />
<polyline fill="none" stroke="#000000" stroke-width="0.100"  points="32.780,47.450 32.316,47.138 32.345,47.696 "/>
<polyline fill="none" stroke="#000000" stroke-width="0.100"  points="40.348,61.848 40.812,62.160 40.783,61.602 "/>
<line x1="46.729" y1="71.461" x2="43.000" y2="65.750" stroke="#000000" stroke-width="0.100" />
<polyline fill="none" stroke="#000000" stroke-width="0.100"  points="43.422,65.939 42.939,65.657 43.003,66.212 "/>
<line x1="57.736" y1="58.807" x2="43.876" y2="63.279" stroke="#000000" stroke-width="0.100" />
<polyline fill="none" stroke="#000000" stroke-width="0.100"  points="57.443,59.164 57.842,58.773 57.290,58.688 "/>
<polyline fill="none" stroke="#000000" stroke-width="0.100"  points="44.168,62.921 43.769,63.313 44.322,63.397 "/>
<text x="50.806" y="61.663"  fill="#000000" text-anchor="start" font-size="0.80" font-family="Montserrat" font-style="normal" font-weight="400">
colleagues</text>
<text x="49.639" y="69.406"  fill="#000000" text-anchor="end" font-size="0.80" font-family="Montserrat" font-style="normal" font-weight="400">
ancestor</text>
<text x="44.804" y="69.132"  fill="#000000" text-anchor="end" font-size="0.80" font-family="Montserrat" font-style="normal" font-weight="400">
employed by</text>
<text x="35.130" y="52.733"  fill="#000000" text-anchor="end" font-size="0.80" font-family="Montserrat" font-style="normal" font-weight="400">
collaborate</text>
<text x="43.547" y="59.599"  fill="#000000" text-anchor="end" font-size="0.80" font-family="Montserrat" font-style="normal" font-weight="400">
father</text>
<line x1="46.062" y1="53.565" x2="47.714" y2="49.351" stroke="#000000" stroke-width="0.100" />
<polyline fill="none" stroke="#000000" stroke-width="0.100"  points="45.971,53.112 46.022,53.669 46.437,53.295 "/>
<polyline fill="none" stroke="#000000" stroke-width="0.100"  points="47.805,49.804 47.755,49.247 47.339,49.621 "/>
<text x="46.888" y="51.298"  fill="#000000" text-anchor="end" font-size="0.80" font-family="Montserrat" font-style="normal" font-weight="400">
spouses</text>
<line x1="39.885" y1="63.947" x2="34.037" y2="63.964" stroke="#000000" stroke-width="0.100" />
<polyline fill="none" stroke="#000000" stroke-width="0.100"  points="34.424,63.713 33.925,63.964 34.426,64.213 "/>
<text x="36.849" y="63.796"  fill="#000000" text-anchor="middle" font-size="0.80" font-family="Montserrat" font-style="normal" font-weight="400">
father</text>
<line x1="32.823" y1="62.279" x2="39.171" y2="50.898" stroke="#000000" stroke-width="0.100" />
<polyline fill="none" stroke="#000000" stroke-width="0.100"  points="39.200,51.359 39.225,50.801 38.763,51.116 "/>
<text x="36.051" y="56.331"  fill="#000000" text-anchor="end" font-size="0.80" font-family="Montserrat" font-style="normal" font-weight="400">
ambivalent of</text>
<line x1="33.100" y1="46.091" x2="38.225" y2="48.192" stroke="#000000" stroke-width="0.100" />
<polyline fill="none" stroke="#000000" stroke-width="0.100"  points="37.771,48.276 38.328,48.235 37.960,47.814 "/>
<text x="35.766" y="47.024"  fill="#000000" text-anchor="start" font-size="0.80" font-family="Montserrat" font-style="normal" font-weight="400">
father</text>
<line x1="47.764" y1="77.314" x2="47.776" y2="75.049" stroke="#000000" stroke-width="0.100" />
<polyline fill="none" stroke="#000000" stroke-width="0.100"  points="47.516,76.924 47.763,77.426 48.016,76.927 "/>
<polyline fill="none" stroke="#000000" stroke-width="0.100"  points="48.024,75.439 47.777,74.937 47.524,75.436 "/>
<text x="47.770" y="76.412"  fill="#000000" text-anchor="end" font-size="0.80" font-family="Montserrat" font-style="normal" font-weight="400">
spouses</text>
<line x1="31.303" y1="39.283" x2="31.307" y2="43.420" stroke="#000000" stroke-width="0.100" />
<polyline fill="none" stroke="#000000" stroke-width="0.100"  points="31.553,39.671 31.303,39.171 31.053,39.671 "/>
<text x="31.305" y="41.470"  fill="#000000" text-anchor="start" font-size="0.80" font-family="Montserrat" font-style="normal" font-weight="400">
employs</text>
<ellipse cx="-14.838" cy="91.052" rx="1.887" ry="1.887" fill="#FFFFFF" stroke="none"  /><ellipse cx="-14.838" cy="91.052" rx="1.887" ry="1.887" fill="none" stroke="#000000"  stroke-width="0.100" /><ellipse cx="-14.838" cy="91.052" rx="1.887" ry="1.887" fill="none" stroke="#000000"  stroke-width="0.100" /><text x="-14.838" y="91.282"  fill="#000000" text-anchor="middle" font-size="0.80" font-family="Montserrat" font-style="normal" font-weight="400">
Mary</text>
<ellipse cx="-19.328" cy="68.594" rx="1.887" ry="1.887" fill="#FFFFFF" stroke="none"  /><ellipse cx="-19.328" cy="68.594" rx="1.887" ry="1.887" fill="none" stroke="#000000"  stroke-width="0.100" /><ellipse cx="-19.328" cy="68.594" rx="1.887" ry="1.887" fill="none" stroke="#000000"  stroke-width="0.100" /><text x="-19.328" y="68.824"  fill="#000000" text-anchor="middle" font-size="0.80" font-family="Montserrat" font-style="normal" font-weight="400">
Catherine</text>
<ellipse cx="1.915" cy="71.010" rx="1.887" ry="1.887" fill="#FFFFFF" stroke="none"  /><ellipse cx="1.915" cy="71.010" rx="1.887" ry="1.887" fill="none" stroke="#000000"  stroke-width="0.100" /><ellipse cx="1.915" cy="71.010" rx="1.887" ry="1.887" fill="none" stroke="#000000"  stroke-width="0.100" /><text x="1.915" y="71.240"  fill="#000000" text-anchor="middle" font-size="0.80" font-family="Montserrat" font-style="normal" font-weight="400">
Edward</text>
<ellipse cx="-2.541" cy="82.221" rx="1.887" ry="1.887" fill="#FFFFFF" stroke="none"  /><ellipse cx="-2.541" cy="82.221" rx="1.887" ry="1.887" fill="none" stroke="#000000"  stroke-width="0.100" /><ellipse cx="-2.541" cy="82.221" rx="1.887" ry="1.887" fill="none" stroke="#000000"  stroke-width="0.100" /><text x="-2.541" y="82.451"  fill="#000000" text-anchor="middle" font-size="0.80" font-family="Montserrat" font-style="normal" font-weight="400">
Lauretta</text>
<ellipse cx="-6.317" cy="49.255" rx="1.887" ry="1.887" fill="#FFFFFF" stroke="none"  /><ellipse cx="-6.317" cy="49.255" rx="1.887" ry="1.887" fill="none" stroke="#000000"  stroke-width="0.100" /><ellipse cx="-6.317" cy="49.255" rx="1.887" ry="1.887" fill="none" stroke="#000000"  stroke-width="0.100" /><text x="-6.317" y="49.485"  fill="#000000" text-anchor="middle" font-size="0.80" font-family="Montserrat" font-style="normal" font-weight="400">
Matthew</text>
<line x1="0.454" y1="69.740" x2="-4.647" y2="65.308" stroke="#000000" stroke-width="0.100" />
<polyline fill="none" stroke="#000000" stroke-width="0.100"  points="-4.190,65.374 -4.731,65.235 -4.518,65.751 "/>
<line x1="-17.301" y1="67.864" x2="-8.303" y2="64.622" stroke="#000000" stroke-width="0.100" />
<polyline fill="none" stroke="#000000" stroke-width="0.100"  points="-17.021,67.497 -17.407,67.901 -16.852,67.967 "/>
<polyline fill="none" stroke="#000000" stroke-width="0.100"  points="-8.584,64.989 -8.198,64.584 -8.753,64.518 "/>
<line x1="-6.311" y1="51.412" x2="-6.283" y2="61.735" stroke="#000000" stroke-width="0.100" stroke-dasharray="0.30,0.14,0.03,0.14"/>
<polyline fill="none" stroke="#000000" stroke-width="0.100"  points="-6.060,51.800 -6.311,51.300 -6.560,51.801 "/>
<polyline fill="none" stroke="#000000" stroke-width="0.100"  points="-6.534,61.348 -6.282,61.847 -6.034,61.346 "/>
<line x1="-2.928" y1="80.323" x2="-5.845" y2="66.009" stroke="#000000" stroke-width="0.100" />
<polyline fill="none" stroke="#000000" stroke-width="0.100"  points="-5.523,66.339 -5.868,65.899 -6.013,66.439 "/>
<line x1="-13.271" y1="89.927" x2="-4.290" y2="83.477" stroke="#000000" stroke-width="0.100" />
<polyline fill="none" stroke="#000000" stroke-width="0.100"  points="-4.460,83.907 -4.199,83.412 -4.751,83.500 "/>
<text x="-6.297" y="56.414"  fill="#000000" text-anchor="start" font-size="0.80" font-family="Montserrat" font-style="normal" font-weight="400">
spouses</text>
<text x="-11.233" y="65.517"  fill="#000000" text-anchor="end" font-size="0.80" font-family="Montserrat" font-style="normal" font-weight="400">
close friends</text>
<text x="-8.690" y="87.257"  fill="#000000" text-anchor="start" font-size="0.80" font-family="Montserrat" font-style="normal" font-weight="400">
old friend of</text>
<text x="-4.409" y="72.897"  fill="#000000" text-anchor="start" font-size="0.80" font-family="Montserrat" font-style="normal" font-weight="400">
parent of</text>
<path stroke="#1E90FF" fill="none" stroke-width="0.100"  d ="M 31.305,41.240 A 11.004,11.004 0 0,0 20.109,49.842 "/>
<polyline fill="none" stroke="#1E90FF" stroke-width="0.100"  points="19.938,49.412 20.085,49.951 20.428,49.511 "/>
<path stroke="#1E90FF" fill="none" stroke-width="0.100"  d ="M 20.062,50.061 A 8.334,8.334 0 0,0 24.285,58.135 "/>
<polyline fill="none" stroke="#1E90FF" stroke-width="0.100"  points="23.823,58.178 24.382,58.190 24.056,57.736 "/>
<rect x="21.723" y="43.053" width="3.913" height="1.161" fill="#FFFFFF" stroke="none" stroke-width="0"/>
<rect x="21.723" y="43.053" width="3.913" height="1.161" fill="none" stroke="#000000" stroke-width="0.100" />
<text x="23.679" y="43.864"  fill="#000000" text-anchor="middle" font-size="0.80" font-family="Montserrat" font-style="normal" font-weight="400">
discovers</text>
<rect x="24.481" y="57.661" width="3.913" height="1.161" fill="#FFFFFF" stroke="none" stroke-width="0"/>
<rect x="24.481" y="57.661" width="3.913" height="1.161" fill="none" stroke="#000000" stroke-width="0.100" />
<text x="26.438" y="58.472"  fill="#000000" text-anchor="middle" font-size="0.80" font-family="Montserrat" font-style="normal" font-weight="400">
divorce</text>
<path stroke="#000000" fill="none" stroke-width="0.100"  d ="M -6.317,47.369 A 3.522,3.522 0 0,0 -12.663,47.991 "/>
<polyline fill="none" stroke="#000000" stroke-width="0.100"  points="-13.095,47.815 -12.606,48.087 -12.682,47.533 "/>
<polygon fill="#FFFFFF" stroke="none" stroke-width="0.100" points="-13.194,48.229 -10.569,48.229 -9.256,49.579 -14.506,49.579 "/>
<polygon fill="none" stroke="#000000" stroke-width="0.100"  points="-13.194,48.229 -10.569,48.229 -9.256,49.579 -14.506,49.579 "/>
<polygon fill="none" stroke="#000000" stroke-width="0.100"  points="-13.194,48.229 -10.569,48.229 -9.256,49.579 -14.506,49.579 "/>
<text x="-11.881" y="49.134"  fill="#000000" text-anchor="middle" font-size="0.80" font-family="Montserrat" font-style="normal" font-weight="400">
Thazila</text>
<path stroke="#1E90FF" fill="none" stroke-width="0.100"  d ="M -17.431,69.623 A 8.398,8.398 0 0,0 -7.082,65.895 "/>
<polyline fill="none" stroke="#1E90FF" stroke-width="0.100"  points="-7.038,66.357 -7.027,65.798 -7.481,66.124 "/>
<polyline fill="none" stroke="#1E90FF" stroke-width="0.100"  points="-16.977,69.545 -17.535,69.583 -17.170,70.006 "/>
<rect x="-13.053" y="67.866" width="3.913" height="2.020" fill="#FFFFFF" stroke="none" stroke-width="0"/>
<rect x="-13.053" y="67.866" width="3.913" height="2.020" fill="none" stroke="#000000" stroke-width="0.100" />
<text x="-11.097" y="68.706"  fill="#000000" text-anchor="middle" font-size="0.80" font-family="Montserrat" font-style="normal" font-weight="400">
conflictual</text>
<text x="-11.097" y="69.506"  fill="#000000" text-anchor="middle" font-size="0.80" font-family="Montserrat" font-style="normal" font-weight="400">
situation</text>
<path stroke="#1E90FF" fill="none" stroke-width="0.100"  d ="M -9.681,69.936 A 54.508,54.508 0 0,0 1.041,75.980 "/>
<polyline fill="none" stroke="#1E90FF" stroke-width="0.100"  points="0.586,76.062 1.144,76.024 0.779,75.601 "/>
<polygon fill="#FFFFFF" stroke="none" stroke-width="0.100" points="12.586,81.532 15.211,81.532 16.524,82.881 11.274,82.881 "/>
<polygon fill="none" stroke="#000000" stroke-width="0.100"  points="12.586,81.532 15.211,81.532 16.524,82.881 11.274,82.881 "/>
<polygon fill="none" stroke="#000000" stroke-width="0.100"  points="12.586,81.532 15.211,81.532 16.524,82.881 11.274,82.881 "/>
<text x="13.899" y="82.436"  fill="#000000" text-anchor="middle" font-size="0.80" font-family="Montserrat" font-style="normal" font-weight="400">
Nice</text>
<rect x="0.863" y="76.116" width="3.913" height="1.161" fill="#FFFFFF" stroke="none" stroke-width="0"/>
<rect x="0.863" y="76.116" width="3.913" height="1.161" fill="none" stroke="#000000" stroke-width="0.100" />
<text x="2.819" y="76.926"  fill="#000000" text-anchor="middle" font-size="0.80" font-family="Montserrat" font-style="normal" font-weight="400">
emigrates</text>
<line x1="-0.606" y1="82.219" x2="11.635" y2="82.209" stroke="#000000" stroke-width="0.100" />
<polyline fill="none" stroke="#000000" stroke-width="0.100"  points="11.247,82.459 11.747,82.208 11.247,81.959 "/>
<text x="5.627" y="82.054"  fill="#000000" text-anchor="middle" font-size="0.80" font-family="Montserrat" font-style="normal" font-weight="400">
lives in</text>
<path stroke="#1E90FF" fill="none" stroke-width="0.100"  d ="M 43.806,63.094 A 55.010,55.010 0 0,0 61.997,49.863 "/>
<polyline fill="none" stroke="#1E90FF" stroke-width="0.100"  points="44.059,62.708 43.704,63.140 44.263,63.165 "/>
<path stroke="#1E90FF" fill="none" stroke-width="0.100"  d ="M 61.997,49.863 A 8.533,8.533 0 0,0 59.493,56.006 "/>
<polyline fill="none" stroke="#1E90FF" stroke-width="0.100"  points="59.225,55.628 59.494,56.118 59.725,55.609 "/>
<path stroke="#1E90FF" fill="none" stroke-width="0.100"  d ="M 61.087,46.268 A 11.640,11.640 0 0,0 41.072,47.028 "/>
<polyline fill="none" stroke="#1E90FF" stroke-width="0.100"  points="41.026,46.567 41.018,47.126 41.470,46.797 "/>
<path stroke="#1E90FF" fill="none" stroke-width="0.100"  d ="M 60.110,47.976 A 45.999,45.999 0 0,0 33.423,44.915 "/>
<polyline fill="none" stroke="#1E90FF" stroke-width="0.100"  points="33.758,44.597 33.313,44.935 33.851,45.088 "/>
<path stroke="#1E90FF" fill="none" stroke-width="0.100"  d ="M 56.866,46.658 A 6.288,6.288 0 0,0 53.650,41.903 "/>
<polyline fill="none" stroke="#1E90FF" stroke-width="0.100"  points="54.111,41.851 53.552,41.849 53.886,42.297 "/>
<path stroke="#1E90FF" fill="none" stroke-width="0.100"  d ="M 60.110,47.976 A 11.511,11.511 0 0,0 46.079,53.571 "/>
<polyline fill="none" stroke="#1E90FF" stroke-width="0.100"  points="46.024,53.112 46.028,53.671 46.472,53.332 "/>
<rect x="55.184" y="46.658" width="3.364" height="1.161" fill="#FFFFFF" stroke="none" stroke-width="0"/>
<rect x="55.184" y="46.658" width="3.364" height="1.161" fill="none" stroke="#000000" stroke-width="0.100" />
<text x="56.866" y="47.469"  fill="#000000" text-anchor="middle" font-size="0.80" font-family="Montserrat" font-style="normal" font-weight="400">
has met</text>
<rect x="47.842" y="40.587" width="7.008" height="1.161" fill="#FFFFFF" stroke="none" stroke-width="0"/>
<rect x="47.842" y="40.587" width="7.008" height="1.161" fill="none" stroke="#000000" stroke-width="0.100" />
<text x="51.346" y="41.398"  fill="#000000" text-anchor="middle" font-size="0.80" font-family="Montserrat" font-style="normal" font-weight="400">
would like to know</text>
<path stroke="#1E90FF" fill="none" stroke-width="0.100"  d ="M 33.836,63.100 A 12.892,12.892 0 0,0 40.497,50.911 "/>
<polyline fill="none" stroke="#1E90FF" stroke-width="0.100"  points="34.064,62.699 33.738,63.153 34.297,63.142 "/>
<rect x="57.700" y="51.960" width="4.129" height="1.161" fill="#FFFFFF" stroke="none" stroke-width="0"/>
<rect x="57.700" y="51.960" width="4.129" height="1.161" fill="none" stroke="#000000" stroke-width="0.100" />
<text x="59.765" y="52.771"  fill="#000000" text-anchor="middle" font-size="0.80" font-family="Montserrat" font-style="normal" font-weight="400">
plays with</text>
<rect x="38.270" y="53.523" width="4.129" height="1.161" fill="#FFFFFF" stroke="none" stroke-width="0"/>
<rect x="38.270" y="53.523" width="4.129" height="1.161" fill="none" stroke="#000000" stroke-width="0.100" />
<text x="40.334" y="54.333"  fill="#000000" text-anchor="middle" font-size="0.80" font-family="Montserrat" font-style="normal" font-weight="400">
plays with</text>
<ellipse cx="12.032" cy="50.064" rx="1.887" ry="1.887" fill="#FFFFFF" stroke="none"  /><ellipse cx="12.032" cy="50.064" rx="1.887" ry="1.887" fill="none" stroke="#000000"  stroke-width="0.100" /><ellipse cx="12.032" cy="50.064" rx="1.887" ry="1.887" fill="none" stroke="#000000"  stroke-width="0.100" /><text x="12.032" y="50.294"  fill="#000000" text-anchor="middle" font-size="0.80" font-family="Montserrat" font-style="normal" font-weight="400">
Gerard</text>
<path stroke="#1E90FF" fill="none" stroke-width="0.100"  d ="M 13.604,51.192 A 12.459,12.459 0 0,0 26.330,51.301 "/>
<polyline fill="none" stroke="#1E90FF" stroke-width="0.100"  points="26.129,51.718 26.426,51.244 25.869,51.290 "/>
<rect x="15.195" y="52.193" width="4.129" height="1.161" fill="#FFFFFF" stroke="none" stroke-width="0"/>
<rect x="15.195" y="52.193" width="4.129" height="1.161" fill="none" stroke="#000000" stroke-width="0.100" />
<text x="17.260" y="53.004"  fill="#000000" text-anchor="middle" font-size="0.80" font-family="Montserrat" font-style="normal" font-weight="400">
plays with</text>
<polygon fill="#FFFFFF" stroke="none" stroke-width="0.100" points="19.025,81.521 21.650,81.521 22.963,82.871 17.713,82.871 "/>
<polygon fill="none" stroke="#000000" stroke-width="0.100"  points="19.025,81.521 21.650,81.521 22.963,82.871 17.713,82.871 "/>
<polygon fill="none" stroke="#000000" stroke-width="0.100"  points="19.025,81.521 21.650,81.521 22.963,82.871 17.713,82.871 "/>
<text x="20.338" y="82.426"  fill="#000000" text-anchor="middle" font-size="0.80" font-family="Montserrat" font-style="normal" font-weight="400">
Bandol</text>
<path stroke="#1E90FF" fill="none" stroke-width="0.100"  d ="M 40.069,64.770 A 50.701,50.701 0 0,0 20.953,81.288 "/>
<polyline fill="none" stroke="#1E90FF" stroke-width="0.100"  points="20.967,80.826 20.890,81.380 21.379,81.109 "/>
<path stroke="#1E90FF" fill="none" stroke-width="0.100"  d ="M 21.031,81.291 A 13.026,13.026 0 0,0 23.297,72.385 "/>
<polyline fill="none" stroke="#1E90FF" stroke-width="0.100"  points="21.057,80.831 20.967,81.383 21.462,81.125 "/>
<path stroke="#1E90FF" fill="none" stroke-width="0.100"  d ="M 45.959,72.447 A 22.507,22.507 0 0,0 20.929,81.287 "/>
<polyline fill="none" stroke="#1E90FF" stroke-width="0.100"  points="20.937,80.825 20.866,81.379 21.352,81.103 "/>
<path stroke="#1E90FF" fill="none" stroke-width="0.100"  d ="M 21.031,81.294 A 113.361,113.361 0 0,0 30.989,65.690 "/>
<polyline fill="none" stroke="#1E90FF" stroke-width="0.100"  points="21.068,80.834 20.963,81.383 21.465,81.137 "/>
<rect x="20.788" y="78.904" width="3.913" height="1.161" fill="#FFFFFF" stroke="none" stroke-width="0"/>
<rect x="20.788" y="78.904" width="3.913" height="1.161" fill="none" stroke="#000000" stroke-width="0.100" />
<text x="22.744" y="79.715"  fill="#000000" text-anchor="middle" font-size="0.80" font-family="Montserrat" font-style="normal" font-weight="400">
family trip</text>
<path stroke="#1E90FF" fill="none" stroke-width="0.100"  d ="M 64.735,65.564 A 10.155,10.155 0 0,0 63.745,48.807 "/>
<polyline fill="none" stroke="#1E90FF" stroke-width="0.100"  points="64.901,65.134 64.646,65.632 65.197,65.537 "/>
<rect x="65.396" y="53.476" width="5.847" height="1.894" fill="#FFFFFF" stroke="none" stroke-width="0"/>
<rect x="65.396" y="53.476" width="5.847" height="1.894" fill="none" stroke="#000000" stroke-width="0.100" />
<text x="68.320" y="54.253"  fill="#000000" text-anchor="middle" font-size="0.80" font-family="Montserrat" font-style="normal" font-weight="400">
acquires </text>
<text x="68.320" y="55.053"  fill="#000000" text-anchor="middle" font-size="0.80" font-family="Montserrat" font-style="normal" font-weight="400">
majority shares</text>
<path stroke="#1E90FF" fill="none" stroke-width="0.100"  d ="M 24.700,79.485 A 26.279,26.279 0 0,0 68.571,55.638 "/>
<polyline fill="none" stroke="#1E90FF" stroke-width="0.100"  points="68.891,55.973 68.551,55.528 68.400,56.066 "/>
<text x="-14.372" y="66.648"  fill="#000000" text-anchor="end" font-size="0.80" font-family="Montserrat" font-style="normal" font-weight="400">
colleagues</text>
<path stroke="#1E90FF" fill="none" stroke-width="0.100"  d ="M -14.020,89.297 A 101.871,101.871 0 0,0 -6.654,66.019 "/>
<polyline fill="none" stroke="#1E90FF" stroke-width="0.100"  points="-6.479,66.446 -6.634,65.909 -6.971,66.355 "/>
<rect x="-12.736" y="79.285" width="3.913" height="1.161" fill="#FFFFFF" stroke="none" stroke-width="0"/>
<rect x="-12.736" y="79.285" width="3.913" height="1.161" fill="none" stroke="#000000" stroke-width="0.100" />
<text x="-10.780" y="80.086"  fill="#000000" text-anchor="middle" font-size="0.80" font-family="Montserrat" font-style="normal" font-weight="400">
spectator</text>
<path stroke="#1E90FF" fill="none" stroke-width="0.100"  d ="M 0.814,76.666 A 24.873,24.873 0 0,0 -9.387,79.137 "/>
<polyline fill="none" stroke="#1E90FF" stroke-width="0.100"  points="-9.150,78.739 -9.487,79.185 -8.928,79.188 "/>
<polygon fill="#FFFFFF" stroke="none" stroke-width="0.100" points="1.420,57.715 4.045,57.715 5.358,59.065 0.108,59.065 "/>
<polygon fill="none" stroke="#000000" stroke-width="0.100"  points="1.420,57.715 4.045,57.715 5.358,59.065 0.108,59.065 "/>
<polygon fill="none" stroke="#000000" stroke-width="0.100"  points="1.420,57.715 4.045,57.715 5.358,59.065 0.108,59.065 "/>
<text x="2.733" y="58.620"  fill="#000000" text-anchor="middle" font-size="0.80" font-family="Montserrat" font-style="normal" font-weight="400">
Italy</text>
<path stroke="#1E90FF" fill="none" stroke-width="0.100"  d ="M 2.874,59.239 A 31.348,31.348 0 0,0 21.029,70.162 "/>
<polyline fill="none" stroke="#1E90FF" stroke-width="0.100"  points="3.311,59.385 2.803,59.152 2.921,59.699 "/>
<path stroke="#1E90FF" fill="none" stroke-width="0.100"  d ="M -4.408,64.397 A 6.495,6.495 0 0,0 2.691,59.285 "/>
<polyline fill="none" stroke="#1E90FF" stroke-width="0.100"  points="2.874,59.711 2.714,59.175 2.381,59.625 "/>
<rect x="1.452" y="60.096" width="3.138" height="1.161" fill="#FFFFFF" stroke="none" stroke-width="0"/>
<rect x="1.452" y="60.096" width="3.138" height="1.161" fill="none" stroke="#000000" stroke-width="0.100" />
<text x="3.021" y="60.906"  fill="#000000" text-anchor="middle" font-size="0.80" font-family="Montserrat" font-style="normal" font-weight="400">
route</text>
<text x="4.091" y="66.071"  fill="#000000" text-anchor="start" font-size="0.80" font-family="Montserrat" font-style="normal" font-weight="400">
would never marry</text>
<path stroke="#1E90FF" fill="none" stroke-width="0.100"  d ="M 60.580,65.664 A 30.887,30.887 0 0,0 43.722,63.582 "/>
<polyline fill="none" stroke="#1E90FF" stroke-width="0.100"  points="60.125,65.738 60.683,65.707 60.324,65.279 "/>
<rect x="53.594" y="63.523" width="4.129" height="1.161" fill="#FFFFFF" stroke="none" stroke-width="0"/>
<rect x="53.594" y="63.523" width="4.129" height="1.161" fill="none" stroke="#000000" stroke-width="0.100" />
<text x="55.658" y="64.333"  fill="#000000" text-anchor="middle" font-size="0.80" font-family="Montserrat" font-style="normal" font-weight="400">
demotion</text>
<path stroke="#1E90FF" fill="none" stroke-width="0.100"  d ="M 57.991,63.782 A 14.795,14.795 0 0,0 68.320,55.370 "/>
<polyline fill="none" stroke="#1E90FF" stroke-width="0.100"  points="58.321,63.461 57.882,63.806 58.422,63.951 "/>
<path stroke="#1E90FF" fill="none" stroke-width="0.100"  d ="M -4.773,62.672 A 8.674,8.674 0 0,0 -4.650,50.627 "/>
<polyline fill="none" stroke="#1E90FF" stroke-width="0.100"  points="-4.197,50.724 -4.727,50.546 -4.552,51.076 "/>
<rect x="-5.447" y="53.190" width="5.747" height="1.161" fill="#FFFFFF" stroke="none" stroke-width="0"/>
<rect x="-5.447" y="53.190" width="5.747" height="1.161" fill="none" stroke="#000000" stroke-width="0.100" />
<text x="-2.573" y="54.001"  fill="#000000" text-anchor="middle" font-size="0.80" font-family="Montserrat" font-style="normal" font-weight="400">
breaks up with</text>
<path stroke="#1E90FF" fill="none" stroke-width="0.100"  d ="M -8.221,49.609 A 5.981,5.981 0 0,0 -12.114,56.069 "/>
<polyline fill="none" stroke="#1E90FF" stroke-width="0.100"  points="-12.433,55.731 -12.099,56.179 -11.941,55.643 "/>
<polygon fill="#FFFFFF" stroke="none" stroke-width="0.100" points="-13.214,56.339 -10.589,56.339 -9.277,57.689 -14.527,57.689 "/>
<polygon fill="none" stroke="#000000" stroke-width="0.100"  points="-13.214,56.339 -10.589,56.339 -9.277,57.689 -14.527,57.689 "/>
<polygon fill="none" stroke="#000000" stroke-width="0.100"  points="-13.214,56.339 -10.589,56.339 -9.277,57.689 -14.527,57.689 "/>
<text x="-11.902" y="57.244"  fill="#000000" text-anchor="middle" font-size="0.80" font-family="Montserrat" font-style="normal" font-weight="400">
London</text>
<rect x="-14.567" y="52.978" width="4.675" height="1.161" fill="#FFFFFF" stroke="none" stroke-width="0"/>
<rect x="-14.567" y="52.978" width="4.675" height="1.161" fill="none" stroke="#000000" stroke-width="0.100" />
<text x="-12.230" y="53.788"  fill="#000000" text-anchor="middle" font-size="0.80" font-family="Montserrat" font-style="normal" font-weight="400">
comes back</text>
<path stroke="#1E90FF" fill="none" stroke-width="0.100"  d ="M -4.267,53.141 A 12.162,12.162 0 0,0 -9.964,52.885 "/>
<polyline fill="none" stroke="#1E90FF" stroke-width="0.100"  points="-9.637,52.557 -10.074,52.906 -9.533,53.046 "/>
<path stroke="#1E90FF" fill="none" stroke-width="0.100"  d ="M -11.809,57.961 A 7.313,7.313 0 0,0 -8.086,63.200 "/>
<polyline fill="none" stroke="#1E90FF" stroke-width="0.100"  points="-11.513,58.313 -11.827,57.850 -12.009,58.379 "/>
<rect x="-13.262" y="59.665" width="4.675" height="1.161" fill="#FFFFFF" stroke="none" stroke-width="0"/>
<rect x="-13.262" y="59.665" width="4.675" height="1.161" fill="none" stroke="#000000" stroke-width="0.100" />
<text x="-10.925" y="60.476"  fill="#000000" text-anchor="middle" font-size="0.80" font-family="Montserrat" font-style="normal" font-weight="400">
comes back</text>
<path stroke="#1E90FF" fill="none" stroke-width="0.100"  d ="M 6.876,60.670 A 5.279,5.279 0 0,0 4.091,66.231 "/>
<polyline fill="none" stroke="#1E90FF" stroke-width="0.100"  points="6.627,61.056 6.976,60.619 6.417,60.603 "/>
<path stroke="#1E90FF" fill="none" stroke-width="0.100"  d ="M 24.481,58.242 A 13.830,13.830 0 0,0 15.478,57.908 "/>
<polyline fill="none" stroke="#1E90FF" stroke-width="0.100"  points="15.770,57.549 15.371,57.940 15.923,58.025 "/>
<rect x="7.125" y="57.975" width="8.140" height="4.920" fill="#FFFFFF" stroke="none" stroke-width="0"/>
<rect x="7.125" y="57.975" width="8.140" height="4.920" fill="none" stroke="#000000" stroke-width="0.100" />
<text x="11.195" y="59.064"  fill="#000000" text-anchor="middle" font-size="0.80" font-family="Montserrat" font-style="normal" font-weight="400">
Martin starts to paint.</text>
<text x="11.195" y="59.864"  fill="#000000" text-anchor="middle" font-size="0.80" font-family="Montserrat" font-style="normal" font-weight="400">
It was the likeness </text>
<text x="11.195" y="60.664"  fill="#000000" text-anchor="middle" font-size="0.80" font-family="Montserrat" font-style="normal" font-weight="400">
of a young woman</text>
<text x="11.195" y="61.464"  fill="#000000" text-anchor="middle" font-size="0.80" font-family="Montserrat" font-style="normal" font-weight="400">
confronting him </text>
<text x="11.195" y="62.264"  fill="#000000" text-anchor="middle" font-size="0.80" font-family="Montserrat" font-style="normal" font-weight="400">
on his canvas.</text>
<polygon fill="#FFFFFF" stroke="none" stroke-width="0.100" points="60.904,65.698 64.556,65.698 66.382,67.652 59.078,67.652 "/>
<polygon fill="none" stroke="#000000" stroke-width="0.100"  points="60.904,65.698 64.556,65.698 66.382,67.652 59.078,67.652 "/>
<polygon fill="none" stroke="#000000" stroke-width="0.100"  points="60.904,65.698 64.556,65.698 66.382,67.652 59.078,67.652 "/>
<text x="62.730" y="66.505"  fill="#000000" text-anchor="middle" font-size="0.80" font-family="Montserrat" font-style="normal" font-weight="400">
Fairbrother</text>
<text x="62.730" y="67.305"  fill="#000000" text-anchor="middle" font-size="0.80" font-family="Montserrat" font-style="normal" font-weight="400">
company</text>
<text x="49.052" y="58.059"  fill="#000000" text-anchor="end" font-size="0.80" font-family="Montserrat" font-style="normal" font-weight="400">
enemies</text>
</svg>