<?xml version="1.0" encoding="UTF-8" standalone="no"?>
<!DOCTYPE svg PUBLIC "-//W3C//DTD SVG 1.1//EN"
 "http://www.w3.org/Graphics/SVG/1.1/DTD/svg11.dtd">
<!-- Generated by graphviz version 2.36.0 (20140111.2315)
 -->
<!-- Title: %3 Pages: 1 -->
<svg width="1007pt" height="1290pt"
 viewBox="0.00 0.00 1007.07 1290.01" xmlns="http://www.w3.org/2000/svg" xmlns:xlink="http://www.w3.org/1999/xlink">
<g id="graph0" class="graph" transform="scale(1 1) rotate(0) translate(4 1286.01)">
<title>%3</title>
<polygon fill="white" stroke="none" points="-4,4 -4,-1286.01 1003.07,-1286.01 1003.07,4 -4,4"/>
<!-- MrDogHead -->
<g id="node1" class="node"><title>MrDogHead</title>
<ellipse fill="none" stroke="black" cx="226.713" cy="-707.936" rx="55.7903" ry="18"/>
<text text-anchor="middle" x="226.713" y="-704.236" font-family="Karla" font-weight="bold" font-size="14.00">MrDogHead</text>
</g>
<!-- elle -->
<g id="node2" class="node"><title>elle</title>
<ellipse fill="none" stroke="black" cx="716.561" cy="-683.493" rx="27" ry="18"/>
<text text-anchor="middle" x="716.561" y="-679.793" font-family="Karla" font-weight="bold" font-size="14.00">elle</text>
</g>
<!-- MrDogHead&#45;&gt;elle -->
<g id="edge1" class="edge"><title>MrDogHead&#45;&gt;elle</title>
<path fill="none" stroke="black" d="M282.651,-709.629C383.932,-707.828 595.057,-697.057 680,-689.093"/>
<polygon fill="black" stroke="black" points="680.58,-692.553 690.188,-688.087 679.892,-685.586 680.58,-692.553"/>
<text text-anchor="middle" x="449.675" y="-705.461" font-family="Karla" font-weight="bold" font-size="14.00">ambivalent of</text>
</g>
<!-- elle&#45;&gt;MrDogHead -->
<g id="edge2" class="edge"><title>elle&#45;&gt;MrDogHead</title>
<path fill="none" stroke="black" d="M689.714,-681.547C613.789,-681.228 396.08,-691.628 288.459,-700.178"/>
<polygon fill="black" stroke="black" points="288.078,-696.698 278.396,-700.999 288.648,-703.674 288.078,-696.698"/>
<text text-anchor="middle" x="457.693" y="-677.163" font-family="Karla" font-weight="bold" font-size="14.00">spouse of</text>
</g>
<!-- BottesDeDaim -->
<g id="node3" class="node"><title>BottesDeDaim</title>
<ellipse fill="none" stroke="black" cx="438.05" cy="-18" rx="63.8893" ry="18"/>
<text text-anchor="middle" x="438.05" y="-14.3" font-family="Karla" font-weight="bold" font-size="14.00">BottesDeDaim</text>
</g>
<!-- elle&#45;&gt;BottesDeDaim -->
<g id="edge3" class="edge"><title>elle&#45;&gt;BottesDeDaim</title>
<path fill="none" stroke="black" d="M709.255,-666.035C671.261,-575.25 496.228,-157.014 449.529,-45.4275"/>
<polygon fill="black" stroke="black" points="452.628,-43.7663 445.539,-35.8927 446.171,-46.4687 452.628,-43.7663"/>
<text text-anchor="middle" x="524.4" y="-354.772" font-family="Karla" font-weight="bold" font-size="14.00">would like to know</text>
</g>
<!-- BottesDeDaim&#45;&gt;MrDogHead -->
<g id="edge4" class="edge"><title>BottesDeDaim&#45;&gt;MrDogHead</title>
<path fill="none" stroke="black" d="M432.506,-36.0995C403.645,-130.322 270.568,-564.767 235.307,-679.881"/>
<polygon fill="black" stroke="black" points="231.879,-679.121 232.296,-689.708 238.572,-681.171 231.879,-679.121"/>
<text text-anchor="middle" x="306.313" y="-366.992" font-family="Karla" font-weight="bold" font-size="14.00">enemy of</text>
</g>
<!-- boy -->
<g id="node4" class="node"><title>boy</title>
<ellipse fill="none" stroke="black" cx="27" cy="-1264.01" rx="27" ry="18"/>
<text text-anchor="middle" x="27" y="-1260.31" font-family="Karla" font-weight="bold" font-size="14.00">boy</text>
</g>
<!-- boy&#45;&gt;MrDogHead -->
<g id="edge5" class="edge"><title>boy&#45;&gt;MrDogHead</title>
<path fill="none" stroke="black" d="M33.3069,-1246.45C62.1235,-1166.21 181.38,-834.159 216.77,-735.622"/>
<polygon fill="black" stroke="black" points="220.118,-736.654 220.204,-726.059 213.53,-734.288 220.118,-736.654"/>
<text text-anchor="middle" x="90.7884" y="-989.962" font-family="Karla" font-weight="bold" font-size="14.00">employed by</text>
</g>
<!-- boy&#45;&gt;elle -->
<g id="edge6" class="edge"><title>boy&#45;&gt;elle</title>
<path fill="none" stroke="black" d="M44.0454,-1249.66C136.823,-1171.55 580.869,-797.728 691.536,-704.561"/>
<polygon fill="black" stroke="black" points="694.099,-706.979 699.495,-697.861 689.59,-701.624 694.099,-706.979"/>
<text text-anchor="middle" x="345.878" y="-977.469" font-family="Karla" font-weight="bold" font-size="14.00">enemy of</text>
</g>
<!-- dr -->
<g id="node5" class="node"><title>dr</title>
<ellipse fill="none" stroke="black" cx="972.071" cy="-1215.81" rx="27" ry="18"/>
<text text-anchor="middle" x="972.071" y="-1212.11" font-family="Karla" font-weight="bold" font-size="14.00">dr</text>
</g>
<!-- dr&#45;&gt;MrDogHead -->
<g id="edge8" class="edge"><title>dr&#45;&gt;MrDogHead</title>
<path fill="none" stroke="black" d="M952.897,-1202.75C852.54,-1134.36 387.486,-817.485 259.432,-730.231"/>
<polygon fill="black" stroke="black" points="261.039,-727.09 250.804,-724.352 257.097,-732.875 261.039,-727.09"/>
<text text-anchor="middle" x="569.693" y="-967.242" font-family="Karla" font-weight="bold" font-size="14.00">neighbor of</text>
</g>
<!-- dr&#45;&gt;elle -->
<g id="edge7" class="edge"><title>dr&#45;&gt;elle</title>
<path fill="none" stroke="black" d="M963.715,-1198.4C926.335,-1120.53 774.324,-803.833 729.23,-709.886"/>
<polygon fill="black" stroke="black" points="732.336,-708.27 724.854,-700.769 726.026,-711.299 732.336,-708.27"/>
<text text-anchor="middle" x="812.267" y="-953.351" font-family="Karla" font-weight="bold" font-size="14.00">neighbor of</text>
</g>
</g>
</svg>
