<?xml version="1.0" encoding="UTF-8" standalone="no"?>
<!DOCTYPE svg PUBLIC "-//W3C//DTD SVG 1.1//EN"
 "http://www.w3.org/Graphics/SVG/1.1/DTD/svg11.dtd">
<!-- Generated by graphviz version 2.30.1 (20130704.1115)
 -->
<!-- Title: %3 Pages: 1 -->
<svg width="352pt" height="592pt"
 viewBox="0.00 0.00 352.00 592.00" xmlns="http://www.w3.org/2000/svg" xmlns:xlink="http://www.w3.org/1999/xlink">
<g id="graph0" class="graph" transform="scale(1 1) rotate(0) translate(4 588)">
<title>%3</title>
<polygon fill="white" stroke="white" points="-4,5 -4,-588 349,-588 349,5 -4,5"/>
<!-- james -->
<g id="node1" class="node"><title>james</title>
<ellipse fill="none" stroke="black" cx="144" cy="-566" rx="31.2735" ry="18"/>
<text text-anchor="middle" x="144" y="-562.3" font-family="Times,serif" font-size="14.00">james</text>
</g>
<!-- lise -->
<g id="node2" class="node"><title>lise</title>
<ellipse fill="none" stroke="black" cx="81" cy="-478" rx="27" ry="18"/>
<text text-anchor="middle" x="81" y="-474.3" font-family="Times,serif" font-size="14.00">lise</text>
</g>
<!-- james&#45;&gt;lise -->
<g id="edge1" class="edge"><title>james&#45;&gt;lise</title>
<path fill="none" stroke="black" d="M121.835,-553.201C112.668,-547.325 102.649,-539.445 96,-530 91.069,-522.996 87.7419,-514.367 85.5037,-506.212"/>
<polygon fill="black" stroke="black" points="88.8736,-505.249 83.2124,-496.294 82.0532,-506.825 88.8736,-505.249"/>
<text text-anchor="middle" x="113" y="-518.3" font-family="Times,serif" font-size="14.00">époux</text>
</g>
<!-- anna -->
<g id="node3" class="node"><title>anna</title>
<ellipse fill="none" stroke="black" cx="144" cy="-390" rx="26.949" ry="18"/>
<text text-anchor="middle" x="144" y="-386.3" font-family="Times,serif" font-size="14.00">anna</text>
</g>
<!-- james&#45;&gt;anna -->
<g id="edge2" class="edge"><title>james&#45;&gt;anna</title>
<path fill="none" stroke="black" d="M144,-547.999C144,-517.853 144,-454.79 144,-418.43"/>
<polygon fill="black" stroke="black" points="147.5,-418.07 144,-408.07 140.5,-418.07 147.5,-418.07"/>
<text text-anchor="middle" x="160" y="-474.3" font-family="Times,serif" font-size="14.00">father</text>
</g>
<!-- nurse -->
<g id="node4" class="node"><title>nurse</title>
<ellipse fill="none" stroke="black" cx="224" cy="-478" rx="29.3479" ry="18"/>
<text text-anchor="middle" x="224" y="-474.3" font-family="Times,serif" font-size="14.00">nurse</text>
</g>
<!-- james&#45;&gt;nurse -->
<g id="edge4" class="edge"><title>james&#45;&gt;nurse</title>
<path fill="none" stroke="black" d="M158.302,-549.625C170.779,-536.213 189.04,-516.582 203.145,-501.419"/>
<polygon fill="black" stroke="black" points="205.841,-503.66 210.089,-493.954 200.716,-498.892 205.841,-503.66"/>
<text text-anchor="middle" x="221.5" y="-518.3" font-family="Times,serif" font-size="14.00">employeur</text>
</g>
<!-- lise&#45;&gt;anna -->
<g id="edge3" class="edge"><title>lise&#45;&gt;anna</title>
<path fill="none" stroke="black" d="M80.675,-459.658C81.2565,-449.143 83.4445,-435.893 90,-426 95.6335,-417.498 104.116,-410.609 112.699,-405.264"/>
<polygon fill="black" stroke="black" points="114.584,-408.219 121.565,-400.249 111.138,-402.126 114.584,-408.219"/>
<text text-anchor="middle" x="110" y="-430.3" font-family="Times,serif" font-size="14.00">mother</text>
</g>
<!-- sidney -->
<g id="node8" class="node"><title>sidney</title>
<ellipse fill="none" stroke="black" cx="236" cy="-302" rx="33.1991" ry="18"/>
<text text-anchor="middle" x="236" y="-298.3" font-family="Times,serif" font-size="14.00">sidney</text>
</g>
<!-- anna&#45;&gt;sidney -->
<g id="edge10" class="edge"><title>anna&#45;&gt;sidney</title>
<path fill="none" stroke="black" d="M159.192,-374.799C173.578,-361.351 195.404,-340.949 212.117,-325.325"/>
<polygon fill="black" stroke="black" points="214.941,-327.477 219.856,-318.091 210.161,-322.363 214.941,-327.477"/>
<text text-anchor="middle" x="210" y="-342.3" font-family="Times,serif" font-size="14.00">ami</text>
</g>
<!-- catherine -->
<g id="node9" class="node"><title>catherine</title>
<ellipse fill="none" stroke="black" cx="65" cy="-302" rx="42.3456" ry="18"/>
<text text-anchor="middle" x="65" y="-298.3" font-family="Times,serif" font-size="14.00">catherine</text>
</g>
<!-- anna&#45;&gt;catherine -->
<g id="edge12" class="edge"><title>anna&#45;&gt;catherine</title>
<path fill="none" stroke="black" d="M128.606,-374.679C122.102,-368.465 114.536,-361.016 108,-354 100.103,-345.523 91.8125,-335.884 84.6412,-327.286"/>
<polygon fill="black" stroke="black" points="87.2234,-324.916 78.1581,-319.432 81.8251,-329.372 87.2234,-324.916"/>
<text text-anchor="middle" x="119" y="-342.3" font-family="Times,serif" font-size="14.00">ami</text>
</g>
<!-- matthew -->
<g id="node10" class="node"><title>matthew</title>
<ellipse fill="none" stroke="black" cx="41" cy="-248" rx="41.394" ry="18"/>
<text text-anchor="middle" x="41" y="-244.3" font-family="Times,serif" font-size="14.00">matthew</text>
</g>
<!-- anna&#45;&gt;matthew -->
<g id="edge14" class="edge"><title>anna&#45;&gt;matthew</title>
<path fill="none" stroke="black" d="M118.078,-384.593C85.8413,-377.495 32.6574,-360.032 13,-320 5.94772,-305.638 7.70389,-299.098 13,-284 14.3523,-280.145 16.3275,-276.399 18.6133,-272.88"/>
<polygon fill="black" stroke="black" points="21.5707,-274.769 24.7571,-264.665 15.965,-270.577 21.5707,-274.769"/>
<text text-anchor="middle" x="60" y="-342.3" font-family="Times,serif" font-size="14.00">époux</text>
</g>
<!-- anna&#45;&gt;anna -->
<g id="edge15" class="edge"><title>anna&#45;&gt;anna</title>
<path fill="none" stroke="black" d="M168.532,-398.121C179.508,-398.895 189,-396.188 189,-390 189,-385.843 184.715,-383.257 178.574,-382.242"/>
<polygon fill="black" stroke="black" points="178.652,-378.742 168.532,-381.879 178.4,-385.738 178.652,-378.742"/>
<text text-anchor="middle" x="245" y="-386.3" font-family="Times,serif" font-size="14.00">devient Anna Kavan</text>
</g>
<!-- nurse&#45;&gt;anna -->
<g id="edge5" class="edge"><title>nurse&#45;&gt;anna</title>
<path fill="none" stroke="black" d="M210.065,-462.02C197.561,-448.578 179.039,-428.666 164.785,-413.344"/>
<polygon fill="black" stroke="black" points="167.149,-410.746 157.775,-405.808 162.024,-415.514 167.149,-410.746"/>
<text text-anchor="middle" x="220" y="-430.3" font-family="Times,serif" font-size="14.00">éducatrice</text>
</g>
<!-- lauretta -->
<g id="node5" class="node"><title>lauretta</title>
<ellipse fill="none" stroke="black" cx="199" cy="-106" rx="37.0701" ry="18"/>
<text text-anchor="middle" x="199" y="-102.3" font-family="Times,serif" font-size="14.00">lauretta</text>
</g>
<!-- lauretta&#45;&gt;anna -->
<g id="edge6" class="edge"><title>lauretta&#45;&gt;anna</title>
<path fill="none" stroke="black" d="M232.467,-113.795C248.148,-118.819 265.445,-127.421 275,-142 342.105,-244.385 296.108,-286.87 278,-320 258.352,-355.947 212.621,-373.733 180.056,-382.126"/>
<polygon fill="black" stroke="black" points="178.908,-378.802 169.996,-384.533 180.536,-385.61 178.908,-378.802"/>
<text text-anchor="middle" x="327" y="-244.3" font-family="Times,serif" font-size="14.00">parent</text>
</g>
<!-- heyward -->
<g id="node6" class="node"><title>heyward</title>
<ellipse fill="none" stroke="black" cx="199" cy="-18" rx="40.4202" ry="18"/>
<text text-anchor="middle" x="199" y="-14.3" font-family="Times,serif" font-size="14.00">heyward</text>
</g>
<!-- lauretta&#45;&gt;heyward -->
<g id="edge7" class="edge"><title>lauretta&#45;&gt;heyward</title>
<path fill="none" stroke="black" d="M199,-87.5966C199,-75.7459 199,-59.8169 199,-46.2917"/>
<polygon fill="black" stroke="black" points="202.5,-46.084 199,-36.084 195.5,-46.084 202.5,-46.084"/>
<text text-anchor="middle" x="216" y="-58.3" font-family="Times,serif" font-size="14.00">époux</text>
</g>
<!-- rachel -->
<g id="node7" class="node"><title>rachel</title>
<ellipse fill="none" stroke="black" cx="199" cy="-194" rx="32.2457" ry="18"/>
<text text-anchor="middle" x="199" y="-190.3" font-family="Times,serif" font-size="14.00">rachel</text>
</g>
<!-- rachel&#45;&gt;lauretta -->
<g id="edge8" class="edge"><title>rachel&#45;&gt;lauretta</title>
<path fill="none" stroke="black" d="M199,-175.597C199,-163.746 199,-147.817 199,-134.292"/>
<polygon fill="black" stroke="black" points="202.5,-134.084 199,-124.084 195.5,-134.084 202.5,-134.084"/>
<text text-anchor="middle" x="235" y="-146.3" font-family="Times,serif" font-size="14.00">connaissance</text>
</g>
<!-- rachel&#45;&gt;anna -->
<g id="edge9" class="edge"><title>rachel&#45;&gt;anna</title>
<path fill="none" stroke="black" d="M188.112,-211.237C177.165,-228.48 160.821,-256.93 153,-284 145.571,-309.713 143.693,-340.325 143.449,-361.841"/>
<polygon fill="black" stroke="black" points="139.949,-361.9 143.446,-371.901 146.949,-361.902 139.949,-361.9"/>
<text text-anchor="middle" x="173" y="-298.3" font-family="Times,serif" font-size="14.00">mentor</text>
</g>
<!-- sidney&#45;&gt;rachel -->
<g id="edge11" class="edge"><title>sidney&#45;&gt;rachel</title>
<path fill="none" stroke="black" d="M230.055,-283.969C224.176,-267.125 215.092,-241.102 208.265,-221.544"/>
<polygon fill="black" stroke="black" points="211.53,-220.276 204.93,-211.988 204.921,-222.583 211.53,-220.276"/>
<text text-anchor="middle" x="243.5" y="-244.3" font-family="Times,serif" font-size="14.00">ennemi</text>
</g>
<!-- matthew&#45;&gt;lauretta -->
<g id="edge13" class="edge"><title>matthew&#45;&gt;lauretta</title>
<path fill="none" stroke="black" d="M48.8045,-230.27C56.6085,-214.836 69.768,-191.963 86,-176 108.571,-153.803 139.56,-135.52 163.378,-123.363"/>
<polygon fill="black" stroke="black" points="165.053,-126.439 172.447,-118.851 161.935,-120.171 165.053,-126.439"/>
<text text-anchor="middle" x="122" y="-190.3" font-family="Times,serif" font-size="14.00">connaissance</text>
</g>
</g>
</svg>
