<?xml version="1.0" encoding="UTF-8" standalone="no"?>
<!-- Generated by graphviz version 2.36.0 (20140111.2315)
 -->

<!-- Title: %3 Pages: 1 -->

<svg
   xmlns:dc="http://purl.org/dc/elements/1.1/"
   xmlns:cc="http://creativecommons.org/ns#"
   xmlns:rdf="http://www.w3.org/1999/02/22-rdf-syntax-ns#"
   xmlns:svg="http://www.w3.org/2000/svg"
   xmlns="http://www.w3.org/2000/svg"
   xmlns:sodipodi="http://sodipodi.sourceforge.net/DTD/sodipodi-0.dtd"
   xmlns:inkscape="http://www.inkscape.org/namespaces/inkscape"
   width="1818pt"
   height="282pt"
   viewBox="0.00 0.00 1818.00 282.00"
   id="svg2"
   version="1.1"
   inkscape:version="0.48.4 r9939"
   sodipodi:docname="0139-HF.svg">
  <metadata
     id="metadata286">
    <rdf:RDF>
      <cc:Work
         rdf:about="">
        <dc:format>image/svg+xml</dc:format>
        <dc:type
           rdf:resource="http://purl.org/dc/dcmitype/StillImage" />
      </cc:Work>
    </rdf:RDF>
  </metadata>
  <defs
     id="defs284" />
  <sodipodi:namedview
     pagecolor="#ffffff"
     bordercolor="#666666"
     borderopacity="1"
     objecttolerance="10"
     gridtolerance="10"
     guidetolerance="10"
     inkscape:pageopacity="0"
     inkscape:pageshadow="2"
     inkscape:window-width="1276"
     inkscape:window-height="775"
     id="namedview282"
     showgrid="false"
     inkscape:zoom="0.64720885"
     inkscape:cx="961.08491"
     inkscape:cy="23.913794"
     inkscape:window-x="0"
     inkscape:window-y="21"
     inkscape:window-maximized="1"
     inkscape:current-layer="svg2" />
  <polygon
     style="fill:#ffffff;stroke:none"
     id="polygon7"
     points="1814,-278 1814,4 -4,4 -4,4 -4,-278 "
     transform="translate(4,278)" />
  <polygon
     points="819.25,-273.5 819.25,-273.5 576.75,-273.5 576.75,-222.5 819.25,-222.5 "
     id="polygon12"
     style="fill:#ffffff;stroke:#000000;stroke-width:2"
     transform="translate(4,278)" />
  <text
     x="702"
     y="33.699997"
     font-size="14.00"
     id="text14"
     style="font-size:14px;text-anchor:middle;font-family:Karla;font-weight:bold;-inkscape-font-specification:Karla Bold">Bibliography as Helen Ferguson</text>
  <ellipse
     cx="170"
     cy="-159"
     rx="91.386299"
     ry="26.7407"
     id="ellipse19"
     d="m 261.3863,-159 c 0,14.76848 -40.91504,26.7407 -91.3863,26.7407 -50.47126,0 -91.386299,-11.97222 -91.386299,-26.7407 0,-14.76848 40.915039,-26.7407 91.386299,-26.7407 50.47126,0 91.3863,11.97222 91.3863,26.7407 z"
     sodipodi:cx="170"
     sodipodi:cy="-159"
     sodipodi:rx="91.386299"
     sodipodi:ry="26.7407"
     style="fill:#e7ffed;stroke:#000000;stroke-width:2"
     transform="translate(4,278)" />
  <text
     x="174"
     y="115.2"
     font-size="14.00"
     id="text21"
     style="font-size:14px;text-anchor:middle;font-family:Karla;font-weight:bold;-inkscape-font-specification:Karla Bold">1929</text>
  <text
     x="174"
     y="130.2"
     font-size="14.00"
     id="text23"
     style="font-size:14px;text-anchor:middle;font-family:Karla;font-weight:bold;-inkscape-font-specification:Karla Bold">A Charmed Circle</text>
  <path
     d="M 580.66,48.567 C 502.654,60.161 399.203,76.098 308,92 c -16.143,2.815 -33.342,6.006 -49.848,9.165"
     id="path28"
     inkscape:connector-curvature="0"
     style="fill:none;stroke:#000000;stroke-width:2" />
  <polygon
     points="254.46,-173.331 243.979,-174.876 253.137,-180.204 254.46,-173.331 "
     id="polygon30"
     style="fill:#000000;stroke:#000000;stroke-width:2"
     transform="translate(4,278)" />
  <ellipse
     cx="382"
     cy="-159"
     rx="68.945702"
     ry="26.7407"
     id="ellipse35"
     d="m 450.9457,-159 c 0,14.76848 -30.86804,26.7407 -68.9457,26.7407 -38.07766,0 -68.9457,-11.97222 -68.9457,-26.7407 0,-14.76848 30.86804,-26.7407 68.9457,-26.7407 38.07766,0 68.9457,11.97222 68.9457,26.7407 z"
     sodipodi:cx="382"
     sodipodi:cy="-159"
     sodipodi:rx="68.945702"
     sodipodi:ry="26.7407"
     style="fill:#e7ffed;stroke:#000000;stroke-width:2"
     transform="translate(4,278)" />
  <text
     x="386"
     y="115.2"
     font-size="14.00"
     id="text37"
     style="font-size:14px;text-anchor:middle;font-family:Karla;font-weight:bold;-inkscape-font-specification:Karla Bold">1930</text>
  <text
     x="386"
     y="130.2"
     font-size="14.00"
     id="text39"
     style="font-size:14px;text-anchor:middle;font-family:Karla;font-weight:bold;-inkscape-font-specification:Karla Bold">Dark Sisters</text>
  <path
     d="M 612.714,55.582 C 561.257,69.749 497.722,87.241 451.016,100.1"
     id="path44"
     inkscape:connector-curvature="0"
     style="fill:none;stroke:#000000;stroke-width:2" />
  <polygon
     points="447.886,-174.509 437.316,-175.229 446.028,-181.258 447.886,-174.509 "
     id="polygon46"
     style="fill:#000000;stroke:#000000;stroke-width:2"
     transform="translate(4,278)" />
  <ellipse
     cx="604"
     cy="-159"
     rx="68.945702"
     ry="26.7407"
     id="ellipse51"
     d="m 672.9457,-159 c 0,14.76848 -30.86804,26.7407 -68.9457,26.7407 -38.07766,0 -68.9457,-11.97222 -68.9457,-26.7407 0,-14.76848 30.86804,-26.7407 68.9457,-26.7407 38.07766,0 68.9457,11.97222 68.9457,26.7407 z"
     sodipodi:cx="604"
     sodipodi:cy="-159"
     sodipodi:rx="68.945702"
     sodipodi:ry="26.7407"
     style="fill:#e7ffed;stroke:#000000;stroke-width:2"
     transform="translate(4,278)" />
  <text
     x="608"
     y="115.2"
     font-size="14.00"
     id="text53"
     style="font-size:14px;text-anchor:middle;font-family:Karla;font-weight:bold;-inkscape-font-specification:Karla Bold">1930</text>
  <text
     x="608"
     y="130.2"
     font-size="14.00"
     id="text55"
     style="font-size:14px;text-anchor:middle;font-family:Karla;font-weight:bold;-inkscape-font-specification:Karla Bold">Let Me Alone</text>
  <path
     d="m 675.315,55.698 c -10.496,9.714 -22.666,20.978 -33.748,31.235"
     id="path60"
     inkscape:connector-curvature="0"
     style="fill:none;stroke:#000000;stroke-width:2" />
  <polygon
     points="639.819,-188.382 630.102,-184.159 635.064,-193.52 639.819,-188.382 "
     id="polygon62"
     style="fill:#000000;stroke:#000000;stroke-width:2"
     transform="translate(4,278)" />
  <ellipse
     cx="1007"
     cy="-159"
     rx="73.308502"
     ry="26.7407"
     id="ellipse67"
     d="m 1080.3085,-159 c 0,14.76848 -32.8213,26.7407 -73.3085,26.7407 -40.48717,0 -73.3085,-11.97222 -73.3085,-26.7407 0,-14.76848 32.82133,-26.7407 73.3085,-26.7407 40.4872,0 73.3085,11.97222 73.3085,26.7407 z"
     sodipodi:cx="1007"
     sodipodi:cy="-159"
     sodipodi:rx="73.308502"
     sodipodi:ry="26.7407"
     style="fill:#e7ffed;stroke:#000000;stroke-width:2"
     transform="translate(4,278)" />
  <text
     x="1011"
     y="115.2"
     font-size="14.00"
     id="text69"
     style="font-size:14px;text-anchor:middle;font-family:Karla;font-weight:bold;-inkscape-font-specification:Karla Bold">1935</text>
  <text
     x="1011"
     y="130.2"
     font-size="14.00"
     id="text71"
     style="font-size:14px;text-anchor:middle;font-family:Karla;font-weight:bold;-inkscape-font-specification:Karla Bold">Stranger Still</text>
  <path
     d="m 789.308,55.582 c 49.215,13.856 109.727,30.894 155.089,43.666"
     id="path76"
     inkscape:connector-curvature="0"
     style="fill:none;stroke:#000000;stroke-width:2" />
  <polygon
     points="941.451,-182.092 950.128,-176.013 939.553,-175.354 941.451,-182.092 "
     id="polygon78"
     style="fill:#000000;stroke:#000000;stroke-width:2"
     transform="translate(4,278)" />
  <ellipse
     cx="776"
     cy="-159"
     rx="67.324303"
     ry="26.7407"
     id="ellipse83"
     d="m 843.3243,-159 c 0,14.76848 -30.14211,26.7407 -67.3243,26.7407 -37.18219,0 -67.3243,-11.97222 -67.3243,-26.7407 0,-14.76848 30.14211,-26.7407 67.3243,-26.7407 37.18219,0 67.3243,11.97222 67.3243,26.7407 z"
     sodipodi:cx="776"
     sodipodi:cy="-159"
     sodipodi:rx="67.324303"
     sodipodi:ry="26.7407"
     style="fill:#e7ffed;stroke:#000000;stroke-width:2"
     transform="translate(4,278)" />
  <text
     x="780"
     y="115.2"
     font-size="14.00"
     id="text85"
     style="font-size:14px;text-anchor:middle;font-family:Karla;font-weight:bold;-inkscape-font-specification:Karla Bold">1936</text>
  <text
     x="780"
     y="130.2"
     font-size="14.00"
     id="text87"
     style="font-size:14px;text-anchor:middle;font-family:Karla;font-weight:bold;-inkscape-font-specification:Karla Bold">Goose Cross</text>
  <path
     d="m 724.143,55.698 c 8.47,9.448 18.254,20.36 27.244,30.387"
     id="path92"
     inkscape:connector-curvature="0"
     style="fill:none;stroke:#000000;stroke-width:2" />
  <polygon
     points="750.002,-194.241 754.072,-184.459 744.79,-189.568 750.002,-194.241 "
     id="polygon94"
     style="fill:#000000;stroke:#000000;stroke-width:2"
     transform="translate(4,278)" />
  <ellipse
     cx="1170"
     cy="-159"
     rx="71.126999"
     ry="26.7407"
     id="ellipse99"
     d="m 1241.127,-159 c 0,14.76848 -31.8446,26.7407 -71.127,26.7407 -39.2824,0 -71.127,-11.97222 -71.127,-26.7407 0,-14.76848 31.8446,-26.7407 71.127,-26.7407 39.2824,0 71.127,11.97222 71.127,26.7407 z"
     sodipodi:cx="1170"
     sodipodi:cy="-159"
     sodipodi:rx="71.126999"
     sodipodi:ry="26.7407"
     style="fill:#e7ffed;stroke:#000000;stroke-width:2"
     transform="translate(4,278)" />
  <text
     x="1174"
     y="115.2"
     font-size="14.00"
     id="text101"
     style="font-size:14px;text-anchor:middle;font-family:Karla;font-weight:bold;-inkscape-font-specification:Karla Bold">1937</text>
  <text
     x="1174"
     y="130.2"
     font-size="14.00"
     id="text103"
     style="font-size:14px;text-anchor:middle;font-family:Karla;font-weight:bold;-inkscape-font-specification:Karla Bold">Rich Get rich</text>
  <path
     d="M 823.601,45.007 C 901.257,55.171 1003.753,70.851 1093,92 c 6.57,1.556 13.37,3.385 20.11,5.339"
     id="path108"
     inkscape:connector-curvature="0"
     style="fill:none;stroke:#000000;stroke-width:2" />
  <polygon
     points="1110.34,-183.946 1118.92,-177.724 1108.34,-177.24 1110.34,-183.946 "
     id="polygon110"
     style="fill:#000000;stroke:#000000;stroke-width:2"
     transform="translate(4,278)" />
  <ellipse
     cx="154"
     cy="-48"
     rx="154.285"
     ry="37.4533"
     id="ellipse115"
     d="m 308.285,-48 c 0,20.684887 -69.07575,37.4533 -154.285,37.4533 -85.209255,0 -154.28500366,-16.768413 -154.28500366,-37.4533 0,-20.684887 69.07574866,-37.4533 154.28500366,-37.4533 85.20925,0 154.285,16.768413 154.285,37.4533 z"
     sodipodi:cx="154"
     sodipodi:cy="-48"
     sodipodi:rx="154.285"
     sodipodi:ry="37.4533"
     style="fill:#ffffff;stroke:#000000;stroke-width:2"
     transform="translate(4,278)" />
  <text
     x="158"
     y="218.7"
     font-size="14.00"
     id="text117"
     style="font-size:14px;text-anchor:middle;font-family:Karla;font-weight:bold;-inkscape-font-specification:Karla Bold">1925</text>
  <text
     x="158"
     y="233.7"
     font-size="14.00"
     id="text119"
     style="font-size:14px;text-anchor:middle;font-family:Karla;font-weight:bold;-inkscape-font-specification:Karla Bold">Leaving her husband in Burma</text>
  <text
     x="158"
     y="248.7"
     font-size="14.00"
     id="text121"
     style="font-size:14px;text-anchor:middle;font-family:Karla;font-weight:bold;-inkscape-font-specification:Karla Bold">Kavan returns to London</text>
  <path
     d="m 170.168,146.108 c -1.589,10.825 -3.483,23.724 -5.297,36.0833"
     id="path126"
     inkscape:connector-curvature="0"
     style="fill:none;stroke:#000000;stroke-width:2" />
  <polygon
     points="164.289,-94.9961 159.374,-85.6105 157.364,-96.0128 164.289,-94.9961 "
     id="polygon128"
     style="fill:#000000;stroke:#000000;stroke-width:2"
     transform="translate(4,278)" />
  <path
     d="m 343.649,140.247 c -30.273,14.473 -71.884,34.365 -108.038,51.6497"
     id="path133"
     inkscape:connector-curvature="0"
     style="fill:none;stroke:#000000;stroke-width:2" />
  <polygon
     points="233.078,-82.9255 222.546,-81.77 230.059,-89.2409 233.078,-82.9255 "
     id="polygon135"
     style="fill:#000000;stroke:#000000;stroke-width:2"
     transform="translate(4,278)" />
  <ellipse
     cx="479"
     cy="-48"
     rx="152.04201"
     ry="37.4533"
     id="ellipse140"
     d="m 631.04201,-48 c 0,20.684887 -68.07153,37.4533 -152.04201,37.4533 -83.97048,0 -152.04201,-16.768413 -152.04201,-37.4533 0,-20.684887 68.07153,-37.4533 152.04201,-37.4533 83.97048,0 152.04201,16.768413 152.04201,37.4533 z"
     sodipodi:cx="479"
     sodipodi:cy="-48"
     sodipodi:rx="152.04201"
     sodipodi:ry="37.4533"
     style="fill:#ffffff;stroke:#000000;stroke-width:2"
     transform="translate(4,278)" />
  <text
     x="483"
     y="218.7"
     font-size="14.00"
     id="text142"
     style="font-size:14px;text-anchor:middle;font-family:Karla;font-weight:bold;-inkscape-font-specification:Karla Bold">1915–18</text>
  <text
     x="483"
     y="233.7"
     font-size="14.00"
     id="text144"
     style="font-size:14px;text-anchor:middle;font-family:Karla;font-weight:bold;-inkscape-font-specification:Karla Bold">Kavan sent to boarding school</text>
  <text
     x="483"
     y="248.7"
     font-size="14.00"
     id="text146"
     style="font-size:14px;text-anchor:middle;font-family:Karla;font-weight:bold;-inkscape-font-specification:Karla Bold">Back to London</text>
  <path
     d="m 580.568,143.921 c -14.458,12.608 -32.619,28.444 -49.34,43.0244"
     id="path151"
     inkscape:connector-curvature="0"
     style="fill:none;stroke:#000000;stroke-width:2" />
  <polygon
     points="529.502,-88.3941 519.665,-84.4598 524.902,-93.67 529.502,-88.3941 "
     id="polygon153"
     style="fill:#000000;stroke:#000000;stroke-width:2"
     transform="translate(4,278)" />
  <ellipse
     cx="776"
     cy="-48"
     rx="126.919"
     ry="37.4533"
     id="ellipse158"
     d="m 902.919,-48 c 0,20.684887 -56.82357,37.4533 -126.919,37.4533 -70.09543,0 -126.919,-16.768413 -126.919,-37.4533 0,-20.684887 56.82357,-37.4533 126.919,-37.4533 70.09543,0 126.919,16.768413 126.919,37.4533 z"
     sodipodi:cx="776"
     sodipodi:cy="-48"
     sodipodi:rx="126.919"
     sodipodi:ry="37.4533"
     style="fill:#ffffff;stroke:#000000;stroke-width:2"
     transform="translate(4,278)" />
  <text
     x="780"
     y="218.7"
     font-size="14.00"
     id="text160"
     style="font-size:14px;text-anchor:middle;font-family:Karla;font-weight:bold;-inkscape-font-specification:Karla Bold">1919</text>
  <text
     x="780"
     y="233.7"
     font-size="14.00"
     id="text162"
     style="font-size:14px;text-anchor:middle;font-family:Karla;font-weight:bold;-inkscape-font-specification:Karla Bold">Marries Donald Ferguson</text>
  <text
     x="780"
     y="248.7"
     font-size="14.00"
     id="text164"
     style="font-size:14px;text-anchor:middle;font-family:Karla;font-weight:bold;-inkscape-font-specification:Karla Bold">Couple moves to Burma</text>
  <path
     d="m 643.222,142.321 c 21.81,13.821 50.409,31.945 75.815,48.0452"
     id="path169"
     inkscape:connector-curvature="0"
     style="fill:none;stroke:#000000;stroke-width:2" />
  <polygon
     points="716.942,-90.5698 723.516,-82.2605 713.195,-84.6571 716.942,-90.5698 "
     id="polygon171"
     style="fill:#000000;stroke:#000000;stroke-width:2"
     transform="translate(4,278)" />
  <path
     d="M 547.196,131.976 C 489.114,143.7 399.235,162.583 322,182 c -19.044,4.7876 -39.224,10.2477 -58.673,15.711"
     id="path176"
     inkscape:connector-curvature="0"
     style="fill:none;stroke:#000000;stroke-width:2" />
  <polygon
     points="260.115,-76.8748 249.54,-77.523 258.211,-83.611 260.115,-76.8748 "
     id="polygon178"
     style="fill:#000000;stroke:#000000;stroke-width:2"
     transform="translate(4,278)" />
  <path
     d="m 967.279,140.63 c -31.592,14.907 -75.055,35.416 -112.157,52.923"
     id="path183"
     inkscape:connector-curvature="0"
     style="fill:none;stroke:#000000;stroke-width:2" />
  <polygon
     points="852.374,-81.1679 841.837,-80.0658 849.387,-87.4986 852.374,-81.1679 "
     id="polygon185"
     style="fill:#000000;stroke:#000000;stroke-width:2"
     transform="translate(4,278)" />
  <path
     d="M 947.103,132.179 C 919.217,137.115 886.081,142.472 856,146 c -236.253,27.71 -299.687,-4.996 -534,36 -20.905,3.6575 -42.955,8.9496 -63.872,14.6747"
     id="path190"
     inkscape:connector-curvature="0"
     style="fill:none;stroke:#000000;stroke-width:2" />
  <polygon
     points="254.857,-77.8951 244.285,-78.5774 252.975,-84.6374 254.857,-77.8951 "
     id="polygon192"
     style="fill:#000000;stroke:#000000;stroke-width:2"
     transform="translate(4,278)" />
  <ellipse
     cx="1374"
     cy="-48"
     rx="118.13"
     ry="37.4533"
     id="ellipse197"
     d="m 1492.13,-48 c 0,20.684887 -52.8886,37.4533 -118.13,37.4533 -65.2414,0 -118.13,-16.768413 -118.13,-37.4533 0,-20.684887 52.8886,-37.4533 118.13,-37.4533 65.2414,0 118.13,16.768413 118.13,37.4533 z"
     sodipodi:cx="1374"
     sodipodi:cy="-48"
     sodipodi:rx="118.13"
     sodipodi:ry="37.4533"
     style="fill:#ffffff;stroke:#000000;stroke-width:2"
     transform="translate(4,278)" />
  <text
     x="1378"
     y="218.7"
     font-size="14.00"
     id="text199"
     style="font-size:14px;text-anchor:middle;font-family:Karla;font-weight:bold;-inkscape-font-specification:Karla Bold">1925</text>
  <text
     x="1378"
     y="233.7"
     font-size="14.00"
     id="text201"
     style="font-size:14px;text-anchor:middle;font-family:Karla;font-weight:bold;-inkscape-font-specification:Karla Bold">Meets Stuart Edmonds</text>
  <text
     x="1378"
     y="248.7"
     font-size="14.00"
     id="text203"
     style="font-size:14px;text-anchor:middle;font-family:Karla;font-weight:bold;-inkscape-font-specification:Karla Bold">South of France</text>
  <path
     d="m 1064.4,137.401 c 9.8,3.004 19.98,5.994 29.6,8.599 69.1,18.714 88.4,15.534 157,36 14.6,4.3556 29.95,9.5178 44.73,14.7992"
     id="path208"
     inkscape:connector-curvature="0"
     style="fill:none;stroke:#000000;stroke-width:2" />
  <polygon
     points="1293.13,-84.4146 1301.34,-77.7202 1290.75,-77.8324 1293.13,-84.4146 "
     id="polygon210"
     style="fill:#000000;stroke:#000000;stroke-width:2"
     transform="translate(4,278)" />
  <ellipse
     cx="1080"
     cy="-48"
     rx="158.088"
     ry="48.166698"
     id="ellipse215"
     d="m 1238.088,-48 c 0,26.601733 -70.7784,48.16669846 -158.088,48.16669846 -87.30959,0 -158.088,-21.56496546 -158.088,-48.16669846 0,-26.601733 70.77841,-48.166698 158.088,-48.166698 87.3096,0 158.088,21.564965 158.088,48.166698 z"
     sodipodi:cx="1080"
     sodipodi:cy="-48"
     sodipodi:rx="158.088"
     sodipodi:ry="48.166698"
     style="fill:#ffffff;stroke:#000000;stroke-width:2"
     transform="translate(4,278)" />
  <text
     x="1084"
     y="211.2"
     font-size="14.00"
     id="text217"
     style="font-size:14px;text-anchor:middle;font-family:Karla;font-weight:bold;-inkscape-font-specification:Karla Bold">1931</text>
  <text
     x="1084"
     y="226.2"
     font-size="14.00"
     id="text219"
     style="font-size:14px;text-anchor:middle;font-family:Karla;font-weight:bold;-inkscape-font-specification:Karla Bold">Divorces Ferguson</text>
  <text
     x="1084"
     y="241.2"
     font-size="14.00"
     id="text221"
     style="font-size:14px;text-anchor:middle;font-family:Karla;font-weight:bold;-inkscape-font-specification:Karla Bold">Marries Stuart Edmonds</text>
  <text
     x="1084"
     y="256.20001"
     font-size="14.00"
     id="text223"
     style="font-size:14px;text-anchor:middle;font-family:Karla;font-weight:bold;-inkscape-font-specification:Karla Bold">Moves to countryside (England)</text>
  <path
     d="m 1027.93,145.281 c 5.79,8.647 12.52,18.688 19.26,28.75"
     id="path228"
     inkscape:connector-curvature="0"
     style="fill:none;stroke:#000000;stroke-width:2" />
  <polygon
     points="1046.17,-105.798 1048.83,-95.542 1040.36,-101.903 1046.17,-105.798 "
     id="polygon230"
     style="fill:#000000;stroke:#000000;stroke-width:2"
     transform="translate(4,278)" />
  <ellipse
     cx="1595"
     cy="-48"
     rx="84.280197"
     ry="37.4533"
     id="ellipse235"
     d="m 1679.2802,-48 c 0,20.684887 -37.7335,37.4533 -84.2802,37.4533 -46.5467,0 -84.2802,-16.768413 -84.2802,-37.4533 0,-20.684887 37.7335,-37.4533 84.2802,-37.4533 46.5467,0 84.2802,16.768413 84.2802,37.4533 z"
     sodipodi:cx="1595"
     sodipodi:cy="-48"
     sodipodi:rx="84.280197"
     sodipodi:ry="37.4533"
     style="fill:#ffffff;stroke:#000000;stroke-width:2"
     transform="translate(4,278)" />
  <text
     x="1599"
     y="218.7"
     font-size="14.00"
     id="text237"
     style="font-size:14px;text-anchor:middle;font-family:Karla;font-weight:bold;-inkscape-font-specification:Karla Bold">1932–34</text>
  <text
     x="1599"
     y="233.7"
     font-size="14.00"
     id="text239"
     style="font-size:14px;text-anchor:middle;font-family:Karla;font-weight:bold;-inkscape-font-specification:Karla Bold">Travels to</text>
  <text
     x="1599"
     y="248.7"
     font-size="14.00"
     id="text241"
     style="font-size:14px;text-anchor:middle;font-family:Karla;font-weight:bold;-inkscape-font-specification:Karla Bold">South of France</text>
  <path
     d="m 1062.8,138.112 c 10.24,3.043 20.98,5.864 31.2,7.888 179.87,35.6147 234.55,-13.882 411,36 11.52,3.2573 23.31,7.9331 34.48,13.0862"
     id="path246"
     inkscape:connector-curvature="0"
     style="fill:none;stroke:#000000;stroke-width:2" />
  <polygon
     points="1537.19,-85.975 1544.69,-78.4936 1534.16,-79.6638 1537.19,-85.975 "
     id="polygon248"
     style="fill:#000000;stroke:#000000;stroke-width:2"
     transform="translate(4,278)" />
  <ellipse
     cx="1754"
     cy="-48"
     rx="56.3526"
     ry="37.4533"
     id="ellipse253"
     d="m 1810.3526,-48 c 0,20.684887 -25.2299,37.4533 -56.3526,37.4533 -31.1227,0 -56.3526,-16.768413 -56.3526,-37.4533 0,-20.684887 25.2299,-37.4533 56.3526,-37.4533 31.1227,0 56.3526,16.768413 56.3526,37.4533 z"
     sodipodi:cx="1754"
     sodipodi:cy="-48"
     sodipodi:rx="56.3526"
     sodipodi:ry="37.4533"
     style="fill:#ffffff;stroke:#000000;stroke-width:2"
     transform="translate(4,278)" />
  <text
     x="1758"
     y="218.7"
     font-size="14.00"
     id="text255"
     style="font-size:14px;text-anchor:middle;font-family:Karla;font-weight:bold;-inkscape-font-specification:Karla Bold">1932–34</text>
  <text
     x="1758"
     y="233.7"
     font-size="14.00"
     id="text257"
     style="font-size:14px;text-anchor:middle;font-family:Karla;font-weight:bold;-inkscape-font-specification:Karla Bold">Travels to</text>
  <text
     x="1758"
     y="248.7"
     font-size="14.00"
     id="text259"
     style="font-size:14px;text-anchor:middle;font-family:Karla;font-weight:bold;-inkscape-font-specification:Karla Bold">Italy</text>
  <path
     d="m 1062.31,138.204 c 10.38,3.074 21.29,5.884 31.69,7.796 130.93,24.076 472.47,-8.331 598,36 8.2,2.8953 16.29,7.1326 23.84,11.895"
     id="path264"
     inkscape:connector-curvature="0"
     style="fill:none;stroke:#000000;stroke-width:2" />
  <polygon
     points="1714.09,-86.8088 1720.43,-78.3221 1710.18,-81.0013 1714.09,-86.8088 "
     id="polygon266"
     style="fill:#000000;stroke:#000000;stroke-width:2"
     transform="translate(4,278)" />
  <path
     d="m 780,146.108 c 0,10.825 0,23.724 0,36.0833"
     id="path271"
     inkscape:connector-curvature="0"
     style="fill:none;stroke:#000000;stroke-width:2" />
  <polygon
     points="779.5,-95.6105 776,-85.6105 772.5,-95.6105 779.5,-95.6105 "
     id="polygon273"
     style="fill:#000000;stroke:#000000;stroke-width:2"
     transform="translate(4,278)" />
  <path
     d="m 829.181,137.634 c 38.994,13.981 94.983,34.056 144.553,51.8298"
     id="path278"
     inkscape:connector-curvature="0"
     style="fill:none;stroke:#000000;stroke-width:2" />
  <polygon
     points="971,-91.8005 979.232,-85.1307 968.637,-85.2113 971,-91.8005 "
     id="polygon280"
     style="fill:#000000;stroke:#000000;stroke-width:2"
     transform="translate(4,278)" />
</svg>
