<?xml version="1.0" encoding="UTF-8" standalone="no"?>
<!-- Generated by graphviz version 2.36.0 (20140111.2315)
 -->

<!-- Title: %3 Pages: 1 -->

<svg
   xmlns:dc="http://purl.org/dc/elements/1.1/"
   xmlns:cc="http://creativecommons.org/ns#"
   xmlns:rdf="http://www.w3.org/1999/02/22-rdf-syntax-ns#"
   xmlns:svg="http://www.w3.org/2000/svg"
   xmlns="http://www.w3.org/2000/svg"
   xmlns:sodipodi="http://sodipodi.sourceforge.net/DTD/sodipodi-0.dtd"
   xmlns:inkscape="http://www.inkscape.org/namespaces/inkscape"
   width="537pt"
   height="544pt"
   viewBox="0.00 0.00 537.00 544.00"
   id="svg3884"
   version="1.1"
   inkscape:version="0.48.4 r9939"
   sodipodi:docname="3943.svg">
  <metadata
     id="metadata4029">
    <rdf:RDF>
      <cc:Work
         rdf:about="">
        <dc:format>image/svg+xml</dc:format>
        <dc:type
           rdf:resource="http://purl.org/dc/dcmitype/StillImage" />
      </cc:Work>
    </rdf:RDF>
  </metadata>
  <defs
     id="defs4027" />
  <sodipodi:namedview
     pagecolor="#ffffff"
     bordercolor="#666666"
     borderopacity="1"
     objecttolerance="10"
     gridtolerance="10"
     guidetolerance="10"
     inkscape:pageopacity="0"
     inkscape:pageshadow="2"
     inkscape:window-width="1276"
     inkscape:window-height="775"
     id="namedview4025"
     showgrid="false"
     inkscape:zoom="0.69411765"
     inkscape:cx="411.28583"
     inkscape:cy="193.27319"
     inkscape:window-x="0"
     inkscape:window-y="21"
     inkscape:window-maximized="1"
     inkscape:current-layer="svg3884" />
  <polygon
     style="fill:#ffffff;stroke:none"
     id="polygon3889"
     points="533,-540 533,4 -4,4 -4,4 -4,-540 "
     transform="translate(4,540)" />
  <ellipse
     cx="372"
     cy="-498"
     rx="129.101"
     ry="37.4533"
     id="ellipse3894"
     d="m 501.101,-498 c 0,20.68489 -57.80049,37.4533 -129.101,37.4533 -71.30051,0 -129.101,-16.76841 -129.101,-37.4533 0,-20.68489 57.80049,-37.4533 129.101,-37.4533 71.30051,0 129.101,16.76841 129.101,37.4533 z"
     sodipodi:cx="372"
     sodipodi:cy="-498"
     sodipodi:rx="129.101"
     sodipodi:ry="37.4533"
     style="fill:#ffffff;stroke:#000000;stroke-width:2"
     transform="translate(4,540)" />
  <text
     x="376"
     y="30.700012"
     font-size="14.00"
     id="text3896"
     style="font-size:14px;text-anchor:middle;font-family:Karla;font-weight:bold;-inkscape-font-specification:Karla Bold">LONDON</text>
  <text
     x="376"
     y="45.700012"
     font-size="14.00"
     id="text3898"
     style="font-size:14px;text-anchor:middle;font-family:Karla;font-weight:bold;-inkscape-font-specification:Karla Bold">departure 1939</text>
  <text
     x="376"
     y="60.700012"
     font-size="14.00"
     id="text3900"
     style="font-size:14px;text-anchor:middle;font-family:Karla;font-weight:bold;-inkscape-font-specification:Karla Bold">back home February 1943</text>
  <ellipse
     cx="219"
     cy="-395"
     rx="85.901497"
     ry="26.7407"
     id="ellipse3905"
     d="m 304.9015,-395 c 0,14.76848 -38.45941,26.7407 -85.9015,26.7407 -47.44209,0 -85.9015,-11.97222 -85.9015,-26.7407 0,-14.76848 38.45941,-26.7407 85.9015,-26.7407 47.44209,0 85.9015,11.97222 85.9015,26.7407 z"
     sodipodi:cx="219"
     sodipodi:cy="-395"
     sodipodi:rx="85.901497"
     sodipodi:ry="26.7407"
     style="fill:#ffffff;stroke:#000000;stroke-width:2"
     transform="translate(4,540)" />
  <text
     x="223"
     y="141.20001"
     font-size="14.00"
     id="text3907"
     style="font-size:14px;text-anchor:middle;font-family:Karla;font-weight:bold;-inkscape-font-specification:Karla Bold">OSLO</text>
  <text
     x="223"
     y="156.20001"
     font-size="14.00"
     id="text3909"
     style="font-size:14px;text-anchor:middle;font-family:Karla;font-weight:bold;-inkscape-font-specification:Karla Bold">September 1939</text>
  <path
     d="m 325.053,76.632 c -18.676,12.328 -39.648,26.172 -57.7,38.089"
     id="path3914"
     inkscape:connector-curvature="0"
     style="fill:none;stroke:#000000;stroke-width:2" />
  <polygon
     points="265.022,-422.187 254.748,-419.598 261.165,-428.029 265.022,-422.187 "
     id="polygon3916"
     style="fill:#000000;stroke:#000000;stroke-width:2"
     transform="translate(4,540)" />
  <polygon
     points="355.25,-316 355.25,-316 234.75,-316 234.75,-220 355.25,-220 "
     id="polygon3921"
     style="fill:#ffffff;stroke:#000000;stroke-width:2"
     transform="translate(4,540)" />
  <text
     x="299"
     y="253.20001"
     font-size="14.00"
     id="text3923"
     style="font-size:14px;text-anchor:middle;font-family:Karla;font-weight:bold;-inkscape-font-specification:Karla Bold">NEW YORK</text>
  <text
     x="299"
     y="268.20001"
     font-size="14.00"
     id="text3925"
     style="font-size:14px;text-anchor:middle;font-family:Karla;font-weight:bold;-inkscape-font-specification:Karla Bold">October 1939</text>
  <text
     x="299"
     y="283.20001"
     font-size="14.00"
     id="text3927"
     style="font-size:14px;text-anchor:middle;font-family:Karla;font-weight:bold;-inkscape-font-specification:Karla Bold">October 1940</text>
  <text
     x="299"
     y="298.20001"
     font-size="14.00"
     id="text3929"
     style="font-size:14px;text-anchor:middle;font-family:Karla;font-weight:bold;-inkscape-font-specification:Karla Bold">January 1943</text>
  <path
     d="M 202.25,171.359 C 195.904,182.264 192,195.004 198,206 c 7.456,13.664 19.151,24.886 31.979,33.929"
     id="path3934"
     inkscape:connector-curvature="0"
     style="fill:none;stroke:#ffd700;stroke-width:2" />
  <polygon
     points="228.109,-302.86 234.54,-294.44 224.262,-297.012 228.109,-302.86 "
     id="polygon3936"
     style="fill:#ffd700;stroke:#ffd700;stroke-width:2"
     transform="translate(4,540)" />
  <text
     x="293"
     y="201.70001"
     font-size="14.00"
     id="text3938"
     style="font-size:14px;text-anchor:middle;fill:#ffd700;font-family:Karla;font-weight:bold;-inkscape-font-specification:Karla Bold">Asylum Piece gets published</text>
  <path
     d="M 359.358,239.013 C 370.895,229.96 381.414,218.965 388,206 c 18.363,-36.15 12.487,-82.729 3.711,-116.831"
     id="path3943"
     inkscape:connector-curvature="0"
     style="fill:none;stroke:#2e8b57;stroke-width:2" />
  <polygon
     points="384.317,-449.974 385.048,-460.543 391.068,-451.825 384.317,-449.974 "
     id="polygon3945"
     style="fill:#2e8b57;stroke:#2e8b57;stroke-width:2"
     transform="translate(4,540)" />
  <text
     x="467"
     y="141.20001"
     font-size="14.00"
     id="text3947"
     style="font-size:14px;text-anchor:middle;fill:#2e8b57;font-family:Karla;font-weight:bold;-inkscape-font-specification:Karla Bold">end</text>
  <text
     x="467"
     y="156.20001"
     font-size="14.00"
     id="text3949"
     style="font-size:14px;text-anchor:middle;fill:#2e8b57;font-family:Karla;font-weight:bold;-inkscape-font-specification:Karla Bold">Five Months Further</text>
  <ellipse
     cx="86"
     cy="-130"
     rx="85.901497"
     ry="37.4533"
     id="ellipse3954"
     d="m 171.9015,-130 c 0,20.68489 -38.45941,37.4533 -85.9015,37.4533 -47.442087,0 -85.90149689,-16.76841 -85.90149689,-37.4533 0,-20.68489 38.45940989,-37.4533 85.90149689,-37.4533 47.44209,0 85.9015,16.76841 85.9015,37.4533 z"
     sodipodi:cx="86"
     sodipodi:cy="-130"
     sodipodi:rx="85.901497"
     sodipodi:ry="37.4533"
     style="fill:#ffffff;stroke:#000000;stroke-width:2"
     transform="translate(4,540)" />
  <text
     x="90"
     y="398.70001"
     font-size="14.00"
     id="text3956"
     style="font-size:14px;text-anchor:middle;font-family:Karla;font-weight:bold;-inkscape-font-specification:Karla Bold">SAN FRANCISCO</text>
  <text
     x="90"
     y="413.70001"
     font-size="14.00"
     id="text3958"
     style="font-size:14px;text-anchor:middle;font-family:Karla;font-weight:bold;-inkscape-font-specification:Karla Bold">1939–40</text>
  <text
     x="90"
     y="428.70001"
     font-size="14.00"
     id="text3960"
     style="font-size:14px;text-anchor:middle;font-family:Karla;font-weight:bold;-inkscape-font-specification:Karla Bold">(6 months)</text>
  <path
     d="m 238.549,312.337 c -29.281,19.053 -64.209,41.781 -92.838,60.411"
     id="path3965"
     inkscape:connector-curvature="0"
     style="fill:none;stroke:#1e90ff;stroke-width:2" />
  <polygon
     points="143.333,-164.132 133.042,-161.611 139.515,-169.999 143.333,-164.132 "
     id="polygon3967"
     style="fill:#1e90ff;stroke:#1e90ff;stroke-width:2"
     transform="translate(4,540)" />
  <text
     x="213.5"
     y="349.70001"
     font-size="14.00"
     id="text3969"
     style="font-size:14px;text-anchor:middle;fill:#1e90ff;font-family:Karla;font-weight:bold;-inkscape-font-specification:Karla Bold">begin</text>
  <ellipse
     cx="296"
     cy="-130"
     rx="105.039"
     ry="37.4533"
     id="ellipse3974"
     d="m 401.039,-130 c 0,20.68489 -47.02756,37.4533 -105.039,37.4533 -58.01144,0 -105.039,-16.76841 -105.039,-37.4533 0,-20.68489 47.02756,-37.4533 105.039,-37.4533 58.01144,0 105.039,16.76841 105.039,37.4533 z"
     sodipodi:cx="296"
     sodipodi:cy="-130"
     sodipodi:rx="105.039"
     sodipodi:ry="37.4533"
     style="fill:#ffffff;stroke:#000000;stroke-width:2"
     transform="translate(4,540)" />
  <text
     x="300"
     y="398.70001"
     font-size="14.00"
     id="text3976"
     style="font-size:14px;text-anchor:middle;font-family:Karla;font-weight:bold;-inkscape-font-specification:Karla Bold">AUCKLAND</text>
  <text
     x="300"
     y="413.70001"
     font-size="14.00"
     id="text3978"
     style="font-size:14px;text-anchor:middle;font-family:Karla;font-weight:bold;-inkscape-font-specification:Karla Bold">arrival February 1941</text>
  <text
     x="300"
     y="428.70001"
     font-size="14.00"
     id="text3980"
     style="font-size:14px;text-anchor:middle;font-family:Karla;font-weight:bold;-inkscape-font-specification:Karla Bold">(22 months)</text>
  <path
     d="m 297.01,320.116 c -0.24,11.112 -0.309,22.916 -0.01,33.884 0.073,2.686 0.166,5.444 0.274,8.227"
     id="path3985"
     inkscape:connector-curvature="0"
     style="fill:none;stroke:#000000;stroke-width:2" />
  <polygon
     points="296.776,-177.819 293.721,-167.674 289.783,-177.509 296.776,-177.819 "
     id="polygon3987"
     style="fill:#000000;stroke:#000000;stroke-width:2"
     transform="translate(4,540)" />
  <ellipse
     cx="343"
     cy="-27"
     rx="56.3526"
     ry="26.7407"
     id="ellipse3992"
     d="m 399.3526,-27 c 0,14.768481 -25.22992,26.74069977 -56.3526,26.74069977 -31.12268,0 -56.3526,-11.97221877 -56.3526,-26.74069977 0,-14.768481 25.22992,-26.7407 56.3526,-26.7407 31.12268,0 56.3526,11.972219 56.3526,26.7407 z"
     sodipodi:cx="343"
     sodipodi:cy="-27"
     sodipodi:rx="56.3526"
     sodipodi:ry="26.7407"
     style="fill:#ffffff;stroke:#000000;stroke-width:2"
     transform="translate(4,540)" />
  <text
     x="347"
     y="509.20001"
     font-size="14.00"
     id="text3994"
     style="font-size:14px;text-anchor:middle;font-family:Karla;font-weight:bold;-inkscape-font-specification:Karla Bold">BALI</text>
  <text
     x="347"
     y="524.20001"
     font-size="14.00"
     id="text3996"
     style="font-size:14px;text-anchor:middle;font-family:Karla;font-weight:bold;-inkscape-font-specification:Karla Bold">April 1940</text>
  <path
     d="m 152.869,435.707 c 43.611,17.1392 101.008,39.6961 142.059,55.829"
     id="path4001"
     inkscape:connector-curvature="0"
     style="fill:none;stroke:#1e90ff;stroke-width:2" />
  <polygon
     points="292.444,-51.6291 300.47,-44.7139 289.883,-45.1142 292.444,-51.6291 "
     id="polygon4003"
     style="fill:#1e90ff;stroke:#1e90ff;stroke-width:2"
     transform="translate(4,540)" />
  <path
     d="M 378.966,490.6209 C 392.466,479.651 406.726,465.0086 414,448 c 13.283,-31.057 14.081,-45.297 0,-76 -10.138,-22.105 -27.918,-41.141 -46.51,-56.447"
     id="path4008"
     inkscape:connector-curvature="0"
     style="fill:none;stroke:#1e90ff;stroke-width:2" />
  <polygon
     points="361.161,-221.826 355.492,-230.776 365.505,-227.315 361.161,-221.826 "
     id="polygon4010"
     style="fill:#1e90ff;stroke:#1e90ff;stroke-width:2"
     transform="translate(4,540)" />
  <text
     x="465.5"
     y="406.20001"
     font-size="14.00"
     id="text4012"
     style="font-size:14px;text-anchor:middle;fill:#1e90ff;font-family:Karla;font-weight:bold;-inkscape-font-specification:Karla Bold">end</text>
  <text
     x="465.5"
     y="421.20001"
     font-size="14.00"
     id="text4014"
     style="font-size:14px;text-anchor:middle;fill:#1e90ff;font-family:Karla;font-weight:bold;-inkscape-font-specification:Karla Bold">Cactus Sign</text>
  <path
     d="m 299.729,372.189 c -0.094,-12.886 -0.203,-27.679 -0.307,-41.841"
     id="path4019"
     inkscape:connector-curvature="0"
     style="fill:none;stroke:#2e8b57;stroke-width:2" />
  <polygon
     points="291.921,-209.79 295.347,-219.815 298.92,-209.842 291.921,-209.79 "
     id="polygon4021"
     style="fill:#2e8b57;stroke:#2e8b57;stroke-width:2"
     transform="translate(4,540)" />
  <text
     x="318.5"
     y="349.70001"
     font-size="14.00"
     id="text4023"
     style="font-size:14px;text-anchor:middle;fill:#2e8b57;font-family:Karla;font-weight:bold;-inkscape-font-specification:Karla Bold">begin</text>
</svg>
