<?xml version="1.0" encoding="UTF-8" standalone="no"?>
<!-- Generated by graphviz version 2.36.0 (20140111.2315)
 -->

<!-- Title: %3 Pages: 1 -->

<svg
   xmlns:dc="http://purl.org/dc/elements/1.1/"
   xmlns:cc="http://creativecommons.org/ns#"
   xmlns:rdf="http://www.w3.org/1999/02/22-rdf-syntax-ns#"
   xmlns:svg="http://www.w3.org/2000/svg"
   xmlns="http://www.w3.org/2000/svg"
   xmlns:sodipodi="http://sodipodi.sourceforge.net/DTD/sodipodi-0.dtd"
   xmlns:inkscape="http://www.inkscape.org/namespaces/inkscape"
   width="878pt"
   height="832pt"
   viewBox="0.00 0.00 878.00 832.00"
   id="svg4031"
   version="1.1"
   inkscape:version="0.48.4 r9939"
   sodipodi:docname="3945.svg">
  <metadata
     id="metadata4299">
    <rdf:RDF>
      <cc:Work
         rdf:about="">
        <dc:format>image/svg+xml</dc:format>
        <dc:type
           rdf:resource="http://purl.org/dc/dcmitype/StillImage" />
      </cc:Work>
    </rdf:RDF>
  </metadata>
  <defs
     id="defs4297" />
  <sodipodi:namedview
     pagecolor="#ffffff"
     bordercolor="#666666"
     borderopacity="1"
     objecttolerance="10"
     gridtolerance="10"
     guidetolerance="10"
     inkscape:pageopacity="0"
     inkscape:pageshadow="2"
     inkscape:window-width="1276"
     inkscape:window-height="775"
     id="namedview4295"
     showgrid="false"
     inkscape:zoom="0.45384615"
     inkscape:cx="637.61923"
     inkscape:cy="513.72336"
     inkscape:window-x="0"
     inkscape:window-y="21"
     inkscape:window-maximized="1"
     inkscape:current-layer="svg4031" />
  <polygon
     style="fill:#ffffff;stroke:none"
     id="polygon4036"
     points="874,-828 874,4 -4,4 -4,4 -4,-828 "
     transform="translate(4,828)" />
  <ellipse
     cx="312"
     cy="-589"
     rx="77.015404"
     ry="18"
     id="ellipse4041"
     d="m 389.0154,-589 c 0,9.94113 -34.48097,18 -77.0154,18 -42.53443,0 -77.0154,-8.05887 -77.0154,-18 0,-9.94113 34.48097,-18 77.0154,-18 42.53443,0 77.0154,8.05887 77.0154,18 z"
     sodipodi:cx="312"
     sodipodi:cy="-589"
     sodipodi:rx="77.015404"
     sodipodi:ry="18"
     style="fill:#ffffff;stroke:#000000;stroke-width:2"
     transform="translate(4,828)" />
  <text
     x="316"
     y="242.70001"
     font-size="14.00"
     id="text4043"
     style="font-size:14px;text-anchor:middle;font-family:Karla;font-weight:bold;-inkscape-font-specification:Karla Bold">London 1943–45</text>
  <ellipse
     cx="312"
     cy="-488"
     rx="85.339699"
     ry="26.7407"
     id="ellipse4048"
     d="m 397.3397,-488 c 0,14.76848 -38.20789,26.7407 -85.3397,26.7407 -47.13181,0 -85.3397,-11.97222 -85.3397,-26.7407 0,-14.76848 38.20789,-26.7407 85.3397,-26.7407 47.13181,0 85.3397,11.97222 85.3397,26.7407 z"
     sodipodi:cx="312"
     sodipodi:cy="-488"
     sodipodi:rx="85.339699"
     sodipodi:ry="26.7407"
     style="fill:#ffffff;stroke:#000000;stroke-width:2"
     transform="translate(4,828)" />
  <text
     x="316"
     y="336.20001"
     font-size="14.00"
     id="text4050"
     style="font-size:14px;text-anchor:middle;font-family:Karla;font-weight:bold;-inkscape-font-specification:Karla Bold">Horizon</text>
  <text
     x="316"
     y="351.20001"
     font-size="14.00"
     id="text4052"
     style="font-size:14px;text-anchor:middle;font-family:Karla;font-weight:bold;-inkscape-font-specification:Karla Bold">assistant editor</text>
  <path
     d="m 316,257.244 c 0,12.514 0,29.898 0,45.42"
     id="path4057"
     inkscape:connector-curvature="0"
     style="fill:none;stroke:#1e90ff;stroke-width:2" />
  <polygon
     points="315.5,-524.971 312,-514.971 308.5,-524.971 315.5,-524.971 "
     id="polygon4059"
     style="fill:#1e90ff;stroke:#1e90ff;stroke-width:2"
     transform="translate(4,828)" />
  <ellipse
     cx="142"
     cy="-297"
     rx="142.19299"
     ry="26.7407"
     id="ellipse4064"
     d="m 284.19299,-297 c 0,14.76848 -63.66197,26.7407 -142.19299,26.7407 -78.531022,0 -142.19299316,-11.97222 -142.19299316,-26.7407 0,-14.76848 63.66197116,-26.7407 142.19299316,-26.7407 78.53102,0 142.19299,11.97222 142.19299,26.7407 z"
     sodipodi:cx="142"
     sodipodi:cy="-297"
     sodipodi:rx="142.19299"
     sodipodi:ry="26.7407"
     style="fill:#ffffff;stroke:#000000;stroke-width:2"
     transform="translate(4,828)" />
  <text
     x="146"
     y="527.20001"
     font-size="14.00"
     id="text4066"
     style="font-size:14px;text-anchor:middle;font-family:Karla;font-weight:bold;-inkscape-font-specification:Karla Bold">Mill Hill Emergency Hospital</text>
  <text
     x="146"
     y="542.20001"
     font-size="14.00"
     id="text4068"
     style="font-size:14px;text-anchor:middle;font-family:Karla;font-weight:bold;-inkscape-font-specification:Karla Bold">assistant researcher</text>
  <path
     d="M 281.414,255.278 C 261.228,265.787 236.72,281.542 221,302 176.412,360.026 157.704,445.735 150.352,493.84"
     id="path4073"
     inkscape:connector-curvature="0"
     style="fill:none;stroke:#1e90ff;stroke-width:2" />
  <polygon
     points="149.807,-333.6 144.911,-324.204 142.879,-334.602 149.807,-333.6 "
     id="polygon4075"
     style="fill:#1e90ff;stroke:#1e90ff;stroke-width:2"
     transform="translate(4,828)" />
  <ellipse
     cx="766"
     cy="-589"
     rx="103.486"
     ry="18"
     id="ellipse4080"
     d="m 869.486,-589 c 0,9.94113 -46.33226,18 -103.486,18 -57.15374,0 -103.486,-8.05887 -103.486,-18 0,-9.94113 46.33226,-18 103.486,-18 57.15374,0 103.486,8.05887 103.486,18 z"
     sodipodi:cx="766"
     sodipodi:cy="-589"
     sodipodi:rx="103.486"
     sodipodi:ry="18"
     style="fill:#ffffff;stroke:#000000;stroke-width:2"
     transform="translate(4,828)" />
  <text
     x="770"
     y="242.70001"
     font-size="14.00"
     id="text4082"
     style="font-size:14px;text-anchor:middle;font-family:Karla;font-weight:bold;-inkscape-font-specification:Karla Bold">World Travels 1939–43</text>
  <ellipse
     cx="597"
     cy="-387"
     rx="168.498"
     ry="26.7407"
     id="ellipse4087"
     d="m 765.498,-387 c 0,14.76848 -75.43912,26.7407 -168.498,26.7407 -93.05888,0 -168.498,-11.97222 -168.498,-26.7407 0,-14.76848 75.43912,-26.7407 168.498,-26.7407 93.05888,0 168.498,11.97222 168.498,26.7407 z"
     sodipodi:cx="597"
     sodipodi:cy="-387"
     sodipodi:rx="168.498"
     sodipodi:ry="26.7407"
     style="fill:#ffffff;stroke:#2e8b57;stroke-width:2"
     transform="translate(4,828)" />
  <text
     x="601"
     y="437.20001"
     font-size="14.00"
     id="text4089"
     style="font-size:14px;text-anchor:middle;font-family:Karla;font-weight:bold;-inkscape-font-specification:Karla Bold">New Zealand answer to an inquiry</text>
  <text
     x="601"
     y="452.20001"
     font-size="14.00"
     id="text4091"
     style="font-size:14px;text-anchor:middle;font-family:Karla;font-weight:bold;-inkscape-font-specification:Karla Bold">1943</text>
  <path
     d="M 780.576,257.108 C 796.409,285.149 821.708,341.426 795,378 c -13.958,19.114 -33.88,32.472 -55.694,41.776"
     id="path4096"
     inkscape:connector-curvature="0"
     style="fill:none;stroke:#ffd700;stroke-width:2" />
  <polygon
     points="736.44,-404.909 725.854,-404.48 733.862,-411.417 736.44,-404.909 "
     id="polygon4098"
     style="fill:#ffd700;stroke:#ffd700;stroke-width:2"
     transform="translate(4,828)" />
  <ellipse
     cx="599"
     cy="-488"
     rx="183.272"
     ry="37.4533"
     id="ellipse4103"
     d="m 782.272,-488 c 0,20.68489 -82.05367,37.4533 -183.272,37.4533 -101.21833,0 -183.272,-16.76841 -183.272,-37.4533 0,-20.68489 82.05367,-37.4533 183.272,-37.4533 101.21833,0 183.272,16.76841 183.272,37.4533 z"
     sodipodi:cx="599"
     sodipodi:cy="-488"
     sodipodi:rx="183.272"
     sodipodi:ry="37.4533"
     style="fill:#ffffff;stroke:#2e8b57;stroke-width:2"
     transform="translate(4,828)" />
  <text
     x="603"
     y="328.70001"
     font-size="14.00"
     id="text4105"
     style="font-size:14px;text-anchor:middle;font-family:Karla;font-weight:bold;-inkscape-font-specification:Karla Bold">5 Months Further</text>
  <text
     x="603"
     y="343.70001"
     font-size="14.00"
     id="text4107"
     style="font-size:14px;text-anchor:middle;font-family:Karla;font-weight:bold;-inkscape-font-specification:Karla Bold">What I remember about New Zealand</text>
  <text
     x="603"
     y="358.70001"
     font-size="14.00"
     id="text4109"
     style="font-size:14px;text-anchor:middle;font-family:Karla;font-weight:bold;-inkscape-font-specification:Karla Bold">1942–43</text>
  <path
     d="m 742.048,256.57 c -19.602,11.621 -46.679,27.672 -71.734,42.525"
     id="path4114"
     inkscape:connector-curvature="0"
     style="fill:none;stroke:#ffd700;stroke-width:2" />
  <polygon
     points="667.938,-525.799 657.551,-523.71 664.369,-531.82 667.938,-525.799 "
     id="polygon4116"
     style="fill:#ffd700;stroke:#ffd700;stroke-width:2"
     transform="translate(4,828)" />
  <ellipse
     cx="462"
     cy="-297"
     rx="71.126999"
     ry="26.7407"
     id="ellipse4121"
     d="m 533.127,-297 c 0,14.76848 -31.84464,26.7407 -71.127,26.7407 -39.28236,0 -71.127,-11.97222 -71.127,-26.7407 0,-14.76848 31.84464,-26.7407 71.127,-26.7407 39.28236,0 71.127,11.97222 71.127,26.7407 z"
     sodipodi:cx="462"
     sodipodi:cy="-297"
     sodipodi:rx="71.126999"
     sodipodi:ry="26.7407"
     style="fill:#ffffff;stroke:#2e8b57;stroke-width:2"
     transform="translate(4,828)" />
  <text
     x="466"
     y="527.20001"
     font-size="14.00"
     id="text4123"
     style="font-size:14px;text-anchor:middle;font-family:Karla;font-weight:bold;-inkscape-font-specification:Karla Bold">I Am Lazarus</text>
  <text
     x="466"
     y="542.20001"
     font-size="14.00"
     id="text4125"
     style="font-size:14px;text-anchor:middle;font-family:Karla;font-weight:bold;-inkscape-font-specification:Karla Bold">1943</text>
  <path
     d="m 336.23,366.489 c 26.764,33.723 73.989,93.227 103.488,130.396"
     id="path4130"
     inkscape:connector-curvature="0"
     style="fill:none;stroke:#1e90ff;stroke-width:2" />
  <polygon
     points="438.616,-333.094 442.091,-323.086 433.133,-328.743 438.616,-333.094 "
     id="polygon4132"
     style="fill:#1e90ff;stroke:#1e90ff;stroke-width:2"
     transform="translate(4,828)" />
  <path
     d="m 367.01,361.734 c 13.881,5.462 28.958,11.232 42.99,16.266 34.646,12.429 73.201,25.151 106.549,35.811"
     id="path4137"
     inkscape:connector-curvature="0"
     style="fill:none;stroke:#1e90ff;stroke-width:2" />
  <polygon
     points="513.797,-417.465 522.263,-411.095 511.672,-410.795 513.797,-417.465 "
     id="polygon4139"
     style="fill:#1e90ff;stroke:#1e90ff;stroke-width:2"
     transform="translate(4,828)" />
  <ellipse
     cx="312"
     cy="-117"
     rx="94.067802"
     ry="26.7407"
     id="ellipse4144"
     d="m 406.0678,-117 c 0,14.76848 -42.11559,26.7407 -94.0678,26.7407 -51.95221,0 -94.0678,-11.97222 -94.0678,-26.7407 0,-14.76848 42.11559,-26.7407 94.0678,-26.7407 51.95221,0 94.0678,11.97222 94.0678,26.7407 z"
     sodipodi:cx="312"
     sodipodi:cy="-117"
     sodipodi:rx="94.067802"
     sodipodi:ry="26.7407"
     style="fill:#ffffff;stroke:#2e8b57;stroke-width:2"
     transform="translate(4,828)" />
  <text
     x="316"
     y="707.20001"
     font-size="14.00"
     id="text4146"
     style="font-size:14px;text-anchor:middle;font-family:Karla;font-weight:bold;-inkscape-font-specification:Karla Bold">Face of My People</text>
  <text
     x="316"
     y="722.20001"
     font-size="14.00"
     id="text4148"
     style="font-size:14px;text-anchor:middle;font-family:Karla;font-weight:bold;-inkscape-font-specification:Karla Bold">1944</text>
  <path
     d="m 316,366.947 c 0,64.576 0,232.634 0,306.884"
     id="path4153"
     inkscape:connector-curvature="0"
     style="fill:none;stroke:#1e90ff;stroke-width:2" />
  <polygon
     points="315.5,-153.919 312,-143.919 308.5,-153.919 315.5,-153.919 "
     id="polygon4155"
     style="fill:#1e90ff;stroke:#1e90ff;stroke-width:2"
     transform="translate(4,828)" />
  <ellipse
     cx="462"
     cy="-207"
     rx="121.433"
     ry="26.7407"
     id="ellipse4160"
     d="m 583.433,-207 c 0,14.76848 -54.36741,26.7407 -121.433,26.7407 -67.06559,0 -121.433,-11.97222 -121.433,-26.7407 0,-14.76848 54.36741,-26.7407 121.433,-26.7407 67.06559,0 121.433,11.97222 121.433,26.7407 z"
     sodipodi:cx="462"
     sodipodi:cy="-207"
     sodipodi:rx="121.433"
     sodipodi:ry="26.7407"
     style="fill:#ffffff;stroke:#2e8b57;stroke-width:2"
     transform="translate(4,828)" />
  <text
     x="466"
     y="617.20001"
     font-size="14.00"
     id="text4162"
     style="font-size:14px;text-anchor:middle;font-family:Karla;font-weight:bold;-inkscape-font-specification:Karla Bold">The Case of Bill William</text>
  <text
     x="466"
     y="632.20001"
     font-size="14.00"
     id="text4164"
     style="font-size:14px;text-anchor:middle;font-family:Karla;font-weight:bold;-inkscape-font-specification:Karla Bold">1944</text>
  <path
     d="M 322.351,367.097 C 334.97,417.596 363.891,526.485 386,558 c 8.283,11.807 19.478,22.416 30.867,31.382"
     id="path4169"
     inkscape:connector-curvature="0"
     style="fill:none;stroke:#1e90ff;stroke-width:2" />
  <polygon
     points="415.266,-241.194 421.155,-232.386 411.059,-235.599 415.266,-241.194 "
     id="polygon4171"
     style="fill:#1e90ff;stroke:#1e90ff;stroke-width:2"
     transform="translate(4,828)" />
  <ellipse
     cx="239"
     cy="-27"
     rx="71.126999"
     ry="26.7407"
     id="ellipse4176"
     d="m 310.127,-27 c 0,14.768481 -31.84464,26.74069977 -71.127,26.74069977 -39.28236,0 -71.127,-11.97221877 -71.127,-26.74069977 0,-14.768481 31.84464,-26.7407 71.127,-26.7407 39.28236,0 71.127,11.972219 71.127,26.7407 z"
     sodipodi:cx="239"
     sodipodi:cy="-27"
     sodipodi:rx="71.126999"
     sodipodi:ry="26.7407"
     style="fill:#e7ffed;stroke:#000000;stroke-width:2"
     transform="translate(4,828)" />
  <text
     x="243"
     y="797.20001"
     font-size="14.00"
     id="text4178"
     style="font-size:14px;text-anchor:middle;font-family:Karla;font-weight:bold;-inkscape-font-specification:Karla Bold">I Am Lazarus</text>
  <text
     x="243"
     y="812.20001"
     font-size="14.00"
     id="text4180"
     style="font-size:14px;text-anchor:middle;font-family:Karla;font-weight:bold;-inkscape-font-specification:Karla Bold">1945</text>
  <path
     d="M 153.246,558.095 C 164.491,597.596 187.52,674.676 213,738 c 3.606,8.9614 7.923,18.4407 12.144,27.2188"
     id="path4185"
     inkscape:connector-curvature="0"
     style="fill:none;stroke:#1e90ff;stroke-width:2" />
  <polygon
     points="224.391,-64.109 225.648,-53.5889 218.105,-61.029 224.391,-64.109 "
     id="polygon4187"
     style="fill:#1e90ff;stroke:#1e90ff;stroke-width:2"
     transform="translate(4,828)" />
  <path
     d="m 224.281,553.527 c 47.863,13.163 109.063,29.993 157.907,43.425"
     id="path4192"
     inkscape:connector-curvature="0"
     style="fill:none;stroke:#1e90ff;stroke-width:2" />
  <polygon
     points="379.384,-234.349 388.098,-228.323 377.528,-227.6 379.384,-234.349 "
     id="polygon4194"
     style="fill:#1e90ff;stroke:#1e90ff;stroke-width:2"
     transform="translate(4,828)" />
  <polygon
     points="652,-823.5 652,-823.5 444,-823.5 444,-742.5 652,-742.5 "
     id="polygon4199"
     style="fill:#ffffff;stroke:#000000;stroke-width:2"
     transform="translate(4,828)" />
  <text
     x="552"
     y="33.700012"
     font-size="14.00"
     id="text4201"
     style="font-size:14px;text-anchor:middle;font-family:Karla;font-weight:bold;-inkscape-font-specification:Karla Bold">1939</text>
  <text
     x="552"
     y="48.700012"
     font-size="14.00"
     id="text4203"
     style="font-size:14px;text-anchor:middle;font-family:Karla;font-weight:bold;-inkscape-font-specification:Karla Bold">legally changes her name</text>
  <text
     x="552"
     y="63.700012"
     font-size="14.00"
     id="text4205"
     style="font-size:14px;text-anchor:middle;font-family:Karla;font-weight:bold;-inkscape-font-specification:Karla Bold">Anna Kavan</text>
  <path
     d="M 503.387,85.55 C 455.265,124.7 383.265,183.276 344,215.221"
     id="path4210"
     inkscape:connector-curvature="0"
     style="fill:none;stroke:#1e90ff;stroke-width:2" />
  <polygon
     points="342.104,-609.979 332.138,-606.383 337.686,-615.409 342.104,-609.979 "
     id="polygon4212"
     style="fill:#1e90ff;stroke:#1e90ff;stroke-width:2"
     transform="translate(4,828)" />
  <path
     d="m 596.905,85.55 c 44.034,38.782 109.712,96.626 146.2,128.763"
     id="path4217"
     inkscape:connector-curvature="0"
     style="fill:none;stroke:#ffd700;stroke-width:2" />
  <polygon
     points="741.67,-616.092 746.861,-606.856 737.044,-610.839 741.67,-616.092 "
     id="polygon4219"
     style="fill:#ffd700;stroke:#ffd700;stroke-width:2"
     transform="translate(4,828)" />
  <ellipse
     cx="548"
     cy="-679"
     rx="73.308502"
     ry="26.7407"
     id="ellipse4224"
     d="m 621.3085,-679 c 0,14.76848 -32.82133,26.7407 -73.3085,26.7407 -40.48717,0 -73.3085,-11.97222 -73.3085,-26.7407 0,-14.76848 32.82133,-26.7407 73.3085,-26.7407 40.48717,0 73.3085,11.97222 73.3085,26.7407 z"
     sodipodi:cx="548"
     sodipodi:cy="-679"
     sodipodi:rx="73.308502"
     sodipodi:ry="26.7407"
     style="fill:#e7ffed;stroke:#000000;stroke-width:2"
     transform="translate(4,828)" />
  <text
     x="552"
     y="145.20001"
     font-size="14.00"
     id="text4226"
     style="font-size:14px;text-anchor:middle;font-family:Karla;font-weight:bold;-inkscape-font-specification:Karla Bold">Asylum Piece</text>
  <text
     x="552"
     y="160.20001"
     font-size="14.00"
     id="text4228"
     style="font-size:14px;text-anchor:middle;font-family:Karla;font-weight:bold;-inkscape-font-specification:Karla Bold">1940</text>
  <path
     d="m 552,85.728 c 0,8.669 0,17.796 0,26.309"
     id="path4233"
     inkscape:connector-curvature="0"
     style="fill:none;stroke:#000000;stroke-width:2" />
  <polygon
     points="551.5,-715.955 548,-705.955 544.5,-715.955 551.5,-715.955 "
     id="polygon4235"
     style="fill:#000000;stroke:#000000;stroke-width:2"
     transform="translate(4,828)" />
  <ellipse
     cx="548"
     cy="-589"
     rx="96.249901"
     ry="26.7407"
     id="ellipse4240"
     d="m 644.2499,-589 c 0,14.76848 -43.09255,26.7407 -96.2499,26.7407 -53.15735,0 -96.2499,-11.97222 -96.2499,-26.7407 0,-14.76848 43.09255,-26.7407 96.2499,-26.7407 53.15735,0 96.2499,11.97222 96.2499,26.7407 z"
     sodipodi:cx="548"
     sodipodi:cy="-589"
     sodipodi:rx="96.249901"
     sodipodi:ry="26.7407"
     style="fill:#e7ffed;stroke:#000000;stroke-width:2"
     transform="translate(4,828)" />
  <text
     x="552"
     y="235.20001"
     font-size="14.00"
     id="text4242"
     style="font-size:14px;text-anchor:middle;font-family:Karla;font-weight:bold;-inkscape-font-specification:Karla Bold">Change The Name</text>
  <text
     x="552"
     y="250.20001"
     font-size="14.00"
     id="text4244"
     style="font-size:14px;text-anchor:middle;font-family:Karla;font-weight:bold;-inkscape-font-specification:Karla Bold">1941</text>
  <path
     d="m 552,175.927 c 0,8.074 0,17.13 0,25.777"
     id="path4249"
     inkscape:connector-curvature="0"
     style="fill:none;stroke:#000000;stroke-width:2" />
  <polygon
     points="551.5,-626.046 548,-616.046 544.5,-626.046 551.5,-626.046 "
     id="polygon4251"
     style="fill:#000000;stroke:#000000;stroke-width:2"
     transform="translate(4,828)" />
  <path
     d="m 565.267,265.753 c 4.383,8.509 9.399,18.246 14.311,27.782"
     id="path4256"
     inkscape:connector-curvature="0"
     style="fill:none;stroke:#000000;stroke-width:2" />
  <polygon
     points="578.764,-535.924 580.232,-525.431 572.541,-532.718 578.764,-535.924 "
     id="polygon4258"
     style="fill:#000000;stroke:#000000;stroke-width:2"
     transform="translate(4,828)" />
  <path
     d="m 466,557.927 c 0,8.074 0,17.13 0,25.777"
     id="path4263"
     inkscape:connector-curvature="0"
     style="fill:none;stroke:#000000;stroke-width:2" />
  <polygon
     points="465.5,-244.046 462,-234.046 458.5,-244.046 465.5,-244.046 "
     id="polygon4265"
     style="fill:#000000;stroke:#000000;stroke-width:2"
     transform="translate(4,828)" />
  <path
     d="m 562.314,467.217 c -16.587,10.813 -36.032,23.488 -53.091,34.608"
     id="path4270"
     inkscape:connector-curvature="0"
     style="fill:none;stroke:#000000;stroke-width:2" />
  <polygon
     points="506.837,-323.049 496.548,-320.52 503.014,-328.913 506.837,-323.049 "
     id="polygon4272"
     style="fill:#000000;stroke:#000000;stroke-width:2"
     transform="translate(4,828)" />
  <path
     d="m 294.885,737.4532 c -7.775,9.3726 -16.69,20.1195 -24.911,30.0305"
     id="path4277"
     inkscape:connector-curvature="0"
     style="fill:none;stroke:#000000;stroke-width:2" />
  <polygon
     points="268.642,-58.2512 259.564,-52.7892 263.255,-62.7204 268.642,-58.2512 "
     id="polygon4279"
     style="fill:#000000;stroke:#000000;stroke-width:2"
     transform="translate(4,828)" />
  <path
     d="m 424.615,646.279 c -18.575,10.897 -40.617,23.829 -59.975,35.186"
     id="path4284"
     inkscape:connector-curvature="0"
     style="fill:none;stroke:#000000;stroke-width:2" />
  <polygon
     points="362.353,-143.482 351.956,-141.441 358.811,-149.52 362.353,-143.482 "
     id="polygon4286"
     style="fill:#000000;stroke:#000000;stroke-width:2"
     transform="translate(4,828)" />
  <path
     d="m 602.261,377.583 c -0.174,8.615 -0.359,17.791 -0.533,26.382"
     id="path4291"
     inkscape:connector-curvature="0"
     style="fill:none;stroke:#000000;stroke-width:2" />
  <polygon
     points="601.225,-423.851 597.524,-413.924 594.227,-423.993 601.225,-423.851 "
     id="polygon4293"
     style="fill:#000000;stroke:#000000;stroke-width:2"
     transform="translate(4,828)" />
</svg>
