<?xml version="1.0" encoding="UTF-8" standalone="no"?>
<!-- Generated by graphviz version 2.36.0 (20140111.2315)
 -->

<!-- Title: %3 Pages: 1 -->

<svg
   xmlns:dc="http://purl.org/dc/elements/1.1/"
   xmlns:cc="http://creativecommons.org/ns#"
   xmlns:rdf="http://www.w3.org/1999/02/22-rdf-syntax-ns#"
   xmlns:svg="http://www.w3.org/2000/svg"
   xmlns="http://www.w3.org/2000/svg"
   xmlns:sodipodi="http://sodipodi.sourceforge.net/DTD/sodipodi-0.dtd"
   xmlns:inkscape="http://www.inkscape.org/namespaces/inkscape"
   width="1836pt"
   height="1855pt"
   viewBox="0.00 0.00 1836.00 1855.00"
   id="svg4301"
   version="1.1"
   inkscape:version="0.48.4 r9939"
   sodipodi:docname="3968-AK.svg">
  <metadata
     id="metadata4849">
    <rdf:RDF>
      <cc:Work
         rdf:about="">
        <dc:format>image/svg+xml</dc:format>
        <dc:type
           rdf:resource="http://purl.org/dc/dcmitype/StillImage" />
      </cc:Work>
    </rdf:RDF>
  </metadata>
  <defs
     id="defs4847" />
  <sodipodi:namedview
     pagecolor="#ffffff"
     bordercolor="#666666"
     borderopacity="1"
     objecttolerance="10"
     gridtolerance="10"
     guidetolerance="10"
     inkscape:pageopacity="0"
     inkscape:pageshadow="2"
     inkscape:window-width="1276"
     inkscape:window-height="775"
     id="namedview4845"
     showgrid="false"
     inkscape:zoom="0.57574883"
     inkscape:cx="832.2142"
     inkscape:cy="884.71744"
     inkscape:window-x="0"
     inkscape:window-y="21"
     inkscape:window-maximized="1"
     inkscape:current-layer="svg4301" />
  <polygon
     style="fill:#ffffff;stroke:none"
     id="polygon4306"
     points="1832,-1851 1832,4 -4,4 -4,4 -4,-1851 "
     transform="translate(4,1851)" />
  <polygon
     points="890.576,-868.091 890.576,-868.091 775.576,-868.091 775.576,-802.091 890.576,-802.091 "
     id="polygon4311"
     style="fill:#ffffff;stroke:#000000;stroke-width:2"
     transform="translate(4,1851)" />
  <text
     x="837.07599"
     y="1012.109"
     font-size="14.00"
     id="text4313"
     style="font-size:14px;text-anchor:middle;font-family:Karla;font-weight:bold;-inkscape-font-specification:Karla Bold">Anna Kavan</text>
  <text
     x="837.07599"
     y="1027.109"
     font-size="14.00"
     id="text4315"
     style="font-size:14px;text-anchor:middle;font-family:Karla;font-weight:bold;-inkscape-font-specification:Karla Bold">1939–1968</text>
  <ellipse
     cx="748.83197"
     cy="-1158.2"
     rx="154.713"
     ry="26.7407"
     id="ellipse4320"
     d="m 903.54497,-1158.2 c 0,14.7685 -69.26737,26.7407 -154.713,26.7407 -85.44563,0 -154.713,-11.9722 -154.713,-26.7407 0,-14.7684 69.26737,-26.7407 154.713,-26.7407 85.44563,0 154.713,11.9723 154.713,26.7407 z"
     sodipodi:cx="748.83197"
     sodipodi:cy="-1158.2"
     sodipodi:rx="154.713"
     sodipodi:ry="26.7407"
     style="fill:#e7ffed;stroke:#000000;stroke-width:2"
     transform="translate(4,1851)" />
  <text
     x="752.83197"
     y="689"
     font-size="14.00"
     id="text4322"
     style="font-size:14px;text-anchor:middle;font-family:Karla;font-weight:bold;-inkscape-font-specification:Karla Bold">1940</text>
  <text
     x="752.83197"
     y="704"
     font-size="14.00"
     id="text4324"
     style="font-size:14px;text-anchor:middle;font-family:Karla;font-weight:bold;-inkscape-font-specification:Karla Bold">Asylum Piece and other stories</text>
  <path
     d="M 828.456,982.849 C 812.646,922.212 779.115,793.61 762.533,730.01"
     id="path4329"
     inkscape:connector-curvature="0"
     style="fill:none;stroke:#000000;stroke-width:2" />
  <polygon
     points="755.064,-1120.42 755.927,-1130.98 761.837,-1122.19 755.064,-1120.42 "
     id="polygon4331"
     style="fill:#000000;stroke:#000000;stroke-width:2"
     transform="translate(4,1851)" />
  <ellipse
     cx="510.44901"
     cy="-415.75101"
     rx="96.333298"
     ry="26.7407"
     id="ellipse4336"
     d="m 606.7823,-415.75101 c 0,14.76848 -43.12988,26.7407 -96.33329,26.7407 -53.20342,0 -96.3333,-11.97222 -96.3333,-26.7407 0,-14.76848 43.12988,-26.7407 96.3333,-26.7407 53.20341,0 96.33329,11.97222 96.33329,26.7407 z"
     sodipodi:cx="510.44901"
     sodipodi:cy="-415.75101"
     sodipodi:rx="96.333298"
     sodipodi:ry="26.7407"
     style="fill:#e7ffed;stroke:#000000;stroke-width:2"
     transform="translate(4,1851)" />
  <text
     x="514.44897"
     y="1431.449"
     font-size="14.00"
     id="text4338"
     style="font-size:14px;text-anchor:middle;font-family:Karla;font-weight:bold;-inkscape-font-specification:Karla Bold">1941</text>
  <text
     x="514.44897"
     y="1446.449"
     font-size="14.00"
     id="text4340"
     style="font-size:14px;text-anchor:middle;font-family:Karla;font-weight:bold;-inkscape-font-specification:Karla Bold">Change The Name</text>
  <path
     d="m 811.491,1049.164 c -60.037,78.034 -209.471,272.264 -270.472,351.55"
     id="path4345"
     inkscape:connector-curvature="0"
     style="fill:none;stroke:#000000;stroke-width:2" />
  <polygon
     points="539.584,-447.88 530.712,-442.088 534.036,-452.148 539.584,-447.88 "
     id="polygon4347"
     style="fill:#000000;stroke:#000000;stroke-width:2"
     transform="translate(4,1851)" />
  <ellipse
     cx="1270.0699"
     cy="-455.96799"
     rx="71.335701"
     ry="26.7407"
     id="ellipse4352"
     d="m 1341.4056,-455.96799 c 0,14.76848 -31.938,26.7407 -71.3357,26.7407 -39.3976,0 -71.3357,-11.97222 -71.3357,-26.7407 0,-14.76848 31.9381,-26.7407 71.3357,-26.7407 39.3977,0 71.3357,11.97222 71.3357,26.7407 z"
     sodipodi:cx="1270.0699"
     sodipodi:cy="-455.96799"
     sodipodi:rx="71.335701"
     sodipodi:ry="26.7407"
     style="fill:#e7ffed;stroke:#000000;stroke-width:2"
     transform="translate(4,1851)" />
  <text
     x="1274.0699"
     y="1391.2319"
     font-size="14.00"
     id="text4354"
     style="font-size:14px;text-anchor:middle;font-family:Karla;font-weight:bold;-inkscape-font-specification:Karla Bold">1945</text>
  <text
     x="1274.0699"
     y="1406.2319"
     font-size="14.00"
     id="text4356"
     style="font-size:14px;text-anchor:middle;font-family:Karla;font-weight:bold;-inkscape-font-specification:Karla Bold">I Am Lazarus</text>
  <path
     d="m 875.474,1049.221 c 83.462,72.409 280.456,243.315 362.136,314.175"
     id="path4361"
     inkscape:connector-curvature="0"
     style="fill:none;stroke:#000000;stroke-width:2" />
  <polygon
     points="1236.35,-489.862 1241.61,-480.665 1231.76,-484.575 1236.35,-489.862 "
     id="polygon4363"
     style="fill:#000000;stroke:#000000;stroke-width:2"
     transform="translate(4,1851)" />
  <ellipse
     cx="395.62299"
     cy="-850.927"
     rx="106.547"
     ry="26.7407"
     id="ellipse4368"
     d="m 502.16998,-850.927 c 0,14.76848 -47.70271,26.7407 -106.54699,26.7407 -58.84429,0 -106.547,-11.97222 -106.547,-26.7407 0,-14.76848 47.70271,-26.7407 106.547,-26.7407 58.84428,0 106.54699,11.97222 106.54699,26.7407 z"
     sodipodi:cx="395.62299"
     sodipodi:cy="-850.927"
     sodipodi:rx="106.547"
     sodipodi:ry="26.7407"
     style="fill:#e7ffed;stroke:#000000;stroke-width:2"
     transform="translate(4,1851)" />
  <text
     x="399.62299"
     y="996.27301"
     font-size="14.00"
     id="text4370"
     style="font-size:14px;text-anchor:middle;font-family:Karla;font-weight:bold;-inkscape-font-specification:Karla Bold">1948</text>
  <text
     x="399.62299"
     y="1011.273"
     font-size="14.00"
     id="text4372"
     style="font-size:14px;text-anchor:middle;font-family:Karla;font-weight:bold;-inkscape-font-specification:Karla Bold">Sleep Has His house</text>
  <path
     d="m 779.437,1013.822 c -66.772,-2.417 -178.486,-6.461 -263.52,-9.539"
     id="path4377"
     inkscape:connector-curvature="0"
     style="fill:none;stroke:#000000;stroke-width:2" />
  <polygon
     points="511.55,-843.228 501.684,-847.088 511.804,-850.224 511.55,-843.228 "
     id="polygon4379"
     style="fill:#000000;stroke:#000000;stroke-width:2"
     transform="translate(4,1851)" />
  <ellipse
     cx="616.17999"
     cy="-783.18103"
     rx="84.705902"
     ry="26.7407"
     id="ellipse4384"
     d="m 700.88589,-783.18103 c 0,14.76848 -37.92412,26.7407 -84.7059,26.7407 -46.78178,0 -84.7059,-11.97222 -84.7059,-26.7407 0,-14.76848 37.92412,-26.7407 84.7059,-26.7407 46.78178,0 84.7059,11.97222 84.7059,26.7407 z"
     sodipodi:cx="616.17999"
     sodipodi:cy="-783.18103"
     sodipodi:rx="84.705902"
     sodipodi:ry="26.7407"
     style="fill:#e7ffed;stroke:#000000;stroke-width:2"
     transform="translate(4,1851)" />
  <text
     x="620.17999"
     y="1064.019"
     font-size="14.00"
     id="text4386"
     style="font-size:14px;text-anchor:middle;font-family:Karla;font-weight:bold;-inkscape-font-specification:Karla Bold">1949</text>
  <text
     x="620.17999"
     y="1079.019"
     font-size="14.00"
     id="text4388"
     style="font-size:14px;text-anchor:middle;font-family:Karla;font-weight:bold;-inkscape-font-specification:Karla Bold">The Horse's Tale</text>
  <path
     d="m 779.521,1029.684 c -25.037,5.992 -54.755,13.104 -81.705,19.554"
     id="path4393"
     inkscape:connector-curvature="0"
     style="fill:none;stroke:#000000;stroke-width:2" />
  <polygon
     points="694.566,-798.343 684.026,-799.419 692.937,-805.15 694.566,-798.343 "
     id="polygon4395"
     style="fill:#000000;stroke:#000000;stroke-width:2"
     transform="translate(4,1851)" />
  <ellipse
     cx="534.15601"
     cy="-1030.1899"
     rx="93.176498"
     ry="26.7407"
     id="ellipse4400"
     d="m 627.3325,-1030.1899 c 0,14.7684 -41.71654,26.7407 -93.17649,26.7407 -51.45996,0 -93.1765,-11.9723 -93.1765,-26.7407 0,-14.7685 41.71654,-26.7407 93.1765,-26.7407 51.45995,0 93.17649,11.9722 93.17649,26.7407 z"
     sodipodi:cx="534.15601"
     sodipodi:cy="-1030.1899"
     sodipodi:rx="93.176498"
     sodipodi:ry="26.7407"
     style="fill:#e7ffed;stroke:#000000;stroke-width:2"
     transform="translate(4,1851)" />
  <text
     x="538.15601"
     y="817.01001"
     font-size="14.00"
     id="text4402"
     style="font-size:14px;text-anchor:middle;font-family:Karla;font-weight:bold;-inkscape-font-specification:Karla Bold">1956</text>
  <text
     x="538.15601"
     y="832.01001"
     font-size="14.00"
     id="text4404"
     style="font-size:14px;text-anchor:middle;font-family:Karla;font-weight:bold;-inkscape-font-specification:Karla Bold">A Scarcity of Love</text>
  <path
     d="M 786.369,982.813 C 729.765,945.868 638.958,886.599 584.284,850.91"
     id="path4409"
     inkscape:connector-curvature="0"
     style="fill:none;stroke:#000000;stroke-width:2" />
  <polygon
     points="578.291,-997.207 571.83,-1005.6 582.117,-1003.07 578.291,-997.207 "
     id="polygon4411"
     style="fill:#000000;stroke:#000000;stroke-width:2"
     transform="translate(4,1851)" />
  <ellipse
     cx="1081.72"
     cy="-593.28998"
     rx="67.764702"
     ry="26.7407"
     id="ellipse4416"
     d="m 1149.4847,-593.28998 c 0,14.76848 -30.3393,26.7407 -67.7647,26.7407 -37.4254,0 -67.7647,-11.97222 -67.7647,-26.7407 0,-14.76848 30.3393,-26.7407 67.7647,-26.7407 37.4254,0 67.7647,11.97222 67.7647,26.7407 z"
     sodipodi:cx="1081.72"
     sodipodi:cy="-593.28998"
     sodipodi:rx="67.764702"
     sodipodi:ry="26.7407"
     style="fill:#e7ffed;stroke:#000000;stroke-width:2"
     transform="translate(4,1851)" />
  <text
     x="1085.72"
     y="1253.9099"
     font-size="14.00"
     id="text4418"
     style="font-size:14px;text-anchor:middle;font-family:Karla;font-weight:bold;-inkscape-font-specification:Karla Bold">1957</text>
  <text
     x="1085.72"
     y="1268.9099"
     font-size="14.00"
     id="text4420"
     style="font-size:14px;text-anchor:middle;font-family:Karla;font-weight:bold;-inkscape-font-specification:Karla Bold">Eagle's Nest</text>
  <path
     d="m 871.128,1049.023 c 47.849,46.532 134.402,130.704 181.652,176.647"
     id="path4425"
     inkscape:connector-curvature="0"
     style="fill:none;stroke:#000000;stroke-width:2;stroke-dasharray:1, 5" />
  <polygon
     points="1051.28,-627.777 1056.01,-618.296 1046.4,-622.758 1051.28,-627.777 "
     id="polygon4427"
     style="fill:#000000;stroke:#000000;stroke-width:2"
     transform="translate(4,1851)" />
  <ellipse
     cx="1456.9399"
     cy="-808.22998"
     rx="103.476"
     ry="26.7407"
     id="ellipse4432"
     d="m 1560.4159,-808.22998 c 0,14.76848 -46.3277,26.7407 -103.476,26.7407 -57.1482,0 -103.476,-11.97222 -103.476,-26.7407 0,-14.76848 46.3278,-26.7407 103.476,-26.7407 57.1483,0 103.476,11.97222 103.476,26.7407 z"
     sodipodi:cx="1456.9399"
     sodipodi:cy="-808.22998"
     sodipodi:rx="103.476"
     sodipodi:ry="26.7407"
     style="fill:#e7ffed;stroke:#000000;stroke-width:2"
     transform="translate(4,1851)" />
  <text
     x="1460.9399"
     y="1038.97"
     font-size="14.00"
     id="text4434"
     style="font-size:14px;text-anchor:middle;font-family:Karla;font-weight:bold;-inkscape-font-specification:Karla Bold">1958</text>
  <text
     x="1460.9399"
     y="1053.97"
     font-size="14.00"
     id="text4436"
     style="font-size:14px;text-anchor:middle;font-family:Karla;font-weight:bold;-inkscape-font-specification:Karla Bold">A Bright Green Field</text>
  <path
     d="m 894.65,1018.388 c 103.043,4.437 320.67,13.807 454.11,19.552"
     id="path4441"
     inkscape:connector-curvature="0"
     style="fill:none;stroke:#000000;stroke-width:2" />
  <polygon
     points="1345.17,-816.545 1355.01,-812.618 1344.87,-809.552 1345.17,-816.545 "
     id="polygon4443"
     style="fill:#000000;stroke:#000000;stroke-width:2"
     transform="translate(4,1851)" />
  <ellipse
     cx="961.44299"
     cy="-334.854"
     rx="73.578201"
     ry="26.7407"
     id="ellipse4448"
     d="m 1035.0212,-334.854 c 0,14.76848 -32.9421,26.7407 -73.57821,26.7407 -40.63612,0 -73.5782,-11.97222 -73.5782,-26.7407 0,-14.76848 32.94208,-26.7407 73.5782,-26.7407 40.63611,0 73.57821,11.97222 73.57821,26.7407 z"
     sodipodi:cx="961.44299"
     sodipodi:cy="-334.854"
     sodipodi:rx="73.578201"
     sodipodi:ry="26.7407"
     style="fill:#e7ffed;stroke:#000000;stroke-width:2"
     transform="translate(4,1851)" />
  <text
     x="965.44299"
     y="1512.3459"
     font-size="14.00"
     id="text4450"
     style="font-size:14px;text-anchor:middle;font-family:Karla;font-weight:bold;-inkscape-font-specification:Karla Bold">1963</text>
  <text
     x="965.44299"
     y="1527.3459"
     font-size="14.00"
     id="text4452"
     style="font-size:14px;text-anchor:middle;font-family:Karla;font-weight:bold;-inkscape-font-specification:Karla Bold">Who Are You?</text>
  <path
     d="m 845.598,1049.118 c 23.02,89.706 86.334,336.436 110.397,430.208"
     id="path4457"
     inkscape:connector-curvature="0"
     style="fill:none;stroke:#000000;stroke-width:2" />
  <polygon
     points="955.436,-372.346 954.531,-361.79 948.655,-370.606 955.436,-372.346 "
     id="polygon4459"
     style="fill:#000000;stroke:#000000;stroke-width:2"
     transform="translate(4,1851)" />
  <ellipse
     cx="1061.9"
     cy="-1123.84"
     rx="31.2258"
     ry="26.7407"
     id="ellipse4464"
     d="m 1093.1258,-1123.84 c 0,14.7685 -13.9802,26.7407 -31.2258,26.7407 -17.2455,0 -31.2258,-11.9722 -31.2258,-26.7407 0,-14.7684 13.9803,-26.7407 31.2258,-26.7407 17.2456,0 31.2258,11.9723 31.2258,26.7407 z"
     sodipodi:cx="1061.9"
     sodipodi:cy="-1123.84"
     sodipodi:rx="31.2258"
     sodipodi:ry="26.7407"
     style="fill:#e7ffed;stroke:#000000;stroke-width:2"
     transform="translate(4,1851)" />
  <text
     x="1065.9"
     y="723.35999"
     font-size="14.00"
     id="text4466"
     style="font-size:14px;text-anchor:middle;font-family:Karla;font-weight:bold;-inkscape-font-specification:Karla Bold">1967</text>
  <text
     x="1065.9"
     y="738.35999"
     font-size="14.00"
     id="text4468"
     style="font-size:14px;text-anchor:middle;font-family:Karla;font-weight:bold;-inkscape-font-specification:Karla Bold">Ice</text>
  <path
     d="M 863.325,982.786 C 908.1,926.285 998.584,812.1 1041.83,757.54"
     id="path4473"
     inkscape:connector-curvature="0"
     style="fill:none;stroke:#000000;stroke-width:2" />
  <polygon
     points="1035.15,-1095.72 1044.1,-1101.38 1040.63,-1091.37 1035.15,-1095.72 "
     id="polygon4475"
     style="fill:#000000;stroke:#000000;stroke-width:2"
     transform="translate(4,1851)" />
  <ellipse
     cx="882.63"
     cy="-1406.71"
     rx="113.689"
     ry="26.7407"
     id="ellipse4480"
     d="m 996.31901,-1406.71 c 0,14.7685 -50.9003,26.7407 -113.68901,26.7407 -62.7887,0 -113.689,-11.9722 -113.689,-26.7407 0,-14.7684 50.9003,-26.7407 113.689,-26.7407 62.78871,0 113.68901,11.9723 113.68901,26.7407 z"
     sodipodi:cx="882.63"
     sodipodi:cy="-1406.71"
     sodipodi:rx="113.689"
     sodipodi:ry="26.7407"
     style="fill:#e7ffed;stroke:#000000;stroke-width:2"
     transform="translate(4,1851)" />
  <text
     x="886.63"
     y="440.48999"
     font-size="14.00"
     id="text4482"
     style="font-size:14px;text-anchor:middle;font-family:Karla;font-weight:bold;-inkscape-font-specification:Karla Bold">1970</text>
  <text
     x="886.63"
     y="455.48999"
     font-size="14.00"
     id="text4484"
     style="font-size:14px;text-anchor:middle;font-family:Karla;font-weight:bold;-inkscape-font-specification:Karla Bold">Julia and her Bazooka</text>
  <path
     d="M 839.955,982.706 C 848.602,882.958 874.311,586.39 883.401,481.53"
     id="path4489"
     inkscape:connector-curvature="0"
     style="fill:none;stroke:#000000;stroke-width:2;stroke-dasharray:1, 5" />
  <polygon
     points="875.927,-1369.92 880.278,-1379.58 882.901,-1369.31 875.927,-1369.92 "
     id="polygon4491"
     style="fill:#000000;stroke:#000000;stroke-width:2"
     transform="translate(4,1851)" />
  <ellipse
     cx="700.89301"
     cy="-1530.71"
     rx="89.605598"
     ry="26.7407"
     id="ellipse4496"
     d="m 790.4986,-1530.71 c 0,14.7685 -40.11779,26.7407 -89.60559,26.7407 -49.48781,0 -89.6056,-11.9722 -89.6056,-26.7407 0,-14.7684 40.11779,-26.7407 89.6056,-26.7407 49.4878,0 89.60559,11.9723 89.60559,26.7407 z"
     sodipodi:cx="700.89301"
     sodipodi:cy="-1530.71"
     sodipodi:rx="89.605598"
     sodipodi:ry="26.7407"
     style="fill:#e7ffed;stroke:#000000;stroke-width:2"
     transform="translate(4,1851)" />
  <text
     x="704.89301"
     y="316.48999"
     font-size="14.00"
     id="text4498"
     style="font-size:14px;text-anchor:middle;font-family:Karla;font-weight:bold;-inkscape-font-specification:Karla Bold">1975</text>
  <text
     x="704.89301"
     y="331.48999"
     font-size="14.00"
     id="text4500"
     style="font-size:14px;text-anchor:middle;font-family:Karla;font-weight:bold;-inkscape-font-specification:Karla Bold">My Soul in China</text>
  <path
     d="M 830.79,982.826 C 808.754,866.863 735.101,479.26 711.932,357.33"
     id="path4505"
     inkscape:connector-curvature="0"
     style="fill:none;stroke:#000000;stroke-width:2" />
  <polygon
     points="704.466,-1493.16 706.038,-1503.64 711.343,-1494.47 704.466,-1493.16 "
     id="polygon4507"
     style="fill:#000000;stroke:#000000;stroke-width:2"
     transform="translate(4,1851)" />
  <ellipse
     cx="1297.17"
     cy="-1169.74"
     rx="49.4949"
     ry="26.7407"
     id="ellipse4512"
     d="m 1346.6649,-1169.74 c 0,14.7685 -22.1596,26.7407 -49.4949,26.7407 -27.3352,0 -49.4949,-11.9722 -49.4949,-26.7407 0,-14.7685 22.1597,-26.7407 49.4949,-26.7407 27.3353,0 49.4949,11.9722 49.4949,26.7407 z"
     sodipodi:cx="1297.17"
     sodipodi:cy="-1169.74"
     sodipodi:rx="49.4949"
     sodipodi:ry="26.7407"
     style="fill:#e7ffed;stroke:#000000;stroke-width:2"
     transform="translate(4,1851)" />
  <text
     x="1301.17"
     y="677.45996"
     font-size="14.00"
     id="text4514"
     style="font-size:14px;text-anchor:middle;font-family:Karla;font-weight:bold;-inkscape-font-specification:Karla Bold">1994</text>
  <text
     x="1301.17"
     y="692.45996"
     font-size="14.00"
     id="text4516"
     style="font-size:14px;text-anchor:middle;font-family:Karla;font-weight:bold;-inkscape-font-specification:Karla Bold">Mercury</text>
  <path
     d="M 882.845,982.906 C 974.264,916.986 1177.95,770.11 1262.86,708.89"
     id="path4521"
     inkscape:connector-curvature="0"
     style="fill:none;stroke:#000000;stroke-width:2" />
  <polygon
     points="1257.02,-1145.1 1267.18,-1148.11 1261.11,-1139.42 1257.02,-1145.1 "
     id="polygon4523"
     style="fill:#000000;stroke:#000000;stroke-width:2"
     transform="translate(4,1851)" />
  <ellipse
     cx="850.31299"
     cy="-568.18701"
     rx="62.865101"
     ry="26.7407"
     id="ellipse4528"
     d="m 913.17809,-568.18701 c 0,14.76848 -28.14567,26.7407 -62.8651,26.7407 -34.71944,0 -62.8651,-11.97222 -62.8651,-26.7407 0,-14.76848 28.14566,-26.7407 62.8651,-26.7407 34.71943,0 62.8651,11.97222 62.8651,26.7407 z"
     sodipodi:cx="850.31299"
     sodipodi:cy="-568.18701"
     sodipodi:rx="62.865101"
     sodipodi:ry="26.7407"
     style="fill:#e7ffed;stroke:#000000;stroke-width:2"
     transform="translate(4,1851)" />
  <text
     x="854.31299"
     y="1279.0129"
     font-size="14.00"
     id="text4530"
     style="font-size:14px;text-anchor:middle;font-family:Karla;font-weight:bold;-inkscape-font-specification:Karla Bold">1995</text>
  <text
     x="854.31299"
     y="1294.0129"
     font-size="14.00"
     id="text4532"
     style="font-size:14px;text-anchor:middle;font-family:Karla;font-weight:bold;-inkscape-font-specification:Karla Bold">The parson</text>
  <path
     d="m 839.224,1049.173 c 3.226,49.941 9.3,143.996 12.674,196.249"
     id="path4537"
     inkscape:connector-curvature="0"
     style="fill:none;stroke:#000000;stroke-width:2" />
  <polygon
     points="851.404,-605.606 848.555,-595.401 844.418,-605.155 851.404,-605.606 "
     id="polygon4539"
     style="fill:#000000;stroke:#000000;stroke-width:2"
     transform="translate(4,1851)" />
  <ellipse
     cx="1137.41"
     cy="-913.828"
     rx="38.782101"
     ry="26.7407"
     id="ellipse4544"
     d="m 1176.1921,-913.828 c 0,14.76848 -17.3633,26.7407 -38.7821,26.7407 -21.4187,0 -38.7821,-11.97222 -38.7821,-26.7407 0,-14.76848 17.3634,-26.7407 38.7821,-26.7407 21.4188,0 38.7821,11.97222 38.7821,26.7407 z"
     sodipodi:cx="1137.41"
     sodipodi:cy="-913.828"
     sodipodi:rx="38.782101"
     sodipodi:ry="26.7407"
     style="fill:#e7ffed;stroke:#000000;stroke-width:2"
     transform="translate(4,1851)" />
  <text
     x="1141.41"
     y="933.37201"
     font-size="14.00"
     id="text4546"
     style="font-size:14px;text-anchor:middle;font-family:Karla;font-weight:bold;-inkscape-font-specification:Karla Bold">2007</text>
  <text
     x="1141.41"
     y="948.37201"
     font-size="14.00"
     id="text4548"
     style="font-size:14px;text-anchor:middle;font-family:Karla;font-weight:bold;-inkscape-font-specification:Karla Bold">Guilty</text>
  <path
     d="m 894.677,1001.007 c 57.957,-14.995 146.233,-37.835 199.993,-51.743"
     id="path4553"
     inkscape:connector-curvature="0"
     style="fill:none;stroke:#000000;stroke-width:2;stroke-dasharray:1, 5" />
  <polygon
     points="1090.06,-905.193 1100.62,-904.309 1091.81,-898.416 1090.06,-905.193 "
     id="polygon4555"
     style="fill:#000000;stroke:#000000;stroke-width:2"
     transform="translate(4,1851)" />
  <ellipse
     cx="608.12201"
     cy="-1264.75"
     rx="137.358"
     ry="48.166698"
     id="ellipse4560"
     d="m 745.48001,-1264.75 c 0,26.6017 -61.49727,48.1667 -137.358,48.1667 -75.86073,0 -137.358,-21.565 -137.358,-48.1667 0,-26.6017 61.49727,-48.1667 137.358,-48.1667 75.86073,0 137.358,21.565 137.358,48.1667 z"
     sodipodi:cx="608.12201"
     sodipodi:cy="-1264.75"
     sodipodi:rx="137.358"
     sodipodi:ry="48.166698"
     style="fill:#ffffff;stroke:#000000;stroke-width:2"
     transform="translate(4,1851)" />
  <text
     x="612.12201"
     y="567.44995"
     font-size="14.00"
     id="text4562"
     style="font-size:14px;text-anchor:middle;font-family:Karla;font-weight:bold;-inkscape-font-specification:Karla Bold">1938</text>
  <text
     x="612.12201"
     y="582.44995"
     font-size="14.00"
     id="text4564"
     style="font-size:14px;text-anchor:middle;font-family:Karla;font-weight:bold;-inkscape-font-specification:Karla Bold">Second marriage dissolves</text>
  <text
     x="612.12201"
     y="597.44995"
     font-size="14.00"
     id="text4566"
     style="font-size:14px;text-anchor:middle;font-family:Karla;font-weight:bold;-inkscape-font-specification:Karla Bold">Kavan attempts suicide</text>
  <text
     x="612.12201"
     y="612.44995"
     font-size="14.00"
     id="text4568"
     style="font-size:14px;text-anchor:middle;font-family:Karla;font-weight:bold;-inkscape-font-specification:Karla Bold">admitted to sanatorium</text>
  <path
     d="m 718.049,666.47 c -12.177,-9.23 -26.284,-19.91 -40.153,-30.41"
     id="path4573"
     inkscape:connector-curvature="0"
     style="fill:none;stroke:#000000;stroke-width:2" />
  <polygon
     points="671.633,-1212.26 665.774,-1221.09 675.859,-1217.84 671.633,-1212.26 "
     id="polygon4575"
     style="fill:#000000;stroke:#000000;stroke-width:2"
     transform="translate(4,1851)" />
  <ellipse
     cx="854.81201"
     cy="-1603.0699"
     rx="142.257"
     ry="37.4533"
     id="ellipse4580"
     d="m 997.06902,-1603.0699 c 0,20.6848 -63.69063,37.4533 -142.25701,37.4533 -78.56637,0 -142.257,-16.7685 -142.257,-37.4533 0,-20.6849 63.69063,-37.4533 142.257,-37.4533 78.56638,0 142.25701,16.7684 142.25701,37.4533 z"
     sodipodi:cx="854.81201"
     sodipodi:cy="-1603.0699"
     sodipodi:rx="142.257"
     sodipodi:ry="37.4533"
     style="fill:#ffffff;stroke:#000000;stroke-width:2"
     transform="translate(4,1851)" />
  <text
     x="858.81201"
     y="236.63"
     font-size="14.00"
     id="text4582"
     style="font-size:14px;text-anchor:middle;font-family:Karla;font-weight:bold;-inkscape-font-specification:Karla Bold">1936</text>
  <text
     x="858.81201"
     y="251.63"
     font-size="14.00"
     id="text4584"
     style="font-size:14px;text-anchor:middle;font-family:Karla;font-weight:bold;-inkscape-font-specification:Karla Bold">Treatment of drug addiction</text>
  <text
     x="858.81201"
     y="266.63"
     font-size="14.00"
     id="text4586"
     style="font-size:14px;text-anchor:middle;font-family:Karla;font-weight:bold;-inkscape-font-specification:Karla Bold">at sanatorium Bellevue</text>
  <path
     d="m 759.302,665.64 c 17.522,-73.55 66.061,-277.3 88.219,-370.31"
     id="path4591"
     inkscape:connector-curvature="0"
     style="fill:none;stroke:#000000;stroke-width:2" />
  <polygon
     points="840.176,-1556.73 845.898,-1565.65 846.985,-1555.11 840.176,-1556.73 "
     id="polygon4593"
     style="fill:#000000;stroke:#000000;stroke-width:2"
     transform="translate(4,1851)" />
  <ellipse
     cx="643.33502"
     cy="-168.327"
     rx="127.059"
     ry="37.4533"
     id="ellipse4598"
     d="m 770.39402,-168.327 c 0,20.68489 -56.88625,37.4533 -127.059,37.4533 -70.17275,0 -127.059,-16.76841 -127.059,-37.4533 0,-20.68488 56.88625,-37.4533 127.059,-37.4533 70.17275,0 127.059,16.76842 127.059,37.4533 z"
     sodipodi:cx="643.33502"
     sodipodi:cy="-168.327"
     sodipodi:rx="127.059"
     sodipodi:ry="37.4533"
     style="fill:#ffffff;stroke:#000000;stroke-width:2"
     transform="translate(4,1851)" />
  <text
     x="647.33502"
     y="1671.373"
     font-size="14.00"
     id="text4600"
     style="font-size:14px;text-anchor:middle;font-family:Karla;font-weight:bold;-inkscape-font-specification:Karla Bold">1919</text>
  <text
     x="647.33502"
     y="1686.373"
     font-size="14.00"
     id="text4602"
     style="font-size:14px;text-anchor:middle;font-family:Karla;font-weight:bold;-inkscape-font-specification:Karla Bold">Marries Donald Ferguson</text>
  <text
     x="647.33502"
     y="1701.373"
     font-size="14.00"
     id="text4604"
     style="font-size:14px;text-anchor:middle;font-family:Karla;font-weight:bold;-inkscape-font-specification:Karla Bold">Couple moves to Burma</text>
  <path
     d="m 528.923,1462.198 c 22.464,41.827 65.999,122.886 93.562,174.205"
     id="path4609"
     inkscape:connector-curvature="0"
     style="fill:none;stroke:#000000;stroke-width:2" />
  <polygon
     points="621.62,-216.155 623.269,-205.69 615.454,-212.843 621.62,-216.155 "
     id="polygon4611"
     style="fill:#000000;stroke:#000000;stroke-width:2"
     transform="translate(4,1851)" />
  <ellipse
     cx="292.83401"
     cy="-241.52699"
     rx="154.713"
     ry="37.4533"
     id="ellipse4616"
     d="m 447.54701,-241.52699 c 0,20.68488 -69.26737,37.4533 -154.713,37.4533 -85.44562,0 -154.71299,-16.76842 -154.71299,-37.4533 0,-20.68489 69.26737,-37.4533 154.71299,-37.4533 85.44563,0 154.713,16.76841 154.713,37.4533 z"
     sodipodi:cx="292.83401"
     sodipodi:cy="-241.52699"
     sodipodi:rx="154.713"
     sodipodi:ry="37.4533"
     style="fill:#ffffff;stroke:#000000;stroke-width:2"
     transform="translate(4,1851)" />
  <text
     x="296.83401"
     y="1598.173"
     font-size="14.00"
     id="text4618"
     style="font-size:14px;text-anchor:middle;font-family:Karla;font-weight:bold;-inkscape-font-specification:Karla Bold">1925</text>
  <text
     x="296.83401"
     y="1613.173"
     font-size="14.00"
     id="text4620"
     style="font-size:14px;text-anchor:middle;font-family:Karla;font-weight:bold;-inkscape-font-specification:Karla Bold">Leaving her husband in Burma</text>
  <text
     x="296.83401"
     y="1628.173"
     font-size="14.00"
     id="text4622"
     style="font-size:14px;text-anchor:middle;font-family:Karla;font-weight:bold;-inkscape-font-specification:Karla Bold">Kavan returns to London</text>
  <path
     d="m 482.339,1460.956 c -34.876,27.922 -91.142,72.97 -132.574,106.14"
     id="path4627"
     inkscape:connector-curvature="0"
     style="fill:none;stroke:#000000;stroke-width:2" />
  <polygon
     points="347.943,-281.164 337.949,-277.646 343.568,-286.628 347.943,-281.164 "
     id="polygon4629"
     style="fill:#000000;stroke:#000000;stroke-width:2"
     transform="translate(4,1851)" />
  <ellipse
     cx="1322.13"
     cy="-47.681999"
     rx="126.644"
     ry="48.166698"
     id="ellipse4634"
     d="m 1448.774,-47.681999 c 0,26.601733 -56.7004,48.16669825 -126.644,48.16669825 -69.9435,0 -126.644,-21.56496525 -126.644,-48.16669825 0,-26.601733 56.7005,-48.166699 126.644,-48.166699 69.9436,0 126.644,21.564966 126.644,48.166699 z"
     sodipodi:cx="1322.13"
     sodipodi:cy="-47.681999"
     sodipodi:rx="126.644"
     sodipodi:ry="48.166698"
     style="fill:#ffffff;stroke:#000000;stroke-width:2"
     transform="translate(4,1851)" />
  <text
     x="1326.13"
     y="1784.5179"
     font-size="14.00"
     id="text4636"
     style="font-size:14px;text-anchor:middle;font-family:Karla;font-weight:bold;-inkscape-font-specification:Karla Bold">1943</text>
  <text
     x="1326.13"
     y="1799.5179"
     font-size="14.00"
     id="text4638"
     style="font-size:14px;text-anchor:middle;font-family:Karla;font-weight:bold;-inkscape-font-specification:Karla Bold">Work at Mill Hill Hospital</text>
  <text
     x="1326.13"
     y="1814.5179"
     font-size="14.00"
     id="text4640"
     style="font-size:14px;text-anchor:middle;font-family:Karla;font-weight:bold;-inkscape-font-specification:Karla Bold">Work for Horizon review</text>
  <text
     x="1326.13"
     y="1829.5179"
     font-size="14.00"
     id="text4642"
     style="font-size:14px;text-anchor:middle;font-family:Karla;font-weight:bold;-inkscape-font-specification:Karla Bold">back to London</text>
  <path
     d="m 1277.53,1422.137 c 8.35,65.51 29.78,233.625 41.19,323.111"
     id="path4647"
     inkscape:connector-curvature="0"
     style="fill:none;stroke:#000000;stroke-width:2" />
  <polygon
     points="1318.2,-106.129 1316,-95.7669 1311.26,-105.244 1318.2,-106.129 "
     id="polygon4649"
     style="fill:#000000;stroke:#000000;stroke-width:2"
     transform="translate(4,1851)" />
  <ellipse
     cx="162.79401"
     cy="-1076.4"
     rx="123.073"
     ry="26.7407"
     id="ellipse4654"
     d="m 285.867,-1076.4 c 0,14.7685 -55.10165,26.7407 -123.07299,26.7407 -67.971344,0 -123.073002,-11.9722 -123.073002,-26.7407 0,-14.7685 55.101658,-26.7407 123.073002,-26.7407 67.97134,0 123.07299,11.9722 123.07299,26.7407 z"
     sodipodi:cx="162.79401"
     sodipodi:cy="-1076.4"
     sodipodi:rx="123.073"
     sodipodi:ry="26.7407"
     style="fill:#ffffff;stroke:#000000;stroke-width:2"
     transform="translate(4,1851)" />
  <text
     x="166.79401"
     y="770.80005"
     font-size="14.00"
     id="text4656"
     style="font-size:14px;text-anchor:middle;font-family:Karla;font-weight:bold;-inkscape-font-specification:Karla Bold">1947,48,49</text>
  <text
     x="166.79401"
     y="785.80005"
     font-size="14.00"
     id="text4658"
     style="font-size:14px;text-anchor:middle;font-family:Karla;font-weight:bold;-inkscape-font-specification:Karla Bold">Kavan visits her mother</text>
  <path
     d="M 372.459,973.766 C 330.075,932.721 248.245,853.475 201.596,808.3"
     id="path4663"
     inkscape:connector-curvature="0"
     style="fill:none;stroke:#000000;stroke-width:2" />
  <polygon
     points="194.894,-1040.45 190.145,-1049.92 199.764,-1045.47 194.894,-1040.45 "
     id="polygon4665"
     style="fill:#000000;stroke:#000000;stroke-width:2"
     transform="translate(4,1851)" />
  <ellipse
     cx="141.979"
     cy="-610.771"
     rx="142.257"
     ry="37.4533"
     id="ellipse4670"
     d="m 284.23601,-610.771 c 0,20.68489 -63.69063,37.4533 -142.25701,37.4533 -78.56637,0 -142.25699988,-16.76841 -142.25699988,-37.4533 0,-20.68488 63.69062988,-37.4533 142.25699988,-37.4533 78.56638,0 142.25701,16.76842 142.25701,37.4533 z"
     sodipodi:cx="141.979"
     sodipodi:cy="-610.771"
     sodipodi:rx="142.257"
     sodipodi:ry="37.4533"
     style="fill:#ffffff;stroke:#000000;stroke-width:2"
     transform="translate(4,1851)" />
  <text
     x="145.979"
     y="1228.929"
     font-size="14.00"
     id="text4672"
     style="font-size:14px;text-anchor:middle;font-family:Karla;font-weight:bold;-inkscape-font-specification:Karla Bold">1947,48</text>
  <text
     x="145.979"
     y="1243.929"
     font-size="14.00"
     id="text4674"
     style="font-size:14px;text-anchor:middle;font-family:Karla;font-weight:bold;-inkscape-font-specification:Karla Bold">Treatment of drug addiction</text>
  <text
     x="145.979"
     y="1258.929"
     font-size="14.00"
     id="text4676"
     style="font-size:14px;text-anchor:middle;font-family:Karla;font-weight:bold;-inkscape-font-specification:Karla Bold">at sanatorium Bellevue</text>
  <path
     d="m 371.996,1026.231 c -43.322,41.018 -127.7,120.909 -180.208,170.625"
     id="path4681"
     inkscape:connector-curvature="0"
     style="fill:none;stroke:#000000;stroke-width:2" />
  <polygon
     points="189.948,-651.37 180.28,-647.036 185.135,-656.453 189.948,-651.37 "
     id="polygon4683"
     style="fill:#000000;stroke:#000000;stroke-width:2"
     transform="translate(4,1851)" />
  <path
     d="m 564.389,1088.104 c -80.085,29.117 -228.623,83.122 -325.458,118.329"
     id="path4688"
     inkscape:connector-curvature="0"
     style="fill:none;stroke:#000000;stroke-width:2" />
  <polygon
     points="236.027,-641.241 225.433,-641.114 233.635,-647.82 236.027,-641.241 "
     id="polygon4690"
     style="fill:#000000;stroke:#000000;stroke-width:2"
     transform="translate(4,1851)" />
  <path
     d="M 452.025,810.09 C 402.001,803.86 338.29,795.94 283.776,789.15"
     id="path4695"
     inkscape:connector-curvature="0"
     style="fill:none;stroke:#000000;stroke-width:2" />
  <polygon
     points="279.201,-1058.39 269.71,-1063.1 280.065,-1065.34 279.201,-1058.39 "
     id="polygon4697"
     style="fill:#000000;stroke:#000000;stroke-width:2"
     transform="translate(4,1851)" />
  <ellipse
     cx="1696.25"
     cy="-934.43402"
     rx="132.45799"
     ry="37.4533"
     id="ellipse4702"
     d="m 1828.708,-934.43402 c 0,20.68489 -59.3035,37.4533 -132.458,37.4533 -73.1545,0 -132.458,-16.76841 -132.458,-37.4533 0,-20.68489 59.3035,-37.4533 132.458,-37.4533 73.1545,0 132.458,16.76841 132.458,37.4533 z"
     sodipodi:cx="1696.25"
     sodipodi:cy="-934.43402"
     sodipodi:rx="132.45799"
     sodipodi:ry="37.4533"
     style="fill:#ffffff;stroke:#000000;stroke-width:2"
     transform="translate(4,1851)" />
  <text
     x="1700.25"
     y="905.26599"
     font-size="14.00"
     id="text4704"
     style="font-size:14px;text-anchor:middle;font-family:Karla;font-weight:bold;-inkscape-font-specification:Karla Bold">1939,40,43</text>
  <text
     x="1700.25"
     y="920.26599"
     font-size="14.00"
     id="text4706"
     style="font-size:14px;text-anchor:middle;font-family:Karla;font-weight:bold;-inkscape-font-specification:Karla Bold">Kavan stopped by 3 times</text>
  <text
     x="1700.25"
     y="935.26599"
     font-size="14.00"
     id="text4708"
     style="font-size:14px;text-anchor:middle;font-family:Karla;font-weight:bold;-inkscape-font-specification:Karla Bold">in New-York</text>
  <path
     d="m 1506.8,1018.586 c 34.3,-18.089 81.88,-43.179 121.26,-63.95"
     id="path4713"
     inkscape:connector-curvature="0"
     style="fill:none;stroke:#000000;stroke-width:2" />
  <polygon
     points="1622.89,-899.701 1633.37,-901.27 1626.15,-893.509 1622.89,-899.701 "
     id="polygon4715"
     style="fill:#000000;stroke:#000000;stroke-width:2"
     transform="translate(4,1851)" />
  <path
     d="m 923.201,1538.259 c -52.111,27.28 -141.505,74.077 -204.378,106.99"
     id="path4720"
     inkscape:connector-curvature="0"
     style="fill:none;stroke:#000000;stroke-width:2" />
  <polygon
     points="716.229,-202.536 705.746,-200.999 712.983,-208.738 716.229,-202.536 "
     id="polygon4722"
     style="fill:#000000;stroke:#000000;stroke-width:2"
     transform="translate(4,1851)" />
  <ellipse
     cx="1233.8"
     cy="-1373.4301"
     rx="88.276802"
     ry="37.4533"
     id="ellipse4727"
     d="m 1322.0769,-1373.4301 c 0,20.6849 -39.5229,37.4533 -88.2769,37.4533 -48.7539,0 -88.2768,-16.7684 -88.2768,-37.4533 0,-20.6848 39.5229,-37.4533 88.2768,-37.4533 48.754,0 88.2769,16.7685 88.2769,37.4533 z"
     sodipodi:cx="1233.8"
     sodipodi:cy="-1373.4301"
     sodipodi:rx="88.276802"
     sodipodi:ry="37.4533"
     style="fill:#ffffff;stroke:#000000;stroke-width:2"
     transform="translate(4,1851)" />
  <text
     x="1237.8"
     y="466.27002"
     font-size="14.00"
     id="text4729"
     style="font-size:14px;text-anchor:middle;font-family:Karla;font-weight:bold;-inkscape-font-specification:Karla Bold">1941–42</text>
  <text
     x="1237.8"
     y="481.27002"
     font-size="14.00"
     id="text4731"
     style="font-size:14px;text-anchor:middle;font-family:Karla;font-weight:bold;-inkscape-font-specification:Karla Bold">Kavan spent</text>
  <text
     x="1237.8"
     y="496.27002"
     font-size="14.00"
     id="text4733"
     style="font-size:14px;text-anchor:middle;font-family:Karla;font-weight:bold;-inkscape-font-specification:Karla Bold">22 months in NZ</text>
  <path
     d="m 1082.07,703.68 c 28.5,-41.38 88.12,-127.95 124.76,-181.15"
     id="path4738"
     inkscape:connector-curvature="0"
     style="fill:none;stroke:#000000;stroke-width:2" />
  <polygon
     points="1200.17,-1330.78 1208.73,-1337.03 1205.94,-1326.81 1200.17,-1330.78 "
     id="polygon4740"
     style="fill:#000000;stroke:#000000;stroke-width:2"
     transform="translate(4,1851)" />
  <ellipse
     cx="1167.48"
     cy="-1768.1899"
     rx="152.056"
     ry="37.4533"
     id="ellipse4745"
     d="m 1319.536,-1768.1899 c 0,20.6848 -68.0778,37.4533 -152.056,37.4533 -83.9782,0 -152.056,-16.7685 -152.056,-37.4533 0,-20.6849 68.0778,-37.4533 152.056,-37.4533 83.9782,0 152.056,16.7684 152.056,37.4533 z"
     sodipodi:cx="1167.48"
     sodipodi:cy="-1768.1899"
     sodipodi:rx="152.056"
     sodipodi:ry="37.4533"
     style="fill:#ffffff;stroke:#000000;stroke-width:2"
     transform="translate(4,1851)" />
  <text
     x="1171.48"
     y="71.51001"
     font-size="14.00"
     id="text4747"
     style="font-size:14px;text-anchor:middle;font-family:Karla;font-weight:bold;-inkscape-font-specification:Karla Bold">1915–18</text>
  <text
     x="1171.48"
     y="86.51001"
     font-size="14.00"
     id="text4749"
     style="font-size:14px;text-anchor:middle;font-family:Karla;font-weight:bold;-inkscape-font-specification:Karla Bold">Kavan sent to boarding school</text>
  <text
     x="1171.48"
     y="101.51001"
     font-size="14.00"
     id="text4751"
     style="font-size:14px;text-anchor:middle;font-family:Karla;font-weight:bold;-inkscape-font-specification:Karla Bold">Back to London</text>
  <path
     d="M 907.575,417.71 C 955.983,356.28 1076.05,203.91 1136.1,127.7"
     id="path4756"
     inkscape:connector-curvature="0"
     style="fill:none;stroke:#000000;stroke-width:2" />
  <polygon
     points="1129.48,-1725.63 1138.42,-1731.32 1134.98,-1721.3 1129.48,-1725.63 "
     id="polygon4758"
     style="fill:#000000;stroke:#000000;stroke-width:2"
     transform="translate(4,1851)" />
  <ellipse
     cx="352.02802"
     cy="-1527.61"
     rx="118.174"
     ry="37.4533"
     id="ellipse4763"
     d="m 470.20202,-1527.61 c 0,20.6849 -52.9083,37.4533 -118.174,37.4533 -65.2657,0 -118.17401,-16.7684 -118.17401,-37.4533 0,-20.6849 52.90831,-37.4533 118.17401,-37.4533 65.2657,0 118.174,16.7684 118.174,37.4533 z"
     sodipodi:cx="352.02802"
     sodipodi:cy="-1527.61"
     sodipodi:rx="118.174"
     sodipodi:ry="37.4533"
     style="fill:#ffffff;stroke:#000000;stroke-width:2"
     transform="translate(4,1851)" />
  <text
     x="356.02802"
     y="312.08997"
     font-size="14.00"
     id="text4765"
     style="font-size:14px;text-anchor:middle;font-family:Karla;font-weight:bold;-inkscape-font-specification:Karla Bold">1925</text>
  <text
     x="356.02802"
     y="327.08997"
     font-size="14.00"
     id="text4767"
     style="font-size:14px;text-anchor:middle;font-family:Karla;font-weight:bold;-inkscape-font-specification:Karla Bold">Meets Stuart Edmonds</text>
  <text
     x="356.02802"
     y="342.08997"
     font-size="14.00"
     id="text4769"
     style="font-size:14px;text-anchor:middle;font-family:Karla;font-weight:bold;-inkscape-font-specification:Karla Bold">South of France</text>
  <path
     d="M 804.596,425.6 C 712.539,404.62 562.912,370.53 462.051,347.55"
     id="path4774"
     inkscape:connector-curvature="0"
     style="fill:none;stroke:#000000;stroke-width:2" />
  <polygon
     points="457.114,-1500.07 448.142,-1505.71 458.669,-1506.9 457.114,-1500.07 "
     id="polygon4776"
     style="fill:#000000;stroke:#000000;stroke-width:2"
     transform="translate(4,1851)" />
  <path
     d="m 839.127,468.86 c -38.779,20.05 -94.58,48.91 -141.153,72.99"
     id="path4781"
     inkscape:connector-curvature="0"
     style="fill:none;stroke:#000000;stroke-width:2" />
  <polygon
     points="695.582,-1306.04 685.092,-1304.55 692.366,-1312.25 695.582,-1306.04 "
     id="polygon4783"
     style="fill:#000000;stroke:#000000;stroke-width:2"
     transform="translate(4,1851)" />
  <path
     d="M 882.82,417.4 C 878.4,386.2 871.027,334.15 865.615,295.95"
     id="path4788"
     inkscape:connector-curvature="0"
     style="fill:none;stroke:#000000;stroke-width:2" />
  <polygon
     points="858.083,-1555.03 860.145,-1565.42 865.013,-1556.01 858.083,-1555.03 "
     id="polygon4790"
     style="fill:#000000;stroke:#000000;stroke-width:2"
     transform="translate(4,1851)" />
  <path
     d="m 992.467,454.32 c 47.323,4.48 102.703,9.73 148.873,14.11"
     id="path4795"
     inkscape:connector-curvature="0"
     style="fill:none;stroke:#000000;stroke-width:2" />
  <polygon
     points="1137.72,-1386.05 1147.34,-1381.62 1137.06,-1379.08 1137.72,-1386.05 "
     id="polygon4797"
     style="fill:#000000;stroke:#000000;stroke-width:2"
     transform="translate(4,1851)" />
  <path
     d="m 695.487,347.25 c -14.762,42.32 -43.703,125.3 -63.291,181.45"
     id="path4802"
     inkscape:connector-curvature="0"
     style="fill:none;stroke:#000000;stroke-width:2" />
  <polygon
     points="631.493,-1321.12 624.894,-1312.83 624.883,-1323.43 631.493,-1321.12 "
     id="polygon4804"
     style="fill:#000000;stroke:#000000;stroke-width:2"
     transform="translate(4,1851)" />
  <path
     d="m 753.172,297.59 c 8.53,-4.01 17.608,-8.28 26.723,-12.56"
     id="path4809"
     inkscape:connector-curvature="0"
     style="fill:none;stroke:#000000;stroke-width:2" />
  <polygon
     points="774.464,-1569.17 785.003,-1570.25 777.442,-1562.83 774.464,-1569.17 "
     id="polygon4811"
     style="fill:#000000;stroke:#000000;stroke-width:2"
     transform="translate(4,1851)" />
  <ellipse
     cx="564.50098"
     cy="-1809.6801"
     rx="103.476"
     ry="37.4533"
     id="ellipse4816"
     d="m 667.97697,-1809.6801 c 0,20.6849 -46.32778,37.4533 -103.47599,37.4533 -57.14822,0 -103.476,-16.7684 -103.476,-37.4533 0,-20.6848 46.32778,-37.4533 103.476,-37.4533 57.14821,0 103.47599,16.7685 103.47599,37.4533 z"
     sodipodi:cx="564.50098"
     sodipodi:cy="-1809.6801"
     sodipodi:rx="103.476"
     sodipodi:ry="37.4533"
     style="fill:#ffffff;stroke:#000000;stroke-width:2"
     transform="translate(4,1851)" />
  <text
     x="568.50098"
     y="30.02002"
     font-size="14.00"
     id="text4818"
     style="font-size:14px;text-anchor:middle;font-family:Karla;font-weight:bold;-inkscape-font-specification:Karla Bold">1940</text>
  <text
     x="568.50098"
     y="45.02002"
     font-size="14.00"
     id="text4820"
     style="font-size:14px;text-anchor:middle;font-family:Karla;font-weight:bold;-inkscape-font-specification:Karla Bold">Kavan stayed</text>
  <text
     x="568.50098"
     y="60.02002"
     font-size="14.00"
     id="text4822"
     style="font-size:14px;text-anchor:middle;font-family:Karla;font-weight:bold;-inkscape-font-specification:Karla Bold">6 months in Carmel</text>
  <path
     d="M 691.815,293.54 C 668.588,246.03 619.881,146.41 591.12,87.58"
     id="path4827"
     inkscape:connector-curvature="0"
     style="fill:none;stroke:#000000;stroke-width:2" />
  <polygon
     points="583.93,-1761.98 582.682,-1772.5 590.219,-1765.05 583.93,-1761.98 "
     id="polygon4829"
     style="fill:#000000;stroke:#000000;stroke-width:2"
     transform="translate(4,1851)" />
  <path
     d="m 1292.88,654.64 c -10.26,-32.98 -27.91,-89.73 -40.47,-130.09"
     id="path4834"
     inkscape:connector-curvature="0"
     style="fill:none;stroke:#000000;stroke-width:2" />
  <polygon
     points="1245.05,-1325.48 1245.42,-1336.07 1251.73,-1327.56 1245.05,-1325.48 "
     id="polygon4836"
     style="fill:#000000;stroke:#000000;stroke-width:2"
     transform="translate(4,1851)" />
  <path
     d="m 840.572,1309.358 c -34.593,66.83 -125.621,242.687 -169.251,326.975"
     id="path4841"
     inkscape:connector-curvature="0"
     style="fill:none;stroke:#000000;stroke-width:2" />
  <polygon
     points="670.325,-212.856 662.62,-205.584 664.109,-216.074 670.325,-212.856 "
     id="polygon4843"
     style="fill:#000000;stroke:#000000;stroke-width:2"
     transform="translate(4,1851)" />
</svg>
